G04*
G04 #@! TF.GenerationSoftware,Altium Limited,Altium Designer,20.0.9 (164)*
G04*
G04 Layer_Color=8421504*
%FSLAX25Y25*%
%MOIN*%
G70*
G01*
G75*
%ADD14R,0.04150X0.02200*%
%ADD15O,0.05709X0.02362*%
G36*
X144500Y84047D02*
Y83047D01*
X146900D01*
Y84047D01*
X144500D01*
D02*
G37*
G36*
Y86016D02*
Y85016D01*
X146900D01*
Y86016D01*
X144500D01*
D02*
G37*
G36*
X150547Y79400D02*
Y77000D01*
X151547D01*
Y79400D01*
X150547D01*
D02*
G37*
G36*
X152516D02*
Y77000D01*
X153516D01*
Y79400D01*
X152516D01*
D02*
G37*
G36*
X149306Y86106D02*
Y81806D01*
X153606D01*
Y86106D01*
X149306D01*
D02*
G37*
G36*
X153516Y93600D02*
X152516D01*
Y96000D01*
X153516D01*
Y93600D01*
D02*
G37*
G36*
X151547D02*
X150547D01*
Y96000D01*
X151547D01*
Y93600D01*
D02*
G37*
G36*
X146900Y88953D02*
X144500D01*
Y89953D01*
X146900D01*
Y88953D01*
D02*
G37*
G36*
Y86984D02*
X144500D01*
Y87984D01*
X146900D01*
Y86984D01*
D02*
G37*
G36*
X153606Y86893D02*
X149306D01*
Y91193D01*
X153606D01*
Y86893D01*
D02*
G37*
G36*
X154484Y79400D02*
Y77000D01*
X155484D01*
Y79400D01*
X154484D01*
D02*
G37*
G36*
X156453D02*
Y77000D01*
X157453D01*
Y79400D01*
X156453D01*
D02*
G37*
G36*
X154393Y86106D02*
Y81806D01*
X158694D01*
Y86106D01*
X154393D01*
D02*
G37*
G36*
X161100Y84047D02*
Y83047D01*
X163500D01*
Y84047D01*
X161100D01*
D02*
G37*
G36*
Y86016D02*
Y85016D01*
X163500D01*
Y86016D01*
X161100D01*
D02*
G37*
G36*
X157453Y93600D02*
X156453D01*
Y96000D01*
X157453D01*
Y93600D01*
D02*
G37*
G36*
X155484D02*
X154484D01*
Y96000D01*
X155484D01*
Y93600D01*
D02*
G37*
G36*
X158694Y86893D02*
X154393D01*
Y91193D01*
X158694D01*
Y86893D01*
D02*
G37*
G36*
X161100Y87984D02*
Y86984D01*
X163500D01*
Y87984D01*
X161100D01*
D02*
G37*
G36*
Y89953D02*
Y88953D01*
X163500D01*
Y89953D01*
X161100D01*
D02*
G37*
D14*
X51225Y91740D02*
D03*
Y84260D02*
D03*
X40775D02*
D03*
Y88000D02*
D03*
Y91740D02*
D03*
X48225Y145740D02*
D03*
Y138260D02*
D03*
X37775D02*
D03*
Y142000D02*
D03*
Y145740D02*
D03*
D15*
X52228Y40000D02*
D03*
Y35000D02*
D03*
Y30000D02*
D03*
Y25000D02*
D03*
X30772D02*
D03*
Y30000D02*
D03*
Y35000D02*
D03*
Y40000D02*
D03*
M02*
