G04*
G04 #@! TF.GenerationSoftware,Altium Limited,Altium Designer,20.0.9 (164)*
G04*
G04 Layer_Color=16711935*
%FSLAX25Y25*%
%MOIN*%
G70*
G01*
G75*
%ADD13C,0.00300*%
%ADD31C,0.00100*%
%ADD32C,0.00000*%
%ADD33C,0.00500*%
D13*
X43100Y92565D02*
X46432Y89233D01*
X43100D02*
X46432Y92565D01*
X43100Y90899D02*
X46432D01*
X44766Y89233D02*
Y92565D01*
X40100Y146565D02*
X43432Y143233D01*
X40100D02*
X43432Y146565D01*
X40100Y144899D02*
X43432D01*
X41766Y143233D02*
Y146565D01*
X146898Y74050D02*
X150230Y77382D01*
Y74050D02*
X146898Y77382D01*
X148564Y74050D02*
Y77382D01*
X150230Y75716D02*
X146898D01*
X35102Y32538D02*
Y28372D01*
X35935Y27539D01*
X37602D01*
X38435Y28372D01*
Y32538D01*
X40101Y31705D02*
X40934Y32538D01*
X42600D01*
X43433Y31705D01*
Y30872D01*
X42600Y30039D01*
X41767D01*
X42600D01*
X43433Y29206D01*
Y28372D01*
X42600Y27539D01*
X40934D01*
X40101Y28372D01*
D31*
X42850Y82300D02*
Y93700D01*
X49150D01*
Y82300D02*
Y93700D01*
X42850Y82300D02*
X49150D01*
Y92740D02*
X51900D01*
Y90740D02*
Y92740D01*
X49150Y90740D02*
X51900D01*
X49150D02*
Y92740D01*
Y85260D02*
X51900D01*
Y83260D02*
Y85260D01*
X49150Y83260D02*
X51900D01*
X49150D02*
Y85260D01*
X40100Y83260D02*
X42850D01*
X40100D02*
Y85260D01*
X42850D01*
Y83260D02*
Y85260D01*
X40100Y87000D02*
X42850D01*
X40100D02*
Y89000D01*
X42850D01*
Y87000D02*
Y89000D01*
X40100Y90740D02*
X42850D01*
X40100D02*
Y92740D01*
X42850D01*
Y90740D02*
Y92740D01*
X39850Y136300D02*
Y147700D01*
X46150D01*
Y136300D02*
Y147700D01*
X39850Y136300D02*
X46150D01*
Y146740D02*
X48900D01*
Y144740D02*
Y146740D01*
X46150Y144740D02*
X48900D01*
X46150D02*
Y146740D01*
Y139260D02*
X48900D01*
Y137260D02*
Y139260D01*
X46150Y137260D02*
X48900D01*
X46150D02*
Y139260D01*
X37100Y137260D02*
X39850D01*
X37100D02*
Y139260D01*
X39850D01*
Y137260D02*
Y139260D01*
X37100Y141000D02*
X39850D01*
X37100D02*
Y143000D01*
X39850D01*
Y141000D02*
Y143000D01*
X37100Y144740D02*
X39850D01*
X37100D02*
Y146740D01*
X39850D01*
Y144740D02*
Y146740D01*
X145950Y78450D02*
X162050D01*
X145950D02*
Y94550D01*
X162050D01*
Y78450D02*
Y94550D01*
X150447D02*
X151647D01*
X150447D02*
X151647D01*
X152416D02*
X153616D01*
X152416D02*
X153616D01*
X154384D02*
X155584D01*
X154384D02*
X155584D01*
X156353D02*
X157553D01*
X156353D02*
X157553D01*
X162050Y88853D02*
Y90053D01*
Y88853D02*
Y90053D01*
Y86884D02*
Y88084D01*
Y86884D02*
Y88084D01*
Y84916D02*
Y86116D01*
Y84916D02*
Y86116D01*
Y82947D02*
Y84147D01*
Y82947D02*
Y84147D01*
X156353Y78450D02*
X157553D01*
X156353D02*
X157553D01*
X154384D02*
X155584D01*
X154384D02*
X155584D01*
X152416D02*
X153616D01*
X152416D02*
X153616D01*
X150447D02*
X151647D01*
X150447D02*
X151647D01*
X145950Y82947D02*
Y84147D01*
Y82947D02*
Y84147D01*
Y84916D02*
Y86116D01*
Y84916D02*
Y86116D01*
Y86884D02*
Y88084D01*
Y86884D02*
Y88084D01*
Y88853D02*
Y90053D01*
Y88853D02*
Y90053D01*
Y83450D02*
X150950Y78450D01*
D32*
X44800Y93700D02*
G03*
X47200Y93700I1200J0D01*
G01*
X41800Y147700D02*
G03*
X44200Y147700I1200J0D01*
G01*
D33*
X39315Y39796D02*
G03*
X39315Y35096I0J-2350D01*
G01*
X33815Y23351D02*
G03*
X34311Y22854I500J4D01*
G01*
X39315Y35096D02*
G03*
X39315Y39796I0J2350D01*
G01*
X48673Y22854D02*
G03*
X49169Y23351I-4J500D01*
G01*
X34311Y42146D02*
G03*
X33815Y41649I4J-500D01*
G01*
X49169D02*
G03*
X48673Y42146I-500J-4D01*
G01*
X48669Y22854D02*
X48673D01*
X34311D02*
X34315D01*
X40193D01*
X40783D01*
X34311Y42146D02*
X34315D01*
X40783Y22854D02*
X42201D01*
X42791D02*
X48669D01*
X33815Y23351D02*
Y23354D01*
X42791Y42146D02*
X48669D01*
X49169Y23351D02*
Y23354D01*
X40783Y42146D02*
X42201D01*
X34315D02*
X40193D01*
X49169Y23354D02*
Y41646D01*
X42201Y42146D02*
X42791D01*
X33815Y41646D02*
Y41649D01*
X49169Y41646D02*
Y41649D01*
X33815Y23354D02*
Y41646D01*
X40193Y42146D02*
X40783D01*
X42201Y22854D02*
X42791D01*
X48669Y42146D02*
X48673D01*
X29681Y24252D02*
Y25748D01*
Y24252D02*
X31306D01*
Y25748D02*
X32149D01*
Y24252D02*
X33645D01*
X32149Y25748D02*
X33645D01*
Y24252D02*
X33815D01*
X29681Y25748D02*
X31306D01*
Y24252D02*
X32149D01*
X33645Y25748D02*
X33815D01*
Y24252D02*
Y25748D01*
X32149Y24252D02*
Y25748D01*
X29681Y29252D02*
Y30748D01*
Y29252D02*
X31306D01*
Y30748D02*
X32149D01*
Y29252D02*
X33645D01*
X32149Y30748D02*
X33645D01*
Y29252D02*
X33815D01*
X29681Y30748D02*
X31306D01*
Y29252D02*
X32149D01*
X33645Y30748D02*
X33815D01*
Y29252D02*
Y30748D01*
X32149Y29252D02*
Y30748D01*
X29681Y34252D02*
Y35748D01*
Y34252D02*
X31306D01*
Y35748D02*
X32149D01*
Y34252D02*
X33645D01*
X32149Y35748D02*
X33645D01*
Y34252D02*
X33815D01*
X29681Y35748D02*
X31306D01*
Y34252D02*
X32149D01*
X33645Y35748D02*
X33815D01*
Y34252D02*
Y35748D01*
X32149Y34252D02*
Y35748D01*
X29681Y39252D02*
Y40748D01*
Y39252D02*
X31306D01*
Y40748D02*
X32149D01*
Y39252D02*
X33645D01*
X32149Y40748D02*
X33645D01*
Y39252D02*
X33815D01*
X29681Y40748D02*
X31306D01*
Y39252D02*
X32149D01*
X33645Y40748D02*
X33815D01*
Y39252D02*
Y40748D01*
X32149Y39252D02*
Y40748D01*
X53303Y24252D02*
Y25748D01*
X51678D02*
X53303D01*
X50836Y24252D02*
X51678D01*
X49340Y25748D02*
X50836D01*
X49340Y24252D02*
X50836D01*
X49169Y25748D02*
X49340D01*
X51678Y24252D02*
X53303D01*
X50836Y25748D02*
X51678D01*
X49169Y24252D02*
X49340D01*
X49169D02*
Y25748D01*
X50836Y24252D02*
Y25748D01*
X53303Y29252D02*
Y30748D01*
X51678D02*
X53303D01*
X50836Y29252D02*
X51678D01*
X49340Y30748D02*
X50836D01*
X49340Y29252D02*
X50836D01*
X49169Y30748D02*
X49340D01*
X51678Y29252D02*
X53303D01*
X50836Y30748D02*
X51678D01*
X49169Y29252D02*
X49340D01*
X49169D02*
Y30748D01*
X50836Y29252D02*
Y30748D01*
X53303Y34252D02*
Y35748D01*
X51678D02*
X53303D01*
X50836Y34252D02*
X51678D01*
X49340Y35748D02*
X50836D01*
X49340Y34252D02*
X50836D01*
X49169Y35748D02*
X49340D01*
X51678Y34252D02*
X53303D01*
X50836Y35748D02*
X51678D01*
X49169Y34252D02*
X49340D01*
X49169D02*
Y35748D01*
X50836Y34252D02*
Y35748D01*
X53303Y39252D02*
Y40748D01*
X51678D02*
X53303D01*
X50836Y39252D02*
X51678D01*
X49340Y40748D02*
X50836D01*
X49340Y39252D02*
X50836D01*
X49169Y40748D02*
X49340D01*
X51678Y39252D02*
X53303D01*
X50836Y40748D02*
X51678D01*
X49169Y39252D02*
X49340D01*
X49169D02*
Y40748D01*
X50836Y39252D02*
Y40748D01*
X42201Y42146D02*
X42791D01*
X40193D02*
X40783D01*
X40193Y22854D02*
X40783D01*
X42201D02*
X42791D01*
M02*
