G04*
G04 #@! TF.GenerationSoftware,Altium Limited,Altium Designer,20.0.9 (164)*
G04*
G04 Layer_Color=65535*
%FSLAX25Y25*%
%MOIN*%
G70*
G01*
G75*
%ADD10C,0.00600*%
%ADD11C,0.00787*%
%ADD12C,0.01000*%
%ADD13C,0.00300*%
G36*
X154234Y96200D02*
Y97200D01*
X155734D01*
Y96200D01*
X154234D01*
D02*
G37*
D10*
X42350Y94200D02*
X49650D01*
Y86670D02*
Y89330D01*
X42350Y81800D02*
X49650D01*
X39350Y148200D02*
X46650D01*
Y140670D02*
Y143330D01*
X39350Y135800D02*
X46650D01*
X144950Y95550D02*
X149285D01*
X163050Y91215D02*
Y95550D01*
X158715Y77450D02*
X163050D01*
X144950D02*
X149285D01*
X144950Y91215D02*
Y95550D01*
X158715D02*
X163050D01*
Y77450D02*
Y81785D01*
X144950Y77450D02*
Y81785D01*
D11*
X190000Y64500D02*
X200000D01*
X190000D02*
Y104500D01*
X200000Y64500D02*
Y104500D01*
X190000D02*
X200000D01*
X169500Y107500D02*
X184500D01*
Y62500D02*
Y107500D01*
X169500Y62500D02*
X184500D01*
X169500D02*
Y107500D01*
X176000Y34000D02*
Y44000D01*
X136000Y34000D02*
X176000D01*
X136000Y44000D02*
X176000D01*
X136000Y34000D02*
Y44000D01*
X109000Y66000D02*
X119000D01*
X109000D02*
Y106000D01*
X119000Y66000D02*
Y106000D01*
X109000D02*
X119000D01*
X131000Y133000D02*
Y143000D01*
X171000D01*
X131000Y133000D02*
X171000D01*
Y143000D01*
X9000Y127500D02*
Y157500D01*
Y127500D02*
X19000D01*
Y157500D01*
X9000D02*
X19000D01*
X79500Y128500D02*
Y158500D01*
X69500D02*
X79500D01*
X69500Y128500D02*
Y158500D01*
Y128500D02*
X79500D01*
X8000Y51000D02*
X18000D01*
Y11000D02*
Y51000D01*
X8000Y11000D02*
Y51000D01*
Y11000D02*
X18000D01*
X8500Y71000D02*
Y101000D01*
Y71000D02*
X18500D01*
Y101000D01*
X8500D02*
X18500D01*
X28508Y42343D02*
X45043D01*
X37957Y22657D02*
X45043D01*
X80000Y72000D02*
Y102000D01*
X70000D02*
X80000D01*
X70000Y72000D02*
Y102000D01*
Y72000D02*
X80000D01*
X71000Y51500D02*
X81000D01*
Y11500D02*
Y51500D01*
X71000Y11500D02*
Y51500D01*
Y11500D02*
X81000D01*
D12*
X28502Y105999D02*
Y101001D01*
X29501Y100001D01*
X31501D01*
X32500Y101001D01*
Y105999D01*
X38498D02*
X34500D01*
Y103000D01*
X36499Y104000D01*
X37499D01*
X38498Y103000D01*
Y101001D01*
X37499Y100001D01*
X35499D01*
X34500Y101001D01*
X28727Y167239D02*
Y162241D01*
X29726Y161241D01*
X31726D01*
X32725Y162241D01*
Y167239D01*
X37724Y161241D02*
Y167239D01*
X34725Y164240D01*
X38723D01*
X128002Y126499D02*
Y121501D01*
X129001Y120501D01*
X131001D01*
X132000Y121501D01*
Y126499D01*
X137998Y120501D02*
X134000D01*
X137998Y124500D01*
Y125499D01*
X136999Y126499D01*
X134999D01*
X134000Y125499D01*
X190600Y107900D02*
Y113898D01*
X193599D01*
X194599Y112898D01*
Y110899D01*
X193599Y109899D01*
X190600D01*
X200597Y113898D02*
X196598D01*
Y110899D01*
X198597Y111899D01*
X199597D01*
X200597Y110899D01*
Y108900D01*
X199597Y107900D01*
X197598D01*
X196598Y108900D01*
X174099Y115898D02*
X173099Y116898D01*
X171100D01*
X170100Y115898D01*
Y111900D01*
X171100Y110900D01*
X173099D01*
X174099Y111900D01*
X176098Y110900D02*
X178097D01*
X177098D01*
Y116898D01*
X176098Y115898D01*
X181096D02*
X182096Y116898D01*
X184096D01*
X185095Y115898D01*
Y111900D01*
X184096Y110900D01*
X182096D01*
X181096Y111900D01*
Y115898D01*
X136600Y47400D02*
Y53398D01*
X139599D01*
X140599Y52398D01*
Y50399D01*
X139599Y49399D01*
X136600D01*
X146597Y53398D02*
X144597Y52398D01*
X142598Y50399D01*
Y48400D01*
X143598Y47400D01*
X145597D01*
X146597Y48400D01*
Y49399D01*
X145597Y50399D01*
X142598D01*
X109650Y109350D02*
Y115348D01*
X112649D01*
X113649Y114348D01*
Y112349D01*
X112649Y111349D01*
X109650D01*
X115648Y115348D02*
X119647D01*
Y114348D01*
X115648Y110350D01*
Y109350D01*
X131600Y146400D02*
Y152398D01*
X134599D01*
X135599Y151398D01*
Y149399D01*
X134599Y148399D01*
X131600D01*
X137598Y151398D02*
X138598Y152398D01*
X140597D01*
X141597Y151398D01*
Y150399D01*
X140597Y149399D01*
X141597Y148399D01*
Y147400D01*
X140597Y146400D01*
X138598D01*
X137598Y147400D01*
Y148399D01*
X138598Y149399D01*
X137598Y150399D01*
Y151398D01*
X138598Y149399D02*
X140597D01*
X9600Y160900D02*
Y166898D01*
X12599D01*
X13599Y165898D01*
Y163899D01*
X12599Y162899D01*
X9600D01*
X15598Y161900D02*
X16598Y160900D01*
X18597D01*
X19597Y161900D01*
Y165898D01*
X18597Y166898D01*
X16598D01*
X15598Y165898D01*
Y164899D01*
X16598Y163899D01*
X19597D01*
X70150Y161850D02*
Y167848D01*
X73149D01*
X74149Y166848D01*
Y164849D01*
X73149Y163849D01*
X70150D01*
X76148Y161850D02*
X78147D01*
X77148D01*
Y167848D01*
X76148Y166848D01*
X81146D02*
X82146Y167848D01*
X84145D01*
X85145Y166848D01*
Y162850D01*
X84145Y161850D01*
X82146D01*
X81146Y162850D01*
Y166848D01*
X8600Y54400D02*
Y60398D01*
X11599D01*
X12599Y59398D01*
Y57399D01*
X11599Y56399D01*
X8600D01*
X14598Y54400D02*
X16597D01*
X15598D01*
Y60398D01*
X14598Y59398D01*
X19596Y54400D02*
X21596D01*
X20596D01*
Y60398D01*
X19596Y59398D01*
X9100Y104400D02*
Y110398D01*
X12099D01*
X13099Y109398D01*
Y107399D01*
X12099Y106399D01*
X9100D01*
X15098Y104400D02*
X17097D01*
X16098D01*
Y110398D01*
X15098Y109398D01*
X24095Y104400D02*
X20096D01*
X24095Y108399D01*
Y109398D01*
X23096Y110398D01*
X21096D01*
X20096Y109398D01*
X27850Y52448D02*
Y47450D01*
X28850Y46450D01*
X30849D01*
X31849Y47450D01*
Y52448D01*
X33848Y51448D02*
X34848Y52448D01*
X36847D01*
X37847Y51448D01*
Y50449D01*
X36847Y49449D01*
X35847D01*
X36847D01*
X37847Y48449D01*
Y47450D01*
X36847Y46450D01*
X34848D01*
X33848Y47450D01*
X70650Y105350D02*
Y111348D01*
X73649D01*
X74649Y110348D01*
Y108349D01*
X73649Y107349D01*
X70650D01*
X76648Y105350D02*
X78647D01*
X77648D01*
Y111348D01*
X76648Y110348D01*
X81646D02*
X82646Y111348D01*
X84645D01*
X85645Y110348D01*
Y109349D01*
X84645Y108349D01*
X83646D01*
X84645D01*
X85645Y107349D01*
Y106350D01*
X84645Y105350D01*
X82646D01*
X81646Y106350D01*
X71600Y54900D02*
Y60898D01*
X74599D01*
X75599Y59898D01*
Y57899D01*
X74599Y56899D01*
X71600D01*
X77598Y54900D02*
X79597D01*
X78598D01*
Y60898D01*
X77598Y59898D01*
X85596Y54900D02*
Y60898D01*
X82596Y57899D01*
X86595D01*
D13*
X38525Y97606D02*
X41857Y94273D01*
X38525D02*
X41857Y97606D01*
X38525Y95939D02*
X41857D01*
X40191Y94273D02*
Y97606D01*
X35525Y151605D02*
X38857Y148273D01*
X35525D02*
X38857Y151605D01*
X35525Y149939D02*
X38857D01*
X37191Y148273D02*
Y151605D01*
X146898Y74050D02*
X150230Y77382D01*
Y74050D02*
X146898Y77382D01*
X148564Y74050D02*
Y77382D01*
X150230Y75716D02*
X146898D01*
M02*
