G04*
G04 #@! TF.GenerationSoftware,Altium Limited,Altium Designer,20.0.9 (164)*
G04*
G04 Layer_Color=32768*
%FSLAX25Y25*%
%MOIN*%
G70*
G01*
G75*
%ADD31C,0.00100*%
D31*
X43500Y74300D02*
Y75300D01*
X42500Y74800D02*
X43500Y74300D01*
X42500Y74800D02*
X43500Y75300D01*
X39100Y74300D02*
Y75300D01*
Y74300D02*
X40100Y74800D01*
X39100Y75300D02*
X40100Y74800D01*
X42500D02*
X47500D01*
X35100D02*
X40100D01*
X42500Y73300D02*
Y88000D01*
X40100Y73300D02*
Y88000D01*
X30275Y87000D02*
X31275D01*
X30775Y88000D02*
X31275Y87000D01*
X30275D02*
X30775Y88000D01*
X30275Y92740D02*
X31275D01*
X30775Y91740D02*
X31275Y92740D01*
X30275D02*
X30775Y91740D01*
Y83000D02*
Y88000D01*
Y91740D02*
Y96740D01*
X29275Y88000D02*
X40775D01*
X29275Y91740D02*
X40775D01*
X58650Y81300D02*
X59650D01*
X59150Y82300D02*
X59650Y81300D01*
X58650D02*
X59150Y82300D01*
X58650Y94700D02*
X59650D01*
X59150Y93700D02*
X59650Y94700D01*
X58650D02*
X59150Y93700D01*
Y77300D02*
Y82300D01*
Y93700D02*
Y98700D01*
X46000Y82300D02*
X60650D01*
X46000Y93700D02*
X60650D01*
X52900Y108200D02*
Y109200D01*
X51900Y108700D02*
X52900Y108200D01*
X51900Y108700D02*
X52900Y109200D01*
X39100Y108200D02*
Y109200D01*
Y108200D02*
X40100Y108700D01*
X39100Y109200D02*
X40100Y108700D01*
X51900D02*
X56900D01*
X35100D02*
X40100D01*
X51900Y88000D02*
Y110200D01*
X40100Y88000D02*
Y110200D01*
X50150Y100700D02*
Y101700D01*
X49150Y101200D02*
X50150Y100700D01*
X49150Y101200D02*
X50150Y101700D01*
X41850Y100700D02*
Y101700D01*
Y100700D02*
X42850Y101200D01*
X41850Y101700D02*
X42850Y101200D01*
X49150D02*
X54150D01*
X37850D02*
X42850D01*
X49150Y88000D02*
Y102700D01*
X42850Y88000D02*
Y102700D01*
X40500Y128300D02*
Y129300D01*
X39500Y128800D02*
X40500Y128300D01*
X39500Y128800D02*
X40500Y129300D01*
X36100Y128300D02*
Y129300D01*
Y128300D02*
X37100Y128800D01*
X36100Y129300D02*
X37100Y128800D01*
X39500D02*
X44500D01*
X32100D02*
X37100D01*
X39500Y127300D02*
Y142000D01*
X37100Y127300D02*
Y142000D01*
X27275Y141000D02*
X28275D01*
X27775Y142000D02*
X28275Y141000D01*
X27275D02*
X27775Y142000D01*
X27275Y146740D02*
X28275D01*
X27775Y145740D02*
X28275Y146740D01*
X27275D02*
X27775Y145740D01*
Y137000D02*
Y142000D01*
Y145740D02*
Y150740D01*
X26275Y142000D02*
X37775D01*
X26275Y145740D02*
X37775D01*
X55650Y135300D02*
X56650D01*
X56150Y136300D02*
X56650Y135300D01*
X55650D02*
X56150Y136300D01*
X55650Y148700D02*
X56650D01*
X56150Y147700D02*
X56650Y148700D01*
X55650D02*
X56150Y147700D01*
Y131300D02*
Y136300D01*
Y147700D02*
Y152700D01*
X43000Y136300D02*
X57650D01*
X43000Y147700D02*
X57650D01*
X49900Y162200D02*
Y163200D01*
X48900Y162700D02*
X49900Y162200D01*
X48900Y162700D02*
X49900Y163200D01*
X36100Y162200D02*
Y163200D01*
Y162200D02*
X37100Y162700D01*
X36100Y163200D02*
X37100Y162700D01*
X48900D02*
X53900D01*
X32100D02*
X37100D01*
X48900Y142000D02*
Y164200D01*
X37100Y142000D02*
Y164200D01*
X47150Y154700D02*
Y155700D01*
X46150Y155200D02*
X47150Y154700D01*
X46150Y155200D02*
X47150Y155700D01*
X38850Y154700D02*
Y155700D01*
Y154700D02*
X39850Y155200D01*
X38850Y155700D02*
X39850Y155200D01*
X46150D02*
X51150D01*
X34850D02*
X39850D01*
X46150Y142000D02*
Y156700D01*
X39850Y142000D02*
Y156700D01*
X174500Y93550D02*
X175500D01*
X175000Y94550D02*
X175500Y93550D01*
X174500D02*
X175000Y94550D01*
X174500Y79450D02*
X175500D01*
X175000Y78450D02*
X175500Y79450D01*
X174500D02*
X175000Y78450D01*
Y94550D01*
X145950D02*
X176500D01*
X145950Y78450D02*
X176500D01*
X161050Y65000D02*
Y66000D01*
X162050Y65500D01*
X161050Y65000D02*
X162050Y65500D01*
X146950Y65000D02*
Y66000D01*
X145950Y65500D02*
X146950Y66000D01*
X145950Y65500D02*
X146950Y65000D01*
X145950Y65500D02*
X162050D01*
Y64000D02*
Y94550D01*
X145950Y64000D02*
Y94550D01*
X160500Y112000D02*
Y113000D01*
X161500Y112500D01*
X160500Y112000D02*
X161500Y112500D01*
X147500Y112000D02*
Y113000D01*
X146500Y112500D02*
X147500Y113000D01*
X146500Y112500D02*
X147500Y112000D01*
X146500Y112500D02*
X161500D01*
Y89453D02*
Y114000D01*
X146500Y89453D02*
Y114000D01*
X127500Y93000D02*
X128500D01*
X128000Y94000D02*
X128500Y93000D01*
X127500D02*
X128000Y94000D01*
X127500Y80000D02*
X128500D01*
X128000Y79000D02*
X128500Y80000D01*
X127500D02*
X128000Y79000D01*
Y94000D01*
X126500D02*
X151047D01*
X126500Y79000D02*
X151047D01*
X135000Y95550D02*
X136000D01*
X135500Y94550D02*
X136000Y95550D01*
X135000D02*
X135500Y94550D01*
X135000Y91550D02*
X136000D01*
X135500Y92550D02*
X136000Y91550D01*
X135000D02*
X135500Y92550D01*
Y94550D02*
Y99550D01*
Y87550D02*
Y92550D01*
X134000Y94550D02*
X151047D01*
X134000Y92550D02*
X151047D01*
X154016Y104500D02*
Y105500D01*
X153016Y105000D02*
X154016Y105500D01*
X153016Y105000D02*
X154016Y104500D01*
X150047D02*
Y105500D01*
X151047Y105000D01*
X150047Y104500D02*
X151047Y105000D01*
X153016D02*
X158016D01*
X146047D02*
X151047D01*
X153016Y94000D02*
Y106500D01*
X151047Y94000D02*
Y106500D01*
M02*
