M48
;Layer_Color=9474304
;FILE_FORMAT=2:5
INCH,TZ
;TYPE=PLATED
T1F00S00C0.02756
T2F00S00C0.03543
%
T01
X177000Y70000
Y100000
T02
X13000Y16000
Y26000
Y36000
Y46000
X76000Y46500
Y36500
Y26500
Y16500
X141000Y39000
X151000
X161000
X171000
X195000Y69500
Y79500
Y89500
Y99500
X166000Y138000
X156000
X146000
X136000
X114000Y101000
Y91000
Y81000
Y71000
X75000Y77000
Y87000
Y97000
X74500Y133500
Y143500
Y153500
X14000Y152500
Y142500
Y132500
X13500Y96000
Y86000
Y76000
M30
