G04*
G04 #@! TF.GenerationSoftware,Altium Limited,Altium Designer,20.0.9 (164)*
G04*
G04 Layer_Physical_Order=1*
G04 Layer_Color=255*
%FSLAX25Y25*%
%MOIN*%
G70*
G01*
G75*
%ADD12C,0.01000*%
%ADD14R,0.04150X0.02200*%
%ADD15O,0.05709X0.02362*%
%ADD24R,0.10200X0.10200*%
%ADD25R,0.02400X0.01000*%
%ADD26R,0.01000X0.02400*%
%ADD27C,0.05906*%
%ADD28R,0.05906X0.05906*%
%ADD29C,0.04724*%
%ADD30R,0.05906X0.05906*%
D12*
X154000Y89453D02*
X161500D01*
X21760Y84260D02*
X38500D01*
X192816Y87484D02*
X192900Y87400D01*
X13500Y76000D02*
X21760Y84260D01*
X48225Y145740D02*
X72260D01*
X74500Y143500D01*
X51225Y91740D02*
X70260D01*
X75000Y87000D01*
X15500Y88000D02*
X40775D01*
X13500Y86000D02*
X15500Y88000D01*
X37775Y138260D02*
X37800D01*
X38500Y84260D02*
X40775D01*
X17760Y91740D02*
X40775D01*
X13500Y96000D02*
X17760Y91740D01*
X17000Y30000D02*
X30772D01*
X13000Y26000D02*
X17000Y30000D01*
X52228D02*
X72500D01*
X76000Y26500D01*
X156000Y113316D02*
Y138000D01*
X154984Y112300D02*
X156000Y113316D01*
X154984Y94000D02*
Y112300D01*
X156953Y94000D02*
X164000D01*
X166000Y96000D01*
Y138000D01*
X52228Y25000D02*
X67500D01*
X76000Y16500D01*
X52228Y40000D02*
X69500D01*
X76000Y46500D01*
X51225Y84260D02*
X67740D01*
X75000Y77000D01*
X161500Y85516D02*
X188984D01*
X195000Y79500D01*
X153016Y94000D02*
Y130984D01*
X146000Y138000D02*
X153016Y130984D01*
X136000Y109047D02*
Y138000D01*
Y109047D02*
X151047Y94000D01*
X161500Y89453D02*
X166453D01*
X177000Y100000D01*
X126547Y83547D02*
X146500D01*
X114000Y71000D02*
X126547Y83547D01*
X118516Y85516D02*
X146500D01*
X114000Y81000D02*
X118516Y85516D01*
X161500Y87484D02*
X192816D01*
X192900Y87400D02*
X195000Y89500D01*
X156953Y83547D02*
X161500D01*
X154000Y86500D02*
X156953Y83547D01*
X161500D02*
X180953D01*
X195000Y69500D01*
X22000Y25000D02*
X30772D01*
X13000Y16000D02*
X22000Y25000D01*
X154000Y86500D02*
Y89453D01*
X114000Y101000D02*
X125547Y89453D01*
X146500D01*
X171000Y39000D02*
Y64953D01*
X156953Y79000D02*
X171000Y64953D01*
X19000Y40000D02*
X30772D01*
X13000Y46000D02*
X19000Y40000D01*
X20760Y145740D02*
X37775D01*
X14000Y152500D02*
X20760Y145740D01*
X144000Y79000D02*
X151047D01*
X141000Y76000D02*
X144000Y79000D01*
X141000Y39000D02*
Y76000D01*
X19760Y138260D02*
X37775D01*
X14000Y132500D02*
X19760Y138260D01*
X69740D02*
X74500Y133500D01*
X48225Y138260D02*
X69740D01*
X154984Y45016D02*
X161000Y39000D01*
X154984Y45016D02*
Y79000D01*
X117516Y87484D02*
X146500D01*
X114000Y91000D02*
X117516Y87484D01*
X153016Y72216D02*
Y79000D01*
X151000Y70200D02*
X153016Y72216D01*
X151000Y39000D02*
Y70200D01*
X64800Y36500D02*
X76000D01*
X63300Y35000D02*
X64800Y36500D01*
X52228Y35000D02*
X63300D01*
X26100Y142000D02*
X37775D01*
X25600Y142500D02*
X26100Y142000D01*
X14000Y142500D02*
X25600D01*
X22300Y35000D02*
X30772D01*
X21300Y36000D02*
X22300Y35000D01*
X13000Y36000D02*
X21300D01*
D14*
X51225Y91740D02*
D03*
Y84260D02*
D03*
X40775D02*
D03*
Y88000D02*
D03*
Y91740D02*
D03*
X48225Y145740D02*
D03*
Y138260D02*
D03*
X37775D02*
D03*
Y142000D02*
D03*
Y145740D02*
D03*
D15*
X52228Y40000D02*
D03*
Y35000D02*
D03*
Y30000D02*
D03*
Y25000D02*
D03*
X30772D02*
D03*
Y30000D02*
D03*
Y35000D02*
D03*
Y40000D02*
D03*
D24*
X154000Y86500D02*
D03*
D25*
X146500Y83547D02*
D03*
Y85516D02*
D03*
Y87484D02*
D03*
Y89453D02*
D03*
X161500D02*
D03*
Y87484D02*
D03*
Y85516D02*
D03*
Y83547D02*
D03*
D26*
X151047Y94000D02*
D03*
X153016D02*
D03*
X154984D02*
D03*
X156953D02*
D03*
Y79000D02*
D03*
X154984D02*
D03*
X153016D02*
D03*
X151047D02*
D03*
D27*
X195000Y99500D02*
D03*
Y89500D02*
D03*
Y79500D02*
D03*
X141000Y39000D02*
D03*
X151000D02*
D03*
X161000D02*
D03*
X114000Y101000D02*
D03*
Y91000D02*
D03*
Y81000D02*
D03*
X166000Y138000D02*
D03*
X156000D02*
D03*
X146000D02*
D03*
X14000Y142500D02*
D03*
Y132500D02*
D03*
X74500Y143500D02*
D03*
Y153500D02*
D03*
X13000Y16000D02*
D03*
Y26000D02*
D03*
Y36000D02*
D03*
X13500Y86000D02*
D03*
Y76000D02*
D03*
X75000Y87000D02*
D03*
Y97000D02*
D03*
X76000Y16500D02*
D03*
Y26500D02*
D03*
Y36500D02*
D03*
D28*
X195000Y69500D02*
D03*
X114000Y71000D02*
D03*
X14000Y152500D02*
D03*
X74500Y133500D02*
D03*
X13000Y46000D02*
D03*
X13500Y96000D02*
D03*
X75000Y77000D02*
D03*
X76000Y46500D02*
D03*
D29*
X177000Y100000D02*
D03*
Y70000D02*
D03*
D30*
X171000Y39000D02*
D03*
X136000Y138000D02*
D03*
M02*
