G04*
G04 #@! TF.GenerationSoftware,Altium Limited,Altium Designer,20.0.9 (164)*
G04*
G04 Layer_Color=16711935*
%FSLAX25Y25*%
%MOIN*%
G70*
G01*
G75*
%ADD15C,0.00300*%
%ADD78C,0.00100*%
%ADD79C,0.00000*%
%ADD80C,0.00500*%
%ADD81C,0.00394*%
D15*
X414250Y451665D02*
X417582Y448333D01*
X414250D02*
X417582Y451665D01*
X414250Y449999D02*
X417582D01*
X415916Y448333D02*
Y451665D01*
X413750Y325365D02*
X417082Y322033D01*
X413750D02*
X417082Y325365D01*
X413750Y323699D02*
X417082D01*
X415416Y322033D02*
Y325365D01*
X641250Y333510D02*
X637918Y336842D01*
X641250D02*
X637918Y333510D01*
X641250Y335176D02*
X637918D01*
X639584Y336842D02*
Y333510D01*
X537250D02*
X533918Y336842D01*
X537250D02*
X533918Y333510D01*
X537250Y335176D02*
X533918D01*
X535584Y336842D02*
Y333510D01*
X613715Y313750D02*
X610383Y310418D01*
Y313750D02*
X613715Y310418D01*
X612049Y313750D02*
Y310418D01*
X610383Y312084D02*
X613715D01*
X559250Y458865D02*
X562582Y455533D01*
X559250D02*
X562582Y458865D01*
X559250Y457199D02*
X562582D01*
X560916Y455533D02*
Y458865D01*
X421898Y341550D02*
X425230Y344882D01*
Y341550D02*
X421898Y344882D01*
X423564Y341550D02*
Y344882D01*
X425230Y343216D02*
X421898D01*
X182913Y352924D02*
Y348758D01*
X183747Y347925D01*
X185413D01*
X186246Y348758D01*
Y352924D01*
X187912Y347925D02*
X189578D01*
X188745D01*
Y352924D01*
X187912Y352091D01*
D78*
X25750Y303500D02*
Y345500D01*
X7250D02*
X25750D01*
X7250Y303500D02*
Y345500D01*
Y303500D02*
X25750D01*
X414500Y448000D02*
Y452000D01*
X413000D02*
X414500D01*
X413000Y448000D02*
Y452000D01*
Y448000D02*
X414500D01*
Y438000D02*
Y442000D01*
X413000D02*
X414500D01*
X413000Y438000D02*
Y442000D01*
Y438000D02*
X414500D01*
Y428000D02*
Y432000D01*
X413000D02*
X414500D01*
X413000Y428000D02*
Y432000D01*
Y428000D02*
X414500D01*
Y418000D02*
Y422000D01*
X413000D02*
X414500D01*
X413000Y418000D02*
Y422000D01*
Y418000D02*
X414500D01*
X445500D02*
Y422000D01*
Y418000D02*
X447000D01*
Y422000D01*
X445500D02*
X447000D01*
X445500Y428000D02*
Y432000D01*
Y428000D02*
X447000D01*
Y432000D01*
X445500D02*
X447000D01*
X445500Y438000D02*
Y442000D01*
Y438000D02*
X447000D01*
Y442000D01*
X445500D02*
X447000D01*
X445500Y448000D02*
Y452000D01*
Y448000D02*
X447000D01*
Y452000D01*
X445500D02*
X447000D01*
X414500Y415500D02*
X445500D01*
Y454500D01*
X414500D02*
X445500D01*
X414500Y415500D02*
Y454500D01*
X417000Y283000D02*
Y323000D01*
X443000D01*
Y283000D02*
Y323000D01*
X417000Y283000D02*
X443000D01*
Y319700D02*
X446700D01*
Y316300D02*
Y319700D01*
X443000Y316300D02*
X446700D01*
X443000D02*
Y319700D01*
Y309700D02*
X446700D01*
Y306300D02*
Y309700D01*
X443000Y306300D02*
X446700D01*
X443000D02*
Y309700D01*
Y299700D02*
X446700D01*
Y296300D02*
Y299700D01*
X443000Y296300D02*
X446700D01*
X443000D02*
Y299700D01*
Y289700D02*
X446700D01*
Y286300D02*
Y289700D01*
X443000Y286300D02*
X446700D01*
X443000D02*
Y289700D01*
X413300Y286300D02*
X417000D01*
X413300D02*
Y289700D01*
X417000D01*
Y286300D02*
Y289700D01*
X413300Y296300D02*
X417000D01*
X413300D02*
Y299700D01*
X417000D01*
Y296300D02*
Y299700D01*
X413300Y306300D02*
X417000D01*
X413300D02*
Y309700D01*
X417000D01*
Y306300D02*
Y309700D01*
X413300Y316300D02*
X417000D01*
X413300D02*
Y319700D01*
X417000D01*
Y316300D02*
Y319700D01*
X638000Y339175D02*
Y342275D01*
Y339175D02*
X641550D01*
Y342275D01*
X638000D02*
X641550D01*
X638000Y349175D02*
Y352275D01*
Y349175D02*
X641550D01*
Y352275D01*
X638000D02*
X641550D01*
X638000Y359175D02*
Y362275D01*
Y359175D02*
X641550D01*
Y362275D01*
X638000D02*
X641550D01*
X638000Y369175D02*
Y372275D01*
Y369175D02*
X641550D01*
Y372275D01*
X638000D02*
X641550D01*
X638000Y379175D02*
Y382275D01*
Y379175D02*
X641550D01*
Y382275D01*
X638000D02*
X641550D01*
X638000Y389175D02*
Y392275D01*
Y389175D02*
X641550D01*
Y392275D01*
X638000D02*
X641550D01*
X638000Y399175D02*
Y402275D01*
Y399175D02*
X641550D01*
Y402275D01*
X638000D02*
X641550D01*
X612000Y399175D02*
Y402275D01*
X608450D02*
X612000D01*
X608450Y399175D02*
Y402275D01*
Y399175D02*
X612000D01*
Y389175D02*
Y392275D01*
X608450D02*
X612000D01*
X608450Y389175D02*
Y392275D01*
Y389175D02*
X612000D01*
Y379175D02*
Y382275D01*
X608450D02*
X612000D01*
X608450Y379175D02*
Y382275D01*
Y379175D02*
X612000D01*
Y369175D02*
Y372275D01*
X608450D02*
X612000D01*
X608450Y369175D02*
Y372275D01*
Y369175D02*
X612000D01*
Y359175D02*
Y362275D01*
X608450D02*
X612000D01*
X608450Y359175D02*
Y362275D01*
Y359175D02*
X612000D01*
Y349175D02*
Y352275D01*
X608450D02*
X612000D01*
X608450Y349175D02*
Y352275D01*
Y349175D02*
X612000D01*
Y339175D02*
Y342275D01*
X608450D02*
X612000D01*
X608450Y339175D02*
Y342275D01*
Y339175D02*
X612000D01*
Y409475D02*
X638000D01*
X612000Y331975D02*
Y409475D01*
Y331975D02*
X638000D01*
Y409475D01*
X534000Y339175D02*
Y342275D01*
Y339175D02*
X537550D01*
Y342275D01*
X534000D02*
X537550D01*
X534000Y349175D02*
Y352275D01*
Y349175D02*
X537550D01*
Y352275D01*
X534000D02*
X537550D01*
X534000Y359175D02*
Y362275D01*
Y359175D02*
X537550D01*
Y362275D01*
X534000D02*
X537550D01*
X534000Y369175D02*
Y372275D01*
Y369175D02*
X537550D01*
Y372275D01*
X534000D02*
X537550D01*
X534000Y379175D02*
Y382275D01*
Y379175D02*
X537550D01*
Y382275D01*
X534000D02*
X537550D01*
X534000Y389175D02*
Y392275D01*
Y389175D02*
X537550D01*
Y392275D01*
X534000D02*
X537550D01*
X534000Y399175D02*
Y402275D01*
Y399175D02*
X537550D01*
Y402275D01*
X534000D02*
X537550D01*
X508000Y399175D02*
Y402275D01*
X504450D02*
X508000D01*
X504450Y399175D02*
Y402275D01*
Y399175D02*
X508000D01*
Y389175D02*
Y392275D01*
X504450D02*
X508000D01*
X504450Y389175D02*
Y392275D01*
Y389175D02*
X508000D01*
Y379175D02*
Y382275D01*
X504450D02*
X508000D01*
X504450Y379175D02*
Y382275D01*
Y379175D02*
X508000D01*
Y369175D02*
Y372275D01*
X504450D02*
X508000D01*
X504450Y369175D02*
Y372275D01*
Y369175D02*
X508000D01*
Y359175D02*
Y362275D01*
X504450D02*
X508000D01*
X504450Y359175D02*
Y362275D01*
Y359175D02*
X508000D01*
Y349175D02*
Y352275D01*
X504450D02*
X508000D01*
X504450Y349175D02*
Y352275D01*
Y349175D02*
X508000D01*
Y339175D02*
Y342275D01*
X504450D02*
X508000D01*
X504450Y339175D02*
Y342275D01*
Y339175D02*
X508000D01*
Y409475D02*
X534000D01*
X508000Y331975D02*
Y409475D01*
Y331975D02*
X534000D01*
Y409475D01*
X532750Y310500D02*
X610250D01*
Y284500D02*
Y310500D01*
X532750Y284500D02*
X610250D01*
X532750D02*
Y310500D01*
X608050Y280950D02*
Y284500D01*
X604950Y280950D02*
X608050D01*
X604950D02*
Y284500D01*
X608050D01*
X598050Y280950D02*
Y284500D01*
X594950Y280950D02*
X598050D01*
X594950D02*
Y284500D01*
X598050D01*
X588050Y280950D02*
Y284500D01*
X584950Y280950D02*
X588050D01*
X584950D02*
Y284500D01*
X588050D01*
X578050Y280950D02*
Y284500D01*
X574950Y280950D02*
X578050D01*
X574950D02*
Y284500D01*
X578050D01*
X568050Y280950D02*
Y284500D01*
X564950Y280950D02*
X568050D01*
X564950D02*
Y284500D01*
X568050D01*
X558050Y280950D02*
Y284500D01*
X554950Y280950D02*
X558050D01*
X554950D02*
Y284500D01*
X558050D01*
X548050Y280950D02*
Y284500D01*
X544950Y280950D02*
X548050D01*
X544950D02*
Y284500D01*
X548050D01*
X538050Y280950D02*
Y284500D01*
X534950Y280950D02*
X538050D01*
X534950D02*
Y284500D01*
X538050D01*
X534950Y310500D02*
Y314050D01*
X538050D01*
Y310500D02*
Y314050D01*
X534950Y310500D02*
X538050D01*
X544950D02*
Y314050D01*
X548050D01*
Y310500D02*
Y314050D01*
X544950Y310500D02*
X548050D01*
X554950D02*
Y314050D01*
X558050D01*
Y310500D02*
Y314050D01*
X554950Y310500D02*
X558050D01*
X564950D02*
Y314050D01*
X568050D01*
Y310500D02*
Y314050D01*
X564950Y310500D02*
X568050D01*
X574950D02*
Y314050D01*
X578050D01*
Y310500D02*
Y314050D01*
X574950Y310500D02*
X578050D01*
X584950D02*
Y314050D01*
X588050D01*
Y310500D02*
Y314050D01*
X584950Y310500D02*
X588050D01*
X594950D02*
Y314050D01*
X598050D01*
Y310500D02*
Y314050D01*
X594950Y310500D02*
X598050D01*
X604950D02*
Y314050D01*
X608050D01*
Y310500D02*
Y314050D01*
X604950Y310500D02*
X608050D01*
X562500Y416500D02*
Y456500D01*
X588500D01*
Y416500D02*
Y456500D01*
X562500Y416500D02*
X588500D01*
Y453200D02*
X592200D01*
Y449800D02*
Y453200D01*
X588500Y449800D02*
X592200D01*
X588500D02*
Y453200D01*
Y443200D02*
X592200D01*
Y439800D02*
Y443200D01*
X588500Y439800D02*
X592200D01*
X588500D02*
Y443200D01*
Y433200D02*
X592200D01*
Y429800D02*
Y433200D01*
X588500Y429800D02*
X592200D01*
X588500D02*
Y433200D01*
Y423200D02*
X592200D01*
Y419800D02*
Y423200D01*
X588500Y419800D02*
X592200D01*
X588500D02*
Y423200D01*
X558800Y419800D02*
X562500D01*
X558800D02*
Y423200D01*
X562500D01*
Y419800D02*
Y423200D01*
X558800Y429800D02*
X562500D01*
X558800D02*
Y433200D01*
X562500D01*
Y429800D02*
Y433200D01*
X558800Y439800D02*
X562500D01*
X558800D02*
Y443200D01*
X562500D01*
Y439800D02*
Y443200D01*
X558800Y449800D02*
X562500D01*
X558800D02*
Y453200D01*
X562500D01*
Y449800D02*
Y453200D01*
X420950Y350950D02*
X425950Y345950D01*
X420950Y356353D02*
Y357553D01*
Y356353D02*
Y357553D01*
Y354384D02*
Y355584D01*
Y354384D02*
Y355584D01*
Y352416D02*
Y353616D01*
Y352416D02*
Y353616D01*
Y350447D02*
Y351647D01*
Y350447D02*
Y351647D01*
X425447Y345950D02*
X426647D01*
X425447D02*
X426647D01*
X427416D02*
X428616D01*
X427416D02*
X428616D01*
X429384D02*
X430584D01*
X429384D02*
X430584D01*
X431353D02*
X432553D01*
X431353D02*
X432553D01*
X437050Y350447D02*
Y351647D01*
Y350447D02*
Y351647D01*
Y352416D02*
Y353616D01*
Y352416D02*
Y353616D01*
Y354384D02*
Y355584D01*
Y354384D02*
Y355584D01*
Y356353D02*
Y357553D01*
Y356353D02*
Y357553D01*
X431353Y362050D02*
X432553D01*
X431353D02*
X432553D01*
X429384D02*
X430584D01*
X429384D02*
X430584D01*
X427416D02*
X428616D01*
X427416D02*
X428616D01*
X425447D02*
X426647D01*
X425447D02*
X426647D01*
X437050Y345950D02*
Y362050D01*
X420950D02*
X437050D01*
X420950Y345950D02*
Y362050D01*
Y345950D02*
X437050D01*
D79*
X428800Y454500D02*
X429151Y453652D01*
X430000Y453300D01*
X430849Y453652D01*
X431200Y454500D01*
X428800Y323000D02*
X429151Y322151D01*
X430000Y321800D01*
X430849Y322151D01*
X431200Y323000D01*
X626200Y331975D02*
X625848Y332823D01*
X625000Y333175D01*
X624152Y332823D01*
X623800Y331975D01*
X522200D02*
X521848Y332823D01*
X521000Y333175D01*
X520152Y332823D01*
X519800Y331975D01*
X610250Y298700D02*
X609402Y298348D01*
X609050Y297500D01*
X609402Y296652D01*
X610250Y296300D01*
X574300Y456500D02*
X574651Y455652D01*
X575500Y455300D01*
X576348Y455652D01*
X576700Y456500D01*
D80*
X158583Y372256D02*
X158543Y372217D01*
Y371232D02*
X158583Y371193D01*
X182697Y383496D02*
X182657Y383535D01*
X181673D02*
X181634Y383496D01*
X204350D02*
X204311Y383535D01*
X203327D02*
X203287Y383496D01*
X221496Y331823D02*
X221535Y331862D01*
Y332846D02*
X221496Y332886D01*
Y343634D02*
X221535Y343673D01*
Y344657D02*
X221496Y344697D01*
Y365287D02*
X221535Y365327D01*
Y366311D02*
X221496Y366350D01*
X197382Y320583D02*
X197421Y320543D01*
X198406D02*
X198445Y320583D01*
X175728D02*
X175768Y320543D01*
X176752D02*
X176791Y320583D01*
X158583Y338791D02*
X158543Y338752D01*
Y337768D02*
X158583Y337728D01*
Y360445D02*
X158543Y360405D01*
Y359421D02*
X158583Y359382D01*
X170886Y383496D02*
X170846Y383535D01*
X169862D02*
X169823Y383496D01*
X192539D02*
X192500Y383535D01*
X191516D02*
X191476Y383496D01*
X214193D02*
X214154Y383535D01*
X213169D02*
X213130Y383496D01*
X209193Y320583D02*
X209232Y320543D01*
X210216D02*
X210256Y320583D01*
X221496Y355445D02*
X221535Y355484D01*
Y356469D02*
X221496Y356508D01*
X187539Y320583D02*
X187579Y320543D01*
X188563D02*
X188602Y320583D01*
X165886D02*
X165925Y320543D01*
X166909D02*
X166949Y320583D01*
X158583Y348634D02*
X158543Y348594D01*
Y347610D02*
X158583Y347571D01*
Y370287D02*
X158543Y370248D01*
Y369264D02*
X158583Y369224D01*
X180728Y383496D02*
X180689Y383535D01*
X179705D02*
X179665Y383496D01*
X202382D02*
X202343Y383535D01*
X201358D02*
X201319Y383496D01*
X221496Y333791D02*
X221535Y333831D01*
Y334815D02*
X221496Y334854D01*
Y345602D02*
X221535Y345642D01*
Y346626D02*
X221496Y346665D01*
Y367256D02*
X221535Y367295D01*
Y368280D02*
X221496Y368319D01*
X199350Y320583D02*
X199390Y320543D01*
X200374D02*
X200413Y320583D01*
X177697D02*
X177736Y320543D01*
X178720D02*
X178760Y320583D01*
X158583Y336823D02*
X158543Y336784D01*
Y335799D02*
X158583Y335760D01*
Y358476D02*
X158543Y358437D01*
Y357453D02*
X158583Y357413D01*
X168917Y383496D02*
X168878Y383535D01*
X167894D02*
X167854Y383496D01*
X190571D02*
X190531Y383535D01*
X189547D02*
X189508Y383496D01*
X212224D02*
X212185Y383535D01*
X211201D02*
X211161Y383496D01*
Y320583D02*
X211201Y320543D01*
X212185D02*
X212224Y320583D01*
X221496Y357413D02*
X221535Y357453D01*
Y358437D02*
X221496Y358476D01*
X189508Y320583D02*
X189547Y320543D01*
X190531D02*
X190571Y320583D01*
X167854D02*
X167894Y320543D01*
X168878D02*
X168917Y320583D01*
X158583Y346665D02*
X158543Y346626D01*
Y345642D02*
X158583Y345602D01*
Y368319D02*
X158543Y368280D01*
Y367295D02*
X158583Y367256D01*
X178760Y383496D02*
X178720Y383535D01*
X177736D02*
X177697Y383496D01*
X200413D02*
X200374Y383535D01*
X199390D02*
X199350Y383496D01*
X221496Y335760D02*
X221535Y335799D01*
Y336784D02*
X221496Y336823D01*
Y347571D02*
X221535Y347610D01*
Y348594D02*
X221496Y348634D01*
Y369224D02*
X221535Y369264D01*
Y370248D02*
X221496Y370287D01*
X201319Y320583D02*
X201358Y320543D01*
X202343D02*
X202382Y320583D01*
X179665D02*
X179705Y320543D01*
X180689D02*
X180728Y320583D01*
X158583Y334854D02*
X158543Y334815D01*
Y333831D02*
X158583Y333791D01*
Y356508D02*
X158543Y356469D01*
Y355484D02*
X158583Y355445D01*
X166949Y383496D02*
X166909Y383535D01*
X165925D02*
X165886Y383496D01*
X188602D02*
X188563Y383535D01*
X187579D02*
X187539Y383496D01*
X210256D02*
X210216Y383535D01*
X209232D02*
X209193Y383496D01*
X213130Y320583D02*
X213169Y320543D01*
X214154D02*
X214193Y320583D01*
X221496Y359382D02*
X221535Y359421D01*
Y360405D02*
X221496Y360445D01*
X191476Y320583D02*
X191516Y320543D01*
X192500D02*
X192539Y320583D01*
X158583Y350602D02*
X158543Y350563D01*
Y349579D02*
X158583Y349539D01*
X169823Y320583D02*
X169862Y320543D01*
X170846D02*
X170886Y320583D01*
X158583Y344697D02*
X158543Y344657D01*
Y343673D02*
X158583Y343634D01*
Y366350D02*
X158543Y366311D01*
Y365327D02*
X158583Y365287D01*
X176791Y383496D02*
X176752Y383535D01*
X175768D02*
X175728Y383496D01*
X198445D02*
X198406Y383535D01*
X197421D02*
X197382Y383496D01*
X221496Y337728D02*
X221535Y337768D01*
Y338752D02*
X221496Y338791D01*
Y349539D02*
X221535Y349579D01*
Y350563D02*
X221496Y350602D01*
Y371193D02*
X221535Y371232D01*
Y372217D02*
X221496Y372256D01*
X203287Y320583D02*
X203327Y320543D01*
X204311D02*
X204350Y320583D01*
X181634D02*
X181673Y320543D01*
X182657D02*
X182697Y320583D01*
X158583Y332886D02*
X158543Y332846D01*
Y331862D02*
X158583Y331823D01*
Y354539D02*
X158543Y354500D01*
Y353516D02*
X158583Y353476D01*
Y376193D02*
X158543Y376153D01*
Y375169D02*
X158583Y375130D01*
X186634Y383496D02*
X186594Y383535D01*
X185610D02*
X185571Y383496D01*
X208287D02*
X208248Y383535D01*
X207264D02*
X207224Y383496D01*
X221496Y327886D02*
X221535Y327925D01*
Y328909D02*
X221496Y328949D01*
Y361350D02*
X221535Y361390D01*
Y362374D02*
X221496Y362413D01*
X193445Y320583D02*
X193484Y320543D01*
X194468D02*
X194508Y320583D01*
X171791D02*
X171831Y320543D01*
X172815D02*
X172854Y320583D01*
X158583Y342728D02*
X158543Y342689D01*
Y341705D02*
X158583Y341665D01*
Y364382D02*
X158543Y364342D01*
Y363358D02*
X158583Y363319D01*
X174823Y383496D02*
X174783Y383535D01*
X173799D02*
X173760Y383496D01*
X196476D02*
X196437Y383535D01*
X195453D02*
X195413Y383496D01*
X221496Y339697D02*
X221535Y339736D01*
Y340721D02*
X221496Y340760D01*
Y373161D02*
X221535Y373201D01*
Y374185D02*
X221496Y374224D01*
X205256Y320583D02*
X205295Y320543D01*
X206279D02*
X206319Y320583D01*
X221496Y351508D02*
X221535Y351547D01*
Y352532D02*
X221496Y352571D01*
X183602Y320583D02*
X183642Y320543D01*
X184626D02*
X184665Y320583D01*
X158583Y330917D02*
X158543Y330878D01*
Y329894D02*
X158583Y329854D01*
Y352571D02*
X158543Y352532D01*
Y351547D02*
X158583Y351508D01*
Y374224D02*
X158543Y374185D01*
Y373201D02*
X158583Y373161D01*
X184665Y383496D02*
X184626Y383535D01*
X183642D02*
X183602Y383496D01*
X206319D02*
X206279Y383535D01*
X205295D02*
X205256Y383496D01*
X221496Y329854D02*
X221535Y329894D01*
Y330878D02*
X221496Y330917D01*
Y341665D02*
X221535Y341705D01*
Y342689D02*
X221496Y342728D01*
Y363319D02*
X221535Y363358D01*
Y364342D02*
X221496Y364382D01*
X195413Y320583D02*
X195453Y320543D01*
X196437D02*
X196476Y320583D01*
X173760D02*
X173799Y320543D01*
X174783D02*
X174823Y320583D01*
X158583Y340760D02*
X158543Y340721D01*
Y339736D02*
X158583Y339697D01*
Y362413D02*
X158543Y362374D01*
Y361390D02*
X158583Y361350D01*
X172854Y383496D02*
X172815Y383535D01*
X171831D02*
X171791Y383496D01*
X194508D02*
X194468Y383535D01*
X193484D02*
X193445Y383496D01*
X221496Y375130D02*
X221535Y375169D01*
Y376153D02*
X221496Y376193D01*
X207224Y320583D02*
X207264Y320543D01*
X208248D02*
X208287Y320583D01*
X221496Y353476D02*
X221535Y353516D01*
Y354500D02*
X221496Y354539D01*
X185571Y320583D02*
X185610Y320543D01*
X186594D02*
X186634Y320583D01*
X158583Y328949D02*
X158543Y328909D01*
Y327925D02*
X158583Y327886D01*
X170354Y373693D02*
X170091Y374677D01*
X169370Y375398D01*
X168386Y375661D01*
X167402Y375398D01*
X166681Y374677D01*
X166417Y373693D01*
X166681Y372709D01*
X167402Y371988D01*
X168386Y371724D01*
X169370Y371988D01*
X170091Y372709D01*
X170354Y373693D01*
X160405Y371193D02*
X160968D01*
X161690D01*
X162480D01*
X158543Y371232D02*
Y372217D01*
X160968Y372256D02*
X161690D01*
X158583D02*
X160013D01*
X160405D02*
X160968D01*
X160013Y371193D02*
X160405D01*
X158583D02*
X160013D01*
Y372256D02*
X160405D01*
X161690D02*
X162480D01*
X181634Y381111D02*
Y381674D01*
Y380388D02*
Y381111D01*
Y379598D02*
Y380388D01*
X181673Y383535D02*
X182657D01*
X182697Y380388D02*
Y381111D01*
Y382066D02*
Y383496D01*
Y381111D02*
Y381674D01*
X181634D02*
Y382066D01*
Y383496D01*
X182697Y381674D02*
Y382066D01*
Y379598D02*
Y380388D01*
X203287Y381111D02*
Y381674D01*
Y380388D02*
Y381111D01*
Y379598D02*
Y380388D01*
X203327Y383535D02*
X204311D01*
X204350Y380388D02*
Y381111D01*
Y382066D02*
Y383496D01*
Y381111D02*
Y381674D01*
X203287D02*
Y382066D01*
Y383496D01*
X204350Y381674D02*
Y382066D01*
Y379598D02*
Y380388D01*
X219110Y332886D02*
X219674D01*
X218388D02*
X219110D01*
X217598D02*
X218388D01*
X221535Y331862D02*
Y332846D01*
X218388Y331823D02*
X219110D01*
X220066D02*
X221496D01*
X219110D02*
X219674D01*
Y332886D02*
X220066D01*
X221496D01*
X219674Y331823D02*
X220066D01*
X217598D02*
X218388D01*
X219110Y344697D02*
X219674D01*
X218388D02*
X219110D01*
X217598D02*
X218388D01*
X221535Y343673D02*
Y344657D01*
X218388Y343634D02*
X219110D01*
X220066D02*
X221496D01*
X219110D02*
X219674D01*
Y344697D02*
X220066D01*
X221496D01*
X219674Y343634D02*
X220066D01*
X217598D02*
X218388D01*
X219110Y366350D02*
X219674D01*
X218388D02*
X219110D01*
X217598D02*
X218388D01*
X221535Y365327D02*
Y366311D01*
X218388Y365287D02*
X219110D01*
X220066D02*
X221496D01*
X219110D02*
X219674D01*
Y366350D02*
X220066D01*
X221496D01*
X219674Y365287D02*
X220066D01*
X217598D02*
X218388D01*
X198445Y322405D02*
Y322968D01*
Y323690D01*
Y324480D01*
X197421Y320543D02*
X198406D01*
X197382Y322968D02*
Y323690D01*
Y320583D02*
Y322013D01*
Y322405D02*
Y322968D01*
X198445Y322013D02*
Y322405D01*
Y320583D02*
Y322013D01*
X197382D02*
Y322405D01*
Y323690D02*
Y324480D01*
X176791Y322405D02*
Y322968D01*
Y323690D01*
Y324480D01*
X175768Y320543D02*
X176752D01*
X175728Y322968D02*
Y323690D01*
Y320583D02*
Y322013D01*
Y322405D02*
Y322968D01*
X176791Y322013D02*
Y322405D01*
Y320583D02*
Y322013D01*
X175728D02*
Y322405D01*
Y323690D02*
Y324480D01*
X160405Y337728D02*
X160968D01*
X161690D01*
X162480D01*
X158543Y337768D02*
Y338752D01*
X160968Y338791D02*
X161690D01*
X158583D02*
X160013D01*
X160405D02*
X160968D01*
X160013Y337728D02*
X160405D01*
X158583D02*
X160013D01*
Y338791D02*
X160405D01*
X161690D02*
X162480D01*
X160405Y359382D02*
X160968D01*
X161690D01*
X162480D01*
X158543Y359421D02*
Y360405D01*
X160968Y360445D02*
X161690D01*
X158583D02*
X160013D01*
X160405D02*
X160968D01*
X160013Y359382D02*
X160405D01*
X158583D02*
X160013D01*
Y360445D02*
X160405D01*
X161690D02*
X162480D01*
X169823Y381111D02*
Y381674D01*
Y380388D02*
Y381111D01*
Y379598D02*
Y380388D01*
X169862Y383535D02*
X170846D01*
X170886Y380388D02*
Y381111D01*
Y382066D02*
Y383496D01*
Y381111D02*
Y381674D01*
X169823D02*
Y382066D01*
Y383496D01*
X170886Y381674D02*
Y382066D01*
Y379598D02*
Y380388D01*
X191476Y381111D02*
Y381674D01*
Y380388D02*
Y381111D01*
Y379598D02*
Y380388D01*
X191516Y383535D02*
X192500D01*
X192539Y380388D02*
Y381111D01*
Y382066D02*
Y383496D01*
Y381111D02*
Y381674D01*
X191476D02*
Y382066D01*
Y383496D01*
X192539Y381674D02*
Y382066D01*
Y379598D02*
Y380388D01*
X213130Y381111D02*
Y381674D01*
Y380388D02*
Y381111D01*
Y379598D02*
Y380388D01*
X213169Y383535D02*
X214154D01*
X214193Y380388D02*
Y381111D01*
Y382066D02*
Y383496D01*
Y381111D02*
Y381674D01*
X213130D02*
Y382066D01*
Y383496D01*
X214193Y381674D02*
Y382066D01*
Y379598D02*
Y380388D01*
X210256Y322405D02*
Y322968D01*
Y323690D01*
Y324480D01*
X209232Y320543D02*
X210216D01*
X209193Y322968D02*
Y323690D01*
Y320583D02*
Y322013D01*
Y322405D02*
Y322968D01*
X210256Y322013D02*
Y322405D01*
Y320583D02*
Y322013D01*
X209193D02*
Y322405D01*
Y323690D02*
Y324480D01*
X219110Y356508D02*
X219674D01*
X218388D02*
X219110D01*
X217598D02*
X218388D01*
X221535Y355484D02*
Y356469D01*
X218388Y355445D02*
X219110D01*
X220066D02*
X221496D01*
X219110D02*
X219674D01*
Y356508D02*
X220066D01*
X221496D01*
X219674Y355445D02*
X220066D01*
X217598D02*
X218388D01*
X188602Y322405D02*
Y322968D01*
Y323690D01*
Y324480D01*
X187579Y320543D02*
X188563D01*
X187539Y322968D02*
Y323690D01*
Y320583D02*
Y322013D01*
Y322405D02*
Y322968D01*
X188602Y322013D02*
Y322405D01*
Y320583D02*
Y322013D01*
X187539D02*
Y322405D01*
Y323690D02*
Y324480D01*
X166949Y322405D02*
Y322968D01*
Y323690D01*
Y324480D01*
X165925Y320543D02*
X166909D01*
X165886Y322968D02*
Y323690D01*
Y320583D02*
Y322013D01*
Y322405D02*
Y322968D01*
X166949Y322013D02*
Y322405D01*
Y320583D02*
Y322013D01*
X165886D02*
Y322405D01*
Y323690D02*
Y324480D01*
X160405Y347571D02*
X160968D01*
X161690D01*
X162480D01*
X158543Y347610D02*
Y348594D01*
X160968Y348634D02*
X161690D01*
X158583D02*
X160013D01*
X160405D02*
X160968D01*
X160013Y347571D02*
X160405D01*
X158583D02*
X160013D01*
Y348634D02*
X160405D01*
X161690D02*
X162480D01*
X160405Y369224D02*
X160968D01*
X161690D01*
X162480D01*
X158543Y369264D02*
Y370248D01*
X160968Y370287D02*
X161690D01*
X158583D02*
X160013D01*
X160405D02*
X160968D01*
X160013Y369224D02*
X160405D01*
X158583D02*
X160013D01*
Y370287D02*
X160405D01*
X161690D02*
X162480D01*
X179665Y381111D02*
Y381674D01*
Y380388D02*
Y381111D01*
Y379598D02*
Y380388D01*
X179705Y383535D02*
X180689D01*
X180728Y380388D02*
Y381111D01*
Y382066D02*
Y383496D01*
Y381111D02*
Y381674D01*
X179665D02*
Y382066D01*
Y383496D01*
X180728Y381674D02*
Y382066D01*
Y379598D02*
Y380388D01*
X201319Y381111D02*
Y381674D01*
Y380388D02*
Y381111D01*
Y379598D02*
Y380388D01*
X201358Y383535D02*
X202343D01*
X202382Y380388D02*
Y381111D01*
Y382066D02*
Y383496D01*
Y381111D02*
Y381674D01*
X201319D02*
Y382066D01*
Y383496D01*
X202382Y381674D02*
Y382066D01*
Y379598D02*
Y380388D01*
X219110Y334854D02*
X219674D01*
X218388D02*
X219110D01*
X217598D02*
X218388D01*
X221535Y333831D02*
Y334815D01*
X218388Y333791D02*
X219110D01*
X220066D02*
X221496D01*
X219110D02*
X219674D01*
Y334854D02*
X220066D01*
X221496D01*
X219674Y333791D02*
X220066D01*
X217598D02*
X218388D01*
X219110Y346665D02*
X219674D01*
X218388D02*
X219110D01*
X217598D02*
X218388D01*
X221535Y345642D02*
Y346626D01*
X218388Y345602D02*
X219110D01*
X220066D02*
X221496D01*
X219110D02*
X219674D01*
Y346665D02*
X220066D01*
X221496D01*
X219674Y345602D02*
X220066D01*
X217598D02*
X218388D01*
X219110Y368319D02*
X219674D01*
X218388D02*
X219110D01*
X217598D02*
X218388D01*
X221535Y367295D02*
Y368280D01*
X218388Y367256D02*
X219110D01*
X220066D02*
X221496D01*
X219110D02*
X219674D01*
Y368319D02*
X220066D01*
X221496D01*
X219674Y367256D02*
X220066D01*
X217598D02*
X218388D01*
X200413Y322405D02*
Y322968D01*
Y323690D01*
Y324480D01*
X199390Y320543D02*
X200374D01*
X199350Y322968D02*
Y323690D01*
Y320583D02*
Y322013D01*
Y322405D02*
Y322968D01*
X200413Y322013D02*
Y322405D01*
Y320583D02*
Y322013D01*
X199350D02*
Y322405D01*
Y323690D02*
Y324480D01*
X178760Y322405D02*
Y322968D01*
Y323690D01*
Y324480D01*
X177736Y320543D02*
X178720D01*
X177697Y322968D02*
Y323690D01*
Y320583D02*
Y322013D01*
Y322405D02*
Y322968D01*
X178760Y322013D02*
Y322405D01*
Y320583D02*
Y322013D01*
X177697D02*
Y322405D01*
Y323690D02*
Y324480D01*
X160405Y335760D02*
X160968D01*
X161690D01*
X162480D01*
X158543Y335799D02*
Y336784D01*
X160968Y336823D02*
X161690D01*
X158583D02*
X160013D01*
X160405D02*
X160968D01*
X160013Y335760D02*
X160405D01*
X158583D02*
X160013D01*
Y336823D02*
X160405D01*
X161690D02*
X162480D01*
X160405Y357413D02*
X160968D01*
X161690D01*
X162480D01*
X158543Y357453D02*
Y358437D01*
X160968Y358476D02*
X161690D01*
X158583D02*
X160013D01*
X160405D02*
X160968D01*
X160013Y357413D02*
X160405D01*
X158583D02*
X160013D01*
Y358476D02*
X160405D01*
X161690D02*
X162480D01*
X167854Y381111D02*
Y381674D01*
Y380388D02*
Y381111D01*
Y379598D02*
Y380388D01*
X167894Y383535D02*
X168878D01*
X168917Y380388D02*
Y381111D01*
Y382066D02*
Y383496D01*
Y381111D02*
Y381674D01*
X167854D02*
Y382066D01*
Y383496D01*
X168917Y381674D02*
Y382066D01*
Y379598D02*
Y380388D01*
X189508Y381111D02*
Y381674D01*
Y380388D02*
Y381111D01*
Y379598D02*
Y380388D01*
X189547Y383535D02*
X190531D01*
X190571Y380388D02*
Y381111D01*
Y382066D02*
Y383496D01*
Y381111D02*
Y381674D01*
X189508D02*
Y382066D01*
Y383496D01*
X190571Y381674D02*
Y382066D01*
Y379598D02*
Y380388D01*
X211161Y381111D02*
Y381674D01*
Y380388D02*
Y381111D01*
Y379598D02*
Y380388D01*
X211201Y383535D02*
X212185D01*
X212224Y380388D02*
Y381111D01*
Y382066D02*
Y383496D01*
Y381111D02*
Y381674D01*
X211161D02*
Y382066D01*
Y383496D01*
X212224Y381674D02*
Y382066D01*
Y379598D02*
Y380388D01*
Y322405D02*
Y322968D01*
Y323690D01*
Y324480D01*
X211201Y320543D02*
X212185D01*
X211161Y322968D02*
Y323690D01*
Y320583D02*
Y322013D01*
Y322405D02*
Y322968D01*
X212224Y322013D02*
Y322405D01*
Y320583D02*
Y322013D01*
X211161D02*
Y322405D01*
Y323690D02*
Y324480D01*
X219110Y358476D02*
X219674D01*
X218388D02*
X219110D01*
X217598D02*
X218388D01*
X221535Y357453D02*
Y358437D01*
X218388Y357413D02*
X219110D01*
X220066D02*
X221496D01*
X219110D02*
X219674D01*
Y358476D02*
X220066D01*
X221496D01*
X219674Y357413D02*
X220066D01*
X217598D02*
X218388D01*
X190571Y322405D02*
Y322968D01*
Y323690D01*
Y324480D01*
X189547Y320543D02*
X190531D01*
X189508Y322968D02*
Y323690D01*
Y320583D02*
Y322013D01*
Y322405D02*
Y322968D01*
X190571Y322013D02*
Y322405D01*
Y320583D02*
Y322013D01*
X189508D02*
Y322405D01*
Y323690D02*
Y324480D01*
X168917Y322405D02*
Y322968D01*
Y323690D01*
Y324480D01*
X167894Y320543D02*
X168878D01*
X167854Y322968D02*
Y323690D01*
Y320583D02*
Y322013D01*
Y322405D02*
Y322968D01*
X168917Y322013D02*
Y322405D01*
Y320583D02*
Y322013D01*
X167854D02*
Y322405D01*
Y323690D02*
Y324480D01*
X160405Y345602D02*
X160968D01*
X161690D01*
X162480D01*
X158543Y345642D02*
Y346626D01*
X160968Y346665D02*
X161690D01*
X158583D02*
X160013D01*
X160405D02*
X160968D01*
X160013Y345602D02*
X160405D01*
X158583D02*
X160013D01*
Y346665D02*
X160405D01*
X161690D02*
X162480D01*
X160405Y367256D02*
X160968D01*
X161690D01*
X162480D01*
X158543Y367295D02*
Y368280D01*
X160968Y368319D02*
X161690D01*
X158583D02*
X160013D01*
X160405D02*
X160968D01*
X160013Y367256D02*
X160405D01*
X158583D02*
X160013D01*
Y368319D02*
X160405D01*
X161690D02*
X162480D01*
X177697Y381111D02*
Y381674D01*
Y380388D02*
Y381111D01*
Y379598D02*
Y380388D01*
X177736Y383535D02*
X178720D01*
X178760Y380388D02*
Y381111D01*
Y382066D02*
Y383496D01*
Y381111D02*
Y381674D01*
X177697D02*
Y382066D01*
Y383496D01*
X178760Y381674D02*
Y382066D01*
Y379598D02*
Y380388D01*
X199350Y381111D02*
Y381674D01*
Y380388D02*
Y381111D01*
Y379598D02*
Y380388D01*
X199390Y383535D02*
X200374D01*
X200413Y380388D02*
Y381111D01*
Y382066D02*
Y383496D01*
Y381111D02*
Y381674D01*
X199350D02*
Y382066D01*
Y383496D01*
X200413Y381674D02*
Y382066D01*
Y379598D02*
Y380388D01*
X219110Y336823D02*
X219674D01*
X218388D02*
X219110D01*
X217598D02*
X218388D01*
X221535Y335799D02*
Y336784D01*
X218388Y335760D02*
X219110D01*
X220066D02*
X221496D01*
X219110D02*
X219674D01*
Y336823D02*
X220066D01*
X221496D01*
X219674Y335760D02*
X220066D01*
X217598D02*
X218388D01*
X219110Y348634D02*
X219674D01*
X218388D02*
X219110D01*
X217598D02*
X218388D01*
X221535Y347610D02*
Y348594D01*
X218388Y347571D02*
X219110D01*
X220066D02*
X221496D01*
X219110D02*
X219674D01*
Y348634D02*
X220066D01*
X221496D01*
X219674Y347571D02*
X220066D01*
X217598D02*
X218388D01*
X219110Y370287D02*
X219674D01*
X218388D02*
X219110D01*
X217598D02*
X218388D01*
X221535Y369264D02*
Y370248D01*
X218388Y369224D02*
X219110D01*
X220066D02*
X221496D01*
X219110D02*
X219674D01*
Y370287D02*
X220066D01*
X221496D01*
X219674Y369224D02*
X220066D01*
X217598D02*
X218388D01*
X202382Y322405D02*
Y322968D01*
Y323690D01*
Y324480D01*
X201358Y320543D02*
X202343D01*
X201319Y322968D02*
Y323690D01*
Y320583D02*
Y322013D01*
Y322405D02*
Y322968D01*
X202382Y322013D02*
Y322405D01*
Y320583D02*
Y322013D01*
X201319D02*
Y322405D01*
Y323690D02*
Y324480D01*
X180728Y322405D02*
Y322968D01*
Y323690D01*
Y324480D01*
X179705Y320543D02*
X180689D01*
X179665Y322968D02*
Y323690D01*
Y320583D02*
Y322013D01*
Y322405D02*
Y322968D01*
X180728Y322013D02*
Y322405D01*
Y320583D02*
Y322013D01*
X179665D02*
Y322405D01*
Y323690D02*
Y324480D01*
X160405Y333791D02*
X160968D01*
X161690D01*
X162480D01*
X158543Y333831D02*
Y334815D01*
X160968Y334854D02*
X161690D01*
X158583D02*
X160013D01*
X160405D02*
X160968D01*
X160013Y333791D02*
X160405D01*
X158583D02*
X160013D01*
Y334854D02*
X160405D01*
X161690D02*
X162480D01*
X160405Y355445D02*
X160968D01*
X161690D01*
X162480D01*
X158543Y355484D02*
Y356469D01*
X160968Y356508D02*
X161690D01*
X158583D02*
X160013D01*
X160405D02*
X160968D01*
X160013Y355445D02*
X160405D01*
X158583D02*
X160013D01*
Y356508D02*
X160405D01*
X161690D02*
X162480D01*
X165886Y381111D02*
Y381674D01*
Y380388D02*
Y381111D01*
Y379598D02*
Y380388D01*
X165925Y383535D02*
X166909D01*
X166949Y380388D02*
Y381111D01*
Y382066D02*
Y383496D01*
Y381111D02*
Y381674D01*
X165886D02*
Y382066D01*
Y383496D01*
X166949Y381674D02*
Y382066D01*
Y379598D02*
Y380388D01*
X187539Y381111D02*
Y381674D01*
Y380388D02*
Y381111D01*
Y379598D02*
Y380388D01*
X187579Y383535D02*
X188563D01*
X188602Y380388D02*
Y381111D01*
Y382066D02*
Y383496D01*
Y381111D02*
Y381674D01*
X187539D02*
Y382066D01*
Y383496D01*
X188602Y381674D02*
Y382066D01*
Y379598D02*
Y380388D01*
X209193Y381111D02*
Y381674D01*
Y380388D02*
Y381111D01*
Y379598D02*
Y380388D01*
X209232Y383535D02*
X210216D01*
X210256Y380388D02*
Y381111D01*
Y382066D02*
Y383496D01*
Y381111D02*
Y381674D01*
X209193D02*
Y382066D01*
Y383496D01*
X210256Y381674D02*
Y382066D01*
Y379598D02*
Y380388D01*
X214193Y322405D02*
Y322968D01*
Y323690D01*
Y324480D01*
X213169Y320543D02*
X214154D01*
X213130Y322968D02*
Y323690D01*
Y320583D02*
Y322013D01*
Y322405D02*
Y322968D01*
X214193Y322013D02*
Y322405D01*
Y320583D02*
Y322013D01*
X213130D02*
Y322405D01*
Y323690D02*
Y324480D01*
X219110Y360445D02*
X219674D01*
X218388D02*
X219110D01*
X217598D02*
X218388D01*
X221535Y359421D02*
Y360405D01*
X218388Y359382D02*
X219110D01*
X220066D02*
X221496D01*
X219110D02*
X219674D01*
Y360445D02*
X220066D01*
X221496D01*
X219674Y359382D02*
X220066D01*
X217598D02*
X218388D01*
X192539Y322405D02*
Y322968D01*
Y323690D01*
Y324480D01*
X191516Y320543D02*
X192500D01*
X191476Y322968D02*
Y323690D01*
Y320583D02*
Y322013D01*
Y322405D02*
Y322968D01*
X192539Y322013D02*
Y322405D01*
Y320583D02*
Y322013D01*
X191476D02*
Y322405D01*
Y323690D02*
Y324480D01*
X160405Y349539D02*
X160968D01*
X161690D01*
X162480D01*
X158543Y349579D02*
Y350563D01*
X160968Y350602D02*
X161690D01*
X158583D02*
X160013D01*
X160405D02*
X160968D01*
X160013Y349539D02*
X160405D01*
X158583D02*
X160013D01*
Y350602D02*
X160405D01*
X161690D02*
X162480D01*
X170886Y322405D02*
Y322968D01*
Y323690D01*
Y324480D01*
X169862Y320543D02*
X170846D01*
X169823Y322968D02*
Y323690D01*
Y320583D02*
Y322013D01*
Y322405D02*
Y322968D01*
X170886Y322013D02*
Y322405D01*
Y320583D02*
Y322013D01*
X169823D02*
Y322405D01*
Y323690D02*
Y324480D01*
X160405Y343634D02*
X160968D01*
X161690D01*
X162480D01*
X158543Y343673D02*
Y344657D01*
X160968Y344697D02*
X161690D01*
X158583D02*
X160013D01*
X160405D02*
X160968D01*
X160013Y343634D02*
X160405D01*
X158583D02*
X160013D01*
Y344697D02*
X160405D01*
X161690D02*
X162480D01*
X160405Y365287D02*
X160968D01*
X161690D01*
X162480D01*
X158543Y365327D02*
Y366311D01*
X160968Y366350D02*
X161690D01*
X158583D02*
X160013D01*
X160405D02*
X160968D01*
X160013Y365287D02*
X160405D01*
X158583D02*
X160013D01*
Y366350D02*
X160405D01*
X161690D02*
X162480D01*
X175728Y381111D02*
Y381674D01*
Y380388D02*
Y381111D01*
Y379598D02*
Y380388D01*
X175768Y383535D02*
X176752D01*
X176791Y380388D02*
Y381111D01*
Y382066D02*
Y383496D01*
Y381111D02*
Y381674D01*
X175728D02*
Y382066D01*
Y383496D01*
X176791Y381674D02*
Y382066D01*
Y379598D02*
Y380388D01*
X197382Y381111D02*
Y381674D01*
Y380388D02*
Y381111D01*
Y379598D02*
Y380388D01*
X197421Y383535D02*
X198406D01*
X198445Y380388D02*
Y381111D01*
Y382066D02*
Y383496D01*
Y381111D02*
Y381674D01*
X197382D02*
Y382066D01*
Y383496D01*
X198445Y381674D02*
Y382066D01*
Y379598D02*
Y380388D01*
X219110Y338791D02*
X219674D01*
X218388D02*
X219110D01*
X217598D02*
X218388D01*
X221535Y337768D02*
Y338752D01*
X218388Y337728D02*
X219110D01*
X220066D02*
X221496D01*
X219110D02*
X219674D01*
Y338791D02*
X220066D01*
X221496D01*
X219674Y337728D02*
X220066D01*
X217598D02*
X218388D01*
X219110Y350602D02*
X219674D01*
X218388D02*
X219110D01*
X217598D02*
X218388D01*
X221535Y349579D02*
Y350563D01*
X218388Y349539D02*
X219110D01*
X220066D02*
X221496D01*
X219110D02*
X219674D01*
Y350602D02*
X220066D01*
X221496D01*
X219674Y349539D02*
X220066D01*
X217598D02*
X218388D01*
X219110Y372256D02*
X219674D01*
X218388D02*
X219110D01*
X217598D02*
X218388D01*
X221535Y371232D02*
Y372217D01*
X218388Y371193D02*
X219110D01*
X220066D02*
X221496D01*
X219110D02*
X219674D01*
Y372256D02*
X220066D01*
X221496D01*
X219674Y371193D02*
X220066D01*
X217598D02*
X218388D01*
X204350Y322405D02*
Y322968D01*
Y323690D01*
Y324480D01*
X203327Y320543D02*
X204311D01*
X203287Y322968D02*
Y323690D01*
Y320583D02*
Y322013D01*
Y322405D02*
Y322968D01*
X204350Y322013D02*
Y322405D01*
Y320583D02*
Y322013D01*
X203287D02*
Y322405D01*
Y323690D02*
Y324480D01*
X182697Y322405D02*
Y322968D01*
Y323690D01*
Y324480D01*
X181673Y320543D02*
X182657D01*
X181634Y322968D02*
Y323690D01*
Y320583D02*
Y322013D01*
Y322405D02*
Y322968D01*
X182697Y322013D02*
Y322405D01*
Y320583D02*
Y322013D01*
X181634D02*
Y322405D01*
Y323690D02*
Y324480D01*
X160405Y331823D02*
X160968D01*
X161690D01*
X162480D01*
X158543Y331862D02*
Y332846D01*
X160968Y332886D02*
X161690D01*
X158583D02*
X160013D01*
X160405D02*
X160968D01*
X160013Y331823D02*
X160405D01*
X158583D02*
X160013D01*
Y332886D02*
X160405D01*
X161690D02*
X162480D01*
X160405Y353476D02*
X160968D01*
X161690D01*
X162480D01*
X158543Y353516D02*
Y354500D01*
X160968Y354539D02*
X161690D01*
X158583D02*
X160013D01*
X160405D02*
X160968D01*
X160013Y353476D02*
X160405D01*
X158583D02*
X160013D01*
Y354539D02*
X160405D01*
X161690D02*
X162480D01*
X160405Y375130D02*
X160968D01*
X161690D01*
X162480D01*
X158543Y375169D02*
Y376153D01*
X160968Y376193D02*
X161690D01*
X158583D02*
X160013D01*
X160405D02*
X160968D01*
X160013Y375130D02*
X160405D01*
X158583D02*
X160013D01*
Y376193D02*
X160405D01*
X161690D02*
X162480D01*
X185571Y381111D02*
Y381674D01*
Y380388D02*
Y381111D01*
Y379598D02*
Y380388D01*
X185610Y383535D02*
X186594D01*
X186634Y380388D02*
Y381111D01*
Y382066D02*
Y383496D01*
Y381111D02*
Y381674D01*
X185571D02*
Y382066D01*
Y383496D01*
X186634Y381674D02*
Y382066D01*
Y379598D02*
Y380388D01*
X207224Y381111D02*
Y381674D01*
Y380388D02*
Y381111D01*
Y379598D02*
Y380388D01*
X207264Y383535D02*
X208248D01*
X208287Y380388D02*
Y381111D01*
Y382066D02*
Y383496D01*
Y381111D02*
Y381674D01*
X207224D02*
Y382066D01*
Y383496D01*
X208287Y381674D02*
Y382066D01*
Y379598D02*
Y380388D01*
X219110Y328949D02*
X219674D01*
X218388D02*
X219110D01*
X217598D02*
X218388D01*
X221535Y327925D02*
Y328909D01*
X218388Y327886D02*
X219110D01*
X220066D02*
X221496D01*
X219110D02*
X219674D01*
Y328949D02*
X220066D01*
X221496D01*
X219674Y327886D02*
X220066D01*
X217598D02*
X218388D01*
X219110Y362413D02*
X219674D01*
X218388D02*
X219110D01*
X217598D02*
X218388D01*
X221535Y361390D02*
Y362374D01*
X218388Y361350D02*
X219110D01*
X220066D02*
X221496D01*
X219110D02*
X219674D01*
Y362413D02*
X220066D01*
X221496D01*
X219674Y361350D02*
X220066D01*
X217598D02*
X218388D01*
X194508Y322405D02*
Y322968D01*
Y323690D01*
Y324480D01*
X193484Y320543D02*
X194468D01*
X193445Y322968D02*
Y323690D01*
Y320583D02*
Y322013D01*
Y322405D02*
Y322968D01*
X194508Y322013D02*
Y322405D01*
Y320583D02*
Y322013D01*
X193445D02*
Y322405D01*
Y323690D02*
Y324480D01*
X172854Y322405D02*
Y322968D01*
Y323690D01*
Y324480D01*
X171831Y320543D02*
X172815D01*
X171791Y322968D02*
Y323690D01*
Y320583D02*
Y322013D01*
Y322405D02*
Y322968D01*
X172854Y322013D02*
Y322405D01*
Y320583D02*
Y322013D01*
X171791D02*
Y322405D01*
Y323690D02*
Y324480D01*
X160405Y341665D02*
X160968D01*
X161690D01*
X162480D01*
X158543Y341705D02*
Y342689D01*
X160968Y342728D02*
X161690D01*
X158583D02*
X160013D01*
X160405D02*
X160968D01*
X160013Y341665D02*
X160405D01*
X158583D02*
X160013D01*
Y342728D02*
X160405D01*
X161690D02*
X162480D01*
X160405Y363319D02*
X160968D01*
X161690D01*
X162480D01*
X158543Y363358D02*
Y364342D01*
X160968Y364382D02*
X161690D01*
X158583D02*
X160013D01*
X160405D02*
X160968D01*
X160013Y363319D02*
X160405D01*
X158583D02*
X160013D01*
Y364382D02*
X160405D01*
X161690D02*
X162480D01*
X173760Y381111D02*
Y381674D01*
Y380388D02*
Y381111D01*
Y379598D02*
Y380388D01*
X173799Y383535D02*
X174783D01*
X174823Y380388D02*
Y381111D01*
Y382066D02*
Y383496D01*
Y381111D02*
Y381674D01*
X173760D02*
Y382066D01*
Y383496D01*
X174823Y381674D02*
Y382066D01*
Y379598D02*
Y380388D01*
X195413Y381111D02*
Y381674D01*
Y380388D02*
Y381111D01*
Y379598D02*
Y380388D01*
X195453Y383535D02*
X196437D01*
X196476Y380388D02*
Y381111D01*
Y382066D02*
Y383496D01*
Y381111D02*
Y381674D01*
X195413D02*
Y382066D01*
Y383496D01*
X196476Y381674D02*
Y382066D01*
Y379598D02*
Y380388D01*
X219110Y340760D02*
X219674D01*
X218388D02*
X219110D01*
X217598D02*
X218388D01*
X221535Y339736D02*
Y340721D01*
X218388Y339697D02*
X219110D01*
X220066D02*
X221496D01*
X219110D02*
X219674D01*
Y340760D02*
X220066D01*
X221496D01*
X219674Y339697D02*
X220066D01*
X217598D02*
X218388D01*
X219110Y374224D02*
X219674D01*
X218388D02*
X219110D01*
X217598D02*
X218388D01*
X221535Y373201D02*
Y374185D01*
X218388Y373161D02*
X219110D01*
X220066D02*
X221496D01*
X219110D02*
X219674D01*
Y374224D02*
X220066D01*
X221496D01*
X219674Y373161D02*
X220066D01*
X217598D02*
X218388D01*
X206319Y322405D02*
Y322968D01*
Y323690D01*
Y324480D01*
X205295Y320543D02*
X206279D01*
X205256Y322968D02*
Y323690D01*
Y320583D02*
Y322013D01*
Y322405D02*
Y322968D01*
X206319Y322013D02*
Y322405D01*
Y320583D02*
Y322013D01*
X205256D02*
Y322405D01*
Y323690D02*
Y324480D01*
X219110Y352571D02*
X219674D01*
X218388D02*
X219110D01*
X217598D02*
X218388D01*
X221535Y351547D02*
Y352532D01*
X218388Y351508D02*
X219110D01*
X220066D02*
X221496D01*
X219110D02*
X219674D01*
Y352571D02*
X220066D01*
X221496D01*
X219674Y351508D02*
X220066D01*
X217598D02*
X218388D01*
X184665Y322405D02*
Y322968D01*
Y323690D01*
Y324480D01*
X183642Y320543D02*
X184626D01*
X183602Y322968D02*
Y323690D01*
Y320583D02*
Y322013D01*
Y322405D02*
Y322968D01*
X184665Y322013D02*
Y322405D01*
Y320583D02*
Y322013D01*
X183602D02*
Y322405D01*
Y323690D02*
Y324480D01*
X160405Y329854D02*
X160968D01*
X161690D01*
X162480D01*
X158543Y329894D02*
Y330878D01*
X160968Y330917D02*
X161690D01*
X158583D02*
X160013D01*
X160405D02*
X160968D01*
X160013Y329854D02*
X160405D01*
X158583D02*
X160013D01*
Y330917D02*
X160405D01*
X161690D02*
X162480D01*
X160405Y351508D02*
X160968D01*
X161690D01*
X162480D01*
X158543Y351547D02*
Y352532D01*
X160968Y352571D02*
X161690D01*
X158583D02*
X160013D01*
X160405D02*
X160968D01*
X160013Y351508D02*
X160405D01*
X158583D02*
X160013D01*
Y352571D02*
X160405D01*
X161690D02*
X162480D01*
X160405Y373161D02*
X160968D01*
X161690D01*
X162480D01*
X158543Y373201D02*
Y374185D01*
X160968Y374224D02*
X161690D01*
X158583D02*
X160013D01*
X160405D02*
X160968D01*
X160013Y373161D02*
X160405D01*
X158583D02*
X160013D01*
Y374224D02*
X160405D01*
X161690D02*
X162480D01*
X183602Y381111D02*
Y381674D01*
Y380388D02*
Y381111D01*
Y379598D02*
Y380388D01*
X183642Y383535D02*
X184626D01*
X184665Y380388D02*
Y381111D01*
Y382066D02*
Y383496D01*
Y381111D02*
Y381674D01*
X183602D02*
Y382066D01*
Y383496D01*
X184665Y381674D02*
Y382066D01*
Y379598D02*
Y380388D01*
X205256Y381111D02*
Y381674D01*
Y380388D02*
Y381111D01*
Y379598D02*
Y380388D01*
X205295Y383535D02*
X206279D01*
X206319Y380388D02*
Y381111D01*
Y382066D02*
Y383496D01*
Y381111D02*
Y381674D01*
X205256D02*
Y382066D01*
Y383496D01*
X206319Y381674D02*
Y382066D01*
Y379598D02*
Y380388D01*
X219110Y330917D02*
X219674D01*
X218388D02*
X219110D01*
X217598D02*
X218388D01*
X221535Y329894D02*
Y330878D01*
X218388Y329854D02*
X219110D01*
X220066D02*
X221496D01*
X219110D02*
X219674D01*
Y330917D02*
X220066D01*
X221496D01*
X219674Y329854D02*
X220066D01*
X217598D02*
X218388D01*
X219110Y342728D02*
X219674D01*
X218388D02*
X219110D01*
X217598D02*
X218388D01*
X221535Y341705D02*
Y342689D01*
X218388Y341665D02*
X219110D01*
X220066D02*
X221496D01*
X219110D02*
X219674D01*
Y342728D02*
X220066D01*
X221496D01*
X219674Y341665D02*
X220066D01*
X217598D02*
X218388D01*
X219110Y364382D02*
X219674D01*
X218388D02*
X219110D01*
X217598D02*
X218388D01*
X221535Y363358D02*
Y364342D01*
X218388Y363319D02*
X219110D01*
X220066D02*
X221496D01*
X219110D02*
X219674D01*
Y364382D02*
X220066D01*
X221496D01*
X219674Y363319D02*
X220066D01*
X217598D02*
X218388D01*
X196476Y322405D02*
Y322968D01*
Y323690D01*
Y324480D01*
X195453Y320543D02*
X196437D01*
X195413Y322968D02*
Y323690D01*
Y320583D02*
Y322013D01*
Y322405D02*
Y322968D01*
X196476Y322013D02*
Y322405D01*
Y320583D02*
Y322013D01*
X195413D02*
Y322405D01*
Y323690D02*
Y324480D01*
X174823Y322405D02*
Y322968D01*
Y323690D01*
Y324480D01*
X173799Y320543D02*
X174783D01*
X173760Y322968D02*
Y323690D01*
Y320583D02*
Y322013D01*
Y322405D02*
Y322968D01*
X174823Y322013D02*
Y322405D01*
Y320583D02*
Y322013D01*
X173760D02*
Y322405D01*
Y323690D02*
Y324480D01*
X160405Y339697D02*
X160968D01*
X161690D01*
X162480D01*
X158543Y339736D02*
Y340721D01*
X160968Y340760D02*
X161690D01*
X158583D02*
X160013D01*
X160405D02*
X160968D01*
X160013Y339697D02*
X160405D01*
X158583D02*
X160013D01*
Y340760D02*
X160405D01*
X161690D02*
X162480D01*
X160405Y361350D02*
X160968D01*
X161690D01*
X162480D01*
X158543Y361390D02*
Y362374D01*
X160968Y362413D02*
X161690D01*
X158583D02*
X160013D01*
X160405D02*
X160968D01*
X160013Y361350D02*
X160405D01*
X158583D02*
X160013D01*
Y362413D02*
X160405D01*
X161690D02*
X162480D01*
X171791Y381111D02*
Y381674D01*
Y380388D02*
Y381111D01*
Y379598D02*
Y380388D01*
X171831Y383535D02*
X172815D01*
X172854Y380388D02*
Y381111D01*
Y382066D02*
Y383496D01*
Y381111D02*
Y381674D01*
X171791D02*
Y382066D01*
Y383496D01*
X172854Y381674D02*
Y382066D01*
Y379598D02*
Y380388D01*
X193445Y381111D02*
Y381674D01*
Y380388D02*
Y381111D01*
Y379598D02*
Y380388D01*
X193484Y383535D02*
X194468D01*
X194508Y380388D02*
Y381111D01*
Y382066D02*
Y383496D01*
Y381111D02*
Y381674D01*
X193445D02*
Y382066D01*
Y383496D01*
X194508Y381674D02*
Y382066D01*
Y379598D02*
Y380388D01*
X219110Y376193D02*
X219674D01*
X218388D02*
X219110D01*
X217598D02*
X218388D01*
X221535Y375169D02*
Y376153D01*
X218388Y375130D02*
X219110D01*
X220066D02*
X221496D01*
X219110D02*
X219674D01*
Y376193D02*
X220066D01*
X221496D01*
X219674Y375130D02*
X220066D01*
X217598D02*
X218388D01*
X208287Y322405D02*
Y322968D01*
Y323690D01*
Y324480D01*
X207264Y320543D02*
X208248D01*
X207224Y322968D02*
Y323690D01*
Y320583D02*
Y322013D01*
Y322405D02*
Y322968D01*
X208287Y322013D02*
Y322405D01*
Y320583D02*
Y322013D01*
X207224D02*
Y322405D01*
Y323690D02*
Y324480D01*
X219110Y354539D02*
X219674D01*
X218388D02*
X219110D01*
X217598D02*
X218388D01*
X221535Y353516D02*
Y354500D01*
X218388Y353476D02*
X219110D01*
X220066D02*
X221496D01*
X219110D02*
X219674D01*
Y354539D02*
X220066D01*
X221496D01*
X219674Y353476D02*
X220066D01*
X217598D02*
X218388D01*
X186634Y322405D02*
Y322968D01*
Y323690D01*
Y324480D01*
X185610Y320543D02*
X186594D01*
X185571Y322968D02*
Y323690D01*
Y320583D02*
Y322013D01*
Y322405D02*
Y322968D01*
X186634Y322013D02*
Y322405D01*
Y320583D02*
Y322013D01*
X185571D02*
Y322405D01*
Y323690D02*
Y324480D01*
X160405Y327886D02*
X160968D01*
X161690D01*
X162480D01*
X158543Y327925D02*
Y328909D01*
X160968Y328949D02*
X161690D01*
X158583D02*
X160013D01*
X160405D02*
X160968D01*
X160013Y327886D02*
X160405D01*
X158583D02*
X160013D01*
Y328949D02*
X160405D01*
X161690D02*
X162480D01*
X163071Y326693D02*
Y377385D01*
X215385Y379008D02*
X217008Y377385D01*
X162480Y326449D02*
X163071Y326693D01*
X215630Y324480D02*
X217598Y326449D01*
X162480D02*
Y377630D01*
X217598Y326449D02*
Y377630D01*
X215630Y379598D02*
X217598Y377630D01*
X163071Y326693D02*
X164693Y325071D01*
X215385D01*
X217008Y326693D01*
X164449Y324480D02*
X164693Y325071D01*
X162480Y377630D02*
X164449Y379598D01*
X163071Y377385D02*
X164693Y379008D01*
X215385Y325071D02*
X215630Y324480D01*
X162480Y377630D02*
X163071Y377385D01*
X164449Y324480D02*
X215630D01*
X215385Y379008D02*
X215630Y379598D01*
X164449D02*
X215630D01*
X164693Y379008D02*
X215385D01*
X217008Y326693D02*
X217598Y326449D01*
X164449Y379598D02*
X164693Y379008D01*
X217008Y326693D02*
Y377385D01*
X162480Y326449D02*
X164449Y324480D01*
X217008Y377385D02*
X217598Y377630D01*
D81*
X295244Y423276D02*
X300756D01*
X295244Y414811D02*
X300756D01*
X295244D02*
Y423276D01*
X300756Y414811D02*
Y423276D01*
X295244Y451732D02*
X300756D01*
X295244Y443268D02*
X300756D01*
X295244D02*
Y451732D01*
X300756Y443268D02*
Y451732D01*
X391268Y295244D02*
Y300756D01*
X399732Y295244D02*
Y300756D01*
X391268D02*
X399732D01*
X391268Y295244D02*
X399732D01*
X244756Y366311D02*
Y374776D01*
X239244Y366311D02*
Y374776D01*
Y366311D02*
X244756D01*
X239244Y374776D02*
X244756D01*
X133744Y351268D02*
Y359732D01*
X139256Y351268D02*
Y359732D01*
X133744Y351268D02*
X139256D01*
X133744Y359732D02*
X139256D01*
X141744Y359311D02*
Y367776D01*
X147256Y359311D02*
Y367776D01*
X141744D02*
X147256D01*
X141744Y359311D02*
X147256D01*
X147256Y344268D02*
Y352732D01*
X141744Y344268D02*
Y352732D01*
Y344268D02*
X147256D01*
X141744Y352732D02*
X147256D01*
X190768Y402756D02*
X199232D01*
X190768Y397244D02*
X199232D01*
Y402756D01*
X190768Y397244D02*
Y402756D01*
X198224Y305244D02*
X206689D01*
X198224Y310756D02*
X206689D01*
X198224Y305244D02*
Y310756D01*
X206689Y305244D02*
Y310756D01*
X338244Y402493D02*
X343756D01*
X338244Y410957D02*
X343756D01*
X338244Y402493D02*
Y410957D01*
X343756Y402493D02*
Y410957D01*
X312244Y394768D02*
X317756D01*
X312244Y403232D02*
X317756D01*
X312244Y394768D02*
Y403232D01*
X317756Y394768D02*
Y403232D01*
X310744Y350449D02*
X316256D01*
X310744Y358914D02*
X316256D01*
X310744Y350449D02*
Y358914D01*
X316256Y350449D02*
Y358914D01*
X336744Y357414D02*
X342256D01*
X336744Y348949D02*
X342256D01*
Y357414D01*
X336744Y348949D02*
Y357414D01*
X362768Y348969D02*
Y354481D01*
X371232Y348969D02*
Y354481D01*
X362768D02*
X371232D01*
X362768Y348969D02*
X371232D01*
X366811Y389969D02*
Y395481D01*
X375276Y389969D02*
Y395481D01*
X366811D02*
X375276D01*
X366811Y389969D02*
X375276D01*
X467744Y334493D02*
X473256D01*
X467744Y342957D02*
X473256D01*
X467744Y334493D02*
Y342957D01*
X473256Y334493D02*
Y342957D01*
X468244Y393957D02*
X473756D01*
X468244Y385493D02*
X473756D01*
Y393957D01*
X468244Y385493D02*
Y393957D01*
X379244Y352520D02*
X384756D01*
X379244Y344056D02*
X384756D01*
Y352520D01*
X379244Y344056D02*
Y352520D01*
X384744Y391993D02*
X390256D01*
X384744Y400457D02*
X390256D01*
X384744Y391993D02*
Y400457D01*
X390256Y391993D02*
Y400457D01*
M02*
