M48
;Layer_Color=9474304
;FILE_FORMAT=2:5
INCH,TZ
;TYPE=PLATED
T1F00S00C0.01000
T2F00S00C0.02000
T3F00S00C0.02756
T4F00S00C0.02800
T5F00S00C0.03000
T6F00S00C0.03100
T7F00S00C0.03150
T8F00S00C0.03346
T9F00S00C0.03400
T10F00S00C0.03543
T11F00S00C0.04000
T12F00S00C0.04500
%
T01
X200500Y314500
X206000Y314000
T02
X150500Y345500
X150000Y353500
X150500Y358500
X232000Y368000
X231500Y373000
X199000Y394000
X190500
T03
X28500Y46894
Y54768
X319839
Y46894
Y62642
Y70516
Y78390
Y86264
Y94138
Y102012
Y109886
Y117760
Y125634
Y133508
Y141382
Y149256
Y157130
Y165004
Y172878
Y180752
Y188626
Y196500
X28500
Y188626
Y180752
Y172878
Y165004
Y157130
Y149256
Y141382
Y133508
Y125634
Y117760
Y109886
Y102012
Y94138
Y86264
Y78390
Y70516
Y62642
X41500Y283000
X11500
X11000Y368500
X41000
T04
X292000Y140500
X429500Y257000
X433000Y266500
X438500Y252500
X454500Y267000
X436750Y333250
X422500Y340500
X418000Y367000
X375500Y344500
X413500Y372500
X409000Y377500
X404000Y382500
X381000Y406500
X481000Y405000
X486500Y394500
T05
X409000Y51500
X429000
X541500Y108500
X561500
Y138500
X541500
Y173500
X561500
Y203500
X541500
X429000Y192500
X409000
Y162500
X429000
X459000Y137000
X479000
Y107000
X459000
X429000Y81500
X409000
X379000Y107000
Y137000
X359000
Y107000
T06
X506000Y340725
Y350725
Y360725
X536000
Y350725
Y340725
X536500Y312500
X546500
X556500
X566500
X576500
X586500
X596500
X606500
Y282500
X596500
X586500
X576500
X566500
X556500
X546500
X536500
X610000Y340725
Y350725
Y360725
X640000
Y350725
Y340725
Y370725
Y380725
Y390725
Y400725
X610000
Y390725
Y380725
Y370725
X536000
Y380725
Y390725
Y400725
X506000
Y390725
Y380725
Y370725
T07
X390000Y420157
X390000Y439843
X470000Y446842
X470000Y427157
X305000Y424500
Y443713
T08
X449000Y51000
X583000Y108500
Y138500
Y174000
Y204000
X451500Y192500
Y162500
X499500Y136500
Y106500
X449000Y81000
X401500Y107000
Y137000
X352500Y339725
X327000
X551775Y365500
X581775
Y377500
Y389500
Y403000
X551775
Y389500
Y377500
X352500Y369725
X355500Y392225
X328000
X327000Y369725
X328000Y422225
X355500
T09
X415000Y288000
Y298000
Y308000
Y318000
X445000
Y308000
Y298000
Y288000
X560500Y421500
Y431500
Y441500
Y451500
X590500
Y441500
Y431500
Y421500
T10
X105000Y292000
Y302000
Y312000
Y322000
Y332000
Y342000
Y352000
Y362000
X115000
Y352000
Y342000
Y332000
Y322000
Y312000
Y302000
Y292000
X130000Y277000
Y267000
X140000
Y277000
X150000
Y267000
X160000
Y277000
X170000
Y267000
X180000
Y277000
X190000
Y267000
X200000
Y277000
X210000
Y267000
X220000
Y277000
X230000
Y267000
X240000
Y277000
X250000
Y267000
X265000Y292000
X275000
Y302000
X265000
Y312000
X275000
Y322000
X265000
Y332000
X275000
Y342000
X265000
Y352000
X275000
Y362000
X265000
X670000Y426500
Y436500
Y446500
Y456500
X249500Y439500
Y429500
X239500
Y439500
X229500
Y429500
X219500
Y439500
X265000Y412000
Y402000
Y392000
Y382000
Y372000
X275000
Y382000
Y392000
Y402000
Y412000
X209500Y429500
Y439500
X199500
Y429500
X189500
Y439500
X179500
Y429500
X169500
Y439500
X159500
Y429500
X149500
Y439500
X139500
Y429500
X129500
Y439500
X115000Y412000
X105000
Y402000
X115000
Y392000
X105000
Y382000
X115000
Y372000
X105000
X63000Y434000
Y444000
Y454000
T11
X539250Y61300
X554000
X568750
X445000Y420000
Y430000
Y440000
Y450000
X415000
Y440000
Y430000
Y420000
T12
X11500Y314500
X21500Y324500
X11500Y334500
X22000Y429500
Y453909
X41685Y441311
M30
