G04*
G04 #@! TF.GenerationSoftware,Altium Limited,Altium Designer,20.0.9 (164)*
G04*
G04 Layer_Color=32768*
%FSLAX25Y25*%
%MOIN*%
G70*
G01*
G75*
%ADD11C,0.00600*%
%ADD81C,0.00394*%
G36*
X446500Y454000D02*
X449000D01*
Y416000D01*
X446500D01*
Y414500D01*
X413500D01*
Y416000D01*
X411000D01*
Y454000D01*
X413500D01*
Y455500D01*
X446500D01*
Y454000D01*
D02*
G37*
G36*
X438700Y344300D02*
X419300D01*
Y363700D01*
X438700D01*
Y344300D01*
D02*
G37*
G36*
X26750Y302500D02*
X6250D01*
Y346500D01*
X26750D01*
Y302500D01*
D02*
G37*
G36*
X448700Y282000D02*
X411300D01*
Y324000D01*
X448700D01*
Y282000D01*
D02*
G37*
G36*
X594200Y415500D02*
X556800D01*
Y457500D01*
X594200D01*
Y415500D01*
D02*
G37*
G36*
X643550Y330975D02*
X606450D01*
Y410475D01*
X643550D01*
Y330975D01*
D02*
G37*
G36*
X539550D02*
X502450D01*
Y410475D01*
X539550D01*
Y330975D01*
D02*
G37*
G36*
X611250Y278950D02*
X531750D01*
Y316050D01*
X611250D01*
Y278950D01*
D02*
G37*
D11*
X6250Y302500D02*
X26750D01*
Y346500D01*
X6250D02*
X26750D01*
X6250Y302500D02*
Y346500D01*
X411000Y416000D02*
Y454000D01*
X413500D01*
X446500D02*
X449000D01*
Y416000D02*
Y454000D01*
X446500Y416000D02*
X449000D01*
X411000D02*
X413500D01*
Y414500D02*
Y416000D01*
Y454000D02*
Y455500D01*
X446500D01*
Y454000D02*
Y455500D01*
Y414500D02*
Y416000D01*
X413500Y414500D02*
X446500D01*
X411300Y282000D02*
Y324000D01*
X448700D01*
Y282000D02*
Y324000D01*
X411300Y282000D02*
X448700D01*
X606450Y410475D02*
X643550D01*
X606450Y330975D02*
Y410475D01*
Y330975D02*
X643550D01*
Y410475D01*
X502450D02*
X539550D01*
X502450Y330975D02*
Y410475D01*
Y330975D02*
X539550D01*
Y410475D01*
X531750Y316050D02*
X611250D01*
Y278950D02*
Y316050D01*
X531750Y278950D02*
X611250D01*
X531750D02*
Y316050D01*
X556800Y415500D02*
Y457500D01*
X594200D01*
Y415500D02*
Y457500D01*
X556800Y415500D02*
X594200D01*
X419300Y344300D02*
X438700D01*
X419300D02*
Y363700D01*
X438700D01*
Y344300D02*
Y363700D01*
D81*
X294260Y425933D02*
X301740D01*
X294260Y412153D02*
X301740D01*
X294260D02*
Y425933D01*
X301740Y412153D02*
Y425933D01*
X298000Y417075D02*
Y421012D01*
X296031Y419043D02*
X299969D01*
X294260Y454390D02*
X301740D01*
X294260Y440610D02*
X301740D01*
X294260D02*
Y454390D01*
X301740Y440610D02*
Y454390D01*
X298000Y445532D02*
Y449469D01*
X296031Y447500D02*
X299969D01*
X388610Y294260D02*
Y301740D01*
X402390Y294260D02*
Y301740D01*
X388610D02*
X402390D01*
X388610Y294260D02*
X402390D01*
X393531Y298000D02*
X397468D01*
X395500Y296031D02*
Y299969D01*
X240032Y370543D02*
X243969D01*
X242000Y368575D02*
Y372512D01*
X245740Y363653D02*
Y377433D01*
X238260Y363653D02*
Y377433D01*
Y363653D02*
X245740D01*
X238260Y377433D02*
X245740D01*
X134531Y355500D02*
X138469D01*
X136500Y353532D02*
Y357469D01*
X132760Y348610D02*
Y362390D01*
X140240Y348610D02*
Y362390D01*
X132760Y348610D02*
X140240D01*
X132760Y362390D02*
X140240D01*
X142532Y363543D02*
X146468D01*
X144500Y361575D02*
Y365512D01*
X140760Y356653D02*
Y370433D01*
X148240Y356653D02*
Y370433D01*
X140760D02*
X148240D01*
X140760Y356653D02*
X148240D01*
X142532Y348500D02*
X146468D01*
X144500Y346532D02*
Y350468D01*
X148240Y341610D02*
Y355390D01*
X140760Y341610D02*
Y355390D01*
Y341610D02*
X148240D01*
X140760Y355390D02*
X148240D01*
X195000Y398031D02*
Y401968D01*
X193032Y400000D02*
X196968D01*
X188110Y403740D02*
X201890D01*
X188110Y396260D02*
X201890D01*
Y403740D01*
X188110Y396260D02*
Y403740D01*
X202457Y306031D02*
Y309968D01*
X200488Y308000D02*
X204425D01*
X195567Y304260D02*
X209347D01*
X195567Y311740D02*
X209347D01*
X195567Y304260D02*
Y311740D01*
X209347Y304260D02*
Y311740D01*
X337260Y399835D02*
X344740D01*
X337260Y413615D02*
X344740D01*
X337260Y399835D02*
Y413615D01*
X344740Y399835D02*
Y413615D01*
X341000Y404756D02*
Y408694D01*
X339032Y406725D02*
X342969D01*
X311260Y392110D02*
X318740D01*
X311260Y405890D02*
X318740D01*
X311260Y392110D02*
Y405890D01*
X318740Y392110D02*
Y405890D01*
X315000Y397031D02*
Y400969D01*
X313032Y399000D02*
X316968D01*
X309760Y347792D02*
X317240D01*
X309760Y361572D02*
X317240D01*
X309760Y347792D02*
Y361572D01*
X317240Y347792D02*
Y361572D01*
X313500Y352713D02*
Y356650D01*
X311531Y354682D02*
X315469D01*
X335760Y360071D02*
X343240D01*
X335760Y346292D02*
X343240D01*
Y360071D01*
X335760Y346292D02*
Y360071D01*
X339500Y351213D02*
Y355150D01*
X337531Y353182D02*
X341469D01*
X360110Y347985D02*
Y355465D01*
X373890Y347985D02*
Y355465D01*
X360110D02*
X373890D01*
X360110Y347985D02*
X373890D01*
X365032Y351725D02*
X368969D01*
X367000Y349757D02*
Y353694D01*
X364154Y388985D02*
Y396465D01*
X377933Y388985D02*
Y396465D01*
X364154D02*
X377933D01*
X364154Y388985D02*
X377933D01*
X369075Y392725D02*
X373012D01*
X371043Y390757D02*
Y394693D01*
X466760Y331835D02*
X474240D01*
X466760Y345615D02*
X474240D01*
X466760Y331835D02*
Y345615D01*
X474240Y331835D02*
Y345615D01*
X470500Y336756D02*
Y340693D01*
X468532Y338725D02*
X472469D01*
X467260Y396615D02*
X474740D01*
X467260Y382835D02*
X474740D01*
Y396615D01*
X467260Y382835D02*
Y396615D01*
X471000Y387756D02*
Y391693D01*
X469031Y389725D02*
X472968D01*
X378260Y355178D02*
X385740D01*
X378260Y341398D02*
X385740D01*
Y355178D01*
X378260Y341398D02*
Y355178D01*
X382000Y346320D02*
Y350256D01*
X380031Y348288D02*
X383968D01*
X383760Y389335D02*
X391240D01*
X383760Y403115D02*
X391240D01*
X383760Y389335D02*
Y403115D01*
X391240Y389335D02*
Y403115D01*
X387500Y394256D02*
Y398194D01*
X385531Y396225D02*
X389469D01*
X155748Y317748D02*
Y386252D01*
X224252Y317748D02*
Y386252D01*
X155748D02*
X224252D01*
X155748Y317748D02*
X224252D01*
X188031Y352000D02*
X191969D01*
X190000Y350031D02*
Y353969D01*
M02*
