G04*
G04 #@! TF.GenerationSoftware,Altium Limited,Altium Designer,20.0.9 (164)*
G04*
G04 Layer_Color=8421504*
%FSLAX25Y25*%
%MOIN*%
G70*
G01*
G75*
%ADD16R,0.04724X0.05512*%
%ADD17R,0.05512X0.04724*%
%ADD18O,0.06890X0.01181*%
%ADD19O,0.01181X0.06890*%
G36*
X419500Y351547D02*
Y350547D01*
X421900D01*
Y351547D01*
X419500D01*
D02*
G37*
G36*
Y353516D02*
Y352516D01*
X421900D01*
Y353516D01*
X419500D01*
D02*
G37*
G36*
X425547Y346900D02*
Y344500D01*
X426547D01*
Y346900D01*
X425547D01*
D02*
G37*
G36*
X427516D02*
Y344500D01*
X428516D01*
Y346900D01*
X427516D01*
D02*
G37*
G36*
X424306Y353607D02*
Y349307D01*
X428607D01*
Y353607D01*
X424306D01*
D02*
G37*
G36*
X428516Y361100D02*
X427516D01*
Y363500D01*
X428516D01*
Y361100D01*
D02*
G37*
G36*
X426547D02*
X425547D01*
Y363500D01*
X426547D01*
Y361100D01*
D02*
G37*
G36*
X421900Y356453D02*
X419500D01*
Y357453D01*
X421900D01*
Y356453D01*
D02*
G37*
G36*
Y354484D02*
X419500D01*
Y355484D01*
X421900D01*
Y354484D01*
D02*
G37*
G36*
X428607Y354394D02*
X424306D01*
Y358694D01*
X428607D01*
Y354394D01*
D02*
G37*
G36*
X429484Y346900D02*
Y344500D01*
X430484D01*
Y346900D01*
X429484D01*
D02*
G37*
G36*
X431453D02*
Y344500D01*
X432453D01*
Y346900D01*
X431453D01*
D02*
G37*
G36*
X429393Y353607D02*
Y349307D01*
X433694D01*
Y353607D01*
X429393D01*
D02*
G37*
G36*
X436100Y351547D02*
Y350547D01*
X438500D01*
Y351547D01*
X436100D01*
D02*
G37*
G36*
Y353516D02*
Y352516D01*
X438500D01*
Y353516D01*
X436100D01*
D02*
G37*
G36*
X432453Y361100D02*
X431453D01*
Y363500D01*
X432453D01*
Y361100D01*
D02*
G37*
G36*
X430484D02*
X429484D01*
Y363500D01*
X430484D01*
Y361100D01*
D02*
G37*
G36*
X433694Y354394D02*
X429393D01*
Y358694D01*
X433694D01*
Y354394D01*
D02*
G37*
G36*
X436100Y355484D02*
Y354484D01*
X438500D01*
Y355484D01*
X436100D01*
D02*
G37*
G36*
Y357453D02*
Y356453D01*
X438500D01*
Y357453D01*
X436100D01*
D02*
G37*
D16*
X391957Y298000D02*
D03*
X399043D02*
D03*
X363457Y351725D02*
D03*
X370543D02*
D03*
X367500Y392725D02*
D03*
X374587D02*
D03*
D17*
X136500Y351957D02*
D03*
Y359043D02*
D03*
X341000Y403182D02*
D03*
Y410268D02*
D03*
X315000Y395457D02*
D03*
Y402543D02*
D03*
X313500Y351138D02*
D03*
Y358225D02*
D03*
X339500Y356725D02*
D03*
Y349638D02*
D03*
X470500Y335182D02*
D03*
Y342268D02*
D03*
X471000Y393268D02*
D03*
Y386182D02*
D03*
X382000Y351831D02*
D03*
Y344745D02*
D03*
X387500Y392682D02*
D03*
Y399768D02*
D03*
D18*
X160177Y375622D02*
D03*
Y373654D02*
D03*
Y371685D02*
D03*
Y369717D02*
D03*
Y367748D02*
D03*
Y365779D02*
D03*
Y363811D02*
D03*
Y361842D02*
D03*
Y359874D02*
D03*
Y357906D02*
D03*
Y355937D02*
D03*
Y353969D02*
D03*
Y352000D02*
D03*
Y350031D02*
D03*
Y348063D02*
D03*
Y346094D02*
D03*
Y344126D02*
D03*
Y342158D02*
D03*
Y340189D02*
D03*
Y338221D02*
D03*
Y336252D02*
D03*
Y334283D02*
D03*
Y332315D02*
D03*
Y330346D02*
D03*
Y328378D02*
D03*
X219823D02*
D03*
Y330346D02*
D03*
Y332315D02*
D03*
Y334283D02*
D03*
Y336252D02*
D03*
Y338221D02*
D03*
Y340189D02*
D03*
Y342158D02*
D03*
Y344126D02*
D03*
Y346094D02*
D03*
Y348063D02*
D03*
Y350031D02*
D03*
Y352000D02*
D03*
Y353969D02*
D03*
Y355937D02*
D03*
Y357906D02*
D03*
Y359874D02*
D03*
Y361842D02*
D03*
Y363811D02*
D03*
Y365779D02*
D03*
Y367748D02*
D03*
Y369717D02*
D03*
Y371685D02*
D03*
Y373654D02*
D03*
Y375622D02*
D03*
D19*
X166378Y322177D02*
D03*
X168347D02*
D03*
X170315D02*
D03*
X172283D02*
D03*
X174252D02*
D03*
X176221D02*
D03*
X178189D02*
D03*
X180157D02*
D03*
X182126D02*
D03*
X184095D02*
D03*
X186063D02*
D03*
X188031D02*
D03*
X190000D02*
D03*
X191969D02*
D03*
X193937D02*
D03*
X195905D02*
D03*
X197874D02*
D03*
X199843D02*
D03*
X201811D02*
D03*
X203780D02*
D03*
X205748D02*
D03*
X207716D02*
D03*
X209685D02*
D03*
X211653D02*
D03*
X213622D02*
D03*
Y381823D02*
D03*
X211653D02*
D03*
X209685D02*
D03*
X207716D02*
D03*
X205748D02*
D03*
X203780D02*
D03*
X201811D02*
D03*
X199843D02*
D03*
X197874D02*
D03*
X195905D02*
D03*
X193937D02*
D03*
X191969D02*
D03*
X190000D02*
D03*
X188031D02*
D03*
X186063D02*
D03*
X184095D02*
D03*
X182126D02*
D03*
X180157D02*
D03*
X178189D02*
D03*
X176221D02*
D03*
X174252D02*
D03*
X172283D02*
D03*
X170315D02*
D03*
X168347D02*
D03*
X166378D02*
D03*
M02*
