G04*
G04 #@! TF.GenerationSoftware,Altium Limited,Altium Designer,20.0.9 (164)*
G04*
G04 Layer_Physical_Order=1*
G04 Layer_Color=255*
%FSLAX25Y25*%
%MOIN*%
G70*
G01*
G75*
%ADD12C,0.01000*%
%ADD16R,0.04724X0.05512*%
%ADD17R,0.05512X0.04724*%
%ADD18O,0.06890X0.01181*%
%ADD19O,0.01181X0.06890*%
%ADD35R,0.06000X0.06000*%
%ADD36C,0.06000*%
%ADD52R,0.01000X0.02400*%
%ADD53R,0.02400X0.01000*%
%ADD54R,0.10200X0.10200*%
%ADD55C,0.02000*%
%ADD56C,0.05512*%
%ADD57P,0.05966X8X292.5*%
%ADD58C,0.05906*%
%ADD59R,0.05906X0.05906*%
%ADD60C,0.07500*%
%ADD61C,0.05315*%
%ADD62R,0.05315X0.05315*%
%ADD63C,0.06500*%
%ADD64R,0.11000X0.11000*%
%ADD65C,0.05400*%
%ADD66R,0.05400X0.05400*%
%ADD67R,0.05100X0.05100*%
%ADD68C,0.05100*%
%ADD69R,0.05100X0.05100*%
%ADD70C,0.04724*%
%ADD71R,0.05906X0.05906*%
%ADD72C,0.05000*%
%ADD73R,0.05000X0.05000*%
%ADD74R,0.06000X0.10000*%
%ADD75O,0.06000X0.10000*%
%ADD76C,0.03000*%
%ADD77C,0.02000*%
G36*
X677471Y1529D02*
X1529D01*
Y462471D01*
X677471D01*
X677471Y1529D01*
D02*
G37*
%LPC*%
G36*
X673953Y460453D02*
X666047D01*
Y452547D01*
X673953D01*
Y460453D01*
D02*
G37*
G36*
X22000Y458700D02*
X20760Y458537D01*
X19604Y458059D01*
X18612Y457297D01*
X17851Y456305D01*
X17372Y455149D01*
X17209Y453909D01*
X17372Y452669D01*
X17851Y451514D01*
X18612Y450522D01*
X19604Y449760D01*
X19961Y449613D01*
Y444293D01*
X20116Y443513D01*
X20558Y442851D01*
X38961Y424449D01*
Y371173D01*
X38602Y370898D01*
X38063Y370196D01*
X37724Y369378D01*
X37609Y368500D01*
X37724Y367622D01*
X38063Y366804D01*
X38248Y366563D01*
Y363925D01*
X12860Y338537D01*
X12609Y338641D01*
X11500Y338787D01*
X10390Y338641D01*
X9357Y338212D01*
X8469Y337531D01*
X7788Y336643D01*
X7359Y335610D01*
X7213Y334500D01*
X7359Y333390D01*
X7788Y332357D01*
X8469Y331469D01*
X9357Y330788D01*
X10390Y330359D01*
X11500Y330213D01*
X12609Y330359D01*
X13643Y330788D01*
X14531Y331469D01*
X15212Y332357D01*
X15641Y333390D01*
X15787Y334500D01*
X15647Y335557D01*
X41729Y361639D01*
X42171Y362300D01*
X42327Y363081D01*
Y365410D01*
X42696Y365563D01*
X43398Y366102D01*
X43937Y366804D01*
X44276Y367622D01*
X44391Y368500D01*
X44276Y369378D01*
X43937Y370196D01*
X43398Y370898D01*
X43039Y371173D01*
Y425293D01*
X42884Y426074D01*
X42442Y426735D01*
X24039Y445138D01*
Y449613D01*
X24396Y449760D01*
X25388Y450522D01*
X26149Y451514D01*
X26211Y451663D01*
X59047D01*
Y450047D01*
X66953D01*
Y457953D01*
X59047D01*
Y455742D01*
X26382D01*
X26149Y456305D01*
X25388Y457297D01*
X24396Y458059D01*
X23240Y458537D01*
X22000Y458700D01*
D02*
G37*
G36*
X473658Y450500D02*
X470500D01*
Y447342D01*
X473658D01*
Y450500D01*
D02*
G37*
G36*
X469500D02*
X466342D01*
Y447342D01*
X469500D01*
Y450500D01*
D02*
G37*
G36*
X419000Y454000D02*
X411000D01*
Y446000D01*
X419000D01*
Y454000D01*
D02*
G37*
G36*
X473658Y446343D02*
X470500D01*
Y443185D01*
X473658D01*
Y446343D01*
D02*
G37*
G36*
X469500D02*
X466342D01*
Y443185D01*
X469500D01*
Y446343D01*
D02*
G37*
G36*
X670000Y450487D02*
X668968Y450351D01*
X668007Y449953D01*
X667181Y449319D01*
X666547Y448493D01*
X666149Y447532D01*
X666013Y446500D01*
X666149Y445468D01*
X666547Y444507D01*
X667181Y443681D01*
X668007Y443047D01*
X668968Y442649D01*
X670000Y442513D01*
X671032Y442649D01*
X671993Y443047D01*
X672819Y443681D01*
X673453Y444507D01*
X673851Y445468D01*
X673987Y446500D01*
X673851Y447532D01*
X673453Y448493D01*
X672819Y449319D01*
X671993Y449953D01*
X671032Y450351D01*
X670000Y450487D01*
D02*
G37*
G36*
X415000Y444034D02*
X413956Y443897D01*
X412983Y443494D01*
X412147Y442853D01*
X411523Y442039D01*
X393657D01*
Y443500D01*
X386343D01*
Y436185D01*
X393657D01*
Y437961D01*
X411523D01*
X412147Y437147D01*
X412983Y436506D01*
X413956Y436103D01*
X415000Y435965D01*
X416044Y436103D01*
X417017Y436506D01*
X417853Y437147D01*
X418494Y437983D01*
X418897Y438956D01*
X419034Y440000D01*
X418897Y441044D01*
X418494Y442017D01*
X417853Y442853D01*
X417017Y443494D01*
X416044Y443897D01*
X415000Y444034D01*
D02*
G37*
G36*
X63000Y447987D02*
X61968Y447851D01*
X61007Y447453D01*
X60181Y446819D01*
X59547Y445993D01*
X59149Y445032D01*
X59013Y444000D01*
X59149Y442968D01*
X59547Y442007D01*
X60181Y441181D01*
X61007Y440547D01*
X61968Y440149D01*
X63000Y440013D01*
X64032Y440149D01*
X64993Y440547D01*
X65819Y441181D01*
X66453Y442007D01*
X66851Y442968D01*
X66987Y444000D01*
X66851Y445032D01*
X66453Y445993D01*
X65819Y446819D01*
X64993Y447453D01*
X64032Y447851D01*
X63000Y447987D01*
D02*
G37*
G36*
X220000Y443421D02*
Y440000D01*
X223421D01*
X223351Y440532D01*
X222953Y441493D01*
X222319Y442319D01*
X221493Y442953D01*
X220532Y443351D01*
X220000Y443421D01*
D02*
G37*
G36*
X210000D02*
Y440000D01*
X213421D01*
X213351Y440532D01*
X212953Y441493D01*
X212319Y442319D01*
X211493Y442953D01*
X210532Y443351D01*
X210000Y443421D01*
D02*
G37*
G36*
X209000D02*
X208468Y443351D01*
X207507Y442953D01*
X206681Y442319D01*
X206047Y441493D01*
X205649Y440532D01*
X205579Y440000D01*
X209000D01*
Y443421D01*
D02*
G37*
G36*
X219000D02*
X218468Y443351D01*
X217507Y442953D01*
X216681Y442319D01*
X216047Y441493D01*
X215649Y440532D01*
X215579Y440000D01*
X219000D01*
Y443421D01*
D02*
G37*
G36*
X306878Y447469D02*
X303122D01*
X301244Y445590D01*
Y441835D01*
X303122Y439957D01*
X306878D01*
X308756Y441835D01*
Y445590D01*
X306878Y447469D01*
D02*
G37*
G36*
X41685Y446102D02*
X40445Y445939D01*
X39290Y445460D01*
X38297Y444699D01*
X37536Y443707D01*
X37057Y442551D01*
X36894Y441311D01*
X37057Y440071D01*
X37536Y438915D01*
X38297Y437923D01*
X39290Y437162D01*
X40445Y436683D01*
X41685Y436520D01*
X42925Y436683D01*
X44080Y437162D01*
X45073Y437923D01*
X45834Y438915D01*
X46313Y440071D01*
X46476Y441311D01*
X46313Y442551D01*
X45834Y443707D01*
X45073Y444699D01*
X44080Y445460D01*
X42925Y445939D01*
X41685Y446102D01*
D02*
G37*
G36*
X445000Y444034D02*
X443956Y443897D01*
X442983Y443494D01*
X442147Y442853D01*
X441506Y442017D01*
X441103Y441044D01*
X440966Y440000D01*
X441103Y438956D01*
X441506Y437983D01*
X442147Y437147D01*
X442983Y436506D01*
X443956Y436103D01*
X445000Y435965D01*
X446044Y436103D01*
X447017Y436506D01*
X447853Y437147D01*
X448494Y437983D01*
X448897Y438956D01*
X449035Y440000D01*
X448897Y441044D01*
X448494Y442017D01*
X447853Y442853D01*
X447017Y443494D01*
X446044Y443897D01*
X445000Y444034D01*
D02*
G37*
G36*
X213421Y439000D02*
X210000D01*
Y435579D01*
X210532Y435649D01*
X211493Y436047D01*
X212319Y436681D01*
X212953Y437507D01*
X213351Y438468D01*
X213421Y439000D01*
D02*
G37*
G36*
X219000D02*
X215579D01*
X215649Y438468D01*
X216047Y437507D01*
X216681Y436681D01*
X217507Y436047D01*
X218468Y435649D01*
X219000Y435579D01*
Y439000D01*
D02*
G37*
G36*
X209000D02*
X205579D01*
X205649Y438468D01*
X206047Y437507D01*
X206681Y436681D01*
X207507Y436047D01*
X208468Y435649D01*
X209000Y435579D01*
Y439000D01*
D02*
G37*
G36*
X229500Y443487D02*
X228468Y443351D01*
X227507Y442953D01*
X226681Y442319D01*
X226047Y441493D01*
X225649Y440532D01*
X225513Y439500D01*
X225649Y438468D01*
X226047Y437507D01*
X226681Y436681D01*
X227507Y436047D01*
X228468Y435649D01*
X229500Y435513D01*
X230532Y435649D01*
X231493Y436047D01*
X232319Y436681D01*
X232953Y437507D01*
X233351Y438468D01*
X233487Y439500D01*
X233351Y440532D01*
X232953Y441493D01*
X232319Y442319D01*
X231493Y442953D01*
X230532Y443351D01*
X229500Y443487D01*
D02*
G37*
G36*
X63500Y437921D02*
Y434500D01*
X66921D01*
X66851Y435032D01*
X66453Y435993D01*
X65819Y436819D01*
X64993Y437453D01*
X64032Y437851D01*
X63500Y437921D01*
D02*
G37*
G36*
X62500D02*
X61968Y437851D01*
X61007Y437453D01*
X60181Y436819D01*
X59547Y435993D01*
X59149Y435032D01*
X59079Y434500D01*
X62500D01*
Y437921D01*
D02*
G37*
G36*
X670000Y440487D02*
X668968Y440351D01*
X668007Y439953D01*
X667181Y439319D01*
X666547Y438493D01*
X666149Y437532D01*
X666013Y436500D01*
X666149Y435468D01*
X666547Y434507D01*
X667181Y433681D01*
X668007Y433047D01*
X668968Y432649D01*
X670000Y432513D01*
X671032Y432649D01*
X671993Y433047D01*
X672819Y433681D01*
X673453Y434507D01*
X673851Y435468D01*
X673987Y436500D01*
X673851Y437532D01*
X673453Y438493D01*
X672819Y439319D01*
X671993Y439953D01*
X671032Y440351D01*
X670000Y440487D01*
D02*
G37*
G36*
X415500Y433969D02*
Y430500D01*
X418969D01*
X418897Y431044D01*
X418494Y432017D01*
X417853Y432853D01*
X417017Y433494D01*
X416044Y433897D01*
X415500Y433969D01*
D02*
G37*
G36*
X414500D02*
X413956Y433897D01*
X412983Y433494D01*
X412147Y432853D01*
X411506Y432017D01*
X411103Y431044D01*
X411031Y430500D01*
X414500D01*
Y433969D01*
D02*
G37*
G36*
X66921Y433500D02*
X63500D01*
Y430079D01*
X64032Y430149D01*
X64993Y430547D01*
X65819Y431181D01*
X66453Y432007D01*
X66851Y432968D01*
X66921Y433500D01*
D02*
G37*
G36*
X62500D02*
X59079D01*
X59149Y432968D01*
X59547Y432007D01*
X60181Y431181D01*
X61007Y430547D01*
X61968Y430149D01*
X62500Y430079D01*
Y433500D01*
D02*
G37*
G36*
X22500Y434225D02*
Y430000D01*
X26725D01*
X26628Y430740D01*
X26149Y431895D01*
X25388Y432888D01*
X24396Y433649D01*
X23240Y434128D01*
X22500Y434225D01*
D02*
G37*
G36*
X21500D02*
X20760Y434128D01*
X19604Y433649D01*
X18612Y432888D01*
X17851Y431895D01*
X17372Y430740D01*
X17275Y430000D01*
X21500D01*
Y434225D01*
D02*
G37*
G36*
X560500Y435232D02*
X559534Y435105D01*
X558634Y434732D01*
X557861Y434139D01*
X557268Y433366D01*
X557143Y433064D01*
X556300D01*
X555520Y432909D01*
X554858Y432467D01*
X506616Y384225D01*
X506000Y384306D01*
X505073Y384184D01*
X504210Y383826D01*
X503468Y383257D01*
X502899Y382515D01*
X502541Y381652D01*
X502419Y380725D01*
X502541Y379798D01*
X502899Y378935D01*
X503468Y378193D01*
X504210Y377624D01*
X505073Y377266D01*
X506000Y377144D01*
X506927Y377266D01*
X507790Y377624D01*
X508532Y378193D01*
X509101Y378935D01*
X509459Y379798D01*
X509581Y380725D01*
X509500Y381341D01*
X557145Y428986D01*
X557765D01*
X557861Y428861D01*
X558634Y428268D01*
X559534Y427895D01*
X560500Y427768D01*
X561466Y427895D01*
X562366Y428268D01*
X563139Y428861D01*
X563732Y429634D01*
X564105Y430534D01*
X564232Y431500D01*
X564105Y432466D01*
X563732Y433366D01*
X563139Y434139D01*
X562366Y434732D01*
X561466Y435105D01*
X560500Y435232D01*
D02*
G37*
G36*
X670500Y430421D02*
Y427000D01*
X673921D01*
X673851Y427532D01*
X673453Y428493D01*
X672819Y429319D01*
X671993Y429953D01*
X671032Y430351D01*
X670500Y430421D01*
D02*
G37*
G36*
X669500D02*
X668968Y430351D01*
X668007Y429953D01*
X667181Y429319D01*
X666547Y428493D01*
X666149Y427532D01*
X666079Y427000D01*
X669500D01*
Y430421D01*
D02*
G37*
G36*
X418969Y429500D02*
X415500D01*
Y426031D01*
X416044Y426103D01*
X417017Y426506D01*
X417853Y427147D01*
X418494Y427983D01*
X418897Y428956D01*
X418969Y429500D01*
D02*
G37*
G36*
X414500D02*
X411031D01*
X411103Y428956D01*
X411506Y427983D01*
X412147Y427147D01*
X412983Y426506D01*
X413956Y426103D01*
X414500Y426031D01*
Y429500D01*
D02*
G37*
G36*
X445000Y434034D02*
X443956Y433897D01*
X442983Y433494D01*
X442147Y432853D01*
X441506Y432017D01*
X441103Y431044D01*
X440966Y430000D01*
X441103Y428956D01*
X441506Y427983D01*
X442147Y427147D01*
X442983Y426506D01*
X443956Y426103D01*
X445000Y425965D01*
X446044Y426103D01*
X447017Y426506D01*
X447853Y427147D01*
X448494Y427983D01*
X448897Y428956D01*
X449035Y430000D01*
X448897Y431044D01*
X448494Y432017D01*
X447853Y432853D01*
X447017Y433494D01*
X446044Y433897D01*
X445000Y434034D01*
D02*
G37*
G36*
X26725Y429000D02*
X22500D01*
Y424775D01*
X23240Y424872D01*
X24396Y425351D01*
X25388Y426112D01*
X26149Y427105D01*
X26628Y428260D01*
X26725Y429000D01*
D02*
G37*
G36*
X21500D02*
X17275D01*
X17372Y428260D01*
X17851Y427105D01*
X18612Y426112D01*
X19604Y425351D01*
X20760Y424872D01*
X21500Y424775D01*
Y429000D01*
D02*
G37*
G36*
X673921Y426000D02*
X670500D01*
Y422579D01*
X671032Y422649D01*
X671993Y423047D01*
X672819Y423681D01*
X673453Y424507D01*
X673851Y425468D01*
X673921Y426000D01*
D02*
G37*
G36*
X669500D02*
X666079D01*
X666149Y425468D01*
X666547Y424507D01*
X667181Y423681D01*
X668007Y423047D01*
X668968Y422649D01*
X669500Y422579D01*
Y426000D01*
D02*
G37*
G36*
X415000Y424035D02*
X413956Y423897D01*
X412983Y423494D01*
X412147Y422853D01*
X411583Y422118D01*
X393106D01*
X392608Y422766D01*
X391845Y423352D01*
X390955Y423721D01*
X390000Y423846D01*
X389045Y423721D01*
X388156Y423352D01*
X387391Y422766D01*
X386805Y422002D01*
X386437Y421112D01*
X386311Y420157D01*
X386437Y419203D01*
X386805Y418313D01*
X387391Y417549D01*
X388156Y416963D01*
X389045Y416594D01*
X390000Y416468D01*
X390955Y416594D01*
X391845Y416963D01*
X392608Y417549D01*
X392985Y418040D01*
X411482D01*
X411506Y417983D01*
X412147Y417147D01*
X412983Y416506D01*
X413956Y416103D01*
X415000Y415966D01*
X416044Y416103D01*
X417017Y416506D01*
X417853Y417147D01*
X418494Y417983D01*
X418897Y418956D01*
X419034Y420000D01*
X418897Y421044D01*
X418494Y422017D01*
X417853Y422853D01*
X417017Y423494D01*
X416044Y423897D01*
X415000Y424035D01*
D02*
G37*
G36*
X470000Y430847D02*
X469045Y430721D01*
X468155Y430352D01*
X467391Y429766D01*
X466805Y429002D01*
X466437Y428112D01*
X466311Y427157D01*
X466405Y426446D01*
X461998Y422039D01*
X448477D01*
X447853Y422853D01*
X447017Y423494D01*
X446044Y423897D01*
X445000Y424035D01*
X443956Y423897D01*
X442983Y423494D01*
X442147Y422853D01*
X441506Y422017D01*
X441103Y421044D01*
X440966Y420000D01*
X441103Y418956D01*
X441506Y417983D01*
X442147Y417147D01*
X442983Y416506D01*
X443956Y416103D01*
X445000Y415966D01*
X446044Y416103D01*
X447017Y416506D01*
X447853Y417147D01*
X448477Y417961D01*
X462843D01*
X463623Y418116D01*
X464284Y418558D01*
X469288Y423562D01*
X470000Y423468D01*
X470955Y423594D01*
X471844Y423963D01*
X472609Y424549D01*
X473195Y425313D01*
X473563Y426203D01*
X473689Y427157D01*
X473563Y428112D01*
X473195Y429002D01*
X472609Y429766D01*
X471844Y430352D01*
X470955Y430721D01*
X470000Y430847D01*
D02*
G37*
G36*
X305000Y428288D02*
X304019Y428159D01*
X303106Y427781D01*
X302321Y427179D01*
X301719Y426394D01*
X301341Y425481D01*
X301212Y424500D01*
X301341Y423520D01*
X301719Y422606D01*
X302321Y421821D01*
X303106Y421219D01*
X304019Y420841D01*
X305000Y420712D01*
X305980Y420841D01*
X306894Y421219D01*
X307679Y421821D01*
X308281Y422606D01*
X308659Y423520D01*
X308788Y424500D01*
X308659Y425481D01*
X308281Y426394D01*
X307679Y427179D01*
X306894Y427781D01*
X305980Y428159D01*
X305000Y428288D01*
D02*
G37*
G36*
X590500Y425232D02*
X589534Y425105D01*
X588634Y424732D01*
X587861Y424139D01*
X587268Y423366D01*
X586895Y422466D01*
X586768Y421500D01*
X586895Y420534D01*
X587268Y419634D01*
X587861Y418861D01*
X588634Y418268D01*
X589534Y417895D01*
X590500Y417768D01*
X591466Y417895D01*
X592366Y418268D01*
X593139Y418861D01*
X593732Y419634D01*
X594105Y420534D01*
X594232Y421500D01*
X594105Y422466D01*
X593732Y423366D01*
X593139Y424139D01*
X592366Y424732D01*
X591466Y425105D01*
X590500Y425232D01*
D02*
G37*
G36*
X355500Y426013D02*
X354520Y425884D01*
X353606Y425506D01*
X352821Y424904D01*
X352219Y424119D01*
X351841Y423206D01*
X351712Y422225D01*
X351841Y421244D01*
X352219Y420331D01*
X352821Y419546D01*
X353461Y419056D01*
Y416070D01*
X349699Y412308D01*
X344756D01*
Y413630D01*
X337244D01*
Y412308D01*
X333801D01*
X330039Y416070D01*
Y419056D01*
X330679Y419546D01*
X331281Y420331D01*
X331659Y421244D01*
X331788Y422225D01*
X331659Y423206D01*
X331281Y424119D01*
X330679Y424904D01*
X329894Y425506D01*
X328980Y425884D01*
X328000Y426013D01*
X327020Y425884D01*
X326106Y425506D01*
X325321Y424904D01*
X324719Y424119D01*
X324341Y423206D01*
X324212Y422225D01*
X324341Y421244D01*
X324719Y420331D01*
X325321Y419546D01*
X325961Y419056D01*
Y415225D01*
X326116Y414445D01*
X326558Y413783D01*
X331515Y408826D01*
X332176Y408384D01*
X332957Y408229D01*
X337244D01*
Y407044D01*
X337244Y406906D01*
Y406544D01*
X337244Y406406D01*
Y403682D01*
X341000D01*
X344756D01*
Y406406D01*
X344756Y406544D01*
Y406906D01*
X344756Y407044D01*
Y408229D01*
X350543D01*
X351324Y408384D01*
X351985Y408826D01*
X356942Y413783D01*
X357384Y414445D01*
X357539Y415225D01*
Y419056D01*
X358179Y419546D01*
X358781Y420331D01*
X359159Y421244D01*
X359288Y422225D01*
X359159Y423206D01*
X358781Y424119D01*
X358179Y424904D01*
X357394Y425506D01*
X356481Y425884D01*
X355500Y426013D01*
D02*
G37*
G36*
X113953Y422077D02*
X107219D01*
X106633Y421960D01*
X106137Y421629D01*
X103919Y419410D01*
X103587Y418914D01*
X103471Y418328D01*
Y415953D01*
X101047D01*
Y408047D01*
X108231D01*
X108422Y407585D01*
X106496Y405659D01*
X106032Y405851D01*
X105000Y405987D01*
X103968Y405851D01*
X103007Y405453D01*
X102181Y404819D01*
X101547Y403993D01*
X101149Y403032D01*
X101013Y402000D01*
X101149Y400968D01*
X101547Y400007D01*
X102181Y399181D01*
X103007Y398547D01*
X103968Y398149D01*
X105000Y398013D01*
X106032Y398149D01*
X106993Y398547D01*
X107819Y399181D01*
X108453Y400007D01*
X108851Y400968D01*
X108987Y402000D01*
X108851Y403032D01*
X108659Y403496D01*
X111134Y405971D01*
X112950D01*
X113050Y405471D01*
X113007Y405453D01*
X112181Y404819D01*
X111547Y403993D01*
X111149Y403032D01*
X111013Y402000D01*
X111149Y400968D01*
X111547Y400007D01*
X112181Y399181D01*
X112378Y399029D01*
X112208Y398529D01*
X110000D01*
X109415Y398413D01*
X108919Y398081D01*
X106496Y395659D01*
X106032Y395851D01*
X105000Y395987D01*
X103968Y395851D01*
X103007Y395453D01*
X102181Y394819D01*
X101547Y393993D01*
X101149Y393032D01*
X101013Y392000D01*
X101149Y390968D01*
X101547Y390007D01*
X102181Y389181D01*
X103007Y388547D01*
X103968Y388149D01*
X105000Y388013D01*
X106032Y388149D01*
X106993Y388547D01*
X107819Y389181D01*
X108453Y390007D01*
X108851Y390968D01*
X108987Y392000D01*
X108851Y393032D01*
X108659Y393496D01*
X110634Y395471D01*
X112208D01*
X112378Y394971D01*
X112181Y394819D01*
X111547Y393993D01*
X111149Y393032D01*
X111013Y392000D01*
X111149Y390968D01*
X111547Y390007D01*
X112181Y389181D01*
X112378Y389029D01*
X112208Y388529D01*
X109328D01*
X108743Y388413D01*
X108247Y388081D01*
X106018Y385853D01*
X105000Y385987D01*
X103968Y385851D01*
X103007Y385453D01*
X102181Y384819D01*
X101547Y383993D01*
X101149Y383032D01*
X101013Y382000D01*
X101149Y380968D01*
X101547Y380007D01*
X102181Y379181D01*
X103007Y378547D01*
X103968Y378149D01*
X105000Y378013D01*
X106032Y378149D01*
X106993Y378547D01*
X107819Y379181D01*
X108453Y380007D01*
X108851Y380968D01*
X108987Y382000D01*
X108851Y383032D01*
X108462Y383971D01*
X109962Y385471D01*
X112208D01*
X112378Y384971D01*
X112181Y384819D01*
X111547Y383993D01*
X111149Y383032D01*
X111013Y382000D01*
X111149Y380968D01*
X111547Y380007D01*
X112181Y379181D01*
X113007Y378547D01*
X113968Y378149D01*
X115000Y378013D01*
X116032Y378149D01*
X116993Y378547D01*
X117819Y379181D01*
X118453Y380007D01*
X118645Y380471D01*
X126366D01*
X145808Y361029D01*
X145601Y360529D01*
X140256D01*
Y362405D01*
X132744D01*
Y360573D01*
X119156D01*
X118865Y361073D01*
X118987Y362000D01*
X118851Y363032D01*
X118453Y363993D01*
X117819Y364819D01*
X116993Y365453D01*
X116032Y365851D01*
X115000Y365987D01*
X113968Y365851D01*
X113007Y365453D01*
X112181Y364819D01*
X111547Y363993D01*
X111149Y363032D01*
X111013Y362000D01*
X111149Y360968D01*
X111547Y360007D01*
X112181Y359181D01*
X113007Y358547D01*
X113968Y358149D01*
X115000Y358013D01*
X116032Y358149D01*
X116496Y358341D01*
X116875Y357962D01*
X117371Y357630D01*
X117957Y357514D01*
X132744D01*
Y355681D01*
X132744D01*
Y355319D01*
X132744D01*
Y353529D01*
X118645D01*
X118453Y353993D01*
X117819Y354819D01*
X116993Y355453D01*
X116032Y355851D01*
X115000Y355987D01*
X113968Y355851D01*
X113007Y355453D01*
X112181Y354819D01*
X111547Y353993D01*
X111149Y353032D01*
X111013Y352000D01*
X111149Y350968D01*
X111547Y350007D01*
X112181Y349181D01*
X113007Y348547D01*
X113968Y348149D01*
X115000Y348013D01*
X116032Y348149D01*
X116993Y348547D01*
X117819Y349181D01*
X118453Y350007D01*
X118645Y350471D01*
X132744D01*
Y348594D01*
X138214D01*
X138362Y348565D01*
X147712D01*
X148029Y348502D01*
X149257D01*
X149587Y348002D01*
X149524Y347855D01*
X148698Y347302D01*
X148145Y346476D01*
X148050Y346000D01*
X150500D01*
Y345000D01*
X148050D01*
X148145Y344525D01*
X148371Y344187D01*
X148103Y343687D01*
X144658D01*
X144072Y343570D01*
X143576Y343239D01*
X133867Y333529D01*
X118645D01*
X118453Y333993D01*
X117819Y334819D01*
X116993Y335453D01*
X116032Y335851D01*
X115000Y335987D01*
X113968Y335851D01*
X113007Y335453D01*
X112181Y334819D01*
X111547Y333993D01*
X111149Y333032D01*
X111013Y332000D01*
X111149Y330968D01*
X111547Y330007D01*
X112181Y329181D01*
X112378Y329029D01*
X112208Y328529D01*
X110000D01*
X109415Y328413D01*
X108919Y328081D01*
X106496Y325659D01*
X106032Y325851D01*
X105000Y325987D01*
X103968Y325851D01*
X103007Y325453D01*
X102181Y324819D01*
X101547Y323993D01*
X101149Y323032D01*
X101013Y322000D01*
X101149Y320968D01*
X101547Y320007D01*
X102181Y319181D01*
X103007Y318547D01*
X103968Y318149D01*
X105000Y318013D01*
X106032Y318149D01*
X106993Y318547D01*
X107819Y319181D01*
X108453Y320007D01*
X108851Y320968D01*
X108987Y322000D01*
X108851Y323032D01*
X108659Y323496D01*
X110634Y325471D01*
X112208D01*
X112378Y324971D01*
X112181Y324819D01*
X111547Y323993D01*
X111149Y323032D01*
X111013Y322000D01*
X111149Y320968D01*
X111547Y320007D01*
X112181Y319181D01*
X112378Y319029D01*
X112208Y318529D01*
X109000D01*
X108415Y318413D01*
X107919Y318081D01*
X105728Y315891D01*
X105000Y315987D01*
X103968Y315851D01*
X103007Y315453D01*
X102181Y314819D01*
X101547Y313993D01*
X101149Y313032D01*
X101013Y312000D01*
X101149Y310968D01*
X101547Y310007D01*
X102181Y309181D01*
X103007Y308547D01*
X103968Y308149D01*
X105000Y308013D01*
X106032Y308149D01*
X106993Y308547D01*
X107819Y309181D01*
X108453Y310007D01*
X108851Y310968D01*
X108987Y312000D01*
X108851Y313032D01*
X108453Y313993D01*
X108324Y314161D01*
X109634Y315471D01*
X112208D01*
X112378Y314971D01*
X112181Y314819D01*
X111547Y313993D01*
X111149Y313032D01*
X111013Y312000D01*
X111149Y310968D01*
X111547Y310007D01*
X112181Y309181D01*
X112378Y309029D01*
X112208Y308529D01*
X109500D01*
X108915Y308413D01*
X108419Y308081D01*
X106142Y305805D01*
X106032Y305851D01*
X105000Y305987D01*
X103968Y305851D01*
X103007Y305453D01*
X102181Y304819D01*
X101547Y303993D01*
X101149Y303032D01*
X101013Y302000D01*
X101149Y300968D01*
X101547Y300007D01*
X102181Y299181D01*
X102378Y299029D01*
X102208Y298529D01*
X100500D01*
X99915Y298413D01*
X99419Y298081D01*
X73419Y272081D01*
X73087Y271585D01*
X72971Y271000D01*
Y164393D01*
X29649Y121072D01*
X29414Y121170D01*
X28500Y121290D01*
X27586Y121170D01*
X26735Y120817D01*
X26004Y120256D01*
X25443Y119525D01*
X25090Y118674D01*
X24970Y117760D01*
X25090Y116846D01*
X25443Y115995D01*
X26004Y115264D01*
X26735Y114703D01*
X27586Y114350D01*
X28500Y114230D01*
X29414Y114350D01*
X30265Y114703D01*
X30996Y115264D01*
X31557Y115995D01*
X31910Y116846D01*
X32030Y117760D01*
X31910Y118674D01*
X31812Y118909D01*
X75581Y162678D01*
X75913Y163174D01*
X76029Y163760D01*
Y270367D01*
X101134Y295471D01*
X102208D01*
X102378Y294971D01*
X102181Y294819D01*
X101547Y293993D01*
X101149Y293032D01*
X101013Y292000D01*
X101149Y290968D01*
X101547Y290007D01*
X102181Y289181D01*
X103007Y288547D01*
X103968Y288149D01*
X105000Y288013D01*
X106032Y288149D01*
X106993Y288547D01*
X107819Y289181D01*
X108453Y290007D01*
X108851Y290968D01*
X108963Y291819D01*
X109020Y291857D01*
X110900Y293737D01*
X111324Y293454D01*
X111149Y293032D01*
X111013Y292000D01*
X111149Y290968D01*
X111547Y290007D01*
X112181Y289181D01*
X113007Y288547D01*
X113968Y288149D01*
X115000Y288013D01*
X116032Y288149D01*
X116993Y288547D01*
X117819Y289181D01*
X118453Y290007D01*
X118851Y290968D01*
X118987Y292000D01*
X118851Y293032D01*
X118453Y293993D01*
X117819Y294819D01*
X116993Y295453D01*
X116950Y295471D01*
X117050Y295971D01*
X125500D01*
X126085Y296087D01*
X126581Y296419D01*
X156986Y326823D01*
X157323Y326756D01*
X163031D01*
X163652Y326880D01*
X164178Y327231D01*
X164530Y327757D01*
X164653Y328378D01*
X164530Y328998D01*
X164287Y329362D01*
X164530Y329726D01*
X164653Y330346D01*
X164530Y330967D01*
X164287Y331331D01*
X164530Y331694D01*
X164653Y332315D01*
X164530Y332936D01*
X164287Y333299D01*
X164530Y333663D01*
X164653Y334283D01*
X164530Y334904D01*
X164287Y335268D01*
X164530Y335631D01*
X164653Y336252D01*
X164530Y336873D01*
X164287Y337236D01*
X164530Y337600D01*
X164653Y338221D01*
X164530Y338841D01*
X164287Y339205D01*
X164530Y339568D01*
X164653Y340189D01*
X164530Y340810D01*
X164287Y341173D01*
X164530Y341537D01*
X164653Y342158D01*
X164530Y342778D01*
X164287Y343142D01*
X164530Y343505D01*
X164653Y344126D01*
X164530Y344747D01*
X164287Y345110D01*
X164530Y345474D01*
X164653Y346094D01*
X164530Y346715D01*
X164287Y347079D01*
X164530Y347442D01*
X164554Y347563D01*
X163697D01*
X163652Y347593D01*
X163031Y347716D01*
X160177D01*
Y348410D01*
X163031D01*
X163652Y348533D01*
X163697Y348563D01*
X164554D01*
X164530Y348684D01*
X164287Y349047D01*
X164530Y349411D01*
X164653Y350031D01*
X164530Y350652D01*
X164287Y351016D01*
X164530Y351379D01*
X164653Y352000D01*
X164530Y352621D01*
X164287Y352984D01*
X164530Y353348D01*
X164653Y353969D01*
X164530Y354589D01*
X164287Y354953D01*
X164530Y355316D01*
X164653Y355937D01*
X164530Y356558D01*
X164287Y356921D01*
X164530Y357285D01*
X164653Y357906D01*
X164530Y358526D01*
X164287Y358890D01*
X164530Y359253D01*
X164653Y359874D01*
X164530Y360495D01*
X164287Y360858D01*
X164530Y361222D01*
X164653Y361842D01*
X164530Y362463D01*
X164287Y362827D01*
X164530Y363190D01*
X164653Y363811D01*
X164530Y364432D01*
X164287Y364795D01*
X164530Y365159D01*
X164653Y365779D01*
X164530Y366400D01*
X164287Y366764D01*
X164530Y367127D01*
X164653Y367748D01*
X164530Y368369D01*
X164287Y368732D01*
X164530Y369096D01*
X164653Y369717D01*
X164530Y370337D01*
X164287Y370701D01*
X164530Y371064D01*
X164653Y371685D01*
X164530Y372306D01*
X164287Y372669D01*
X164530Y373033D01*
X164653Y373654D01*
X164530Y374274D01*
X164287Y374638D01*
X164530Y375001D01*
X164653Y375622D01*
X164530Y376243D01*
X164178Y376769D01*
X163652Y377120D01*
X163031Y377244D01*
X157323D01*
X156859Y377151D01*
X155305D01*
X155029Y377427D01*
Y381000D01*
X154913Y381585D01*
X154581Y382081D01*
X115034Y421629D01*
X114538Y421960D01*
X113953Y422077D01*
D02*
G37*
G36*
X582275Y406722D02*
Y403500D01*
X585498D01*
X585434Y403980D01*
X585056Y404894D01*
X584454Y405679D01*
X583669Y406281D01*
X582756Y406659D01*
X582275Y406722D01*
D02*
G37*
G36*
X581275Y406722D02*
X580794Y406659D01*
X579881Y406281D01*
X579096Y405679D01*
X578494Y404894D01*
X578116Y403980D01*
X578053Y403500D01*
X581275D01*
Y406722D01*
D02*
G37*
G36*
X506500Y404240D02*
Y401225D01*
X509515D01*
X509459Y401652D01*
X509101Y402515D01*
X508532Y403257D01*
X507790Y403826D01*
X506927Y404184D01*
X506500Y404240D01*
D02*
G37*
G36*
X505500D02*
X505073Y404184D01*
X504210Y403826D01*
X503468Y403257D01*
X502899Y402515D01*
X502541Y401652D01*
X502485Y401225D01*
X505500D01*
Y404240D01*
D02*
G37*
G36*
X344756Y402682D02*
X341500D01*
Y399819D01*
X344756D01*
Y402682D01*
D02*
G37*
G36*
X340500D02*
X337244D01*
Y399819D01*
X340500D01*
Y402682D01*
D02*
G37*
G36*
X585498Y402500D02*
X582275D01*
Y399277D01*
X582756Y399341D01*
X583669Y399719D01*
X584454Y400321D01*
X585056Y401106D01*
X585434Y402020D01*
X585498Y402500D01*
D02*
G37*
G36*
X581275D02*
X578053D01*
X578116Y402020D01*
X578494Y401106D01*
X579096Y400321D01*
X579881Y399719D01*
X580794Y399341D01*
X581275Y399277D01*
Y402500D01*
D02*
G37*
G36*
X509515Y400225D02*
X506500D01*
Y397210D01*
X506927Y397266D01*
X507790Y397624D01*
X508532Y398193D01*
X509101Y398935D01*
X509459Y399798D01*
X509515Y400225D01*
D02*
G37*
G36*
X505500D02*
X502485D01*
X502541Y399798D01*
X502899Y398935D01*
X503468Y398193D01*
X504210Y397624D01*
X505073Y397266D01*
X505500Y397210D01*
Y400225D01*
D02*
G37*
G36*
X560500Y425232D02*
X559534Y425105D01*
X558634Y424732D01*
X557861Y424139D01*
X557268Y423366D01*
X556895Y422466D01*
X556768Y421500D01*
X556867Y420751D01*
X539473Y403357D01*
X538401D01*
X537790Y403826D01*
X536927Y404184D01*
X536000Y404306D01*
X535073Y404184D01*
X534210Y403826D01*
X533468Y403257D01*
X532899Y402515D01*
X532541Y401652D01*
X532419Y400725D01*
X532500Y400109D01*
X519058Y386667D01*
X518616Y386005D01*
X518461Y385225D01*
Y338500D01*
X518616Y337720D01*
X519058Y337058D01*
X543000Y313116D01*
X542919Y312500D01*
X543041Y311573D01*
X543399Y310710D01*
X543968Y309968D01*
X544710Y309399D01*
X545573Y309041D01*
X546500Y308919D01*
X547427Y309041D01*
X548290Y309399D01*
X549032Y309968D01*
X549601Y310710D01*
X549959Y311573D01*
X550081Y312500D01*
X549959Y313427D01*
X549601Y314290D01*
X549032Y315032D01*
X548290Y315601D01*
X547427Y315959D01*
X546500Y316081D01*
X545884Y316000D01*
X522539Y339345D01*
Y384380D01*
X535384Y397225D01*
X536000Y397144D01*
X536927Y397266D01*
X537790Y397624D01*
X538532Y398193D01*
X539101Y398935D01*
X539244Y399279D01*
X540318D01*
X541098Y399434D01*
X541760Y399876D01*
X559751Y417867D01*
X560500Y417768D01*
X561249Y417867D01*
X568058Y411058D01*
X568720Y410616D01*
X569500Y410461D01*
X627380D01*
X636500Y401341D01*
X636419Y400725D01*
X636541Y399798D01*
X636899Y398935D01*
X637468Y398193D01*
X638210Y397624D01*
X639073Y397266D01*
X640000Y397144D01*
X640927Y397266D01*
X641790Y397624D01*
X642532Y398193D01*
X643101Y398935D01*
X643459Y399798D01*
X643581Y400725D01*
X643459Y401652D01*
X643101Y402515D01*
X642532Y403257D01*
X641790Y403826D01*
X640927Y404184D01*
X640000Y404306D01*
X639384Y404225D01*
X629667Y413942D01*
X629005Y414384D01*
X628225Y414539D01*
X570345D01*
X564133Y420751D01*
X564232Y421500D01*
X564105Y422466D01*
X563732Y423366D01*
X563139Y424139D01*
X562366Y424732D01*
X561466Y425105D01*
X560500Y425232D01*
D02*
G37*
G36*
X610000Y404306D02*
X609073Y404184D01*
X608210Y403826D01*
X607468Y403257D01*
X607090Y402764D01*
X593000D01*
X592220Y402609D01*
X591558Y402167D01*
X582574Y393183D01*
X581775Y393288D01*
X580794Y393159D01*
X579881Y392781D01*
X579096Y392179D01*
X578494Y391394D01*
X578116Y390480D01*
X577987Y389500D01*
X578116Y388520D01*
X578494Y387606D01*
X579096Y386821D01*
X579881Y386219D01*
X580794Y385841D01*
X581775Y385712D01*
X582756Y385841D01*
X583669Y386219D01*
X584454Y386821D01*
X585056Y387606D01*
X585434Y388520D01*
X585563Y389500D01*
X585458Y390299D01*
X593845Y398686D01*
X607090D01*
X607468Y398193D01*
X608210Y397624D01*
X609073Y397266D01*
X610000Y397144D01*
X610927Y397266D01*
X611790Y397624D01*
X612532Y398193D01*
X613101Y398935D01*
X613459Y399798D01*
X613581Y400725D01*
X613459Y401652D01*
X613101Y402515D01*
X612532Y403257D01*
X611790Y403826D01*
X610927Y404184D01*
X610000Y404306D01*
D02*
G37*
G36*
X265500Y395921D02*
Y392500D01*
X268921D01*
X268851Y393032D01*
X268453Y393993D01*
X267819Y394819D01*
X266993Y395453D01*
X266032Y395851D01*
X265500Y395921D01*
D02*
G37*
G36*
X264500D02*
X263968Y395851D01*
X263007Y395453D01*
X262181Y394819D01*
X261547Y393993D01*
X261149Y393032D01*
X261079Y392500D01*
X264500D01*
Y395921D01*
D02*
G37*
G36*
X318756Y394957D02*
X315500D01*
Y392094D01*
X318756D01*
Y394957D01*
D02*
G37*
G36*
X314500D02*
X311244D01*
Y392094D01*
X314500D01*
Y394957D01*
D02*
G37*
G36*
X506500Y394240D02*
Y391225D01*
X509515D01*
X509459Y391652D01*
X509101Y392515D01*
X508532Y393257D01*
X507790Y393826D01*
X506927Y394184D01*
X506500Y394240D01*
D02*
G37*
G36*
X505500D02*
X505073Y394184D01*
X504210Y393826D01*
X503468Y393257D01*
X502899Y392515D01*
X502541Y391652D01*
X502485Y391225D01*
X505500D01*
Y394240D01*
D02*
G37*
G36*
X268921Y391500D02*
X265500D01*
Y388079D01*
X266032Y388149D01*
X266993Y388547D01*
X267819Y389181D01*
X268453Y390007D01*
X268851Y390968D01*
X268921Y391500D01*
D02*
G37*
G36*
X264500D02*
X261079D01*
X261149Y390968D01*
X261547Y390007D01*
X262181Y389181D01*
X263007Y388547D01*
X263968Y388149D01*
X264500Y388079D01*
Y391500D01*
D02*
G37*
G36*
X275000Y395987D02*
X273968Y395851D01*
X273007Y395453D01*
X272181Y394819D01*
X271547Y393993D01*
X271149Y393032D01*
X271013Y392000D01*
X271149Y390968D01*
X271547Y390007D01*
X272181Y389181D01*
X273007Y388547D01*
X273968Y388149D01*
X275000Y388013D01*
X276032Y388149D01*
X276993Y388547D01*
X277819Y389181D01*
X278453Y390007D01*
X278851Y390968D01*
X278987Y392000D01*
X278851Y393032D01*
X278453Y393993D01*
X277819Y394819D01*
X276993Y395453D01*
X276032Y395851D01*
X275000Y395987D01*
D02*
G37*
G36*
X509515Y390225D02*
X506500D01*
Y387210D01*
X506927Y387266D01*
X507790Y387624D01*
X508532Y388193D01*
X509101Y388935D01*
X509459Y389798D01*
X509515Y390225D01*
D02*
G37*
G36*
X505500D02*
X502485D01*
X502541Y389798D01*
X502899Y388935D01*
X503468Y388193D01*
X504210Y387624D01*
X505073Y387266D01*
X505500Y387210D01*
Y390225D01*
D02*
G37*
G36*
X610000Y394306D02*
X609073Y394184D01*
X608210Y393826D01*
X607468Y393257D01*
X606899Y392515D01*
X606541Y391652D01*
X606419Y390725D01*
X606541Y389798D01*
X606899Y388935D01*
X607468Y388193D01*
X608210Y387624D01*
X609073Y387266D01*
X610000Y387144D01*
X610927Y387266D01*
X611790Y387624D01*
X612532Y388193D01*
X613101Y388935D01*
X613459Y389798D01*
X613581Y390725D01*
X613459Y391652D01*
X613101Y392515D01*
X612532Y393257D01*
X611790Y393826D01*
X610927Y394184D01*
X610000Y394306D01*
D02*
G37*
G36*
X640000D02*
X639073Y394184D01*
X638210Y393826D01*
X637468Y393257D01*
X636899Y392515D01*
X636541Y391652D01*
X636419Y390725D01*
X636541Y389798D01*
X636569Y389732D01*
X613867Y367029D01*
X611661D01*
X611562Y367529D01*
X611790Y367624D01*
X612532Y368193D01*
X613101Y368935D01*
X613459Y369798D01*
X613581Y370725D01*
X613459Y371652D01*
X613101Y372515D01*
X612532Y373257D01*
X611790Y373826D01*
X610927Y374184D01*
X610000Y374306D01*
X609073Y374184D01*
X608210Y373826D01*
X607468Y373257D01*
X607090Y372764D01*
X589395D01*
X585458Y376701D01*
X585563Y377500D01*
X585434Y378481D01*
X585056Y379394D01*
X584454Y380179D01*
X583669Y380781D01*
X582756Y381159D01*
X581775Y381288D01*
X580794Y381159D01*
X579881Y380781D01*
X579096Y380179D01*
X578494Y379394D01*
X578116Y378481D01*
X577987Y377500D01*
X578116Y376519D01*
X578494Y375606D01*
X579096Y374821D01*
X579881Y374219D01*
X580794Y373841D01*
X581775Y373712D01*
X582574Y373817D01*
X587108Y369283D01*
X587770Y368841D01*
X588550Y368686D01*
X588550Y368686D01*
X607090D01*
X607468Y368193D01*
X608210Y367624D01*
X608438Y367529D01*
X608339Y367029D01*
X604500D01*
X603915Y366913D01*
X603419Y366581D01*
X565419Y328581D01*
X565087Y328085D01*
X564971Y327500D01*
Y316846D01*
X564509Y316654D01*
X544029Y337134D01*
Y375000D01*
X543913Y375585D01*
X543581Y376081D01*
X539506Y380157D01*
X539581Y380725D01*
X539459Y381652D01*
X539101Y382515D01*
X538532Y383257D01*
X537790Y383826D01*
X536927Y384184D01*
X536000Y384306D01*
X535073Y384184D01*
X534210Y383826D01*
X533529Y383304D01*
X533029Y383421D01*
Y384866D01*
X535388Y387225D01*
X536000Y387144D01*
X536927Y387266D01*
X537790Y387624D01*
X538532Y388193D01*
X539101Y388935D01*
X539459Y389798D01*
X539581Y390725D01*
X539459Y391652D01*
X539101Y392515D01*
X538532Y393257D01*
X537790Y393826D01*
X536927Y394184D01*
X536000Y394306D01*
X535073Y394184D01*
X534210Y393826D01*
X533468Y393257D01*
X532899Y392515D01*
X532541Y391652D01*
X532419Y390725D01*
X532541Y389798D01*
X532862Y389025D01*
X530419Y386581D01*
X530087Y386085D01*
X529971Y385500D01*
Y337500D01*
X530087Y336915D01*
X530419Y336419D01*
X553150Y313688D01*
X553041Y313427D01*
X552919Y312500D01*
X553041Y311573D01*
X553399Y310710D01*
X553968Y309968D01*
X554710Y309399D01*
X555573Y309041D01*
X556500Y308919D01*
X557427Y309041D01*
X558290Y309399D01*
X559032Y309968D01*
X559601Y310710D01*
X559959Y311573D01*
X560081Y312500D01*
X559959Y313427D01*
X559601Y314290D01*
X559032Y315032D01*
X558290Y315601D01*
X557427Y315959D01*
X556500Y316081D01*
X555573Y315959D01*
X555312Y315850D01*
X534450Y336713D01*
X534641Y337175D01*
X539550D01*
Y344275D01*
X533029D01*
Y348029D01*
X533529Y348146D01*
X534210Y347624D01*
X535073Y347266D01*
X536000Y347144D01*
X536927Y347266D01*
X537790Y347624D01*
X538532Y348193D01*
X539101Y348935D01*
X539459Y349798D01*
X539581Y350725D01*
X539459Y351652D01*
X539101Y352515D01*
X538532Y353257D01*
X537790Y353826D01*
X536927Y354184D01*
X536000Y354306D01*
X535073Y354184D01*
X534210Y353826D01*
X533529Y353304D01*
X533029Y353421D01*
Y358029D01*
X533529Y358146D01*
X534210Y357624D01*
X535073Y357266D01*
X536000Y357144D01*
X536927Y357266D01*
X537790Y357624D01*
X538532Y358193D01*
X539101Y358935D01*
X539459Y359798D01*
X539581Y360725D01*
X539459Y361652D01*
X539101Y362515D01*
X538532Y363257D01*
X537790Y363826D01*
X536927Y364184D01*
X536000Y364306D01*
X535073Y364184D01*
X534210Y363826D01*
X533529Y363304D01*
X533029Y363421D01*
Y368029D01*
X533529Y368146D01*
X534210Y367624D01*
X535073Y367266D01*
X536000Y367144D01*
X536927Y367266D01*
X537790Y367624D01*
X538532Y368193D01*
X539101Y368935D01*
X539459Y369798D01*
X539581Y370725D01*
X539459Y371652D01*
X539101Y372515D01*
X538532Y373257D01*
X537790Y373826D01*
X536927Y374184D01*
X536000Y374306D01*
X535073Y374184D01*
X534210Y373826D01*
X533529Y373304D01*
X533029Y373421D01*
Y378029D01*
X533529Y378146D01*
X534210Y377624D01*
X535073Y377266D01*
X536000Y377144D01*
X536927Y377266D01*
X537736Y377602D01*
X540971Y374366D01*
Y336500D01*
X541087Y335915D01*
X541419Y335419D01*
X563149Y313688D01*
X563041Y313427D01*
X562919Y312500D01*
X563041Y311573D01*
X563399Y310710D01*
X563968Y309968D01*
X564710Y309399D01*
X565573Y309041D01*
X566500Y308919D01*
X567427Y309041D01*
X568290Y309399D01*
X569032Y309968D01*
X569601Y310710D01*
X569959Y311573D01*
X570081Y312500D01*
X569959Y313427D01*
X569601Y314290D01*
X569032Y315032D01*
X568290Y315601D01*
X568029Y315709D01*
Y326867D01*
X605133Y363971D01*
X607577D01*
X607747Y363471D01*
X607468Y363257D01*
X606899Y362515D01*
X606541Y361652D01*
X606419Y360725D01*
X606541Y359798D01*
X606649Y359537D01*
X575419Y328306D01*
X575087Y327810D01*
X574971Y327225D01*
Y315709D01*
X574710Y315601D01*
X573968Y315032D01*
X573399Y314290D01*
X573041Y313427D01*
X572919Y312500D01*
X573041Y311573D01*
X573149Y311312D01*
X569367Y307529D01*
X527134D01*
X502529Y332134D01*
Y338595D01*
X503029Y338765D01*
X503468Y338193D01*
X504210Y337624D01*
X505073Y337266D01*
X506000Y337144D01*
X506927Y337266D01*
X507790Y337624D01*
X508532Y338193D01*
X509101Y338935D01*
X509459Y339798D01*
X509581Y340725D01*
X509459Y341652D01*
X509101Y342515D01*
X508532Y343257D01*
X507790Y343826D01*
X506927Y344184D01*
X506000Y344306D01*
X505073Y344184D01*
X504210Y343826D01*
X503468Y343257D01*
X503029Y342685D01*
X502529Y342855D01*
Y346201D01*
X504064Y347736D01*
X504210Y347624D01*
X505073Y347266D01*
X506000Y347144D01*
X506927Y347266D01*
X507790Y347624D01*
X508532Y348193D01*
X509101Y348935D01*
X509459Y349798D01*
X509581Y350725D01*
X509459Y351652D01*
X509101Y352515D01*
X508532Y353257D01*
X507790Y353826D01*
X506927Y354184D01*
X506000Y354306D01*
X505073Y354184D01*
X504210Y353826D01*
X503468Y353257D01*
X502899Y352515D01*
X502541Y351652D01*
X502419Y350725D01*
X502455Y350453D01*
X500029Y348027D01*
X499592Y348164D01*
X499529Y348211D01*
Y352092D01*
X504812Y357375D01*
X505073Y357266D01*
X506000Y357144D01*
X506927Y357266D01*
X507790Y357624D01*
X508532Y358193D01*
X509101Y358935D01*
X509459Y359798D01*
X509581Y360725D01*
X509459Y361652D01*
X509101Y362515D01*
X508532Y363257D01*
X507790Y363826D01*
X506927Y364184D01*
X506000Y364306D01*
X505073Y364184D01*
X504210Y363826D01*
X503468Y363257D01*
X502899Y362515D01*
X502541Y361652D01*
X502419Y360725D01*
X502541Y359798D01*
X502649Y359537D01*
X496919Y353806D01*
X496587Y353310D01*
X496471Y352725D01*
Y329000D01*
X496587Y328415D01*
X496919Y327919D01*
X523419Y301419D01*
X523915Y301087D01*
X524500Y300971D01*
X576500D01*
X577085Y301087D01*
X577581Y301419D01*
X585312Y309149D01*
X585573Y309041D01*
X586500Y308919D01*
X587427Y309041D01*
X588290Y309399D01*
X589032Y309968D01*
X589601Y310710D01*
X589959Y311573D01*
X590081Y312500D01*
X589959Y313427D01*
X589601Y314290D01*
X589032Y315032D01*
X588290Y315601D01*
X588029Y315709D01*
Y326591D01*
X608812Y347375D01*
X609073Y347266D01*
X610000Y347144D01*
X610927Y347266D01*
X611790Y347624D01*
X612532Y348193D01*
X613101Y348935D01*
X613459Y349798D01*
X613581Y350725D01*
X613459Y351652D01*
X613101Y352515D01*
X612532Y353257D01*
X611790Y353826D01*
X610927Y354184D01*
X610000Y354306D01*
X609073Y354184D01*
X608210Y353826D01*
X607468Y353257D01*
X606899Y352515D01*
X606541Y351652D01*
X606419Y350725D01*
X606541Y349798D01*
X606649Y349537D01*
X585419Y328306D01*
X585087Y327810D01*
X584971Y327225D01*
Y315709D01*
X584710Y315601D01*
X583968Y315032D01*
X583399Y314290D01*
X583041Y313427D01*
X582919Y312500D01*
X583041Y311573D01*
X583149Y311312D01*
X575867Y304029D01*
X570345D01*
X570295Y304529D01*
X570585Y304587D01*
X571081Y304919D01*
X575312Y309150D01*
X575573Y309041D01*
X576500Y308919D01*
X577427Y309041D01*
X578290Y309399D01*
X579032Y309968D01*
X579601Y310710D01*
X579959Y311573D01*
X580081Y312500D01*
X579959Y313427D01*
X579601Y314290D01*
X579032Y315032D01*
X578290Y315601D01*
X578029Y315709D01*
Y326591D01*
X608812Y357374D01*
X609073Y357266D01*
X610000Y357144D01*
X610927Y357266D01*
X611790Y357624D01*
X612532Y358193D01*
X613101Y358935D01*
X613459Y359798D01*
X613581Y360725D01*
X613459Y361652D01*
X613101Y362515D01*
X612532Y363257D01*
X612253Y363471D01*
X612423Y363971D01*
X614500D01*
X615085Y364087D01*
X615581Y364419D01*
X638618Y387455D01*
X639073Y387266D01*
X640000Y387144D01*
X640927Y387266D01*
X641790Y387624D01*
X642532Y388193D01*
X643101Y388935D01*
X643459Y389798D01*
X643581Y390725D01*
X643459Y391652D01*
X643101Y392515D01*
X642532Y393257D01*
X641790Y393826D01*
X640927Y394184D01*
X640000Y394306D01*
D02*
G37*
G36*
X551775Y406788D02*
X550795Y406659D01*
X549881Y406281D01*
X549096Y405679D01*
X548494Y404894D01*
X548116Y403980D01*
X547987Y403000D01*
X548116Y402020D01*
X548494Y401106D01*
X549096Y400321D01*
X549736Y399831D01*
Y392670D01*
X549096Y392179D01*
X548494Y391394D01*
X548116Y390480D01*
X547987Y389500D01*
X548116Y388520D01*
X548494Y387606D01*
X549096Y386821D01*
X549881Y386219D01*
X550795Y385841D01*
X551775Y385712D01*
X552755Y385841D01*
X553669Y386219D01*
X554454Y386821D01*
X555056Y387606D01*
X555434Y388520D01*
X555563Y389500D01*
X555434Y390480D01*
X555056Y391394D01*
X554454Y392179D01*
X553814Y392670D01*
Y399831D01*
X554454Y400321D01*
X555056Y401106D01*
X555434Y402020D01*
X555563Y403000D01*
X555434Y403980D01*
X555056Y404894D01*
X554454Y405679D01*
X553669Y406281D01*
X552755Y406659D01*
X551775Y406788D01*
D02*
G37*
G36*
X640000Y384306D02*
X639073Y384184D01*
X638210Y383826D01*
X637468Y383257D01*
X636899Y382515D01*
X636541Y381652D01*
X636419Y380725D01*
X636541Y379798D01*
X636899Y378935D01*
X637468Y378193D01*
X638210Y377624D01*
X639073Y377266D01*
X640000Y377144D01*
X640927Y377266D01*
X641790Y377624D01*
X642532Y378193D01*
X643101Y378935D01*
X643459Y379798D01*
X643581Y380725D01*
X643459Y381652D01*
X643101Y382515D01*
X642532Y383257D01*
X641790Y383826D01*
X640927Y384184D01*
X640000Y384306D01*
D02*
G37*
G36*
X610000D02*
X609073Y384184D01*
X608210Y383826D01*
X607468Y383257D01*
X606899Y382515D01*
X606541Y381652D01*
X606419Y380725D01*
X606541Y379798D01*
X606899Y378935D01*
X607468Y378193D01*
X608210Y377624D01*
X609073Y377266D01*
X610000Y377144D01*
X610927Y377266D01*
X611790Y377624D01*
X612532Y378193D01*
X613101Y378935D01*
X613459Y379798D01*
X613581Y380725D01*
X613459Y381652D01*
X613101Y382515D01*
X612532Y383257D01*
X611790Y383826D01*
X610927Y384184D01*
X610000Y384306D01*
D02*
G37*
G36*
X640500Y374240D02*
Y371225D01*
X643515D01*
X643459Y371652D01*
X643101Y372515D01*
X642532Y373257D01*
X641790Y373826D01*
X640927Y374184D01*
X640500Y374240D01*
D02*
G37*
G36*
X639500D02*
X639073Y374184D01*
X638210Y373826D01*
X637468Y373257D01*
X636899Y372515D01*
X636541Y371652D01*
X636485Y371225D01*
X639500D01*
Y374240D01*
D02*
G37*
G36*
X11500Y371825D02*
Y369000D01*
X14325D01*
X14276Y369378D01*
X13937Y370196D01*
X13398Y370898D01*
X12696Y371437D01*
X11878Y371776D01*
X11500Y371825D01*
D02*
G37*
G36*
X10500D02*
X10122Y371776D01*
X9304Y371437D01*
X8602Y370898D01*
X8063Y370196D01*
X7724Y369378D01*
X7675Y369000D01*
X10500D01*
Y371825D01*
D02*
G37*
G36*
X115000Y375987D02*
X113968Y375851D01*
X113007Y375453D01*
X112181Y374819D01*
X111547Y373993D01*
X111149Y373032D01*
X111013Y372000D01*
X111149Y370968D01*
X111547Y370007D01*
X112181Y369181D01*
X113007Y368547D01*
X113968Y368149D01*
X115000Y368013D01*
X116032Y368149D01*
X116993Y368547D01*
X117819Y369181D01*
X118453Y370007D01*
X118851Y370968D01*
X118987Y372000D01*
X118851Y373032D01*
X118453Y373993D01*
X117819Y374819D01*
X116993Y375453D01*
X116032Y375851D01*
X115000Y375987D01*
D02*
G37*
G36*
X105000D02*
X103968Y375851D01*
X103007Y375453D01*
X102181Y374819D01*
X101547Y373993D01*
X101149Y373032D01*
X101013Y372000D01*
X101149Y370968D01*
X101547Y370007D01*
X102181Y369181D01*
X103007Y368547D01*
X103968Y368149D01*
X105000Y368013D01*
X106032Y368149D01*
X106993Y368547D01*
X107819Y369181D01*
X108453Y370007D01*
X108851Y370968D01*
X108987Y372000D01*
X108851Y373032D01*
X108453Y373993D01*
X107819Y374819D01*
X106993Y375453D01*
X106032Y375851D01*
X105000Y375987D01*
D02*
G37*
G36*
X643515Y370225D02*
X640500D01*
Y367210D01*
X640927Y367266D01*
X641790Y367624D01*
X642532Y368193D01*
X643101Y368935D01*
X643459Y369798D01*
X643515Y370225D01*
D02*
G37*
G36*
X639500D02*
X636485D01*
X636541Y369798D01*
X636899Y368935D01*
X637468Y368193D01*
X638210Y367624D01*
X639073Y367266D01*
X639500Y367210D01*
Y370225D01*
D02*
G37*
G36*
X506000Y374306D02*
X505073Y374184D01*
X504210Y373826D01*
X503468Y373257D01*
X502899Y372515D01*
X502541Y371652D01*
X502419Y370725D01*
X502541Y369798D01*
X502899Y368935D01*
X503468Y368193D01*
X504210Y367624D01*
X505073Y367266D01*
X506000Y367144D01*
X506927Y367266D01*
X507790Y367624D01*
X508532Y368193D01*
X509101Y368935D01*
X509459Y369798D01*
X509581Y370725D01*
X509459Y371652D01*
X509101Y372515D01*
X508532Y373257D01*
X507790Y373826D01*
X506927Y374184D01*
X506000Y374306D01*
D02*
G37*
G36*
X582275Y369222D02*
Y366000D01*
X585498D01*
X585434Y366480D01*
X585056Y367394D01*
X584454Y368179D01*
X583669Y368781D01*
X582756Y369159D01*
X582275Y369222D01*
D02*
G37*
G36*
X581275Y369222D02*
X580794Y369159D01*
X579881Y368781D01*
X579096Y368179D01*
X578494Y367394D01*
X578116Y366480D01*
X578053Y366000D01*
X581275D01*
Y369222D01*
D02*
G37*
G36*
X14325Y368000D02*
X11500D01*
Y365175D01*
X11878Y365224D01*
X12696Y365563D01*
X13398Y366102D01*
X13937Y366804D01*
X14276Y367622D01*
X14325Y368000D01*
D02*
G37*
G36*
X10500D02*
X7675D01*
X7724Y367622D01*
X8063Y366804D01*
X8602Y366102D01*
X9304Y365563D01*
X10122Y365224D01*
X10500Y365175D01*
Y368000D01*
D02*
G37*
G36*
X585498Y365000D02*
X582275D01*
Y361777D01*
X582756Y361841D01*
X583669Y362219D01*
X584454Y362821D01*
X585056Y363606D01*
X585434Y364520D01*
X585498Y365000D01*
D02*
G37*
G36*
X581275D02*
X578053D01*
X578116Y364520D01*
X578494Y363606D01*
X579096Y362821D01*
X579881Y362219D01*
X580794Y361841D01*
X581275Y361777D01*
Y365000D01*
D02*
G37*
G36*
X551775Y381288D02*
X550795Y381159D01*
X549881Y380781D01*
X549096Y380179D01*
X548494Y379394D01*
X548116Y378481D01*
X547987Y377500D01*
X548116Y376519D01*
X548494Y375606D01*
X549096Y374821D01*
X549736Y374330D01*
Y368670D01*
X549096Y368179D01*
X548494Y367394D01*
X548116Y366480D01*
X547987Y365500D01*
X548116Y364520D01*
X548494Y363606D01*
X549096Y362821D01*
X549881Y362219D01*
X550795Y361841D01*
X551775Y361712D01*
X552755Y361841D01*
X553669Y362219D01*
X554454Y362821D01*
X555056Y363606D01*
X555434Y364520D01*
X555563Y365500D01*
X555434Y366480D01*
X555056Y367394D01*
X554454Y368179D01*
X553814Y368670D01*
Y374330D01*
X554454Y374821D01*
X555056Y375606D01*
X555434Y376519D01*
X555563Y377500D01*
X555434Y378481D01*
X555056Y379394D01*
X554454Y380179D01*
X553669Y380781D01*
X552755Y381159D01*
X551775Y381288D01*
D02*
G37*
G36*
X105000Y365987D02*
X103968Y365851D01*
X103007Y365453D01*
X102181Y364819D01*
X101547Y363993D01*
X101149Y363032D01*
X101013Y362000D01*
X101149Y360968D01*
X101547Y360007D01*
X102181Y359181D01*
X103007Y358547D01*
X103968Y358149D01*
X105000Y358013D01*
X106032Y358149D01*
X106993Y358547D01*
X107819Y359181D01*
X108453Y360007D01*
X108851Y360968D01*
X108987Y362000D01*
X108851Y363032D01*
X108453Y363993D01*
X107819Y364819D01*
X106993Y365453D01*
X106032Y365851D01*
X105000Y365987D01*
D02*
G37*
G36*
X343256Y360087D02*
X340000D01*
Y357225D01*
X343256D01*
Y360087D01*
D02*
G37*
G36*
X339000D02*
X335744D01*
Y357225D01*
X339000D01*
Y360087D01*
D02*
G37*
G36*
X640000Y364306D02*
X639073Y364184D01*
X638210Y363826D01*
X637468Y363257D01*
X636899Y362515D01*
X636541Y361652D01*
X636419Y360725D01*
X636541Y359798D01*
X636899Y358935D01*
X637468Y358193D01*
X638210Y357624D01*
X639073Y357266D01*
X640000Y357144D01*
X640927Y357266D01*
X641790Y357624D01*
X642532Y358193D01*
X643101Y358935D01*
X643459Y359798D01*
X643581Y360725D01*
X643459Y361652D01*
X643101Y362515D01*
X642532Y363257D01*
X641790Y363826D01*
X640927Y364184D01*
X640000Y364306D01*
D02*
G37*
G36*
X317256Y350638D02*
X314000D01*
Y347776D01*
X317256D01*
Y350638D01*
D02*
G37*
G36*
X313000D02*
X309744D01*
Y347776D01*
X313000D01*
Y350638D01*
D02*
G37*
G36*
X640000Y354306D02*
X639073Y354184D01*
X638210Y353826D01*
X637468Y353257D01*
X636899Y352515D01*
X636541Y351652D01*
X636419Y350725D01*
X636541Y349798D01*
X636899Y348935D01*
X637468Y348193D01*
X638210Y347624D01*
X639073Y347266D01*
X640000Y347144D01*
X640927Y347266D01*
X641790Y347624D01*
X642532Y348193D01*
X643101Y348935D01*
X643459Y349798D01*
X643581Y350725D01*
X643459Y351652D01*
X643101Y352515D01*
X642532Y353257D01*
X641790Y353826D01*
X640927Y354184D01*
X640000Y354306D01*
D02*
G37*
G36*
X105500Y345921D02*
Y342500D01*
X108921D01*
X108851Y343032D01*
X108453Y343993D01*
X107819Y344819D01*
X106993Y345453D01*
X106032Y345851D01*
X105500Y345921D01*
D02*
G37*
G36*
X104500D02*
X103968Y345851D01*
X103007Y345453D01*
X102181Y344819D01*
X101547Y343993D01*
X101149Y343032D01*
X101079Y342500D01*
X104500D01*
Y345921D01*
D02*
G37*
G36*
X108921Y341500D02*
X105500D01*
Y338079D01*
X106032Y338149D01*
X106993Y338547D01*
X107819Y339181D01*
X108453Y340007D01*
X108851Y340968D01*
X108921Y341500D01*
D02*
G37*
G36*
X104500D02*
X101079D01*
X101149Y340968D01*
X101547Y340007D01*
X102181Y339181D01*
X103007Y338547D01*
X103968Y338149D01*
X104500Y338079D01*
Y341500D01*
D02*
G37*
G36*
X115000Y345987D02*
X113968Y345851D01*
X113007Y345453D01*
X112181Y344819D01*
X111547Y343993D01*
X111149Y343032D01*
X111013Y342000D01*
X111149Y340968D01*
X111547Y340007D01*
X112181Y339181D01*
X113007Y338547D01*
X113968Y338149D01*
X115000Y338013D01*
X116032Y338149D01*
X116993Y338547D01*
X117819Y339181D01*
X118453Y340007D01*
X118851Y340968D01*
X118987Y342000D01*
X118851Y343032D01*
X118453Y343993D01*
X117819Y344819D01*
X116993Y345453D01*
X116032Y345851D01*
X115000Y345987D01*
D02*
G37*
G36*
X590500Y445232D02*
X589534Y445105D01*
X588634Y444732D01*
X587861Y444139D01*
X587268Y443366D01*
X586895Y442466D01*
X586768Y441500D01*
X586895Y440534D01*
X587268Y439634D01*
X587861Y438861D01*
X588461Y438401D01*
Y434599D01*
X587861Y434139D01*
X587268Y433366D01*
X586895Y432466D01*
X586768Y431500D01*
X586895Y430534D01*
X587268Y429634D01*
X587861Y428861D01*
X588634Y428268D01*
X589534Y427895D01*
X590500Y427768D01*
X591466Y427895D01*
X592366Y428268D01*
X593139Y428861D01*
X593599Y429461D01*
X618655D01*
X647461Y400655D01*
Y351070D01*
X640666Y344275D01*
X636450D01*
Y337175D01*
X643550D01*
Y341391D01*
X650942Y348783D01*
X651384Y349445D01*
X651539Y350225D01*
Y401500D01*
X651539Y401500D01*
X651384Y402280D01*
X650942Y402942D01*
X620942Y432942D01*
X620280Y433384D01*
X619500Y433539D01*
X593599D01*
X593139Y434139D01*
X592539Y434599D01*
Y438401D01*
X593139Y438861D01*
X593732Y439634D01*
X594105Y440534D01*
X594232Y441500D01*
X594105Y442466D01*
X593732Y443366D01*
X593139Y444139D01*
X592366Y444732D01*
X591466Y445105D01*
X590500Y445232D01*
D02*
G37*
G36*
X105000Y335987D02*
X103968Y335851D01*
X103007Y335453D01*
X102181Y334819D01*
X101547Y333993D01*
X101149Y333032D01*
X101013Y332000D01*
X101149Y330968D01*
X101547Y330007D01*
X102181Y329181D01*
X103007Y328547D01*
X103968Y328149D01*
X105000Y328013D01*
X106032Y328149D01*
X106993Y328547D01*
X107819Y329181D01*
X108453Y330007D01*
X108851Y330968D01*
X108987Y332000D01*
X108851Y333032D01*
X108453Y333993D01*
X107819Y334819D01*
X106993Y335453D01*
X106032Y335851D01*
X105000Y335987D01*
D02*
G37*
G36*
X213622Y326653D02*
X213001Y326530D01*
X212638Y326287D01*
X212274Y326530D01*
X211653Y326653D01*
X211033Y326530D01*
X210669Y326287D01*
X210306Y326530D01*
X209685Y326653D01*
X209064Y326530D01*
X208701Y326287D01*
X208337Y326530D01*
X207716Y326653D01*
X207096Y326530D01*
X206732Y326287D01*
X206369Y326530D01*
X205748Y326653D01*
X205127Y326530D01*
X204764Y326287D01*
X204400Y326530D01*
X203780Y326653D01*
X203159Y326530D01*
X202795Y326287D01*
X202432Y326530D01*
X201811Y326653D01*
X201190Y326530D01*
X200827Y326287D01*
X200463Y326530D01*
X200342Y326554D01*
Y325697D01*
X200313Y325652D01*
X200189Y325031D01*
Y322177D01*
X199496D01*
Y325031D01*
X199372Y325652D01*
X199343Y325697D01*
Y326554D01*
X199222Y326530D01*
X198858Y326287D01*
X198495Y326530D01*
X197874Y326653D01*
X197253Y326530D01*
X196890Y326287D01*
X196526Y326530D01*
X195905Y326653D01*
X195285Y326530D01*
X194921Y326287D01*
X194558Y326530D01*
X194437Y326554D01*
Y325697D01*
X194407Y325652D01*
X194284Y325031D01*
Y322177D01*
X193620D01*
X193590Y322327D01*
Y325031D01*
X193467Y325652D01*
X193437Y325697D01*
Y326554D01*
X193316Y326530D01*
X192953Y326287D01*
X192589Y326530D01*
X191969Y326653D01*
X191348Y326530D01*
X190984Y326287D01*
X190621Y326530D01*
X190000Y326653D01*
X189379Y326530D01*
X189016Y326287D01*
X188652Y326530D01*
X188031Y326653D01*
X187411Y326530D01*
X187047Y326287D01*
X186684Y326530D01*
X186063Y326653D01*
X185442Y326530D01*
X185079Y326287D01*
X184715Y326530D01*
X184095Y326653D01*
X183474Y326530D01*
X183110Y326287D01*
X182747Y326530D01*
X182126Y326653D01*
X181505Y326530D01*
X181142Y326287D01*
X180778Y326530D01*
X180157Y326653D01*
X179537Y326530D01*
X179173Y326287D01*
X178810Y326530D01*
X178189Y326653D01*
X177568Y326530D01*
X177205Y326287D01*
X176841Y326530D01*
X176221Y326653D01*
X175600Y326530D01*
X175236Y326287D01*
X174873Y326530D01*
X174252Y326653D01*
X173631Y326530D01*
X173268Y326287D01*
X172904Y326530D01*
X172283Y326653D01*
X171663Y326530D01*
X171299Y326287D01*
X170936Y326530D01*
X170315Y326653D01*
X169694Y326530D01*
X169331Y326287D01*
X168967Y326530D01*
X168347Y326653D01*
X167726Y326530D01*
X167362Y326287D01*
X166999Y326530D01*
X166378Y326653D01*
X165757Y326530D01*
X165231Y326178D01*
X164880Y325652D01*
X164756Y325031D01*
Y319323D01*
X164849Y318859D01*
Y317512D01*
X159367Y312029D01*
X152500D01*
X151915Y311913D01*
X151419Y311581D01*
X123919Y284081D01*
X123587Y283585D01*
X123471Y283000D01*
Y272000D01*
X123587Y271415D01*
X123919Y270919D01*
X126047Y268790D01*
Y263047D01*
X133953D01*
Y270231D01*
X134415Y270422D01*
X136341Y268496D01*
X136149Y268032D01*
X136013Y267000D01*
X136149Y265968D01*
X136547Y265007D01*
X137181Y264181D01*
X138007Y263547D01*
X138968Y263149D01*
X140000Y263013D01*
X141032Y263149D01*
X141993Y263547D01*
X142819Y264181D01*
X143453Y265007D01*
X143851Y265968D01*
X143987Y267000D01*
X143851Y268032D01*
X143453Y268993D01*
X142819Y269819D01*
X141993Y270453D01*
X141032Y270851D01*
X140000Y270987D01*
X138968Y270851D01*
X138504Y270659D01*
X136529Y272634D01*
Y274208D01*
X137029Y274378D01*
X137181Y274181D01*
X138007Y273547D01*
X138968Y273149D01*
X140000Y273013D01*
X141032Y273149D01*
X141993Y273547D01*
X142819Y274181D01*
X142971Y274378D01*
X143471Y274208D01*
Y272000D01*
X143587Y271415D01*
X143919Y270919D01*
X146341Y268496D01*
X146149Y268032D01*
X146013Y267000D01*
X146149Y265968D01*
X146547Y265007D01*
X147181Y264181D01*
X148007Y263547D01*
X148968Y263149D01*
X150000Y263013D01*
X151032Y263149D01*
X151993Y263547D01*
X152819Y264181D01*
X153453Y265007D01*
X153851Y265968D01*
X153987Y267000D01*
X153851Y268032D01*
X153453Y268993D01*
X152819Y269819D01*
X151993Y270453D01*
X151032Y270851D01*
X150000Y270987D01*
X148968Y270851D01*
X148504Y270659D01*
X146529Y272634D01*
Y274208D01*
X147029Y274378D01*
X147181Y274181D01*
X148007Y273547D01*
X148968Y273149D01*
X150000Y273013D01*
X151032Y273149D01*
X151993Y273547D01*
X152819Y274181D01*
X152971Y274378D01*
X153471Y274208D01*
Y272000D01*
X153587Y271415D01*
X153919Y270919D01*
X156341Y268496D01*
X156149Y268032D01*
X156013Y267000D01*
X156149Y265968D01*
X156547Y265007D01*
X157181Y264181D01*
X158007Y263547D01*
X158968Y263149D01*
X160000Y263013D01*
X161032Y263149D01*
X161993Y263547D01*
X162819Y264181D01*
X163453Y265007D01*
X163851Y265968D01*
X163987Y267000D01*
X163851Y268032D01*
X163453Y268993D01*
X162819Y269819D01*
X161993Y270453D01*
X161032Y270851D01*
X160000Y270987D01*
X158968Y270851D01*
X158504Y270659D01*
X156529Y272634D01*
Y274208D01*
X157029Y274378D01*
X157181Y274181D01*
X158007Y273547D01*
X158968Y273149D01*
X160000Y273013D01*
X161032Y273149D01*
X161993Y273547D01*
X162819Y274181D01*
X162971Y274378D01*
X163471Y274208D01*
Y272000D01*
X163587Y271415D01*
X163919Y270919D01*
X166341Y268496D01*
X166149Y268032D01*
X166013Y267000D01*
X166149Y265968D01*
X166547Y265007D01*
X167181Y264181D01*
X168007Y263547D01*
X168968Y263149D01*
X170000Y263013D01*
X171032Y263149D01*
X171993Y263547D01*
X172819Y264181D01*
X173453Y265007D01*
X173851Y265968D01*
X173987Y267000D01*
X173851Y268032D01*
X173453Y268993D01*
X172819Y269819D01*
X171993Y270453D01*
X171032Y270851D01*
X170000Y270987D01*
X168968Y270851D01*
X168504Y270659D01*
X166529Y272634D01*
Y274208D01*
X167029Y274378D01*
X167181Y274181D01*
X168007Y273547D01*
X168968Y273149D01*
X170000Y273013D01*
X171032Y273149D01*
X171993Y273547D01*
X172819Y274181D01*
X172971Y274378D01*
X173471Y274208D01*
Y272000D01*
X173587Y271415D01*
X173919Y270919D01*
X176341Y268496D01*
X176149Y268032D01*
X176013Y267000D01*
X176149Y265968D01*
X176547Y265007D01*
X177181Y264181D01*
X178007Y263547D01*
X178968Y263149D01*
X180000Y263013D01*
X181032Y263149D01*
X181993Y263547D01*
X182819Y264181D01*
X183453Y265007D01*
X183851Y265968D01*
X183987Y267000D01*
X183851Y268032D01*
X183453Y268993D01*
X182819Y269819D01*
X181993Y270453D01*
X181032Y270851D01*
X180000Y270987D01*
X178968Y270851D01*
X178504Y270659D01*
X176529Y272634D01*
Y274208D01*
X177029Y274378D01*
X177181Y274181D01*
X178007Y273547D01*
X178968Y273149D01*
X180000Y273013D01*
X181032Y273149D01*
X181993Y273547D01*
X182819Y274181D01*
X182971Y274378D01*
X183471Y274208D01*
Y272000D01*
X183587Y271415D01*
X183919Y270919D01*
X186341Y268496D01*
X186149Y268032D01*
X186013Y267000D01*
X186149Y265968D01*
X186547Y265007D01*
X187181Y264181D01*
X188007Y263547D01*
X188968Y263149D01*
X190000Y263013D01*
X191032Y263149D01*
X191496Y263341D01*
X290915Y163923D01*
X291411Y163591D01*
X291996Y163475D01*
X316684D01*
X316781Y163239D01*
X317342Y162508D01*
X318074Y161947D01*
X318925Y161594D01*
X319839Y161474D01*
X320752Y161594D01*
X321604Y161947D01*
X322335Y162508D01*
X322896Y163239D01*
X323249Y164090D01*
X323369Y165004D01*
X323249Y165918D01*
X322896Y166769D01*
X322335Y167500D01*
X321604Y168061D01*
X320752Y168414D01*
X319839Y168534D01*
X318925Y168414D01*
X318074Y168061D01*
X317342Y167500D01*
X316781Y166769D01*
X316684Y166533D01*
X292630D01*
X193659Y265504D01*
X193851Y265968D01*
X193987Y267000D01*
X193851Y268032D01*
X193453Y268993D01*
X192819Y269819D01*
X191993Y270453D01*
X191032Y270851D01*
X190000Y270987D01*
X188968Y270851D01*
X188504Y270659D01*
X186529Y272634D01*
Y274208D01*
X187029Y274378D01*
X187181Y274181D01*
X188007Y273547D01*
X188968Y273149D01*
X190000Y273013D01*
X191032Y273149D01*
X191993Y273547D01*
X192819Y274181D01*
X192971Y274378D01*
X193471Y274208D01*
Y272000D01*
X193587Y271415D01*
X193919Y270919D01*
X196341Y268496D01*
X196149Y268032D01*
X196079Y267500D01*
X199500D01*
Y270921D01*
X198968Y270851D01*
X198504Y270659D01*
X196529Y272634D01*
Y274208D01*
X197029Y274378D01*
X197181Y274181D01*
X198007Y273547D01*
X198968Y273149D01*
X200000Y273013D01*
X201032Y273149D01*
X201993Y273547D01*
X202819Y274181D01*
X202971Y274378D01*
X203471Y274208D01*
Y272000D01*
X203587Y271415D01*
X203919Y270919D01*
X206341Y268496D01*
X206149Y268032D01*
X206013Y267000D01*
X206149Y265968D01*
X206547Y265007D01*
X207181Y264181D01*
X208007Y263547D01*
X208968Y263149D01*
X210000Y263013D01*
X211032Y263149D01*
X211993Y263547D01*
X212819Y264181D01*
X213453Y265007D01*
X213851Y265968D01*
X213987Y267000D01*
X213851Y268032D01*
X213453Y268993D01*
X212819Y269819D01*
X211993Y270453D01*
X211032Y270851D01*
X210000Y270987D01*
X208968Y270851D01*
X208504Y270659D01*
X206529Y272634D01*
Y274208D01*
X207029Y274378D01*
X207181Y274181D01*
X208007Y273547D01*
X208968Y273149D01*
X209500Y273079D01*
Y277000D01*
Y280921D01*
X208968Y280851D01*
X208007Y280453D01*
X207181Y279819D01*
X207029Y279622D01*
X206529Y279791D01*
Y280000D01*
X206413Y280585D01*
X206081Y281081D01*
X199403Y287759D01*
Y312272D01*
X199903Y312579D01*
X200000Y312560D01*
Y314500D01*
X201000D01*
Y312560D01*
X201280Y312616D01*
X201942Y313058D01*
X202384Y313720D01*
X202539Y314500D01*
X202517Y314613D01*
X202977Y314860D01*
X203992Y313846D01*
X204116Y313220D01*
X204558Y312558D01*
X205220Y312116D01*
X206000Y311961D01*
X206780Y312116D01*
X207442Y312558D01*
X207884Y313220D01*
X207990Y313752D01*
X208521Y313858D01*
X208604Y313734D01*
X233471Y288866D01*
Y279791D01*
X232971Y279622D01*
X232819Y279819D01*
X231993Y280453D01*
X231032Y280851D01*
X230000Y280987D01*
X228968Y280851D01*
X228007Y280453D01*
X227181Y279819D01*
X226547Y278993D01*
X226149Y278032D01*
X226013Y277000D01*
X226149Y275968D01*
X226547Y275007D01*
X227181Y274181D01*
X228007Y273547D01*
X228968Y273149D01*
X230000Y273013D01*
X231032Y273149D01*
X231993Y273547D01*
X232819Y274181D01*
X232971Y274378D01*
X233471Y274208D01*
Y271086D01*
X233587Y270500D01*
X233919Y270004D01*
X236119Y267804D01*
X236013Y267000D01*
X236149Y265968D01*
X236547Y265007D01*
X237181Y264181D01*
X238007Y263547D01*
X238968Y263149D01*
X240000Y263013D01*
X241032Y263149D01*
X241993Y263547D01*
X242819Y264181D01*
X243453Y265007D01*
X243851Y265968D01*
X243987Y267000D01*
X243851Y268032D01*
X243453Y268993D01*
X242819Y269819D01*
X241993Y270453D01*
X241032Y270851D01*
X240000Y270987D01*
X238968Y270851D01*
X238007Y270453D01*
X237887Y270361D01*
X236529Y271719D01*
Y274208D01*
X237029Y274378D01*
X237181Y274181D01*
X238007Y273547D01*
X238968Y273149D01*
X240000Y273013D01*
X241032Y273149D01*
X241993Y273547D01*
X242819Y274181D01*
X242971Y274378D01*
X243471Y274208D01*
Y272000D01*
X243587Y271415D01*
X243919Y270919D01*
X246341Y268496D01*
X246149Y268032D01*
X246013Y267000D01*
X246149Y265968D01*
X246547Y265007D01*
X247181Y264181D01*
X248007Y263547D01*
X248968Y263149D01*
X250000Y263013D01*
X251032Y263149D01*
X251993Y263547D01*
X252819Y264181D01*
X253453Y265007D01*
X253851Y265968D01*
X253987Y267000D01*
X253851Y268032D01*
X253453Y268993D01*
X252819Y269819D01*
X251993Y270453D01*
X251032Y270851D01*
X250000Y270987D01*
X248968Y270851D01*
X248504Y270659D01*
X246529Y272634D01*
Y274208D01*
X247029Y274378D01*
X247181Y274181D01*
X248007Y273547D01*
X248968Y273149D01*
X250000Y273013D01*
X251032Y273149D01*
X251993Y273547D01*
X252819Y274181D01*
X253453Y275007D01*
X253851Y275968D01*
X253987Y277000D01*
X253851Y278032D01*
X253453Y278993D01*
X252819Y279819D01*
X251993Y280453D01*
X251032Y280851D01*
X250000Y280987D01*
X248968Y280851D01*
X248007Y280453D01*
X247181Y279819D01*
X247029Y279622D01*
X246529Y279791D01*
Y285500D01*
X246413Y286085D01*
X246081Y286581D01*
X215151Y317511D01*
Y318859D01*
X215244Y319323D01*
Y325031D01*
X215120Y325652D01*
X214769Y326178D01*
X214243Y326530D01*
X213622Y326653D01*
D02*
G37*
G36*
X22000Y328721D02*
Y325000D01*
X25721D01*
X25641Y325609D01*
X25212Y326643D01*
X24531Y327531D01*
X23643Y328212D01*
X22610Y328641D01*
X22000Y328721D01*
D02*
G37*
G36*
X21000D02*
X20391Y328641D01*
X19357Y328212D01*
X18469Y327531D01*
X17788Y326643D01*
X17359Y325609D01*
X17279Y325000D01*
X21000D01*
Y328721D01*
D02*
G37*
G36*
X25721Y324000D02*
X22000D01*
Y320279D01*
X22610Y320359D01*
X23643Y320788D01*
X24531Y321469D01*
X25212Y322357D01*
X25641Y323391D01*
X25721Y324000D01*
D02*
G37*
G36*
X21000D02*
X17279D01*
X17359Y323391D01*
X17788Y322357D01*
X18469Y321469D01*
X19357Y320788D01*
X20391Y320359D01*
X21000Y320279D01*
Y324000D01*
D02*
G37*
G36*
X438000Y459039D02*
X112500D01*
X111720Y458884D01*
X111058Y458442D01*
X74058Y421442D01*
X73616Y420780D01*
X73461Y420000D01*
Y352845D01*
X37155Y316539D01*
X15256D01*
X15212Y316643D01*
X14531Y317531D01*
X13643Y318212D01*
X12609Y318641D01*
X11500Y318787D01*
X10390Y318641D01*
X9357Y318212D01*
X8469Y317531D01*
X7788Y316643D01*
X7359Y315610D01*
X7213Y314500D01*
X7359Y313390D01*
X7788Y312357D01*
X8469Y311469D01*
X8961Y311091D01*
Y285214D01*
X8563Y284696D01*
X8224Y283878D01*
X8109Y283000D01*
X8172Y282522D01*
X7558Y281908D01*
X7116Y281247D01*
X6961Y280466D01*
Y66394D01*
X7116Y65613D01*
X7558Y64952D01*
X25045Y47465D01*
X24970Y46894D01*
X25090Y45980D01*
X25443Y45129D01*
X26004Y44397D01*
X26735Y43836D01*
X27586Y43484D01*
X28500Y43363D01*
X29414Y43484D01*
X30265Y43836D01*
X30996Y44397D01*
X31347Y44854D01*
X278262D01*
X296058Y27058D01*
X296720Y26616D01*
X297500Y26461D01*
X297500Y26461D01*
X334000D01*
X334780Y26616D01*
X335442Y27058D01*
X360442Y52058D01*
X360884Y52720D01*
X361039Y53500D01*
Y99424D01*
X361501Y99615D01*
X404961Y56155D01*
Y53500D01*
X405000Y53303D01*
Y45500D01*
X410803D01*
X411000Y45461D01*
X412155D01*
X419058Y38558D01*
X419720Y38116D01*
X420500Y37961D01*
X554500D01*
X555280Y38116D01*
X555942Y38558D01*
X570192Y52808D01*
X570634Y53470D01*
X570789Y54250D01*
Y57823D01*
X571603Y58447D01*
X572244Y59283D01*
X572647Y60256D01*
X572785Y61300D01*
X572647Y62344D01*
X572244Y63317D01*
X571603Y64153D01*
X570767Y64794D01*
X569794Y65197D01*
X568750Y65334D01*
X567706Y65197D01*
X566733Y64794D01*
X565897Y64153D01*
X565256Y63317D01*
X564853Y62344D01*
X564715Y61300D01*
X564853Y60256D01*
X565256Y59283D01*
X565897Y58447D01*
X566711Y57823D01*
Y55095D01*
X553655Y42039D01*
X421345D01*
X414442Y48942D01*
X413780Y49384D01*
X413000Y49539D01*
Y57500D01*
X408940D01*
X408884Y57780D01*
X408442Y58442D01*
X363000Y103884D01*
Y113000D01*
X355000D01*
Y109039D01*
X353845D01*
X350539Y112345D01*
Y167839D01*
X350384Y168619D01*
X349942Y169281D01*
X325223Y193999D01*
X325415Y194461D01*
X376155D01*
X405000Y165616D01*
Y156500D01*
X410116D01*
X454961Y111655D01*
Y109000D01*
X455000Y108803D01*
Y101000D01*
X460803D01*
X461000Y100961D01*
X462155D01*
X468558Y94558D01*
X468558Y94558D01*
X469220Y94116D01*
X470000Y93961D01*
X531000D01*
X531780Y94116D01*
X532442Y94558D01*
X540384Y102500D01*
X545500D01*
Y114500D01*
X539697D01*
X539500Y114539D01*
X537845D01*
X536039Y116345D01*
Y163155D01*
X540384Y167500D01*
X545500D01*
Y179500D01*
X537500D01*
Y170384D01*
X532558Y165442D01*
X532116Y164780D01*
X531961Y164000D01*
Y115500D01*
X532116Y114720D01*
X532558Y114058D01*
X535558Y111058D01*
X536220Y110616D01*
X537000Y110461D01*
X537500D01*
Y105384D01*
X530155Y98039D01*
X470845D01*
X464442Y104442D01*
X463780Y104884D01*
X463000Y105039D01*
Y113000D01*
X458940D01*
X458884Y113280D01*
X458442Y113942D01*
X413000Y159384D01*
Y168500D01*
X407884D01*
X382385Y193999D01*
X382576Y194461D01*
X394000D01*
X394250Y194510D01*
X394500Y194461D01*
X394750Y194510D01*
X395000Y194461D01*
X395780Y194616D01*
X396442Y195058D01*
X442845Y241461D01*
X567500D01*
X568280Y241616D01*
X568942Y242058D01*
X605884Y279000D01*
X606500Y278919D01*
X607427Y279041D01*
X608290Y279399D01*
X609032Y279968D01*
X609601Y280710D01*
X609959Y281573D01*
X610081Y282500D01*
X610000Y283116D01*
X624845Y297961D01*
X644500D01*
X645280Y298116D01*
X645942Y298558D01*
X658942Y311558D01*
X659384Y312220D01*
X659539Y313000D01*
X659539Y313000D01*
Y414000D01*
X659384Y414780D01*
X658942Y415442D01*
X621442Y452942D01*
X620780Y453384D01*
X620000Y453539D01*
X593599D01*
X593139Y454139D01*
X592366Y454732D01*
X591466Y455105D01*
X590500Y455232D01*
X589534Y455105D01*
X588634Y454732D01*
X587861Y454139D01*
X587268Y453366D01*
X586895Y452466D01*
X586768Y451500D01*
X586895Y450534D01*
X587268Y449634D01*
X587861Y448861D01*
X588634Y448268D01*
X589534Y447895D01*
X590500Y447768D01*
X591466Y447895D01*
X592366Y448268D01*
X593139Y448861D01*
X593599Y449461D01*
X619155D01*
X655461Y413155D01*
Y313845D01*
X643655Y302039D01*
X626039D01*
Y327000D01*
X625884Y327780D01*
X625442Y328442D01*
X613532Y340352D01*
X613581Y340725D01*
X613459Y341652D01*
X613101Y342515D01*
X612532Y343257D01*
X611790Y343826D01*
X610927Y344184D01*
X610000Y344306D01*
X609073Y344184D01*
X608210Y343826D01*
X607468Y343257D01*
X606899Y342515D01*
X606541Y341652D01*
X606419Y340725D01*
X606541Y339798D01*
X606899Y338935D01*
X607468Y338193D01*
X608210Y337624D01*
X609073Y337266D01*
X610000Y337144D01*
X610859Y337257D01*
X621961Y326155D01*
Y300845D01*
X607116Y286000D01*
X606500Y286081D01*
X605573Y285959D01*
X604710Y285601D01*
X603968Y285032D01*
X603399Y284290D01*
X603041Y283427D01*
X602919Y282500D01*
X603000Y281884D01*
X566655Y245539D01*
X442000D01*
X441220Y245384D01*
X440558Y244942D01*
X433626Y238010D01*
X433276Y237941D01*
X432615Y237498D01*
X425001Y229885D01*
X424539Y230076D01*
Y294655D01*
X444251Y314367D01*
X445000Y314268D01*
X445966Y314395D01*
X446866Y314768D01*
X447639Y315361D01*
X448232Y316134D01*
X448605Y317034D01*
X448732Y318000D01*
X448605Y318966D01*
X448232Y319866D01*
X447639Y320639D01*
X446866Y321232D01*
X445966Y321605D01*
X445000Y321732D01*
X444034Y321605D01*
X443134Y321232D01*
X442361Y320639D01*
X441768Y319866D01*
X441395Y318966D01*
X441268Y318000D01*
X441367Y317251D01*
X421058Y296942D01*
X420616Y296280D01*
X420461Y295500D01*
Y225345D01*
X393655Y198539D01*
X323339D01*
Y200000D01*
X319222D01*
X267281Y251942D01*
X266619Y252384D01*
X265839Y252539D01*
X237845D01*
X227178Y263206D01*
X227218Y263539D01*
X227722Y263766D01*
X228007Y263547D01*
X228968Y263149D01*
X230000Y263013D01*
X231032Y263149D01*
X231993Y263547D01*
X232819Y264181D01*
X233453Y265007D01*
X233851Y265968D01*
X233987Y267000D01*
X233851Y268032D01*
X233453Y268993D01*
X232819Y269819D01*
X231993Y270453D01*
X231032Y270851D01*
X230000Y270987D01*
X228968Y270851D01*
X228007Y270453D01*
X227539Y270094D01*
X227039Y270341D01*
Y272000D01*
X226884Y272780D01*
X226442Y273442D01*
X223858Y276025D01*
X223987Y277000D01*
X223851Y278032D01*
X223453Y278993D01*
X222819Y279819D01*
X221993Y280453D01*
X221032Y280851D01*
X220000Y280987D01*
X218968Y280851D01*
X218007Y280453D01*
X217181Y279819D01*
X216547Y278993D01*
X216149Y278032D01*
X216013Y277000D01*
X216149Y275968D01*
X216547Y275007D01*
X217181Y274181D01*
X218007Y273547D01*
X218968Y273149D01*
X220000Y273013D01*
X220975Y273142D01*
X222961Y271155D01*
Y270341D01*
X222461Y270094D01*
X221993Y270453D01*
X221032Y270851D01*
X220000Y270987D01*
X218968Y270851D01*
X218007Y270453D01*
X217181Y269819D01*
X216547Y268993D01*
X216149Y268032D01*
X216013Y267000D01*
X216149Y265968D01*
X216547Y265007D01*
X217181Y264181D01*
X218007Y263547D01*
X218968Y263149D01*
X220000Y263013D01*
X221032Y263149D01*
X221993Y263547D01*
X222461Y263906D01*
X222961Y263659D01*
Y262500D01*
X223116Y261720D01*
X223558Y261058D01*
X235558Y249058D01*
X236220Y248616D01*
X237000Y248461D01*
X264994D01*
X316339Y197116D01*
Y193000D01*
X320455D01*
X320842Y192613D01*
X320745Y192080D01*
X320706Y192042D01*
X320339Y192090D01*
Y189126D01*
X323303D01*
X323255Y189493D01*
X323293Y189533D01*
X323826Y189629D01*
X346461Y166994D01*
Y111500D01*
X346616Y110720D01*
X347058Y110058D01*
X351558Y105558D01*
X352220Y105116D01*
X353000Y104961D01*
X355000D01*
Y101000D01*
X356961D01*
Y54345D01*
X333155Y30539D01*
X298345D01*
X280548Y48335D01*
X279887Y48778D01*
X279106Y48933D01*
X31347D01*
X30996Y49390D01*
X30265Y49951D01*
X29414Y50304D01*
X28500Y50424D01*
X27929Y50349D01*
X27497Y50780D01*
X27593Y51314D01*
X27633Y51352D01*
X28000Y51303D01*
Y54268D01*
X25036D01*
X25084Y53901D01*
X25046Y53861D01*
X24513Y53765D01*
X11039Y67238D01*
Y279165D01*
X11500Y279609D01*
X12378Y279724D01*
X13196Y280063D01*
X13898Y280602D01*
X14437Y281304D01*
X14776Y282122D01*
X14891Y283000D01*
X14776Y283878D01*
X14437Y284696D01*
X13898Y285398D01*
X13196Y285937D01*
X13039Y286002D01*
Y310537D01*
X13643Y310788D01*
X14531Y311469D01*
X15212Y312357D01*
X15256Y312461D01*
X38000D01*
X38780Y312616D01*
X39442Y313058D01*
X76345Y349961D01*
X101582D01*
X102181Y349181D01*
X103007Y348547D01*
X103968Y348149D01*
X105000Y348013D01*
X106032Y348149D01*
X106993Y348547D01*
X107819Y349181D01*
X108453Y350007D01*
X108851Y350968D01*
X108987Y352000D01*
X108851Y353032D01*
X108453Y353993D01*
X107819Y354819D01*
X106993Y355453D01*
X106032Y355851D01*
X105000Y355987D01*
X103968Y355851D01*
X103007Y355453D01*
X102181Y354819D01*
X101582Y354039D01*
X77539D01*
Y419155D01*
X113345Y454961D01*
X188155D01*
X192461Y450655D01*
Y442841D01*
X191961Y442594D01*
X191493Y442953D01*
X190532Y443351D01*
X189500Y443487D01*
X188468Y443351D01*
X187507Y442953D01*
X186681Y442319D01*
X186047Y441493D01*
X185649Y440532D01*
X185513Y439500D01*
X185649Y438468D01*
X186047Y437507D01*
X186681Y436681D01*
X187507Y436047D01*
X188468Y435649D01*
X189500Y435513D01*
X190532Y435649D01*
X191493Y436047D01*
X191961Y436406D01*
X192461Y436159D01*
Y433500D01*
X192616Y432720D01*
X192244Y432377D01*
X191493Y432953D01*
X190532Y433351D01*
X189500Y433487D01*
X188468Y433351D01*
X187507Y432953D01*
X186681Y432319D01*
X186529Y432122D01*
X186029Y432292D01*
Y433500D01*
X185913Y434085D01*
X185581Y434581D01*
X182824Y437339D01*
X182953Y437507D01*
X183351Y438468D01*
X183487Y439500D01*
X183351Y440532D01*
X182953Y441493D01*
X182319Y442319D01*
X181493Y442953D01*
X180532Y443351D01*
X179500Y443487D01*
X178468Y443351D01*
X177507Y442953D01*
X176681Y442319D01*
X176047Y441493D01*
X175649Y440532D01*
X175513Y439500D01*
X175649Y438468D01*
X176047Y437507D01*
X176681Y436681D01*
X177507Y436047D01*
X178468Y435649D01*
X179500Y435513D01*
X180228Y435609D01*
X182971Y432866D01*
Y432292D01*
X182471Y432122D01*
X182319Y432319D01*
X181493Y432953D01*
X180532Y433351D01*
X179500Y433487D01*
X178468Y433351D01*
X177507Y432953D01*
X176681Y432319D01*
X176529Y432122D01*
X176029Y432292D01*
Y434500D01*
X175913Y435085D01*
X175581Y435581D01*
X173159Y438004D01*
X173351Y438468D01*
X173487Y439500D01*
X173351Y440532D01*
X172953Y441493D01*
X172319Y442319D01*
X171493Y442953D01*
X170532Y443351D01*
X169500Y443487D01*
X168468Y443351D01*
X167507Y442953D01*
X166681Y442319D01*
X166047Y441493D01*
X165649Y440532D01*
X165513Y439500D01*
X165649Y438468D01*
X166047Y437507D01*
X166681Y436681D01*
X167507Y436047D01*
X168468Y435649D01*
X169500Y435513D01*
X170532Y435649D01*
X170996Y435841D01*
X172971Y433867D01*
Y432292D01*
X172471Y432122D01*
X172319Y432319D01*
X171493Y432953D01*
X170532Y433351D01*
X169500Y433487D01*
X168468Y433351D01*
X167507Y432953D01*
X166681Y432319D01*
X166529Y432122D01*
X166029Y432292D01*
Y435500D01*
X165913Y436085D01*
X165581Y436582D01*
X163391Y438772D01*
X163487Y439500D01*
X163351Y440532D01*
X162953Y441493D01*
X162319Y442319D01*
X161493Y442953D01*
X160532Y443351D01*
X159500Y443487D01*
X158468Y443351D01*
X157507Y442953D01*
X156681Y442319D01*
X156047Y441493D01*
X155649Y440532D01*
X155513Y439500D01*
X155649Y438468D01*
X156047Y437507D01*
X156681Y436681D01*
X157507Y436047D01*
X158468Y435649D01*
X159500Y435513D01*
X160532Y435649D01*
X161493Y436047D01*
X161661Y436176D01*
X162971Y434867D01*
Y432292D01*
X162471Y432122D01*
X162319Y432319D01*
X161493Y432953D01*
X160532Y433351D01*
X159500Y433487D01*
X158468Y433351D01*
X157507Y432953D01*
X156681Y432319D01*
X156529Y432122D01*
X156029Y432292D01*
Y435000D01*
X155913Y435585D01*
X155581Y436081D01*
X153305Y438358D01*
X153351Y438468D01*
X153487Y439500D01*
X153351Y440532D01*
X152953Y441493D01*
X152319Y442319D01*
X151493Y442953D01*
X150532Y443351D01*
X149500Y443487D01*
X148468Y443351D01*
X147507Y442953D01*
X146681Y442319D01*
X146047Y441493D01*
X145649Y440532D01*
X145513Y439500D01*
X145649Y438468D01*
X146047Y437507D01*
X146681Y436681D01*
X147507Y436047D01*
X148468Y435649D01*
X149500Y435513D01*
X150532Y435649D01*
X151349Y435988D01*
X152971Y434367D01*
Y432292D01*
X152471Y432122D01*
X152319Y432319D01*
X151493Y432953D01*
X150532Y433351D01*
X149500Y433487D01*
X148468Y433351D01*
X147507Y432953D01*
X146681Y432319D01*
X146529Y432122D01*
X146029Y432292D01*
Y434500D01*
X145913Y435085D01*
X145581Y435581D01*
X143159Y438004D01*
X143351Y438468D01*
X143487Y439500D01*
X143351Y440532D01*
X142953Y441493D01*
X142319Y442319D01*
X141493Y442953D01*
X140532Y443351D01*
X139500Y443487D01*
X138468Y443351D01*
X137507Y442953D01*
X136681Y442319D01*
X136047Y441493D01*
X135649Y440532D01*
X135513Y439500D01*
X135649Y438468D01*
X136047Y437507D01*
X136681Y436681D01*
X137507Y436047D01*
X138468Y435649D01*
X139500Y435513D01*
X140532Y435649D01*
X140996Y435841D01*
X142971Y433867D01*
Y432292D01*
X142471Y432122D01*
X142319Y432319D01*
X141493Y432953D01*
X140532Y433351D01*
X139500Y433487D01*
X138468Y433351D01*
X137507Y432953D01*
X136681Y432319D01*
X136529Y432122D01*
X136029Y432292D01*
Y434500D01*
X135913Y435085D01*
X135581Y435581D01*
X133159Y438004D01*
X133351Y438468D01*
X133487Y439500D01*
X133351Y440532D01*
X132953Y441493D01*
X132319Y442319D01*
X131493Y442953D01*
X130532Y443351D01*
X129500Y443487D01*
X128468Y443351D01*
X127507Y442953D01*
X126681Y442319D01*
X126047Y441493D01*
X125649Y440532D01*
X125513Y439500D01*
X125649Y438468D01*
X126047Y437507D01*
X126681Y436681D01*
X127507Y436047D01*
X128468Y435649D01*
X129500Y435513D01*
X130532Y435649D01*
X130996Y435841D01*
X132971Y433867D01*
Y432292D01*
X132471Y432122D01*
X132319Y432319D01*
X131493Y432953D01*
X130532Y433351D01*
X129500Y433487D01*
X128468Y433351D01*
X127507Y432953D01*
X126681Y432319D01*
X126047Y431493D01*
X125649Y430532D01*
X125513Y429500D01*
X125649Y428468D01*
X126047Y427507D01*
X126681Y426681D01*
X127507Y426047D01*
X128468Y425649D01*
X129500Y425513D01*
X130532Y425649D01*
X131493Y426047D01*
X132319Y426681D01*
X132471Y426878D01*
X132971Y426709D01*
Y425500D01*
X133087Y424915D01*
X133419Y424419D01*
X164849Y392988D01*
Y385141D01*
X164756Y384677D01*
Y378969D01*
X164880Y378348D01*
X165231Y377822D01*
X165757Y377470D01*
X166378Y377347D01*
X166999Y377470D01*
X167362Y377713D01*
X167726Y377470D01*
X168347Y377347D01*
X168967Y377470D01*
X169331Y377713D01*
X169694Y377470D01*
X170315Y377347D01*
X170936Y377470D01*
X171299Y377713D01*
X171663Y377470D01*
X172283Y377347D01*
X172904Y377470D01*
X173268Y377713D01*
X173631Y377470D01*
X174252Y377347D01*
X174873Y377470D01*
X175236Y377713D01*
X175600Y377470D01*
X176221Y377347D01*
X176841Y377470D01*
X177205Y377713D01*
X177568Y377470D01*
X178189Y377347D01*
X178810Y377470D01*
X179173Y377713D01*
X179537Y377470D01*
X180157Y377347D01*
X180778Y377470D01*
X181142Y377713D01*
X181505Y377470D01*
X182126Y377347D01*
X182747Y377470D01*
X183110Y377713D01*
X183474Y377470D01*
X184095Y377347D01*
X184715Y377470D01*
X185079Y377713D01*
X185442Y377470D01*
X186063Y377347D01*
X186684Y377470D01*
X187047Y377713D01*
X187411Y377470D01*
X188031Y377347D01*
X188652Y377470D01*
X189016Y377713D01*
X189379Y377470D01*
X190000Y377347D01*
X190621Y377470D01*
X190984Y377713D01*
X191348Y377470D01*
X191969Y377347D01*
X192589Y377470D01*
X192953Y377713D01*
X193316Y377470D01*
X193937Y377347D01*
X194558Y377470D01*
X194921Y377713D01*
X195285Y377470D01*
X195905Y377347D01*
X196526Y377470D01*
X196890Y377713D01*
X197253Y377470D01*
X197374Y377446D01*
Y378303D01*
X197404Y378348D01*
X197527Y378969D01*
Y381823D01*
X198221D01*
Y378969D01*
X198344Y378348D01*
X198374Y378303D01*
Y377446D01*
X198495Y377470D01*
X198858Y377713D01*
X199222Y377470D01*
X199843Y377347D01*
X200463Y377470D01*
X200827Y377713D01*
X201190Y377470D01*
X201311Y377446D01*
Y378303D01*
X201341Y378348D01*
X201464Y378969D01*
Y381823D01*
X202158D01*
Y378969D01*
X202281Y378348D01*
X202311Y378303D01*
Y377446D01*
X202432Y377470D01*
X202795Y377713D01*
X203159Y377470D01*
X203780Y377347D01*
X204400Y377470D01*
X204764Y377713D01*
X205127Y377470D01*
X205748Y377347D01*
X206369Y377470D01*
X206732Y377713D01*
X207096Y377470D01*
X207716Y377347D01*
X208337Y377470D01*
X208701Y377713D01*
X209064Y377470D01*
X209685Y377347D01*
X210306Y377470D01*
X210669Y377713D01*
X211033Y377470D01*
X211653Y377347D01*
X212274Y377470D01*
X212638Y377713D01*
X213001Y377470D01*
X213622Y377347D01*
X214243Y377470D01*
X214769Y377822D01*
X215120Y378348D01*
X215244Y378969D01*
Y384581D01*
X257581Y426919D01*
X257913Y427415D01*
X258029Y428000D01*
Y435000D01*
X257913Y435585D01*
X257581Y436081D01*
X254448Y439215D01*
X253952Y439546D01*
X253453Y439645D01*
Y443453D01*
X245547D01*
Y436269D01*
X245085Y436078D01*
X243159Y438004D01*
X243351Y438468D01*
X243487Y439500D01*
X243351Y440532D01*
X242953Y441493D01*
X242319Y442319D01*
X241493Y442953D01*
X240532Y443351D01*
X239500Y443487D01*
X238468Y443351D01*
X237507Y442953D01*
X236681Y442319D01*
X236047Y441493D01*
X235649Y440532D01*
X235513Y439500D01*
X235649Y438468D01*
X236047Y437507D01*
X236681Y436681D01*
X237507Y436047D01*
X238468Y435649D01*
X239500Y435513D01*
X240532Y435649D01*
X240996Y435841D01*
X243471Y433366D01*
Y431550D01*
X242971Y431450D01*
X242953Y431493D01*
X242319Y432319D01*
X241493Y432953D01*
X240532Y433351D01*
X239500Y433487D01*
X238468Y433351D01*
X237507Y432953D01*
X236681Y432319D01*
X236047Y431493D01*
X235649Y430532D01*
X235513Y429500D01*
X235649Y428468D01*
X236047Y427507D01*
X236681Y426681D01*
X237507Y426047D01*
X237971Y425855D01*
Y420634D01*
X231491Y414154D01*
X231029Y414346D01*
Y425855D01*
X231493Y426047D01*
X232319Y426681D01*
X232953Y427507D01*
X233351Y428468D01*
X233487Y429500D01*
X233351Y430532D01*
X232953Y431493D01*
X232319Y432319D01*
X231493Y432953D01*
X230532Y433351D01*
X229500Y433487D01*
X228468Y433351D01*
X227507Y432953D01*
X226871Y432465D01*
X226371Y432706D01*
Y434498D01*
X226254Y435083D01*
X225923Y435580D01*
X223258Y438244D01*
X223351Y438468D01*
X223421Y439000D01*
X220000D01*
Y435579D01*
X220532Y435649D01*
X221236Y435941D01*
X223312Y433865D01*
Y431847D01*
X222812Y431677D01*
X222319Y432319D01*
X221493Y432953D01*
X220532Y433351D01*
X219500Y433487D01*
X218468Y433351D01*
X217507Y432953D01*
X216681Y432319D01*
X216047Y431493D01*
X215649Y430532D01*
X215513Y429500D01*
X215649Y428468D01*
X216047Y427507D01*
X216681Y426681D01*
X217507Y426047D01*
X217971Y425855D01*
Y410134D01*
X202022Y394185D01*
X201480Y394350D01*
X201355Y394975D01*
X200802Y395802D01*
X199976Y396355D01*
X199500Y396449D01*
Y394000D01*
X198500D01*
Y396449D01*
X198024Y396355D01*
X197876Y396256D01*
X197435Y396491D01*
Y410272D01*
X210581Y423419D01*
X210913Y423915D01*
X211029Y424500D01*
Y425855D01*
X211493Y426047D01*
X212319Y426681D01*
X212953Y427507D01*
X213351Y428468D01*
X213487Y429500D01*
X213351Y430532D01*
X212953Y431493D01*
X212319Y432319D01*
X211493Y432953D01*
X210532Y433351D01*
X209500Y433487D01*
X208468Y433351D01*
X207507Y432953D01*
X207029Y432587D01*
X206529Y432833D01*
Y433500D01*
X206413Y434085D01*
X206081Y434582D01*
X203012Y437650D01*
X203351Y438468D01*
X203487Y439500D01*
X203351Y440532D01*
X202953Y441493D01*
X202319Y442319D01*
X201493Y442953D01*
X200532Y443351D01*
X199500Y443487D01*
X198468Y443351D01*
X197507Y442953D01*
X197039Y442594D01*
X196539Y442841D01*
Y451500D01*
X196384Y452280D01*
X195942Y452942D01*
X195942Y452942D01*
X194385Y454499D01*
X194576Y454961D01*
X262155D01*
X287461Y429655D01*
Y417345D01*
X275975Y405859D01*
X275000Y405987D01*
X273968Y405851D01*
X273007Y405453D01*
X272181Y404819D01*
X271547Y403993D01*
X271149Y403032D01*
X271013Y402000D01*
X271149Y400968D01*
X271547Y400007D01*
X272181Y399181D01*
X273007Y398547D01*
X273968Y398149D01*
X275000Y398013D01*
X276032Y398149D01*
X276993Y398547D01*
X277819Y399181D01*
X278453Y400007D01*
X278851Y400968D01*
X278987Y402000D01*
X278858Y402975D01*
X290942Y415058D01*
X291384Y415720D01*
X291539Y416500D01*
X291539Y416500D01*
Y430500D01*
X291384Y431280D01*
X290942Y431942D01*
X268385Y454499D01*
X268576Y454961D01*
X347655D01*
X371961Y430655D01*
Y413268D01*
X372116Y412488D01*
X372558Y411826D01*
X377518Y406866D01*
X377470Y406500D01*
X377590Y405586D01*
X377943Y404735D01*
X378504Y404004D01*
X379235Y403443D01*
X380086Y403090D01*
X381000Y402970D01*
X381366Y403018D01*
X383744Y400640D01*
Y396544D01*
X383744Y396406D01*
Y396044D01*
X383744Y395906D01*
Y394721D01*
X377949D01*
Y396481D01*
X371362D01*
X371224Y396481D01*
X370862D01*
X370724Y396481D01*
X364138D01*
Y394264D01*
X358669D01*
X358179Y394904D01*
X357394Y395506D01*
X356481Y395884D01*
X355500Y396013D01*
X354520Y395884D01*
X353606Y395506D01*
X352821Y394904D01*
X352219Y394119D01*
X351841Y393205D01*
X351712Y392225D01*
X351841Y391245D01*
X352219Y390331D01*
X352821Y389546D01*
X353606Y388944D01*
X354520Y388566D01*
X355500Y388437D01*
X356481Y388566D01*
X357394Y388944D01*
X358179Y389546D01*
X358669Y390186D01*
X364138D01*
Y388969D01*
X370724D01*
X370862Y388969D01*
X371224D01*
X371362Y388969D01*
X377949D01*
Y390642D01*
X383744D01*
Y389319D01*
X385971D01*
Y384500D01*
X386087Y383915D01*
X386419Y383419D01*
X414830Y355007D01*
X414639Y354545D01*
X385756D01*
Y355193D01*
X378244D01*
Y353871D01*
X373905D01*
Y355481D01*
X367319D01*
X367181Y355481D01*
X366819D01*
X366681Y355481D01*
X360094D01*
Y353764D01*
X358845D01*
X354539Y358070D01*
Y366556D01*
X355179Y367046D01*
X355781Y367831D01*
X356159Y368744D01*
X356288Y369725D01*
X356159Y370706D01*
X355781Y371619D01*
X355179Y372404D01*
X354394Y373006D01*
X353481Y373384D01*
X352500Y373513D01*
X351519Y373384D01*
X350606Y373006D01*
X349821Y372404D01*
X349219Y371619D01*
X348841Y370706D01*
X348712Y369725D01*
X348841Y368744D01*
X349219Y367831D01*
X349821Y367046D01*
X350461Y366556D01*
Y357225D01*
X350616Y356445D01*
X351058Y355783D01*
X356558Y350283D01*
X357220Y349841D01*
X358000Y349686D01*
X360094D01*
Y347969D01*
X366681D01*
X366819Y347969D01*
X367181D01*
X367319Y347969D01*
X373487D01*
X373620Y347469D01*
X373004Y346996D01*
X372443Y346265D01*
X372090Y345414D01*
X371970Y344500D01*
X372090Y343586D01*
X372443Y342735D01*
X373004Y342004D01*
X373735Y341443D01*
X374586Y341090D01*
X375500Y340970D01*
X376414Y341090D01*
X377265Y341443D01*
X377744Y341810D01*
X378244Y341564D01*
Y341383D01*
X385756D01*
Y347969D01*
X385756Y348107D01*
Y348469D01*
X385756Y348607D01*
Y351486D01*
X416000D01*
X416158Y351518D01*
X419300D01*
Y349547D01*
X422900D01*
Y347900D01*
X424547D01*
Y346648D01*
X424518Y346500D01*
Y344681D01*
X423649Y343812D01*
X423414Y343910D01*
X422500Y344030D01*
X421586Y343910D01*
X420735Y343557D01*
X420004Y342996D01*
X419443Y342265D01*
X419090Y341414D01*
X418970Y340500D01*
X419090Y339586D01*
X419443Y338735D01*
X420004Y338004D01*
X420735Y337443D01*
X421586Y337090D01*
X421928Y337045D01*
X421895Y336545D01*
X355303D01*
X355143Y337019D01*
X355179Y337046D01*
X355781Y337831D01*
X356159Y338744D01*
X356288Y339725D01*
X356159Y340705D01*
X355781Y341619D01*
X355179Y342404D01*
X354539Y342895D01*
Y346225D01*
X354384Y347005D01*
X353942Y347667D01*
X350529Y351080D01*
X349867Y351522D01*
X349087Y351678D01*
X343256D01*
Y352863D01*
X343256Y353001D01*
Y353363D01*
X343256Y353501D01*
Y356225D01*
X335744D01*
Y353501D01*
X335744Y353363D01*
Y353001D01*
X335744Y352863D01*
Y351678D01*
X331913D01*
X331133Y351522D01*
X330471Y351080D01*
X325558Y346167D01*
X325116Y345505D01*
X324961Y344725D01*
Y342895D01*
X324321Y342404D01*
X323719Y341619D01*
X323341Y340705D01*
X323212Y339725D01*
X323341Y338744D01*
X323719Y337831D01*
X324321Y337046D01*
X324357Y337019D01*
X324197Y336545D01*
X294618D01*
X288081Y343081D01*
X287585Y343413D01*
X287000Y343529D01*
X278645D01*
X278453Y343993D01*
X277819Y344819D01*
X276993Y345453D01*
X276032Y345851D01*
X275000Y345987D01*
X273968Y345851D01*
X273007Y345453D01*
X272181Y344819D01*
X271547Y343993D01*
X271149Y343032D01*
X271013Y342000D01*
X271149Y340968D01*
X271341Y340504D01*
X269367Y338529D01*
X267792D01*
X267622Y339029D01*
X267819Y339181D01*
X268453Y340007D01*
X268851Y340968D01*
X268987Y342000D01*
X268851Y343032D01*
X268453Y343993D01*
X267819Y344819D01*
X266993Y345453D01*
X266950Y345471D01*
X267050Y345971D01*
X270500D01*
X271085Y346087D01*
X271581Y346419D01*
X273504Y348341D01*
X273968Y348149D01*
X275000Y348013D01*
X276032Y348149D01*
X276993Y348547D01*
X277819Y349181D01*
X278453Y350007D01*
X278851Y350968D01*
X278987Y352000D01*
X278851Y353032D01*
X278453Y353993D01*
X278094Y354461D01*
X278341Y354961D01*
X309648D01*
X309744Y354501D01*
X309744Y354363D01*
Y351638D01*
X313500D01*
X317256D01*
Y354363D01*
X317256Y354501D01*
Y354863D01*
X317256Y355001D01*
Y356186D01*
X322500D01*
X323280Y356341D01*
X323942Y356783D01*
X328442Y361283D01*
X328884Y361945D01*
X329039Y362725D01*
Y366556D01*
X329679Y367046D01*
X330281Y367831D01*
X330659Y368744D01*
X330788Y369725D01*
X330659Y370706D01*
X330281Y371619D01*
X329679Y372404D01*
X328894Y373006D01*
X327980Y373384D01*
X327000Y373513D01*
X326020Y373384D01*
X325106Y373006D01*
X324321Y372404D01*
X323719Y371619D01*
X323341Y370706D01*
X323212Y369725D01*
X323341Y368744D01*
X323719Y367831D01*
X324321Y367046D01*
X324961Y366556D01*
Y363570D01*
X321655Y360264D01*
X317256D01*
Y361587D01*
X309744D01*
Y359039D01*
X278341D01*
X278094Y359539D01*
X278453Y360007D01*
X278851Y360968D01*
X278987Y362000D01*
X278851Y363032D01*
X278524Y363822D01*
X310782Y396080D01*
X311080Y395957D01*
X315000D01*
X318756D01*
Y398819D01*
X318756Y398819D01*
Y399181D01*
X318756D01*
X318756Y399319D01*
Y400961D01*
X324155D01*
X325961Y399155D01*
Y395394D01*
X325321Y394904D01*
X324719Y394119D01*
X324341Y393205D01*
X324212Y392225D01*
X324341Y391245D01*
X324719Y390331D01*
X325321Y389546D01*
X326106Y388944D01*
X327020Y388566D01*
X328000Y388437D01*
X328980Y388566D01*
X329894Y388944D01*
X330679Y389546D01*
X331281Y390331D01*
X331659Y391245D01*
X331788Y392225D01*
X331659Y393205D01*
X331281Y394119D01*
X330679Y394904D01*
X330039Y395394D01*
Y400000D01*
X329884Y400780D01*
X329442Y401442D01*
X326442Y404442D01*
X325780Y404884D01*
X325000Y405039D01*
X318756D01*
Y405905D01*
X311244D01*
Y402310D01*
X279031Y370097D01*
X278607Y370380D01*
X278851Y370968D01*
X278987Y372000D01*
X278851Y373032D01*
X278453Y373993D01*
X277819Y374819D01*
X276993Y375453D01*
X276032Y375851D01*
X275000Y375987D01*
X273968Y375851D01*
X273007Y375453D01*
X272181Y374819D01*
X271547Y373993D01*
X271149Y373032D01*
X271013Y372000D01*
X271149Y370968D01*
X271341Y370504D01*
X269367Y368529D01*
X267792D01*
X267622Y369029D01*
X267819Y369181D01*
X268453Y370007D01*
X268851Y370968D01*
X268987Y372000D01*
X268851Y373032D01*
X268453Y373993D01*
X267819Y374819D01*
X267622Y374971D01*
X267792Y375471D01*
X270500D01*
X271085Y375587D01*
X271581Y375919D01*
X273858Y378195D01*
X273968Y378149D01*
X275000Y378013D01*
X276032Y378149D01*
X276993Y378547D01*
X277819Y379181D01*
X278453Y380007D01*
X278851Y380968D01*
X278987Y382000D01*
X278851Y383032D01*
X278453Y383993D01*
X277819Y384819D01*
X276993Y385453D01*
X276032Y385851D01*
X275000Y385987D01*
X273968Y385851D01*
X273007Y385453D01*
X272181Y384819D01*
X271547Y383993D01*
X271149Y383032D01*
X271013Y382000D01*
X271149Y380968D01*
X271488Y380151D01*
X269866Y378529D01*
X267792D01*
X267622Y379029D01*
X267819Y379181D01*
X268453Y380007D01*
X268851Y380968D01*
X268987Y382000D01*
X268851Y383032D01*
X268453Y383993D01*
X267819Y384819D01*
X266993Y385453D01*
X266032Y385851D01*
X265000Y385987D01*
X263968Y385851D01*
X263007Y385453D01*
X262181Y384819D01*
X261547Y383993D01*
X261149Y383032D01*
X261013Y382000D01*
X261149Y380968D01*
X261547Y380007D01*
X262181Y379181D01*
X262378Y379029D01*
X262209Y378529D01*
X260000D01*
X259415Y378413D01*
X258919Y378081D01*
X246178Y365340D01*
X233419D01*
X233268Y365840D01*
X233802Y366198D01*
X234355Y367024D01*
X234450Y367500D01*
X232000D01*
Y368500D01*
X234450D01*
X234355Y368975D01*
X233802Y369802D01*
X232976Y370355D01*
X232949Y370360D01*
X232843Y370891D01*
X233302Y371198D01*
X233855Y372024D01*
X234049Y373000D01*
X233855Y373975D01*
X233302Y374802D01*
X232475Y375355D01*
X231500Y375549D01*
X230775Y375405D01*
X230528Y375866D01*
X260134Y405471D01*
X262209D01*
X262378Y404971D01*
X262181Y404819D01*
X261547Y403993D01*
X261149Y403032D01*
X261013Y402000D01*
X261149Y400968D01*
X261547Y400007D01*
X262181Y399181D01*
X263007Y398547D01*
X263968Y398149D01*
X265000Y398013D01*
X266032Y398149D01*
X266993Y398547D01*
X267819Y399181D01*
X268453Y400007D01*
X268851Y400968D01*
X268987Y402000D01*
X268851Y403032D01*
X268453Y403993D01*
X267819Y404819D01*
X267622Y404971D01*
X267792Y405471D01*
X271000D01*
X271585Y405587D01*
X272081Y405919D01*
X274272Y408109D01*
X275000Y408013D01*
X276032Y408149D01*
X276993Y408547D01*
X277819Y409181D01*
X278453Y410007D01*
X278851Y410968D01*
X278987Y412000D01*
X278851Y413032D01*
X278453Y413993D01*
X277819Y414819D01*
X276993Y415453D01*
X276032Y415851D01*
X275000Y415987D01*
X273968Y415851D01*
X273007Y415453D01*
X272181Y414819D01*
X271547Y413993D01*
X271149Y413032D01*
X271013Y412000D01*
X271149Y410968D01*
X271547Y410007D01*
X271676Y409839D01*
X270367Y408529D01*
X267792D01*
X267622Y409029D01*
X267819Y409181D01*
X268453Y410007D01*
X268851Y410968D01*
X268987Y412000D01*
X268851Y413032D01*
X268453Y413993D01*
X267819Y414819D01*
X266993Y415453D01*
X266032Y415851D01*
X265000Y415987D01*
X263968Y415851D01*
X263007Y415453D01*
X262181Y414819D01*
X261547Y413993D01*
X261149Y413032D01*
X261013Y412000D01*
X261149Y410968D01*
X261547Y410007D01*
X262181Y409181D01*
X262378Y409029D01*
X262209Y408529D01*
X259500D01*
X258915Y408413D01*
X258419Y408081D01*
X227488Y377151D01*
X223141D01*
X222677Y377244D01*
X216968D01*
X216348Y377120D01*
X215822Y376769D01*
X215470Y376243D01*
X215347Y375622D01*
X215470Y375001D01*
X215713Y374638D01*
X215470Y374274D01*
X215347Y373654D01*
X215470Y373033D01*
X215713Y372669D01*
X215470Y372306D01*
X215347Y371685D01*
X215470Y371064D01*
X215713Y370701D01*
X215470Y370337D01*
X215446Y370216D01*
X216303D01*
X216348Y370187D01*
X216968Y370063D01*
X219823D01*
Y369370D01*
X216968D01*
X216348Y369247D01*
X216303Y369216D01*
X215446D01*
X215470Y369096D01*
X215713Y368732D01*
X215470Y368369D01*
X215347Y367748D01*
X215470Y367127D01*
X215713Y366764D01*
X215470Y366400D01*
X215347Y365779D01*
X215470Y365159D01*
X215713Y364795D01*
X215470Y364432D01*
X215347Y363811D01*
X215470Y363190D01*
X215713Y362827D01*
X215470Y362463D01*
X215347Y361842D01*
X215470Y361222D01*
X215713Y360858D01*
X215470Y360495D01*
X215347Y359874D01*
X215470Y359253D01*
X215713Y358890D01*
X215470Y358526D01*
X215347Y357906D01*
X215470Y357285D01*
X215713Y356921D01*
X215470Y356558D01*
X215347Y355937D01*
X215470Y355316D01*
X215713Y354953D01*
X215470Y354589D01*
X215347Y353969D01*
X215470Y353348D01*
X215713Y352984D01*
X215470Y352621D01*
X215347Y352000D01*
X215470Y351379D01*
X215713Y351016D01*
X215470Y350652D01*
X215347Y350031D01*
X215470Y349411D01*
X215713Y349047D01*
X215470Y348684D01*
X215347Y348063D01*
X215470Y347442D01*
X215713Y347079D01*
X215470Y346715D01*
X215347Y346094D01*
X215470Y345474D01*
X215713Y345110D01*
X215470Y344747D01*
X215347Y344126D01*
X215470Y343505D01*
X215713Y343142D01*
X215470Y342778D01*
X215347Y342158D01*
X215470Y341537D01*
X215713Y341173D01*
X215470Y340810D01*
X215347Y340189D01*
X215470Y339568D01*
X215713Y339205D01*
X215470Y338841D01*
X215347Y338221D01*
X215470Y337600D01*
X215713Y337236D01*
X215470Y336873D01*
X215347Y336252D01*
X215470Y335631D01*
X215713Y335268D01*
X215470Y334904D01*
X215347Y334283D01*
X215470Y333663D01*
X215713Y333299D01*
X215470Y332936D01*
X215347Y332315D01*
X215470Y331694D01*
X215713Y331331D01*
X215470Y330967D01*
X215347Y330346D01*
X215470Y329726D01*
X215713Y329362D01*
X215470Y328998D01*
X215347Y328378D01*
X215470Y327757D01*
X215822Y327231D01*
X216348Y326880D01*
X216968Y326756D01*
X222136D01*
X242526Y306366D01*
Y300945D01*
X242642Y300360D01*
X242974Y299863D01*
X261419Y281419D01*
X261915Y281087D01*
X262500Y280971D01*
X269500D01*
X270085Y281087D01*
X270581Y281419D01*
X275081Y285919D01*
X275413Y286415D01*
X275529Y287000D01*
Y288047D01*
X278953D01*
Y295953D01*
X271784D01*
X271630Y296308D01*
X271616Y296453D01*
X273504Y298341D01*
X273968Y298149D01*
X275000Y298013D01*
X276032Y298149D01*
X276993Y298547D01*
X277819Y299181D01*
X278453Y300007D01*
X278851Y300968D01*
X278987Y302000D01*
X278851Y303032D01*
X278453Y303993D01*
X277819Y304819D01*
X276993Y305453D01*
X276032Y305851D01*
X275000Y305987D01*
X273968Y305851D01*
X273007Y305453D01*
X272181Y304819D01*
X271547Y303993D01*
X271149Y303032D01*
X271013Y302000D01*
X271149Y300968D01*
X271341Y300504D01*
X269866Y299029D01*
X268333D01*
X268087Y299529D01*
X268453Y300007D01*
X268851Y300968D01*
X268987Y302000D01*
X268851Y303032D01*
X268453Y303993D01*
X267819Y304819D01*
X267622Y304971D01*
X267792Y305471D01*
X268000D01*
X268585Y305587D01*
X269081Y305919D01*
X272273Y309110D01*
X273007Y308547D01*
X273968Y308149D01*
X275000Y308013D01*
X276032Y308149D01*
X276993Y308547D01*
X277819Y309181D01*
X278453Y310007D01*
X278851Y310968D01*
X278987Y312000D01*
X278851Y313032D01*
X278453Y313993D01*
X277819Y314819D01*
X276993Y315453D01*
X276032Y315851D01*
X275000Y315987D01*
X273968Y315851D01*
X273007Y315453D01*
X272181Y314819D01*
X271547Y313993D01*
X271149Y313032D01*
X271037Y312181D01*
X270980Y312143D01*
X269100Y310263D01*
X268676Y310546D01*
X268851Y310968D01*
X268987Y312000D01*
X268851Y313032D01*
X268453Y313993D01*
X267819Y314819D01*
X266993Y315453D01*
X266950Y315471D01*
X267050Y315971D01*
X270500D01*
X271085Y316087D01*
X271581Y316419D01*
X273504Y318341D01*
X273968Y318149D01*
X275000Y318013D01*
X276032Y318149D01*
X276993Y318547D01*
X277819Y319181D01*
X278453Y320007D01*
X278851Y320968D01*
X278987Y322000D01*
X278851Y323032D01*
X278453Y323993D01*
X277819Y324819D01*
X276993Y325453D01*
X276032Y325851D01*
X275000Y325987D01*
X273968Y325851D01*
X273007Y325453D01*
X272181Y324819D01*
X271547Y323993D01*
X271149Y323032D01*
X271013Y322000D01*
X271149Y320968D01*
X271341Y320504D01*
X269866Y319029D01*
X268333D01*
X268087Y319529D01*
X268453Y320007D01*
X268851Y320968D01*
X268987Y322000D01*
X268851Y323032D01*
X268453Y323993D01*
X267819Y324819D01*
X266993Y325453D01*
X266950Y325471D01*
X267050Y325971D01*
X270500D01*
X271085Y326087D01*
X271581Y326419D01*
X273504Y328341D01*
X273968Y328149D01*
X275000Y328013D01*
X276032Y328149D01*
X276993Y328547D01*
X277819Y329181D01*
X278453Y330007D01*
X278851Y330968D01*
X278987Y332000D01*
X278851Y333032D01*
X278453Y333993D01*
X277819Y334819D01*
X276993Y335453D01*
X276032Y335851D01*
X275000Y335987D01*
X273968Y335851D01*
X273007Y335453D01*
X272181Y334819D01*
X271547Y333993D01*
X271149Y333032D01*
X271013Y332000D01*
X271149Y330968D01*
X271341Y330504D01*
X269866Y329029D01*
X268333D01*
X268087Y329529D01*
X268453Y330007D01*
X268851Y330968D01*
X268987Y332000D01*
X268851Y333032D01*
X268453Y333993D01*
X267819Y334819D01*
X267622Y334971D01*
X267792Y335471D01*
X270000D01*
X270585Y335587D01*
X271081Y335919D01*
X273504Y338341D01*
X273968Y338149D01*
X275000Y338013D01*
X276032Y338149D01*
X276993Y338547D01*
X277819Y339181D01*
X278453Y340007D01*
X278645Y340471D01*
X286367D01*
X292903Y333934D01*
X293399Y333603D01*
X293984Y333486D01*
X423516D01*
X424101Y333603D01*
X424597Y333934D01*
X428896Y338234D01*
X429540Y338297D01*
X433438Y334399D01*
X433340Y334164D01*
X433220Y333250D01*
X433340Y332336D01*
X433693Y331485D01*
X434254Y330754D01*
X434985Y330193D01*
X435836Y329840D01*
X436750Y329720D01*
X437664Y329840D01*
X438515Y330193D01*
X439246Y330754D01*
X439807Y331485D01*
X440160Y332336D01*
X440280Y333250D01*
X440160Y334164D01*
X439807Y335015D01*
X439246Y335746D01*
X438515Y336307D01*
X437664Y336660D01*
X436750Y336780D01*
X435836Y336660D01*
X435601Y336562D01*
X431514Y340649D01*
Y344300D01*
X433453D01*
Y347900D01*
X435100D01*
Y349547D01*
X436000D01*
Y351047D01*
X437000D01*
Y349547D01*
X438700D01*
Y351486D01*
X465576D01*
X468971Y348092D01*
Y345631D01*
X466744D01*
Y339044D01*
X466744Y338906D01*
Y338544D01*
X466744Y338406D01*
Y331820D01*
X467057D01*
X467249Y331358D01*
X463155Y327264D01*
X442500D01*
X441720Y327109D01*
X441058Y326667D01*
X434430Y320039D01*
X418700D01*
Y321700D01*
X411300D01*
Y314300D01*
X412961D01*
Y311099D01*
X412361Y310639D01*
X411768Y309866D01*
X411395Y308966D01*
X411268Y308000D01*
X411395Y307034D01*
X411768Y306134D01*
X412361Y305361D01*
X413134Y304768D01*
X414034Y304395D01*
X415000Y304268D01*
X415966Y304395D01*
X416866Y304768D01*
X417639Y305361D01*
X418232Y306134D01*
X418605Y307034D01*
X418732Y308000D01*
X418605Y308966D01*
X418232Y309866D01*
X417639Y310639D01*
X417039Y311099D01*
Y314300D01*
X418700D01*
Y315961D01*
X435275D01*
X436055Y316116D01*
X436717Y316558D01*
X443345Y323186D01*
X464000D01*
X464780Y323341D01*
X465442Y323783D01*
X471942Y330283D01*
X472384Y330945D01*
X472539Y331725D01*
Y331820D01*
X474256D01*
Y338406D01*
X474256Y338544D01*
Y338906D01*
X474256Y339044D01*
Y345631D01*
X472029D01*
Y348725D01*
X472029Y348725D01*
X471913Y349310D01*
X471581Y349806D01*
X467291Y354097D01*
X466794Y354429D01*
X466209Y354545D01*
X453636D01*
X453445Y355007D01*
X472082Y373644D01*
X472413Y374140D01*
X472529Y374725D01*
Y382820D01*
X474756D01*
Y389406D01*
X474756Y389544D01*
Y389906D01*
X474756Y390044D01*
Y396631D01*
X473039D01*
Y403880D01*
X508620Y439461D01*
X557401D01*
X557861Y438861D01*
X558634Y438268D01*
X559534Y437895D01*
X560500Y437768D01*
X561466Y437895D01*
X562366Y438268D01*
X563139Y438861D01*
X563732Y439634D01*
X564105Y440534D01*
X564232Y441500D01*
X564105Y442466D01*
X563732Y443366D01*
X563139Y444139D01*
X562539Y444599D01*
Y447800D01*
X564200D01*
Y455200D01*
X556800D01*
Y447800D01*
X558461D01*
Y444599D01*
X557861Y444139D01*
X557401Y443539D01*
X507775D01*
X506995Y443384D01*
X506333Y442942D01*
X469558Y406167D01*
X469116Y405505D01*
X468961Y404725D01*
Y396631D01*
X467244D01*
Y390044D01*
X467244Y389906D01*
Y389544D01*
X467244Y389406D01*
Y382820D01*
X469471D01*
Y375359D01*
X450626Y356514D01*
X438700D01*
Y358453D01*
X437000D01*
Y356953D01*
X436000D01*
Y358453D01*
X435100D01*
Y360100D01*
X433453D01*
Y361352D01*
X433482Y361500D01*
Y378047D01*
X433366Y378632D01*
X433034Y379129D01*
X428581Y383581D01*
X428085Y383913D01*
X427500Y384029D01*
X407155D01*
X407057Y384265D01*
X406496Y384996D01*
X405765Y385557D01*
X404914Y385910D01*
X404000Y386030D01*
X403086Y385910D01*
X402235Y385557D01*
X401504Y384996D01*
X400943Y384265D01*
X400590Y383414D01*
X400470Y382500D01*
X400590Y381586D01*
X400943Y380735D01*
X401504Y380004D01*
X402235Y379443D01*
X403086Y379090D01*
X404000Y378970D01*
X404914Y379090D01*
X405415Y379298D01*
X405798Y378915D01*
X405590Y378414D01*
X405470Y377500D01*
X405590Y376586D01*
X405943Y375735D01*
X406504Y375004D01*
X407235Y374443D01*
X408086Y374090D01*
X409000Y373970D01*
X409824Y374078D01*
X410049Y373885D01*
X410194Y373665D01*
X410090Y373414D01*
X409970Y372500D01*
X410090Y371586D01*
X410443Y370735D01*
X411004Y370004D01*
X411735Y369443D01*
X412586Y369090D01*
X413500Y368970D01*
X414414Y369090D01*
X414631Y369180D01*
X414946Y368769D01*
X414943Y368765D01*
X414590Y367914D01*
X414470Y367000D01*
X414590Y366086D01*
X414943Y365235D01*
X415504Y364504D01*
X416235Y363943D01*
X417086Y363590D01*
X418000Y363470D01*
X418914Y363590D01*
X419765Y363943D01*
X420496Y364504D01*
X421057Y365235D01*
X421155Y365471D01*
X423867D01*
X424518Y364819D01*
Y361500D01*
X424547Y361352D01*
Y360100D01*
X422900D01*
Y358453D01*
X419300D01*
Y356482D01*
X417681D01*
X389029Y385134D01*
Y389319D01*
X391256D01*
Y395906D01*
X391256Y396044D01*
Y396406D01*
X391256Y396544D01*
Y403130D01*
X387022D01*
X384428Y405724D01*
X384530Y406500D01*
X384410Y407414D01*
X384057Y408265D01*
X383496Y408996D01*
X382765Y409557D01*
X381914Y409910D01*
X381000Y410030D01*
X380224Y409928D01*
X376039Y414113D01*
Y431500D01*
X376039Y431500D01*
X375884Y432280D01*
X375442Y432942D01*
X353885Y454499D01*
X354076Y454961D01*
X437155D01*
X441099Y451017D01*
X440966Y450000D01*
X441103Y448956D01*
X441506Y447983D01*
X442147Y447147D01*
X442983Y446506D01*
X443956Y446103D01*
X445000Y445965D01*
X446044Y446103D01*
X447017Y446506D01*
X447853Y447147D01*
X448494Y447983D01*
X448897Y448956D01*
X449035Y450000D01*
X448897Y451044D01*
X448494Y452017D01*
X447853Y452853D01*
X447017Y453494D01*
X446044Y453897D01*
X445000Y454035D01*
X443983Y453901D01*
X439442Y458442D01*
X438780Y458884D01*
X438000Y459039D01*
D02*
G37*
G36*
X597000Y316015D02*
Y313000D01*
X600015D01*
X599959Y313427D01*
X599601Y314290D01*
X599032Y315032D01*
X598290Y315601D01*
X597427Y315959D01*
X597000Y316015D01*
D02*
G37*
G36*
X537000D02*
Y313000D01*
X540015D01*
X539959Y313427D01*
X539601Y314290D01*
X539032Y315032D01*
X538290Y315601D01*
X537427Y315959D01*
X537000Y316015D01*
D02*
G37*
G36*
X536000D02*
X535573Y315959D01*
X534710Y315601D01*
X533968Y315032D01*
X533399Y314290D01*
X533041Y313427D01*
X532985Y313000D01*
X536000D01*
Y316015D01*
D02*
G37*
G36*
X596000D02*
X595573Y315959D01*
X594710Y315601D01*
X593968Y315032D01*
X593399Y314290D01*
X593041Y313427D01*
X592985Y313000D01*
X596000D01*
Y316015D01*
D02*
G37*
G36*
X600015Y312000D02*
X597000D01*
Y308985D01*
X597427Y309041D01*
X598290Y309399D01*
X599032Y309968D01*
X599601Y310710D01*
X599959Y311573D01*
X600015Y312000D01*
D02*
G37*
G36*
X540015D02*
X537000D01*
Y308985D01*
X537427Y309041D01*
X538290Y309399D01*
X539032Y309968D01*
X539601Y310710D01*
X539959Y311573D01*
X540015Y312000D01*
D02*
G37*
G36*
X596000D02*
X592985D01*
X593041Y311573D01*
X593399Y310710D01*
X593968Y309968D01*
X594710Y309399D01*
X595573Y309041D01*
X596000Y308985D01*
Y312000D01*
D02*
G37*
G36*
X536000D02*
X532985D01*
X533041Y311573D01*
X533399Y310710D01*
X533968Y309968D01*
X534710Y309399D01*
X535573Y309041D01*
X536000Y308985D01*
Y312000D01*
D02*
G37*
G36*
X445000Y311732D02*
X444034Y311605D01*
X443134Y311232D01*
X442361Y310639D01*
X441768Y309866D01*
X441395Y308966D01*
X441268Y308000D01*
X441395Y307034D01*
X441768Y306134D01*
X442361Y305361D01*
X443134Y304768D01*
X444034Y304395D01*
X445000Y304268D01*
X445966Y304395D01*
X446866Y304768D01*
X447639Y305361D01*
X448232Y306134D01*
X448605Y307034D01*
X448732Y308000D01*
X448605Y308966D01*
X448232Y309866D01*
X447639Y310639D01*
X446866Y311232D01*
X445966Y311605D01*
X445000Y311732D01*
D02*
G37*
G36*
X391457Y301756D02*
X388595D01*
Y298500D01*
X391457D01*
Y301756D01*
D02*
G37*
G36*
X445000Y301732D02*
X444034Y301605D01*
X443134Y301232D01*
X442361Y300639D01*
X441768Y299866D01*
X441395Y298966D01*
X441268Y298000D01*
X441395Y297034D01*
X441768Y296134D01*
X442361Y295361D01*
X443134Y294768D01*
X444034Y294395D01*
X445000Y294268D01*
X445966Y294395D01*
X446866Y294768D01*
X447639Y295361D01*
X448232Y296134D01*
X448605Y297034D01*
X448732Y298000D01*
X448605Y298966D01*
X448232Y299866D01*
X447639Y300639D01*
X446866Y301232D01*
X445966Y301605D01*
X445000Y301732D01*
D02*
G37*
G36*
X395681Y301756D02*
X395319D01*
X395181Y301756D01*
X392457D01*
Y298000D01*
Y294244D01*
X395181D01*
X395319Y294244D01*
X395681D01*
X395819Y294244D01*
X402406D01*
Y296471D01*
X411629D01*
X411768Y296134D01*
X412361Y295361D01*
X413134Y294768D01*
X414034Y294395D01*
X415000Y294268D01*
X415966Y294395D01*
X416866Y294768D01*
X417639Y295361D01*
X418232Y296134D01*
X418605Y297034D01*
X418732Y298000D01*
X418605Y298966D01*
X418232Y299866D01*
X417639Y300639D01*
X416866Y301232D01*
X415966Y301605D01*
X415000Y301732D01*
X414034Y301605D01*
X413134Y301232D01*
X412361Y300639D01*
X411768Y299866D01*
X411629Y299529D01*
X402406D01*
Y301756D01*
X395819D01*
X395681Y301756D01*
D02*
G37*
G36*
X391457Y297500D02*
X388595D01*
Y294244D01*
X391457D01*
Y297500D01*
D02*
G37*
G36*
X445000Y291732D02*
X444034Y291605D01*
X443134Y291232D01*
X442361Y290639D01*
X441768Y289866D01*
X441395Y288966D01*
X441268Y288000D01*
X441395Y287034D01*
X441768Y286134D01*
X442361Y285361D01*
X443134Y284768D01*
X444034Y284395D01*
X445000Y284268D01*
X445966Y284395D01*
X446866Y284768D01*
X447639Y285361D01*
X448232Y286134D01*
X448605Y287034D01*
X448732Y288000D01*
X448605Y288966D01*
X448232Y289866D01*
X447639Y290639D01*
X446866Y291232D01*
X445966Y291605D01*
X445000Y291732D01*
D02*
G37*
G36*
X415000D02*
X414034Y291605D01*
X413134Y291232D01*
X412361Y290639D01*
X411768Y289866D01*
X411395Y288966D01*
X411268Y288000D01*
X411395Y287034D01*
X411768Y286134D01*
X412361Y285361D01*
X413134Y284768D01*
X414034Y284395D01*
X415000Y284268D01*
X415966Y284395D01*
X416866Y284768D01*
X417639Y285361D01*
X418232Y286134D01*
X418605Y287034D01*
X418732Y288000D01*
X418605Y288966D01*
X418232Y289866D01*
X417639Y290639D01*
X416866Y291232D01*
X415966Y291605D01*
X415000Y291732D01*
D02*
G37*
G36*
X42000Y286325D02*
Y283500D01*
X44825D01*
X44776Y283878D01*
X44437Y284696D01*
X43898Y285398D01*
X43196Y285937D01*
X42378Y286276D01*
X42000Y286325D01*
D02*
G37*
G36*
X41000D02*
X40622Y286276D01*
X39804Y285937D01*
X39102Y285398D01*
X38563Y284696D01*
X38224Y283878D01*
X38175Y283500D01*
X41000D01*
Y286325D01*
D02*
G37*
G36*
X547000Y286015D02*
Y283000D01*
X550015D01*
X549959Y283427D01*
X549601Y284290D01*
X549032Y285032D01*
X548290Y285601D01*
X547427Y285959D01*
X547000Y286015D01*
D02*
G37*
G36*
X537000D02*
Y283000D01*
X540015D01*
X539959Y283427D01*
X539601Y284290D01*
X539032Y285032D01*
X538290Y285601D01*
X537427Y285959D01*
X537000Y286015D01*
D02*
G37*
G36*
X546000D02*
X545573Y285959D01*
X544710Y285601D01*
X543968Y285032D01*
X543399Y284290D01*
X543041Y283427D01*
X542985Y283000D01*
X546000D01*
Y286015D01*
D02*
G37*
G36*
X536000D02*
X535573Y285959D01*
X534710Y285601D01*
X533968Y285032D01*
X533399Y284290D01*
X533041Y283427D01*
X532985Y283000D01*
X536000D01*
Y286015D01*
D02*
G37*
G36*
X44825Y282500D02*
X42000D01*
Y279675D01*
X42378Y279724D01*
X43196Y280063D01*
X43898Y280602D01*
X44437Y281304D01*
X44776Y282122D01*
X44825Y282500D01*
D02*
G37*
G36*
X41000D02*
X38175D01*
X38224Y282122D01*
X38563Y281304D01*
X39102Y280602D01*
X39804Y280063D01*
X40622Y279724D01*
X41000Y279675D01*
Y282500D01*
D02*
G37*
G36*
X550015Y282000D02*
X547000D01*
Y278985D01*
X547427Y279041D01*
X548290Y279399D01*
X549032Y279968D01*
X549601Y280710D01*
X549959Y281573D01*
X550015Y282000D01*
D02*
G37*
G36*
X540015D02*
X537000D01*
Y278985D01*
X537427Y279041D01*
X538290Y279399D01*
X539032Y279968D01*
X539601Y280710D01*
X539959Y281573D01*
X540015Y282000D01*
D02*
G37*
G36*
X546000D02*
X542985D01*
X543041Y281573D01*
X543399Y280710D01*
X543968Y279968D01*
X544710Y279399D01*
X545573Y279041D01*
X546000Y278985D01*
Y282000D01*
D02*
G37*
G36*
X536000D02*
X532985D01*
X533041Y281573D01*
X533399Y280710D01*
X533968Y279968D01*
X534710Y279399D01*
X535573Y279041D01*
X536000Y278985D01*
Y282000D01*
D02*
G37*
G36*
X481000Y408530D02*
X480086Y408410D01*
X479235Y408057D01*
X478504Y407496D01*
X477943Y406765D01*
X477590Y405914D01*
X477470Y405000D01*
X477590Y404086D01*
X477943Y403235D01*
X478504Y402504D01*
X479235Y401943D01*
X479471Y401845D01*
Y391000D01*
X479587Y390415D01*
X479919Y389919D01*
X487471Y382366D01*
Y284000D01*
X487587Y283415D01*
X487919Y282919D01*
X496419Y274419D01*
X496915Y274087D01*
X497500Y273971D01*
X549500D01*
X550085Y274087D01*
X550581Y274419D01*
X555312Y279149D01*
X555573Y279041D01*
X556500Y278919D01*
X557427Y279041D01*
X558290Y279399D01*
X559032Y279968D01*
X559601Y280710D01*
X559959Y281573D01*
X560081Y282500D01*
X559959Y283427D01*
X559601Y284290D01*
X559032Y285032D01*
X558290Y285601D01*
X557427Y285959D01*
X556500Y286081D01*
X555573Y285959D01*
X554710Y285601D01*
X553968Y285032D01*
X553399Y284290D01*
X553041Y283427D01*
X552919Y282500D01*
X553041Y281573D01*
X553149Y281312D01*
X548867Y277029D01*
X498134D01*
X490529Y284633D01*
Y383000D01*
X490413Y383585D01*
X490081Y384081D01*
X482529Y391634D01*
Y394015D01*
X483029Y394047D01*
X483090Y393586D01*
X483443Y392735D01*
X484004Y392004D01*
X484735Y391443D01*
X485586Y391090D01*
X486500Y390970D01*
X487414Y391090D01*
X487649Y391188D01*
X492471Y386367D01*
Y300500D01*
X492587Y299915D01*
X492919Y299419D01*
X501069Y291269D01*
X501565Y290937D01*
X502150Y290821D01*
X556016D01*
X563149Y283688D01*
X563041Y283427D01*
X562919Y282500D01*
X563041Y281573D01*
X563399Y280710D01*
X563968Y279968D01*
X564710Y279399D01*
X565573Y279041D01*
X566500Y278919D01*
X567427Y279041D01*
X568290Y279399D01*
X569032Y279968D01*
X569601Y280710D01*
X569959Y281573D01*
X570081Y282500D01*
X569959Y283427D01*
X569601Y284290D01*
X569032Y285032D01*
X568290Y285601D01*
X567427Y285959D01*
X566500Y286081D01*
X565573Y285959D01*
X565312Y285851D01*
X560804Y290359D01*
X560996Y290821D01*
X577016D01*
X580919Y286919D01*
X583463Y284374D01*
X583399Y284290D01*
X583041Y283427D01*
X582919Y282500D01*
X583041Y281573D01*
X583399Y280710D01*
X583968Y279968D01*
X584710Y279399D01*
X585573Y279041D01*
X586500Y278919D01*
X587427Y279041D01*
X588290Y279399D01*
X589032Y279968D01*
X589601Y280710D01*
X589959Y281573D01*
X590081Y282500D01*
X589959Y283427D01*
X589601Y284290D01*
X589032Y285032D01*
X588290Y285601D01*
X587427Y285959D01*
X586500Y286081D01*
X586131Y286032D01*
X583081Y289081D01*
X581804Y290359D01*
X581996Y290821D01*
X586350D01*
X586935Y290937D01*
X587431Y291269D01*
X605113Y308950D01*
X610050D01*
Y316050D01*
X602950D01*
Y311113D01*
X585716Y293879D01*
X502783D01*
X495529Y301133D01*
Y387000D01*
X495413Y387585D01*
X495081Y388081D01*
X489812Y393351D01*
X489910Y393586D01*
X490030Y394500D01*
X489910Y395414D01*
X489557Y396265D01*
X488996Y396996D01*
X488265Y397557D01*
X487414Y397910D01*
X486500Y398030D01*
X485586Y397910D01*
X484735Y397557D01*
X484004Y396996D01*
X483443Y396265D01*
X483090Y395414D01*
X483029Y394953D01*
X482529Y394985D01*
Y401845D01*
X482765Y401943D01*
X483496Y402504D01*
X484057Y403235D01*
X484410Y404086D01*
X484530Y405000D01*
X484410Y405914D01*
X484057Y406765D01*
X483496Y407496D01*
X482765Y408057D01*
X481914Y408410D01*
X481000Y408530D01*
D02*
G37*
G36*
X596500Y286081D02*
X595573Y285959D01*
X594710Y285601D01*
X593968Y285032D01*
X593399Y284290D01*
X593041Y283427D01*
X592919Y282500D01*
X593041Y281573D01*
X593150Y281312D01*
X565867Y254029D01*
X441655D01*
X441557Y254265D01*
X441016Y254971D01*
X441044Y255142D01*
X441156Y255471D01*
X551000D01*
X551585Y255587D01*
X552081Y255919D01*
X575312Y279150D01*
X575573Y279041D01*
X576500Y278919D01*
X577427Y279041D01*
X578290Y279399D01*
X579032Y279968D01*
X579601Y280710D01*
X579959Y281573D01*
X580081Y282500D01*
X579959Y283427D01*
X579601Y284290D01*
X579032Y285032D01*
X578290Y285601D01*
X577427Y285959D01*
X576500Y286081D01*
X575573Y285959D01*
X574710Y285601D01*
X573968Y285032D01*
X573399Y284290D01*
X573041Y283427D01*
X572919Y282500D01*
X573041Y281573D01*
X573149Y281312D01*
X550366Y258529D01*
X432655D01*
X432557Y258765D01*
X431996Y259496D01*
X431265Y260057D01*
X430414Y260410D01*
X429500Y260530D01*
X428586Y260410D01*
X427735Y260057D01*
X427004Y259496D01*
X426443Y258765D01*
X426090Y257914D01*
X425970Y257000D01*
X426090Y256086D01*
X426443Y255235D01*
X427004Y254504D01*
X427735Y253943D01*
X428586Y253590D01*
X429500Y253470D01*
X430414Y253590D01*
X431265Y253943D01*
X431996Y254504D01*
X432557Y255235D01*
X432655Y255471D01*
X435844D01*
X435956Y255142D01*
X435984Y254971D01*
X435443Y254265D01*
X435090Y253414D01*
X434970Y252500D01*
X435090Y251586D01*
X435443Y250735D01*
X436004Y250004D01*
X436735Y249443D01*
X437586Y249090D01*
X438500Y248970D01*
X439414Y249090D01*
X440265Y249443D01*
X440996Y250004D01*
X441557Y250735D01*
X441655Y250971D01*
X566500D01*
X567085Y251087D01*
X567581Y251419D01*
X595312Y279150D01*
X595573Y279041D01*
X596500Y278919D01*
X597427Y279041D01*
X598290Y279399D01*
X599032Y279968D01*
X599601Y280710D01*
X599959Y281573D01*
X600081Y282500D01*
X599959Y283427D01*
X599601Y284290D01*
X599032Y285032D01*
X598290Y285601D01*
X597427Y285959D01*
X596500Y286081D01*
D02*
G37*
G36*
X210500Y280921D02*
Y277500D01*
X213921D01*
X213851Y278032D01*
X213453Y278993D01*
X212819Y279819D01*
X211993Y280453D01*
X211032Y280851D01*
X210500Y280921D01*
D02*
G37*
G36*
X213921Y276500D02*
X210500D01*
Y273079D01*
X211032Y273149D01*
X211993Y273547D01*
X212819Y274181D01*
X213453Y275007D01*
X213851Y275968D01*
X213921Y276500D01*
D02*
G37*
G36*
X454500Y270530D02*
X453586Y270410D01*
X452735Y270057D01*
X452004Y269496D01*
X451443Y268765D01*
X451138Y268029D01*
X436155D01*
X436057Y268265D01*
X435496Y268996D01*
X434765Y269557D01*
X433914Y269910D01*
X433000Y270030D01*
X432086Y269910D01*
X431235Y269557D01*
X430504Y268996D01*
X429943Y268265D01*
X429590Y267414D01*
X429470Y266500D01*
X429590Y265586D01*
X429943Y264735D01*
X430504Y264004D01*
X431235Y263443D01*
X432086Y263090D01*
X433000Y262970D01*
X433914Y263090D01*
X434765Y263443D01*
X435496Y264004D01*
X436057Y264735D01*
X436155Y264971D01*
X451646D01*
X452004Y264504D01*
X452735Y263943D01*
X453586Y263590D01*
X454500Y263470D01*
X455414Y263590D01*
X456265Y263943D01*
X456996Y264504D01*
X457557Y265235D01*
X457910Y266086D01*
X458030Y267000D01*
X457910Y267914D01*
X457557Y268765D01*
X456996Y269496D01*
X456265Y270057D01*
X455414Y270410D01*
X454500Y270530D01*
D02*
G37*
G36*
X200500Y270921D02*
Y267500D01*
X203921D01*
X203851Y268032D01*
X203453Y268993D01*
X202819Y269819D01*
X201993Y270453D01*
X201032Y270851D01*
X200500Y270921D01*
D02*
G37*
G36*
X203921Y266500D02*
X200500D01*
Y263079D01*
X201032Y263149D01*
X201993Y263547D01*
X202819Y264181D01*
X203453Y265007D01*
X203851Y265968D01*
X203921Y266500D01*
D02*
G37*
G36*
X199500D02*
X196079D01*
X196149Y265968D01*
X196547Y265007D01*
X197181Y264181D01*
X198007Y263547D01*
X198968Y263149D01*
X199500Y263079D01*
Y266500D01*
D02*
G37*
G36*
X583500Y207722D02*
Y204500D01*
X586723D01*
X586659Y204980D01*
X586281Y205894D01*
X585679Y206679D01*
X584894Y207281D01*
X583981Y207659D01*
X583500Y207722D01*
D02*
G37*
G36*
X582500D02*
X582020Y207659D01*
X581106Y207281D01*
X580321Y206679D01*
X579719Y205894D01*
X579341Y204980D01*
X579278Y204500D01*
X582500D01*
Y207722D01*
D02*
G37*
G36*
X586723Y203500D02*
X583500D01*
Y200277D01*
X583981Y200341D01*
X584894Y200719D01*
X585679Y201321D01*
X586281Y202106D01*
X586659Y203019D01*
X586723Y203500D01*
D02*
G37*
G36*
X582500D02*
X579278D01*
X579341Y203019D01*
X579719Y202106D01*
X580321Y201321D01*
X581106Y200719D01*
X582020Y200341D01*
X582500Y200277D01*
Y203500D01*
D02*
G37*
G36*
X561500Y209535D02*
X560456Y209397D01*
X559483Y208994D01*
X558647Y208353D01*
X558006Y207517D01*
X557603Y206544D01*
X557466Y205500D01*
Y201500D01*
X557603Y200456D01*
X558006Y199483D01*
X558647Y198647D01*
X559483Y198006D01*
X560456Y197603D01*
X561500Y197466D01*
X562544Y197603D01*
X563517Y198006D01*
X564353Y198647D01*
X564994Y199483D01*
X565397Y200456D01*
X565534Y201500D01*
Y205500D01*
X565397Y206544D01*
X564994Y207517D01*
X564353Y208353D01*
X563517Y208994D01*
X562544Y209397D01*
X561500Y209535D01*
D02*
G37*
G36*
X541500D02*
X540456Y209397D01*
X539483Y208994D01*
X538647Y208353D01*
X538006Y207517D01*
X537603Y206544D01*
X537465Y205500D01*
Y201500D01*
X537603Y200456D01*
X538006Y199483D01*
X538647Y198647D01*
X539483Y198006D01*
X540456Y197603D01*
X541500Y197466D01*
X542544Y197603D01*
X543517Y198006D01*
X544353Y198647D01*
X544994Y199483D01*
X545397Y200456D01*
X545535Y201500D01*
Y205500D01*
X545397Y206544D01*
X544994Y207517D01*
X544353Y208353D01*
X543517Y208994D01*
X542544Y209397D01*
X541500Y209535D01*
D02*
G37*
G36*
X452000Y196222D02*
Y193000D01*
X455223D01*
X455159Y193481D01*
X454781Y194394D01*
X454179Y195179D01*
X453394Y195781D01*
X452481Y196159D01*
X452000Y196222D01*
D02*
G37*
G36*
X32000Y200000D02*
X25000D01*
Y193000D01*
X32000D01*
Y200000D01*
D02*
G37*
G36*
X451000Y196222D02*
X450520Y196159D01*
X449606Y195781D01*
X448821Y195179D01*
X448219Y194394D01*
X447841Y193481D01*
X447778Y193000D01*
X451000D01*
Y196222D01*
D02*
G37*
G36*
X319339Y192090D02*
X318925Y192036D01*
X318074Y191683D01*
X317342Y191122D01*
X316781Y190391D01*
X316429Y189540D01*
X316374Y189126D01*
X319339D01*
Y192090D01*
D02*
G37*
G36*
X29000D02*
Y189126D01*
X31964D01*
X31910Y189540D01*
X31557Y190391D01*
X30996Y191122D01*
X30265Y191683D01*
X29414Y192036D01*
X29000Y192090D01*
D02*
G37*
G36*
X28000D02*
X27586Y192036D01*
X26735Y191683D01*
X26004Y191122D01*
X25443Y190391D01*
X25090Y189540D01*
X25036Y189126D01*
X28000D01*
Y192090D01*
D02*
G37*
G36*
X455223Y192000D02*
X452000D01*
Y188777D01*
X452481Y188841D01*
X453394Y189219D01*
X454179Y189821D01*
X454781Y190606D01*
X455159Y191519D01*
X455223Y192000D01*
D02*
G37*
G36*
X451000D02*
X447778D01*
X447841Y191519D01*
X448219Y190606D01*
X448821Y189821D01*
X449606Y189219D01*
X450520Y188841D01*
X451000Y188777D01*
Y192000D01*
D02*
G37*
G36*
X429000Y198535D02*
X427956Y198397D01*
X426983Y197994D01*
X426147Y197353D01*
X425506Y196517D01*
X425103Y195544D01*
X424965Y194500D01*
Y190500D01*
X425103Y189456D01*
X425506Y188483D01*
X426147Y187647D01*
X426983Y187006D01*
X427956Y186603D01*
X429000Y186466D01*
X430044Y186603D01*
X431017Y187006D01*
X431853Y187647D01*
X432494Y188483D01*
X432897Y189456D01*
X433035Y190500D01*
Y194500D01*
X432897Y195544D01*
X432494Y196517D01*
X431853Y197353D01*
X431017Y197994D01*
X430044Y198397D01*
X429000Y198535D01*
D02*
G37*
G36*
X409000D02*
X407956Y198397D01*
X406983Y197994D01*
X406147Y197353D01*
X405506Y196517D01*
X405103Y195544D01*
X404965Y194500D01*
Y190500D01*
X405103Y189456D01*
X405506Y188483D01*
X406147Y187647D01*
X406983Y187006D01*
X407956Y186603D01*
X409000Y186466D01*
X410044Y186603D01*
X411017Y187006D01*
X411853Y187647D01*
X412494Y188483D01*
X412897Y189456D01*
X413034Y190500D01*
Y194500D01*
X412897Y195544D01*
X412494Y196517D01*
X411853Y197353D01*
X411017Y197994D01*
X410044Y198397D01*
X409000Y198535D01*
D02*
G37*
G36*
X323303Y188126D02*
X320339D01*
Y185162D01*
X320752Y185216D01*
X321604Y185569D01*
X322335Y186130D01*
X322896Y186861D01*
X323249Y187712D01*
X323303Y188126D01*
D02*
G37*
G36*
X319339D02*
X316374D01*
X316429Y187712D01*
X316781Y186861D01*
X317342Y186130D01*
X318074Y185569D01*
X318925Y185216D01*
X319339Y185162D01*
Y188126D01*
D02*
G37*
G36*
X31964D02*
X29000D01*
Y185162D01*
X29414Y185216D01*
X30265Y185569D01*
X30996Y186130D01*
X31557Y186861D01*
X31910Y187712D01*
X31964Y188126D01*
D02*
G37*
G36*
X28000D02*
X25036D01*
X25090Y187712D01*
X25443Y186861D01*
X26004Y186130D01*
X26735Y185569D01*
X27586Y185216D01*
X28000Y185162D01*
Y188126D01*
D02*
G37*
G36*
X29000Y184216D02*
Y181252D01*
X31964D01*
X31910Y181666D01*
X31557Y182517D01*
X30996Y183248D01*
X30265Y183809D01*
X29414Y184162D01*
X29000Y184216D01*
D02*
G37*
G36*
X28000D02*
X27586Y184162D01*
X26735Y183809D01*
X26004Y183248D01*
X25443Y182517D01*
X25090Y181666D01*
X25036Y181252D01*
X28000D01*
Y184216D01*
D02*
G37*
G36*
X31964Y180252D02*
X29000D01*
Y177288D01*
X29414Y177342D01*
X30265Y177695D01*
X30996Y178256D01*
X31557Y178987D01*
X31910Y179838D01*
X31964Y180252D01*
D02*
G37*
G36*
X28000D02*
X25036D01*
X25090Y179838D01*
X25443Y178987D01*
X26004Y178256D01*
X26735Y177695D01*
X27586Y177342D01*
X28000Y177288D01*
Y180252D01*
D02*
G37*
G36*
X319839Y184282D02*
X318925Y184162D01*
X318074Y183809D01*
X317342Y183248D01*
X316781Y182517D01*
X316429Y181666D01*
X316308Y180752D01*
X316429Y179838D01*
X316781Y178987D01*
X317342Y178256D01*
X318074Y177695D01*
X318925Y177342D01*
X319839Y177222D01*
X320752Y177342D01*
X321604Y177695D01*
X322335Y178256D01*
X322896Y178987D01*
X323249Y179838D01*
X323369Y180752D01*
X323249Y181666D01*
X322896Y182517D01*
X322335Y183248D01*
X321604Y183809D01*
X320752Y184162D01*
X319839Y184282D01*
D02*
G37*
G36*
X29000Y176342D02*
Y173378D01*
X31964D01*
X31910Y173792D01*
X31557Y174643D01*
X30996Y175374D01*
X30265Y175935D01*
X29414Y176288D01*
X29000Y176342D01*
D02*
G37*
G36*
X28000D02*
X27586Y176288D01*
X26735Y175935D01*
X26004Y175374D01*
X25443Y174643D01*
X25090Y173792D01*
X25036Y173378D01*
X28000D01*
Y176342D01*
D02*
G37*
G36*
X561500Y179534D02*
X560456Y179397D01*
X559483Y178994D01*
X558647Y178353D01*
X558006Y177517D01*
X557603Y176544D01*
X557466Y175500D01*
Y171500D01*
X557603Y170456D01*
X558006Y169483D01*
X558647Y168647D01*
X559483Y168006D01*
X560456Y167603D01*
X561500Y167465D01*
X562544Y167603D01*
X563517Y168006D01*
X564353Y168647D01*
X564994Y169483D01*
X565397Y170456D01*
X565534Y171500D01*
Y172471D01*
X579568D01*
X579719Y172106D01*
X580321Y171321D01*
X581106Y170719D01*
X582020Y170341D01*
X583000Y170212D01*
X583981Y170341D01*
X584894Y170719D01*
X585679Y171321D01*
X586281Y172106D01*
X586659Y173020D01*
X586788Y174000D01*
X586659Y174980D01*
X586281Y175894D01*
X585679Y176679D01*
X584894Y177281D01*
X583981Y177659D01*
X583000Y177788D01*
X582020Y177659D01*
X581106Y177281D01*
X580321Y176679D01*
X579719Y175894D01*
X579568Y175529D01*
X565531D01*
X565397Y176544D01*
X564994Y177517D01*
X564353Y178353D01*
X563517Y178994D01*
X562544Y179397D01*
X561500Y179534D01*
D02*
G37*
G36*
X31964Y172378D02*
X29000D01*
Y169414D01*
X29414Y169468D01*
X30265Y169821D01*
X30996Y170382D01*
X31557Y171113D01*
X31910Y171964D01*
X31964Y172378D01*
D02*
G37*
G36*
X28000D02*
X25036D01*
X25090Y171964D01*
X25443Y171113D01*
X26004Y170382D01*
X26735Y169821D01*
X27586Y169468D01*
X28000Y169414D01*
Y172378D01*
D02*
G37*
G36*
X319839Y176408D02*
X318925Y176288D01*
X318074Y175935D01*
X317342Y175374D01*
X316781Y174643D01*
X316429Y173792D01*
X316308Y172878D01*
X316429Y171964D01*
X316781Y171113D01*
X317342Y170382D01*
X318074Y169821D01*
X318925Y169468D01*
X319839Y169348D01*
X320752Y169468D01*
X321604Y169821D01*
X322335Y170382D01*
X322896Y171113D01*
X323249Y171964D01*
X323369Y172878D01*
X323249Y173792D01*
X322896Y174643D01*
X322335Y175374D01*
X321604Y175935D01*
X320752Y176288D01*
X319839Y176408D01*
D02*
G37*
G36*
X29000Y168468D02*
Y165504D01*
X31964D01*
X31910Y165918D01*
X31557Y166769D01*
X30996Y167500D01*
X30265Y168061D01*
X29414Y168414D01*
X29000Y168468D01*
D02*
G37*
G36*
X28000D02*
X27586Y168414D01*
X26735Y168061D01*
X26004Y167500D01*
X25443Y166769D01*
X25090Y165918D01*
X25036Y165504D01*
X28000D01*
Y168468D01*
D02*
G37*
G36*
X31964Y164504D02*
X29000D01*
Y161540D01*
X29414Y161594D01*
X30265Y161947D01*
X30996Y162508D01*
X31557Y163239D01*
X31910Y164090D01*
X31964Y164504D01*
D02*
G37*
G36*
X28000D02*
X25036D01*
X25090Y164090D01*
X25443Y163239D01*
X26004Y162508D01*
X26735Y161947D01*
X27586Y161594D01*
X28000Y161540D01*
Y164504D01*
D02*
G37*
G36*
X429000Y168535D02*
X427956Y168397D01*
X426983Y167994D01*
X426147Y167353D01*
X425506Y166517D01*
X425103Y165544D01*
X424965Y164500D01*
Y160500D01*
X425103Y159456D01*
X425506Y158483D01*
X426147Y157647D01*
X426983Y157006D01*
X427956Y156603D01*
X429000Y156465D01*
X430044Y156603D01*
X431017Y157006D01*
X431853Y157647D01*
X432494Y158483D01*
X432897Y159456D01*
X433035Y160500D01*
Y160971D01*
X448068D01*
X448219Y160606D01*
X448821Y159821D01*
X449606Y159219D01*
X450520Y158841D01*
X451500Y158712D01*
X452481Y158841D01*
X453394Y159219D01*
X454179Y159821D01*
X454781Y160606D01*
X455159Y161520D01*
X455288Y162500D01*
X455159Y163480D01*
X454781Y164394D01*
X454179Y165179D01*
X453394Y165781D01*
X452481Y166159D01*
X451500Y166288D01*
X450520Y166159D01*
X449606Y165781D01*
X448821Y165179D01*
X448219Y164394D01*
X448068Y164029D01*
X433035D01*
Y164500D01*
X432897Y165544D01*
X432494Y166517D01*
X431853Y167353D01*
X431017Y167994D01*
X430044Y168397D01*
X429000Y168535D01*
D02*
G37*
G36*
X29000Y160594D02*
Y157630D01*
X31964D01*
X31910Y158044D01*
X31557Y158895D01*
X30996Y159626D01*
X30265Y160187D01*
X29414Y160540D01*
X29000Y160594D01*
D02*
G37*
G36*
X28000D02*
X27586Y160540D01*
X26735Y160187D01*
X26004Y159626D01*
X25443Y158895D01*
X25090Y158044D01*
X25036Y157630D01*
X28000D01*
Y160594D01*
D02*
G37*
G36*
X31964Y156630D02*
X29000D01*
Y153665D01*
X29414Y153720D01*
X30265Y154073D01*
X30996Y154634D01*
X31557Y155365D01*
X31910Y156216D01*
X31964Y156630D01*
D02*
G37*
G36*
X28000D02*
X25036D01*
X25090Y156216D01*
X25443Y155365D01*
X26004Y154634D01*
X26735Y154073D01*
X27586Y153720D01*
X28000Y153665D01*
Y156630D01*
D02*
G37*
G36*
X319839Y160660D02*
X318925Y160540D01*
X318074Y160187D01*
X317342Y159626D01*
X316781Y158895D01*
X316429Y158044D01*
X316308Y157130D01*
X316384Y156559D01*
X239864Y80039D01*
X31605D01*
X31557Y80155D01*
X30996Y80886D01*
X30265Y81447D01*
X29414Y81800D01*
X28500Y81920D01*
X27586Y81800D01*
X26735Y81447D01*
X26004Y80886D01*
X25443Y80155D01*
X25090Y79303D01*
X24970Y78390D01*
X25090Y77476D01*
X25443Y76625D01*
X26004Y75893D01*
X26735Y75332D01*
X27586Y74980D01*
X28500Y74859D01*
X29414Y74980D01*
X30265Y75332D01*
X30996Y75893D01*
X31048Y75961D01*
X240709D01*
X241489Y76116D01*
X242151Y76558D01*
X315851Y150259D01*
X316385Y150163D01*
X316423Y150123D01*
X316308Y149256D01*
X316384Y148685D01*
X240254Y72555D01*
X31347D01*
X30996Y73012D01*
X30265Y73573D01*
X29414Y73926D01*
X28500Y74046D01*
X27586Y73926D01*
X26735Y73573D01*
X26004Y73012D01*
X25443Y72281D01*
X25090Y71429D01*
X24970Y70516D01*
X25090Y69602D01*
X25443Y68751D01*
X26004Y68019D01*
X26735Y67458D01*
X27586Y67106D01*
X28500Y66985D01*
X29414Y67106D01*
X30265Y67458D01*
X30996Y68019D01*
X31347Y68476D01*
X241098D01*
X241879Y68632D01*
X242540Y69074D01*
X315851Y142385D01*
X316385Y142289D01*
X316423Y142249D01*
X316308Y141382D01*
X316429Y140468D01*
X316781Y139617D01*
X317342Y138886D01*
X318074Y138325D01*
X318925Y137972D01*
X319839Y137852D01*
X320752Y137972D01*
X321604Y138325D01*
X322335Y138886D01*
X322896Y139617D01*
X323249Y140468D01*
X323369Y141382D01*
X323249Y142296D01*
X322896Y143147D01*
X322335Y143878D01*
X321604Y144439D01*
X320752Y144792D01*
X319839Y144912D01*
X318972Y144798D01*
X318932Y144836D01*
X318836Y145369D01*
X319267Y145801D01*
X319839Y145726D01*
X320752Y145846D01*
X321604Y146199D01*
X322335Y146760D01*
X322896Y147491D01*
X323249Y148342D01*
X323369Y149256D01*
X323249Y150170D01*
X322896Y151021D01*
X322335Y151752D01*
X321604Y152313D01*
X320752Y152666D01*
X319839Y152786D01*
X318972Y152672D01*
X318932Y152710D01*
X318836Y153243D01*
X319267Y153675D01*
X319839Y153600D01*
X320752Y153720D01*
X321604Y154073D01*
X322335Y154634D01*
X322896Y155365D01*
X323249Y156216D01*
X323369Y157130D01*
X323249Y158044D01*
X322896Y158895D01*
X322335Y159626D01*
X321604Y160187D01*
X320752Y160540D01*
X319839Y160660D01*
D02*
G37*
G36*
X29000Y152720D02*
Y149756D01*
X31964D01*
X31910Y150170D01*
X31557Y151021D01*
X30996Y151752D01*
X30265Y152313D01*
X29414Y152666D01*
X29000Y152720D01*
D02*
G37*
G36*
X28000D02*
X27586Y152666D01*
X26735Y152313D01*
X26004Y151752D01*
X25443Y151021D01*
X25090Y150170D01*
X25036Y149756D01*
X28000D01*
Y152720D01*
D02*
G37*
G36*
X31964Y148756D02*
X29000D01*
Y145791D01*
X29414Y145846D01*
X30265Y146199D01*
X30996Y146760D01*
X31557Y147491D01*
X31910Y148342D01*
X31964Y148756D01*
D02*
G37*
G36*
X28000D02*
X25036D01*
X25090Y148342D01*
X25443Y147491D01*
X26004Y146760D01*
X26735Y146199D01*
X27586Y145846D01*
X28000Y145791D01*
Y148756D01*
D02*
G37*
G36*
X29000Y144846D02*
Y141882D01*
X31964D01*
X31910Y142296D01*
X31557Y143147D01*
X30996Y143878D01*
X30265Y144439D01*
X29414Y144792D01*
X29000Y144846D01*
D02*
G37*
G36*
X28000D02*
X27586Y144792D01*
X26735Y144439D01*
X26004Y143878D01*
X25443Y143147D01*
X25090Y142296D01*
X25036Y141882D01*
X28000D01*
Y144846D01*
D02*
G37*
G36*
X583500Y142222D02*
Y139000D01*
X586723D01*
X586659Y139480D01*
X586281Y140394D01*
X585679Y141179D01*
X584894Y141781D01*
X583981Y142159D01*
X583500Y142222D01*
D02*
G37*
G36*
X582500D02*
X582020Y142159D01*
X581106Y141781D01*
X580321Y141179D01*
X579719Y140394D01*
X579341Y139480D01*
X579278Y139000D01*
X582500D01*
Y142222D01*
D02*
G37*
G36*
X31964Y140882D02*
X29000D01*
Y137917D01*
X29414Y137972D01*
X30265Y138325D01*
X30996Y138886D01*
X31557Y139617D01*
X31910Y140468D01*
X31964Y140882D01*
D02*
G37*
G36*
X28000D02*
X25036D01*
X25090Y140468D01*
X25443Y139617D01*
X26004Y138886D01*
X26735Y138325D01*
X27586Y137972D01*
X28000Y137917D01*
Y140882D01*
D02*
G37*
G36*
X402000Y140723D02*
Y137500D01*
X405223D01*
X405159Y137980D01*
X404781Y138894D01*
X404179Y139679D01*
X403394Y140281D01*
X402481Y140659D01*
X402000Y140723D01*
D02*
G37*
G36*
X401000D02*
X400520Y140659D01*
X399606Y140281D01*
X398821Y139679D01*
X398219Y138894D01*
X397841Y137980D01*
X397778Y137500D01*
X401000D01*
Y140723D01*
D02*
G37*
G36*
X500000Y140223D02*
Y137000D01*
X503223D01*
X503159Y137480D01*
X502781Y138394D01*
X502179Y139179D01*
X501394Y139781D01*
X500481Y140159D01*
X500000Y140223D01*
D02*
G37*
G36*
X499000D02*
X498520Y140159D01*
X497606Y139781D01*
X496821Y139179D01*
X496219Y138394D01*
X495841Y137480D01*
X495778Y137000D01*
X499000D01*
Y140223D01*
D02*
G37*
G36*
X292000Y144030D02*
X291086Y143910D01*
X290235Y143557D01*
X289504Y142996D01*
X288943Y142265D01*
X288590Y141414D01*
X288470Y140500D01*
X288545Y139929D01*
X252667Y104051D01*
X31347D01*
X30996Y104508D01*
X30265Y105069D01*
X29414Y105422D01*
X28500Y105542D01*
X27586Y105422D01*
X26735Y105069D01*
X26004Y104508D01*
X25443Y103777D01*
X25090Y102926D01*
X24970Y102012D01*
X25090Y101098D01*
X25443Y100247D01*
X26004Y99515D01*
X26735Y98954D01*
X27586Y98602D01*
X28500Y98482D01*
X29414Y98602D01*
X30265Y98954D01*
X30996Y99515D01*
X31347Y99973D01*
X253512D01*
X254292Y100128D01*
X254954Y100570D01*
X291429Y137045D01*
X292000Y136970D01*
X292914Y137090D01*
X293765Y137443D01*
X294496Y138004D01*
X295057Y138735D01*
X295410Y139586D01*
X295530Y140500D01*
X295410Y141414D01*
X295057Y142265D01*
X294496Y142996D01*
X293765Y143557D01*
X292914Y143910D01*
X292000Y144030D01*
D02*
G37*
G36*
X586723Y138000D02*
X583500D01*
Y134777D01*
X583981Y134841D01*
X584894Y135219D01*
X585679Y135821D01*
X586281Y136606D01*
X586659Y137520D01*
X586723Y138000D01*
D02*
G37*
G36*
X582500D02*
X579278D01*
X579341Y137520D01*
X579719Y136606D01*
X580321Y135821D01*
X581106Y135219D01*
X582020Y134841D01*
X582500Y134777D01*
Y138000D01*
D02*
G37*
G36*
X29000Y136972D02*
Y134008D01*
X31964D01*
X31910Y134422D01*
X31557Y135273D01*
X30996Y136004D01*
X30265Y136565D01*
X29414Y136918D01*
X29000Y136972D01*
D02*
G37*
G36*
X28000D02*
X27586Y136918D01*
X26735Y136565D01*
X26004Y136004D01*
X25443Y135273D01*
X25090Y134422D01*
X25036Y134008D01*
X28000D01*
Y136972D01*
D02*
G37*
G36*
X405223Y136500D02*
X402000D01*
Y133277D01*
X402481Y133341D01*
X403394Y133719D01*
X404179Y134321D01*
X404781Y135106D01*
X405159Y136020D01*
X405223Y136500D01*
D02*
G37*
G36*
X401000D02*
X397778D01*
X397841Y136020D01*
X398219Y135106D01*
X398821Y134321D01*
X399606Y133719D01*
X400520Y133341D01*
X401000Y133277D01*
Y136500D01*
D02*
G37*
G36*
X503223Y136000D02*
X500000D01*
Y132778D01*
X500481Y132841D01*
X501394Y133219D01*
X502179Y133821D01*
X502781Y134606D01*
X503159Y135520D01*
X503223Y136000D01*
D02*
G37*
G36*
X499000D02*
X495778D01*
X495841Y135520D01*
X496219Y134606D01*
X496821Y133821D01*
X497606Y133219D01*
X498520Y132841D01*
X499000Y132778D01*
Y136000D01*
D02*
G37*
G36*
X561500Y144535D02*
X560456Y144397D01*
X559483Y143994D01*
X558647Y143353D01*
X558006Y142517D01*
X557603Y141544D01*
X557466Y140500D01*
Y136500D01*
X557603Y135456D01*
X558006Y134483D01*
X558647Y133647D01*
X559483Y133006D01*
X560456Y132603D01*
X561500Y132466D01*
X562544Y132603D01*
X563517Y133006D01*
X564353Y133647D01*
X564994Y134483D01*
X565397Y135456D01*
X565534Y136500D01*
Y140500D01*
X565397Y141544D01*
X564994Y142517D01*
X564353Y143353D01*
X563517Y143994D01*
X562544Y144397D01*
X561500Y144535D01*
D02*
G37*
G36*
X541500D02*
X540456Y144397D01*
X539483Y143994D01*
X538647Y143353D01*
X538006Y142517D01*
X537603Y141544D01*
X537465Y140500D01*
Y136500D01*
X537603Y135456D01*
X538006Y134483D01*
X538647Y133647D01*
X539483Y133006D01*
X540456Y132603D01*
X541500Y132466D01*
X542544Y132603D01*
X543517Y133006D01*
X544353Y133647D01*
X544994Y134483D01*
X545397Y135456D01*
X545535Y136500D01*
Y140500D01*
X545397Y141544D01*
X544994Y142517D01*
X544353Y143353D01*
X543517Y143994D01*
X542544Y144397D01*
X541500Y144535D01*
D02*
G37*
G36*
X479000Y143035D02*
X477956Y142897D01*
X476983Y142494D01*
X476147Y141853D01*
X475506Y141017D01*
X475103Y140044D01*
X474965Y139000D01*
Y135000D01*
X475103Y133956D01*
X475506Y132983D01*
X476147Y132147D01*
X476983Y131506D01*
X477956Y131103D01*
X479000Y130965D01*
X480044Y131103D01*
X481017Y131506D01*
X481853Y132147D01*
X482494Y132983D01*
X482897Y133956D01*
X483035Y135000D01*
Y139000D01*
X482897Y140044D01*
X482494Y141017D01*
X481853Y141853D01*
X481017Y142494D01*
X480044Y142897D01*
X479000Y143035D01*
D02*
G37*
G36*
X459000D02*
X457956Y142897D01*
X456983Y142494D01*
X456147Y141853D01*
X455506Y141017D01*
X455103Y140044D01*
X454965Y139000D01*
Y135000D01*
X455103Y133956D01*
X455506Y132983D01*
X456147Y132147D01*
X456983Y131506D01*
X457956Y131103D01*
X459000Y130965D01*
X460044Y131103D01*
X461017Y131506D01*
X461853Y132147D01*
X462494Y132983D01*
X462897Y133956D01*
X463034Y135000D01*
Y139000D01*
X462897Y140044D01*
X462494Y141017D01*
X461853Y141853D01*
X461017Y142494D01*
X460044Y142897D01*
X459000Y143035D01*
D02*
G37*
G36*
X379000D02*
X377956Y142897D01*
X376983Y142494D01*
X376147Y141853D01*
X375506Y141017D01*
X375103Y140044D01*
X374966Y139000D01*
Y135000D01*
X375103Y133956D01*
X375506Y132983D01*
X376147Y132147D01*
X376983Y131506D01*
X377956Y131103D01*
X379000Y130965D01*
X380044Y131103D01*
X381017Y131506D01*
X381853Y132147D01*
X382494Y132983D01*
X382897Y133956D01*
X383034Y135000D01*
Y139000D01*
X382897Y140044D01*
X382494Y141017D01*
X381853Y141853D01*
X381017Y142494D01*
X380044Y142897D01*
X379000Y143035D01*
D02*
G37*
G36*
X359000D02*
X357956Y142897D01*
X356983Y142494D01*
X356147Y141853D01*
X355506Y141017D01*
X355103Y140044D01*
X354965Y139000D01*
Y135000D01*
X355103Y133956D01*
X355506Y132983D01*
X356147Y132147D01*
X356983Y131506D01*
X357956Y131103D01*
X359000Y130965D01*
X360044Y131103D01*
X361017Y131506D01*
X361853Y132147D01*
X362494Y132983D01*
X362897Y133956D01*
X363035Y135000D01*
Y139000D01*
X362897Y140044D01*
X362494Y141017D01*
X361853Y141853D01*
X361017Y142494D01*
X360044Y142897D01*
X359000Y143035D01*
D02*
G37*
G36*
X31964Y133008D02*
X29000D01*
Y130043D01*
X29414Y130098D01*
X30265Y130451D01*
X30996Y131012D01*
X31557Y131743D01*
X31910Y132594D01*
X31964Y133008D01*
D02*
G37*
G36*
X28000D02*
X25036D01*
X25090Y132594D01*
X25443Y131743D01*
X26004Y131012D01*
X26735Y130451D01*
X27586Y130098D01*
X28000Y130043D01*
Y133008D01*
D02*
G37*
G36*
X319839Y137038D02*
X318925Y136918D01*
X318074Y136565D01*
X317342Y136004D01*
X316781Y135273D01*
X316429Y134422D01*
X316308Y133508D01*
X316429Y132594D01*
X316781Y131743D01*
X317342Y131012D01*
X318074Y130451D01*
X318925Y130098D01*
X319839Y129978D01*
X320752Y130098D01*
X321604Y130451D01*
X322335Y131012D01*
X322896Y131743D01*
X323249Y132594D01*
X323369Y133508D01*
X323249Y134422D01*
X322896Y135273D01*
X322335Y136004D01*
X321604Y136565D01*
X320752Y136918D01*
X319839Y137038D01*
D02*
G37*
G36*
X29000Y129098D02*
Y126134D01*
X31964D01*
X31910Y126548D01*
X31557Y127399D01*
X30996Y128130D01*
X30265Y128691D01*
X29414Y129044D01*
X29000Y129098D01*
D02*
G37*
G36*
X28000D02*
X27586Y129044D01*
X26735Y128691D01*
X26004Y128130D01*
X25443Y127399D01*
X25090Y126548D01*
X25036Y126134D01*
X28000D01*
Y129098D01*
D02*
G37*
G36*
X31964Y125134D02*
X29000D01*
Y122169D01*
X29414Y122224D01*
X30265Y122577D01*
X30996Y123138D01*
X31557Y123869D01*
X31910Y124720D01*
X31964Y125134D01*
D02*
G37*
G36*
X28000D02*
X25036D01*
X25090Y124720D01*
X25443Y123869D01*
X26004Y123138D01*
X26735Y122577D01*
X27586Y122224D01*
X28000Y122169D01*
Y125134D01*
D02*
G37*
G36*
X319839Y129164D02*
X318925Y129044D01*
X318074Y128691D01*
X317342Y128130D01*
X316781Y127399D01*
X316429Y126548D01*
X316308Y125634D01*
X316429Y124720D01*
X316781Y123869D01*
X317342Y123138D01*
X318074Y122577D01*
X318925Y122224D01*
X319839Y122104D01*
X320752Y122224D01*
X321604Y122577D01*
X322335Y123138D01*
X322896Y123869D01*
X323249Y124720D01*
X323369Y125634D01*
X323249Y126548D01*
X322896Y127399D01*
X322335Y128130D01*
X321604Y128691D01*
X320752Y129044D01*
X319839Y129164D01*
D02*
G37*
G36*
X320339Y121224D02*
Y118260D01*
X323303D01*
X323249Y118674D01*
X322896Y119525D01*
X322335Y120256D01*
X321604Y120817D01*
X320752Y121170D01*
X320339Y121224D01*
D02*
G37*
G36*
X319339D02*
X318925Y121170D01*
X318074Y120817D01*
X317342Y120256D01*
X316781Y119525D01*
X316429Y118674D01*
X316374Y118260D01*
X319339D01*
Y121224D01*
D02*
G37*
G36*
X323303Y117260D02*
X320339D01*
Y114295D01*
X320752Y114350D01*
X321604Y114703D01*
X322335Y115264D01*
X322896Y115995D01*
X323249Y116846D01*
X323303Y117260D01*
D02*
G37*
G36*
X319339D02*
X316374D01*
X316429Y116846D01*
X316781Y115995D01*
X317342Y115264D01*
X318074Y114703D01*
X318925Y114350D01*
X319339Y114295D01*
Y117260D01*
D02*
G37*
G36*
X320339Y113350D02*
Y110386D01*
X323303D01*
X323249Y110800D01*
X322896Y111651D01*
X322335Y112382D01*
X321604Y112943D01*
X320752Y113296D01*
X320339Y113350D01*
D02*
G37*
G36*
X319339D02*
X318925Y113296D01*
X318074Y112943D01*
X317342Y112382D01*
X316781Y111651D01*
X316429Y110800D01*
X316374Y110386D01*
X319339D01*
Y113350D01*
D02*
G37*
G36*
X323303Y109386D02*
X320339D01*
Y106421D01*
X320752Y106476D01*
X321604Y106828D01*
X322335Y107390D01*
X322896Y108121D01*
X323249Y108972D01*
X323303Y109386D01*
D02*
G37*
G36*
X319339D02*
X316374D01*
X316429Y108972D01*
X316781Y108121D01*
X317342Y107390D01*
X318074Y106828D01*
X318925Y106476D01*
X319339Y106421D01*
Y109386D01*
D02*
G37*
G36*
X28500Y113416D02*
X27586Y113296D01*
X26735Y112943D01*
X26004Y112382D01*
X25443Y111651D01*
X25090Y110800D01*
X24970Y109886D01*
X25090Y108972D01*
X25443Y108121D01*
X26004Y107390D01*
X26735Y106828D01*
X27586Y106476D01*
X28500Y106356D01*
X29414Y106476D01*
X30265Y106828D01*
X30996Y107390D01*
X31557Y108121D01*
X31910Y108972D01*
X32030Y109886D01*
X31910Y110800D01*
X31557Y111651D01*
X30996Y112382D01*
X30265Y112943D01*
X29414Y113296D01*
X28500Y113416D01*
D02*
G37*
G36*
X561500Y114534D02*
X560456Y114397D01*
X559483Y113994D01*
X558647Y113353D01*
X558006Y112517D01*
X557603Y111544D01*
X557466Y110500D01*
Y106500D01*
X557603Y105456D01*
X558006Y104483D01*
X558647Y103647D01*
X559483Y103006D01*
X560456Y102603D01*
X561500Y102465D01*
X562544Y102603D01*
X563517Y103006D01*
X564353Y103647D01*
X564994Y104483D01*
X565397Y105456D01*
X565534Y106500D01*
Y106971D01*
X579568D01*
X579719Y106606D01*
X580321Y105821D01*
X581106Y105219D01*
X582020Y104841D01*
X583000Y104712D01*
X583981Y104841D01*
X584894Y105219D01*
X585679Y105821D01*
X586281Y106606D01*
X586659Y107519D01*
X586788Y108500D01*
X586659Y109481D01*
X586281Y110394D01*
X585679Y111179D01*
X584894Y111781D01*
X583981Y112159D01*
X583000Y112288D01*
X582020Y112159D01*
X581106Y111781D01*
X580321Y111179D01*
X579719Y110394D01*
X579568Y110029D01*
X565534D01*
Y110500D01*
X565397Y111544D01*
X564994Y112517D01*
X564353Y113353D01*
X563517Y113994D01*
X562544Y114397D01*
X561500Y114534D01*
D02*
G37*
G36*
X379000Y113034D02*
X377956Y112897D01*
X376983Y112494D01*
X376147Y111853D01*
X375506Y111017D01*
X375103Y110044D01*
X374966Y109000D01*
Y105000D01*
X375103Y103956D01*
X375506Y102983D01*
X376147Y102147D01*
X376983Y101506D01*
X377956Y101103D01*
X379000Y100965D01*
X380044Y101103D01*
X381017Y101506D01*
X381853Y102147D01*
X382494Y102983D01*
X382897Y103956D01*
X383034Y105000D01*
Y105471D01*
X398068D01*
X398219Y105106D01*
X398821Y104321D01*
X399606Y103719D01*
X400520Y103341D01*
X401500Y103212D01*
X402481Y103341D01*
X403394Y103719D01*
X404179Y104321D01*
X404781Y105106D01*
X405159Y106019D01*
X405288Y107000D01*
X405159Y107981D01*
X404781Y108894D01*
X404179Y109679D01*
X403394Y110281D01*
X402481Y110659D01*
X401500Y110788D01*
X400520Y110659D01*
X399606Y110281D01*
X398821Y109679D01*
X398219Y108894D01*
X398068Y108529D01*
X383034D01*
Y109000D01*
X382897Y110044D01*
X382494Y111017D01*
X381853Y111853D01*
X381017Y112494D01*
X380044Y112897D01*
X379000Y113034D01*
D02*
G37*
G36*
X479000D02*
X477956Y112897D01*
X476983Y112494D01*
X476147Y111853D01*
X475506Y111017D01*
X475103Y110044D01*
X474965Y109000D01*
Y105000D01*
X475103Y103956D01*
X475506Y102983D01*
X476147Y102147D01*
X476983Y101506D01*
X477956Y101103D01*
X479000Y100965D01*
X480044Y101103D01*
X481017Y101506D01*
X481853Y102147D01*
X482494Y102983D01*
X482897Y103956D01*
X483031Y104971D01*
X496068D01*
X496219Y104606D01*
X496821Y103821D01*
X497606Y103219D01*
X498520Y102841D01*
X499500Y102712D01*
X500481Y102841D01*
X501394Y103219D01*
X502179Y103821D01*
X502781Y104606D01*
X503159Y105519D01*
X503288Y106500D01*
X503159Y107481D01*
X502781Y108394D01*
X502179Y109179D01*
X501394Y109781D01*
X500481Y110159D01*
X499500Y110288D01*
X498520Y110159D01*
X497606Y109781D01*
X496821Y109179D01*
X496219Y108394D01*
X496068Y108029D01*
X483035D01*
Y109000D01*
X482897Y110044D01*
X482494Y111017D01*
X481853Y111853D01*
X481017Y112494D01*
X480044Y112897D01*
X479000Y113034D01*
D02*
G37*
G36*
X320339Y105476D02*
Y102512D01*
X323303D01*
X323249Y102926D01*
X322896Y103777D01*
X322335Y104508D01*
X321604Y105069D01*
X320752Y105422D01*
X320339Y105476D01*
D02*
G37*
G36*
X319339D02*
X318925Y105422D01*
X318074Y105069D01*
X317342Y104508D01*
X316781Y103777D01*
X316429Y102926D01*
X316374Y102512D01*
X319339D01*
Y105476D01*
D02*
G37*
G36*
X323303Y101512D02*
X320339D01*
Y98547D01*
X320752Y98602D01*
X321604Y98954D01*
X322335Y99515D01*
X322896Y100247D01*
X323249Y101098D01*
X323303Y101512D01*
D02*
G37*
G36*
X319339D02*
X316374D01*
X316429Y101098D01*
X316781Y100247D01*
X317342Y99515D01*
X318074Y98954D01*
X318925Y98602D01*
X319339Y98547D01*
Y101512D01*
D02*
G37*
G36*
X320339Y97602D02*
Y94638D01*
X323303D01*
X323249Y95051D01*
X322896Y95903D01*
X322335Y96634D01*
X321604Y97195D01*
X320752Y97548D01*
X320339Y97602D01*
D02*
G37*
G36*
X319339D02*
X318925Y97548D01*
X318074Y97195D01*
X317342Y96634D01*
X316781Y95903D01*
X316429Y95051D01*
X316374Y94638D01*
X319339D01*
Y97602D01*
D02*
G37*
G36*
X323303Y93638D02*
X320339D01*
Y90673D01*
X320752Y90728D01*
X321604Y91080D01*
X322335Y91641D01*
X322896Y92373D01*
X323249Y93224D01*
X323303Y93638D01*
D02*
G37*
G36*
X319339D02*
X316374D01*
X316429Y93224D01*
X316781Y92373D01*
X317342Y91641D01*
X318074Y91080D01*
X318925Y90728D01*
X319339Y90673D01*
Y93638D01*
D02*
G37*
G36*
X28500Y97668D02*
X27586Y97548D01*
X26735Y97195D01*
X26004Y96634D01*
X25443Y95903D01*
X25090Y95051D01*
X24970Y94138D01*
X25090Y93224D01*
X25443Y92373D01*
X26004Y91641D01*
X26735Y91080D01*
X27586Y90728D01*
X28500Y90608D01*
X29414Y90728D01*
X30265Y91080D01*
X30996Y91641D01*
X31557Y92373D01*
X31910Y93224D01*
X32030Y94138D01*
X31910Y95051D01*
X31557Y95903D01*
X30996Y96634D01*
X30265Y97195D01*
X29414Y97548D01*
X28500Y97668D01*
D02*
G37*
G36*
X320339Y89728D02*
Y86764D01*
X323303D01*
X323249Y87177D01*
X322896Y88029D01*
X322335Y88760D01*
X321604Y89321D01*
X320752Y89674D01*
X320339Y89728D01*
D02*
G37*
G36*
X319339D02*
X318925Y89674D01*
X318074Y89321D01*
X317342Y88760D01*
X316781Y88029D01*
X316429Y87177D01*
X316374Y86764D01*
X319339D01*
Y89728D01*
D02*
G37*
G36*
X323303Y85764D02*
X320339D01*
Y82799D01*
X320752Y82854D01*
X321604Y83206D01*
X322335Y83767D01*
X322896Y84499D01*
X323249Y85350D01*
X323303Y85764D01*
D02*
G37*
G36*
X319339D02*
X316374D01*
X316429Y85350D01*
X316781Y84499D01*
X317342Y83767D01*
X318074Y83206D01*
X318925Y82854D01*
X319339Y82799D01*
Y85764D01*
D02*
G37*
G36*
X28500Y89794D02*
X27586Y89674D01*
X26735Y89321D01*
X26004Y88760D01*
X25443Y88029D01*
X25090Y87177D01*
X24970Y86264D01*
X25090Y85350D01*
X25443Y84499D01*
X26004Y83767D01*
X26735Y83206D01*
X27586Y82854D01*
X28500Y82734D01*
X29414Y82854D01*
X30265Y83206D01*
X30996Y83767D01*
X31557Y84499D01*
X31910Y85350D01*
X32030Y86264D01*
X31910Y87177D01*
X31557Y88029D01*
X30996Y88760D01*
X30265Y89321D01*
X29414Y89674D01*
X28500Y89794D01*
D02*
G37*
G36*
X449500Y84723D02*
Y81500D01*
X452723D01*
X452659Y81981D01*
X452281Y82894D01*
X451679Y83679D01*
X450894Y84281D01*
X449980Y84659D01*
X449500Y84723D01*
D02*
G37*
G36*
X448500D02*
X448020Y84659D01*
X447106Y84281D01*
X446321Y83679D01*
X445719Y82894D01*
X445341Y81981D01*
X445278Y81500D01*
X448500D01*
Y84723D01*
D02*
G37*
G36*
X320339Y81854D02*
Y78890D01*
X323303D01*
X323249Y79303D01*
X322896Y80155D01*
X322335Y80886D01*
X321604Y81447D01*
X320752Y81800D01*
X320339Y81854D01*
D02*
G37*
G36*
X319339D02*
X318925Y81800D01*
X318074Y81447D01*
X317342Y80886D01*
X316781Y80155D01*
X316429Y79303D01*
X316374Y78890D01*
X319339D01*
Y81854D01*
D02*
G37*
G36*
X452723Y80500D02*
X449500D01*
Y77277D01*
X449980Y77341D01*
X450894Y77719D01*
X451679Y78321D01*
X452281Y79106D01*
X452659Y80019D01*
X452723Y80500D01*
D02*
G37*
G36*
X448500D02*
X445278D01*
X445341Y80019D01*
X445719Y79106D01*
X446321Y78321D01*
X447106Y77719D01*
X448020Y77341D01*
X448500Y77277D01*
Y80500D01*
D02*
G37*
G36*
X429000Y87534D02*
X427956Y87397D01*
X426983Y86994D01*
X426147Y86353D01*
X425506Y85517D01*
X425103Y84544D01*
X424965Y83500D01*
Y79500D01*
X425103Y78456D01*
X425506Y77483D01*
X426147Y76647D01*
X426983Y76006D01*
X427956Y75603D01*
X429000Y75466D01*
X430044Y75603D01*
X431017Y76006D01*
X431853Y76647D01*
X432494Y77483D01*
X432897Y78456D01*
X433035Y79500D01*
Y83500D01*
X432897Y84544D01*
X432494Y85517D01*
X431853Y86353D01*
X431017Y86994D01*
X430044Y87397D01*
X429000Y87534D01*
D02*
G37*
G36*
X409000D02*
X407956Y87397D01*
X406983Y86994D01*
X406147Y86353D01*
X405506Y85517D01*
X405103Y84544D01*
X404965Y83500D01*
Y79500D01*
X405103Y78456D01*
X405506Y77483D01*
X406147Y76647D01*
X406983Y76006D01*
X407956Y75603D01*
X409000Y75466D01*
X410044Y75603D01*
X411017Y76006D01*
X411853Y76647D01*
X412494Y77483D01*
X412897Y78456D01*
X413034Y79500D01*
Y83500D01*
X412897Y84544D01*
X412494Y85517D01*
X411853Y86353D01*
X411017Y86994D01*
X410044Y87397D01*
X409000Y87534D01*
D02*
G37*
G36*
X323303Y77890D02*
X320339D01*
Y74925D01*
X320752Y74980D01*
X321604Y75332D01*
X322335Y75893D01*
X322896Y76625D01*
X323249Y77476D01*
X323303Y77890D01*
D02*
G37*
G36*
X319339D02*
X316374D01*
X316429Y77476D01*
X316781Y76625D01*
X317342Y75893D01*
X318074Y75332D01*
X318925Y74980D01*
X319339Y74925D01*
Y77890D01*
D02*
G37*
G36*
X320339Y73980D02*
Y71016D01*
X323303D01*
X323249Y71429D01*
X322896Y72281D01*
X322335Y73012D01*
X321604Y73573D01*
X320752Y73926D01*
X320339Y73980D01*
D02*
G37*
G36*
X319339D02*
X318925Y73926D01*
X318074Y73573D01*
X317342Y73012D01*
X316781Y72281D01*
X316429Y71429D01*
X316374Y71016D01*
X319339D01*
Y73980D01*
D02*
G37*
G36*
X323303Y70016D02*
X320339D01*
Y67051D01*
X320752Y67106D01*
X321604Y67458D01*
X322335Y68019D01*
X322896Y68751D01*
X323249Y69602D01*
X323303Y70016D01*
D02*
G37*
G36*
X319339D02*
X316374D01*
X316429Y69602D01*
X316781Y68751D01*
X317342Y68019D01*
X318074Y67458D01*
X318925Y67106D01*
X319339Y67051D01*
Y70016D01*
D02*
G37*
G36*
X320339Y66106D02*
Y63142D01*
X323303D01*
X323249Y63555D01*
X322896Y64407D01*
X322335Y65138D01*
X321604Y65699D01*
X320752Y66052D01*
X320339Y66106D01*
D02*
G37*
G36*
X319339D02*
X318925Y66052D01*
X318074Y65699D01*
X317342Y65138D01*
X316781Y64407D01*
X316429Y63555D01*
X316374Y63142D01*
X319339D01*
Y66106D01*
D02*
G37*
G36*
X323303Y62142D02*
X320339D01*
Y59177D01*
X320752Y59232D01*
X321604Y59584D01*
X322335Y60145D01*
X322896Y60877D01*
X323249Y61728D01*
X323303Y62142D01*
D02*
G37*
G36*
X319339D02*
X316374D01*
X316429Y61728D01*
X316781Y60877D01*
X317342Y60145D01*
X318074Y59584D01*
X318925Y59232D01*
X319339Y59177D01*
Y62142D01*
D02*
G37*
G36*
X28500Y66172D02*
X27586Y66052D01*
X26735Y65699D01*
X26004Y65138D01*
X25443Y64407D01*
X25090Y63555D01*
X24970Y62642D01*
X25090Y61728D01*
X25443Y60877D01*
X26004Y60145D01*
X26735Y59584D01*
X27586Y59232D01*
X28500Y59111D01*
X29414Y59232D01*
X30265Y59584D01*
X30996Y60145D01*
X31557Y60877D01*
X31910Y61728D01*
X32030Y62642D01*
X31910Y63555D01*
X31557Y64407D01*
X30996Y65138D01*
X30265Y65699D01*
X29414Y66052D01*
X28500Y66172D01*
D02*
G37*
G36*
X554000Y65334D02*
X552956Y65197D01*
X551983Y64794D01*
X551147Y64153D01*
X550506Y63317D01*
X550103Y62344D01*
X549965Y61300D01*
X550103Y60256D01*
X550506Y59283D01*
X551147Y58447D01*
X551983Y57806D01*
X552956Y57403D01*
X554000Y57266D01*
X555044Y57403D01*
X556017Y57806D01*
X556853Y58447D01*
X557494Y59283D01*
X557897Y60256D01*
X558035Y61300D01*
X557897Y62344D01*
X557494Y63317D01*
X556853Y64153D01*
X556017Y64794D01*
X555044Y65197D01*
X554000Y65334D01*
D02*
G37*
G36*
X539250D02*
X538206Y65197D01*
X537233Y64794D01*
X536397Y64153D01*
X535756Y63317D01*
X535353Y62344D01*
X535216Y61300D01*
X535353Y60256D01*
X535756Y59283D01*
X536397Y58447D01*
X537233Y57806D01*
X538206Y57403D01*
X539250Y57266D01*
X540294Y57403D01*
X541267Y57806D01*
X542103Y58447D01*
X542744Y59283D01*
X543147Y60256D01*
X543285Y61300D01*
X543147Y62344D01*
X542744Y63317D01*
X542103Y64153D01*
X541267Y64794D01*
X540294Y65197D01*
X539250Y65334D01*
D02*
G37*
G36*
X320339Y58232D02*
Y55268D01*
X323303D01*
X323249Y55681D01*
X322896Y56533D01*
X322335Y57264D01*
X321604Y57825D01*
X320752Y58178D01*
X320339Y58232D01*
D02*
G37*
G36*
X319339D02*
X318925Y58178D01*
X318074Y57825D01*
X317342Y57264D01*
X316781Y56533D01*
X316429Y55681D01*
X316374Y55268D01*
X319339D01*
Y58232D01*
D02*
G37*
G36*
X29000D02*
Y55268D01*
X31964D01*
X31910Y55681D01*
X31557Y56533D01*
X30996Y57264D01*
X30265Y57825D01*
X29414Y58178D01*
X29000Y58232D01*
D02*
G37*
G36*
X28000D02*
X27586Y58178D01*
X26735Y57825D01*
X26004Y57264D01*
X25443Y56533D01*
X25090Y55681D01*
X25036Y55268D01*
X28000D01*
Y58232D01*
D02*
G37*
G36*
X323303Y54268D02*
X320339D01*
Y51303D01*
X320752Y51358D01*
X321604Y51710D01*
X322335Y52271D01*
X322896Y53003D01*
X323249Y53854D01*
X323303Y54268D01*
D02*
G37*
G36*
X319339D02*
X316374D01*
X316429Y53854D01*
X316781Y53003D01*
X317342Y52271D01*
X318074Y51710D01*
X318925Y51358D01*
X319339Y51303D01*
Y54268D01*
D02*
G37*
G36*
X31964D02*
X29000D01*
Y51303D01*
X29414Y51358D01*
X30265Y51710D01*
X30996Y52271D01*
X31557Y53003D01*
X31910Y53854D01*
X31964Y54268D01*
D02*
G37*
G36*
X429000Y57534D02*
X427956Y57397D01*
X426983Y56994D01*
X426147Y56353D01*
X425506Y55517D01*
X425103Y54544D01*
X424965Y53500D01*
Y49500D01*
X425103Y48456D01*
X425506Y47483D01*
X426147Y46647D01*
X426983Y46006D01*
X427956Y45603D01*
X429000Y45465D01*
X430044Y45603D01*
X431017Y46006D01*
X431853Y46647D01*
X432494Y47483D01*
X432897Y48456D01*
X433031Y49471D01*
X445568D01*
X445719Y49106D01*
X446321Y48321D01*
X447106Y47719D01*
X448020Y47341D01*
X449000Y47212D01*
X449980Y47341D01*
X450894Y47719D01*
X451679Y48321D01*
X452281Y49106D01*
X452659Y50020D01*
X452788Y51000D01*
X452659Y51981D01*
X452281Y52894D01*
X451679Y53679D01*
X450894Y54281D01*
X449980Y54659D01*
X449000Y54788D01*
X448020Y54659D01*
X447106Y54281D01*
X446321Y53679D01*
X445719Y52894D01*
X445568Y52529D01*
X433035D01*
Y53500D01*
X432897Y54544D01*
X432494Y55517D01*
X431853Y56353D01*
X431017Y56994D01*
X430044Y57397D01*
X429000Y57534D01*
D02*
G37*
G36*
X319839Y50424D02*
X318925Y50304D01*
X318074Y49951D01*
X317342Y49390D01*
X316781Y48659D01*
X316429Y47807D01*
X316308Y46894D01*
X316429Y45980D01*
X316781Y45129D01*
X317342Y44397D01*
X318074Y43836D01*
X318925Y43484D01*
X319839Y43363D01*
X320752Y43484D01*
X321604Y43836D01*
X322335Y44397D01*
X322896Y45129D01*
X323249Y45980D01*
X323369Y46894D01*
X323249Y47807D01*
X322896Y48659D01*
X322335Y49390D01*
X321604Y49951D01*
X320752Y50304D01*
X319839Y50424D01*
D02*
G37*
G36*
X580500Y28500D02*
X567500D01*
Y15500D01*
X580500D01*
Y28500D01*
D02*
G37*
G36*
X540500D02*
X527500D01*
Y15500D01*
X540500D01*
Y28500D01*
D02*
G37*
%LPD*%
G36*
X115974Y416363D02*
X115741Y415889D01*
X115000Y415987D01*
X113968Y415851D01*
X113007Y415453D01*
X112181Y414819D01*
X111547Y413993D01*
X111149Y413032D01*
X111013Y412000D01*
X111149Y410968D01*
X111547Y410007D01*
X111913Y409529D01*
X111667Y409029D01*
X110500D01*
X109915Y408913D01*
X109453Y408604D01*
X109231Y408654D01*
X108953Y408769D01*
Y415953D01*
X106529D01*
Y417695D01*
X107852Y419018D01*
X113319D01*
X115974Y416363D01*
D02*
G37*
G36*
X151971Y380366D02*
Y377846D01*
X151509Y377654D01*
X118659Y410504D01*
X118851Y410968D01*
X118987Y412000D01*
X118889Y412741D01*
X119363Y412974D01*
X151971Y380366D01*
D02*
G37*
G36*
X148698Y356698D02*
X149156Y356391D01*
X149051Y355860D01*
X149024Y355855D01*
X148198Y355302D01*
X147645Y354475D01*
X147451Y353500D01*
X147645Y352524D01*
X147913Y352124D01*
X147645Y351624D01*
X140256D01*
Y355319D01*
X140256D01*
Y355681D01*
X140256D01*
Y357471D01*
X148181D01*
X148698Y356698D01*
D02*
G37*
G36*
X133846Y330009D02*
X132367Y328529D01*
X117791D01*
X117622Y329029D01*
X117819Y329181D01*
X118453Y330007D01*
X118645Y330471D01*
X133654D01*
X133846Y330009D01*
D02*
G37*
G36*
X132346Y325009D02*
X130867Y323529D01*
X118645D01*
X118453Y323993D01*
X117819Y324819D01*
X117622Y324971D01*
X117791Y325471D01*
X132154D01*
X132346Y325009D01*
D02*
G37*
G36*
X525419Y304919D02*
X525915Y304587D01*
X526204Y304529D01*
X526155Y304029D01*
X525134D01*
X499529Y329633D01*
Y330123D01*
X499592Y330171D01*
X500029Y330308D01*
X525419Y304919D01*
D02*
G37*
G36*
X182565Y293249D02*
Y291728D01*
X171496Y280659D01*
X171032Y280851D01*
X170315Y280945D01*
X170136Y281473D01*
X182103Y293440D01*
X182565Y293249D01*
D02*
G37*
G36*
X170754Y311438D02*
Y309917D01*
X141496Y280659D01*
X141032Y280851D01*
X140315Y280945D01*
X140136Y281473D01*
X170292Y311629D01*
X170754Y311438D01*
D02*
G37*
G36*
X159346Y308509D02*
X131496Y280659D01*
X131032Y280851D01*
X130000Y280987D01*
X128968Y280851D01*
X128007Y280453D01*
X127181Y279819D01*
X127029Y279622D01*
X126529Y279791D01*
Y282366D01*
X153133Y308971D01*
X159154D01*
X159346Y308509D01*
D02*
G37*
G36*
X178628Y301312D02*
Y297291D01*
X161849Y280512D01*
X161032Y280851D01*
X160000Y280987D01*
X158968Y280851D01*
X158007Y280453D01*
X157216Y279846D01*
X156886Y280223D01*
X178166Y301503D01*
X178628Y301312D01*
D02*
G37*
G36*
X253453Y435547D02*
Y435547D01*
X253917Y435420D01*
X254971Y434367D01*
Y428633D01*
X252723Y426386D01*
X252346Y426716D01*
X252953Y427507D01*
X253351Y428468D01*
X253487Y429500D01*
X253351Y430532D01*
X252953Y431493D01*
X252319Y432319D01*
X251493Y432953D01*
X250532Y433351D01*
X249500Y433487D01*
X248468Y433351D01*
X247507Y432953D01*
X247029Y432587D01*
X246529Y432833D01*
Y434000D01*
X246413Y434585D01*
X246104Y435047D01*
X246154Y435269D01*
X246269Y435547D01*
X253453D01*
X253453Y435547D01*
D02*
G37*
G36*
X195525Y429591D02*
X195513Y429500D01*
X195649Y428468D01*
X196047Y427507D01*
X196681Y426681D01*
X197507Y426047D01*
X198468Y425649D01*
X199500Y425513D01*
X200532Y425649D01*
X201493Y426047D01*
X202319Y426681D01*
X202953Y427507D01*
X202971Y427550D01*
X203471Y427450D01*
Y426634D01*
X192856Y416018D01*
X192524Y415522D01*
X192408Y414937D01*
Y396333D01*
X191908Y396066D01*
X191475Y396355D01*
X190500Y396549D01*
X189524Y396355D01*
X188698Y395802D01*
X188145Y394975D01*
X188092Y394711D01*
X187592Y394760D01*
Y425470D01*
X188092Y425805D01*
X188468Y425649D01*
X189500Y425513D01*
X190532Y425649D01*
X191493Y426047D01*
X192319Y426681D01*
X192953Y427507D01*
X193351Y428468D01*
X193487Y429500D01*
X193351Y430532D01*
X192953Y431493D01*
X193361Y431755D01*
X195525Y429591D01*
D02*
G37*
G36*
X170754Y406083D02*
Y403562D01*
X170292Y403371D01*
X148526Y425137D01*
X148759Y425611D01*
X149500Y425513D01*
X150532Y425649D01*
X150996Y425841D01*
X170754Y406083D01*
D02*
G37*
G36*
X223312Y427153D02*
Y412475D01*
X221491Y410654D01*
X221029Y410846D01*
Y425855D01*
X221493Y426047D01*
X222319Y426681D01*
X222812Y427323D01*
X223312Y427153D01*
D02*
G37*
G36*
X174691Y412146D02*
Y410625D01*
X174229Y410434D01*
X159636Y425027D01*
X159815Y425555D01*
X160532Y425649D01*
X160996Y425841D01*
X174691Y412146D01*
D02*
G37*
G36*
X136681Y426681D02*
X137507Y426047D01*
X138468Y425649D01*
X139500Y425513D01*
X140532Y425649D01*
X140996Y425841D01*
X166817Y400020D01*
Y395999D01*
X166355Y395808D01*
X136029Y426133D01*
Y426709D01*
X136529Y426878D01*
X136681Y426681D01*
D02*
G37*
G36*
X430423Y377414D02*
Y375893D01*
X429961Y375701D01*
X427081Y378581D01*
X426585Y378913D01*
X426000Y379029D01*
X412155D01*
X412057Y379265D01*
X411496Y379996D01*
X410878Y380471D01*
X411007Y380971D01*
X426866D01*
X430423Y377414D01*
D02*
G37*
G36*
X262378Y374971D02*
X262181Y374819D01*
X261547Y373993D01*
X261149Y373032D01*
X261013Y372000D01*
X261149Y370968D01*
X261341Y370504D01*
X254209Y363372D01*
X249188D01*
X248997Y363834D01*
X260633Y375471D01*
X262209D01*
X262378Y374971D01*
D02*
G37*
G36*
X350461Y345380D02*
Y342895D01*
X349821Y342404D01*
X349219Y341619D01*
X348841Y340705D01*
X348712Y339725D01*
X348841Y338744D01*
X349219Y337831D01*
X349821Y337046D01*
X349857Y337019D01*
X349697Y336545D01*
X329803D01*
X329643Y337019D01*
X329679Y337046D01*
X330281Y337831D01*
X330659Y338744D01*
X330788Y339725D01*
X330659Y340705D01*
X330281Y341619D01*
X329679Y342404D01*
X329039Y342895D01*
Y343880D01*
X332758Y347599D01*
X335744D01*
Y346276D01*
X343256D01*
Y347599D01*
X348242D01*
X350461Y345380D01*
D02*
G37*
G36*
X261341Y333496D02*
X261149Y333032D01*
X261013Y332000D01*
X261149Y330968D01*
X261547Y330007D01*
X261913Y329529D01*
X261667Y329029D01*
X261134D01*
X246060Y344103D01*
X246251Y344565D01*
X250272D01*
X261341Y333496D01*
D02*
G37*
G36*
Y293496D02*
X261149Y293032D01*
X261013Y292000D01*
X261149Y290968D01*
X261547Y290007D01*
X262181Y289181D01*
X263007Y288547D01*
X263968Y288149D01*
X265000Y288013D01*
X266032Y288149D01*
X266993Y288547D01*
X267819Y289181D01*
X268453Y290007D01*
X268851Y290968D01*
X268987Y292000D01*
X268851Y293032D01*
X268453Y293993D01*
X267819Y294819D01*
X266993Y295453D01*
X266950Y295471D01*
X267050Y295971D01*
X270500D01*
X270560Y295983D01*
X271047Y295570D01*
Y288047D01*
X272262D01*
X272384Y287547D01*
X268866Y284029D01*
X263134D01*
X245585Y301578D01*
Y307000D01*
X245468Y307585D01*
X245137Y308081D01*
X224863Y328355D01*
X225054Y328817D01*
X226020D01*
X261341Y293496D01*
D02*
G37*
D12*
X192091Y293122D02*
Y322177D01*
X192000Y293032D02*
X192091Y293122D01*
X190000Y284000D02*
Y322177D01*
X180000Y277000D02*
X188000Y285000D01*
X187909Y285090D02*
X188000Y285000D01*
X187909Y285090D02*
Y322177D01*
X192000Y280297D02*
Y293032D01*
X291996Y165004D02*
X319839D01*
X190000Y267000D02*
X291996Y165004D01*
X416032Y353047D02*
X421500D01*
X416000Y353016D02*
X416032Y353047D01*
X417047Y354953D02*
X421500D01*
X387500Y384500D02*
X417047Y354953D01*
X382791Y353016D02*
X416000D01*
X429953Y344547D02*
Y346500D01*
Y344547D02*
X429984Y344516D01*
X219823Y363811D02*
X246811D01*
X230283Y369717D02*
X232000Y368000D01*
X219823Y369717D02*
X230283D01*
X275000Y381500D02*
Y382000D01*
X270500Y377000D02*
X275000Y381500D01*
X246811Y363811D02*
X260000Y377000D01*
X270500D01*
X219823Y361842D02*
X254842D01*
X265000Y372000D01*
X262500Y357000D02*
X267000D01*
X274351Y361351D02*
X275000Y362000D01*
X147158Y361842D02*
X160177D01*
X399043Y298000D02*
X399043Y298000D01*
X415000D01*
X433000Y266500D02*
X454000D01*
X454500Y267000D01*
X438500Y252500D02*
X566500D01*
X293984Y335016D02*
X423516D01*
X275000Y342000D02*
X287000D01*
X293984Y335016D01*
X428016Y339516D02*
Y346500D01*
X429984Y340016D02*
Y344516D01*
Y340016D02*
X436750Y333250D01*
X489000Y284000D02*
Y383000D01*
X486500Y394500D02*
X494000Y387000D01*
Y300500D02*
Y387000D01*
Y300500D02*
X502150Y292350D01*
X481000Y391000D02*
Y405000D01*
Y391000D02*
X489000Y383000D01*
Y284000D02*
X497500Y275500D01*
X194000Y282500D02*
Y319132D01*
Y282500D02*
X195000Y281500D01*
X200000Y277000D02*
Y281500D01*
X160000Y277000D02*
X160500D01*
X176221Y305720D02*
Y322177D01*
X150000Y277000D02*
X150899Y277899D01*
X267000Y357000D02*
X271351Y361351D01*
X219823Y355937D02*
X261437D01*
X271351Y361351D02*
X274351D01*
X219823Y357906D02*
X257405D01*
X264633Y361633D02*
X265000Y362000D01*
X219823Y350031D02*
X254468D01*
X264101Y342899D02*
X265000Y342000D01*
X219823Y342158D02*
X240843D01*
X219823Y338221D02*
X235780D01*
X219823Y334283D02*
X230716D01*
X264061Y302939D02*
X265000Y302000D01*
X232748Y336252D02*
X262000Y307000D01*
X274061Y311061D02*
X275000Y312000D01*
X275367Y311633D01*
X265000Y302000D02*
X265649Y302649D01*
X566500Y252500D02*
X596500Y282500D01*
X197874Y392874D02*
X199000Y394000D01*
X224841Y411841D02*
Y434498D01*
X201652Y388652D02*
X224841Y411841D01*
X201811Y381823D02*
Y384726D01*
X219500Y439500D02*
X219839D01*
X224841Y434498D01*
X201652Y384885D02*
X201811Y384726D01*
X201652Y384885D02*
Y388652D01*
X199843Y315158D02*
Y322177D01*
Y315158D02*
X200500Y314500D01*
X150500Y346500D02*
X152063Y348063D01*
X150500Y345500D02*
Y346500D01*
X152063Y348063D02*
X160177D01*
X197874Y381823D02*
Y392874D01*
X195000Y272000D02*
Y281500D01*
X193972Y319160D02*
X194000Y319132D01*
X195000Y272000D02*
X200000Y267000D01*
X193937Y322177D02*
X193972Y322143D01*
Y319160D02*
Y322143D01*
X112500Y297500D02*
X125500D01*
X114061Y301061D02*
X115000Y302000D01*
X111561Y301061D02*
X114061D01*
X100500Y297000D02*
X107500D01*
X111561Y301061D01*
X74500Y271000D02*
X100500Y297000D01*
X74500Y163760D02*
Y271000D01*
X28500Y117760D02*
X74500Y163760D01*
X186063Y381823D02*
Y425937D01*
X184500Y427500D02*
Y433500D01*
Y427500D02*
X186063Y425937D01*
X179500Y438500D02*
X184500Y433500D01*
X179500Y438500D02*
Y439500D01*
X184095Y381823D02*
Y424905D01*
X179500Y429500D02*
X184095Y424905D01*
X174500Y428000D02*
X182126Y420374D01*
X169500Y439500D02*
X174500Y434500D01*
Y428000D02*
Y434500D01*
X182126Y381823D02*
Y420374D01*
X180157Y381823D02*
Y418843D01*
X169500Y429500D02*
X180157Y418843D01*
X159500Y439500D02*
X160500D01*
X178189Y381823D02*
Y413811D01*
X160500Y439500D02*
X164500Y435500D01*
Y427500D02*
X178189Y413811D01*
X164500Y427500D02*
Y435500D01*
X176221Y381823D02*
Y412780D01*
X159500Y429500D02*
X176221Y412780D01*
X149500Y439500D02*
X150000D01*
X154500Y435000D01*
Y428000D02*
X174252Y408248D01*
X154500Y428000D02*
Y435000D01*
X174252Y381823D02*
Y408248D01*
X172283Y381823D02*
Y406716D01*
X149500Y429500D02*
X172283Y406716D01*
X139500Y439500D02*
X144500Y434500D01*
X170315Y381823D02*
Y401185D01*
X144500Y427000D02*
X170315Y401185D01*
X144500Y427000D02*
Y434500D01*
X168347Y381823D02*
Y400654D01*
X139500Y429500D02*
X168347Y400654D01*
X129500Y439500D02*
X134500Y434500D01*
Y425500D02*
Y434500D01*
X166378Y381823D02*
Y393622D01*
X134500Y425500D02*
X166378Y393622D01*
X209500Y424500D02*
Y429500D01*
X195905Y381823D02*
Y410906D01*
X209500Y424500D01*
X199500Y439000D02*
Y439500D01*
Y439000D02*
X205000Y433500D01*
Y426000D02*
Y433500D01*
X193937Y414937D02*
X205000Y426000D01*
X193937Y381823D02*
Y414937D01*
X231500Y373000D02*
X232000Y373500D01*
X230185Y371685D02*
X231500Y373000D01*
X190500Y394000D02*
X191969Y392531D01*
X229500Y438203D02*
Y439500D01*
X207716Y388216D02*
X239500Y420000D01*
X207716Y381823D02*
Y388216D01*
X239500Y420000D02*
Y429500D01*
Y439500D02*
X245000Y434000D01*
X209685Y381823D02*
Y387185D01*
X245000Y422500D01*
Y434000D01*
X211653Y385653D02*
X249500Y423500D01*
X211653Y381823D02*
Y385653D01*
X249500Y423500D02*
Y429500D01*
X203780Y381823D02*
Y387779D01*
X229500Y413500D01*
Y429500D01*
X199843Y381823D02*
Y389843D01*
X219500Y409500D02*
Y429500D01*
X199843Y389843D02*
X219500Y409500D01*
X249500Y439500D02*
X250867Y438133D01*
X253367D01*
X256500Y435000D01*
Y428000D02*
Y435000D01*
X213657Y381857D02*
Y385157D01*
X213622Y381823D02*
X213657Y381857D01*
Y385157D02*
X256500Y428000D01*
X259500Y407000D02*
X271000D01*
X275000Y411000D02*
Y412000D01*
X271000Y407000D02*
X275000Y411000D01*
X219823Y375622D02*
X228122D01*
X259500Y407000D01*
X255374Y359874D02*
X262500Y367000D01*
X270000D02*
X275000Y372000D01*
X262500Y367000D02*
X270000D01*
X219823Y359874D02*
X255374D01*
X257405Y357906D02*
X261133Y361633D01*
X264633D01*
X261437Y355937D02*
X262500Y357000D01*
X219823Y353969D02*
X261704D01*
X263673Y352000D01*
X265000D01*
X256000D02*
X260500Y347500D01*
X219823Y352000D02*
X256000D01*
X260500Y347500D02*
X270500D01*
X275000Y352000D01*
X254468Y350031D02*
X261601Y342899D01*
X264101D01*
X270000Y337000D02*
X275000Y342000D01*
X263500Y337000D02*
X270000D01*
X219823Y348063D02*
X252437D01*
X263500Y337000D01*
X219823Y346094D02*
X250905D01*
X265000Y332000D01*
X270500Y327500D02*
X275000Y332000D01*
X243874Y344126D02*
X260500Y327500D01*
X270500D01*
X219823Y344126D02*
X243874D01*
X240843Y342158D02*
X261000Y322000D01*
X265000D01*
X270500Y317500D02*
X275000Y322000D01*
X238311Y340189D02*
X261000Y317500D01*
X270500D01*
X219823Y340189D02*
X238311D01*
X235780Y338221D02*
X261351Y312649D01*
X264351D01*
X272061Y311061D02*
X274061D01*
X268000Y307000D02*
X272061Y311061D01*
X262000Y307000D02*
X268000D01*
X219823Y336252D02*
X232748D01*
X230716Y334283D02*
X262061Y302939D01*
X264061D01*
X270500Y297500D02*
X275000Y302000D01*
X262500Y297500D02*
X270500D01*
X219823Y332315D02*
X227685D01*
X262500Y297500D01*
X219823Y330346D02*
X226654D01*
X265000Y292000D01*
X274000Y291000D02*
X275000Y292000D01*
X274000Y287000D02*
Y291000D01*
X262500Y282500D02*
X269500D01*
X274000Y287000D01*
X244055Y300945D02*
X262500Y282500D01*
X244055Y300945D02*
Y307000D01*
X219823Y328378D02*
X222677D01*
X244055Y307000D01*
X235000Y271086D02*
Y289500D01*
X239086Y267000D02*
X240000D01*
X235000Y271086D02*
X239086Y267000D01*
X209685Y314815D02*
X235000Y289500D01*
X209685Y314815D02*
Y322177D01*
X240000Y277000D02*
X240500Y277500D01*
Y286500D01*
X211653Y315347D02*
Y322177D01*
Y315347D02*
X240500Y286500D01*
X245000Y272000D02*
X250000Y267000D01*
X213622Y316878D02*
X245000Y285500D01*
Y272000D02*
Y285500D01*
X213622Y316878D02*
Y322177D01*
X205000Y272000D02*
X210000Y267000D01*
X205000Y272000D02*
Y280000D01*
X197874Y287126D02*
X205000Y280000D01*
X197874Y287126D02*
Y322177D01*
X195905Y285595D02*
X200000Y281500D01*
X195905Y285595D02*
Y322177D01*
X190000Y277000D02*
Y278297D01*
X192000Y280297D01*
X185000Y272000D02*
X190000Y267000D01*
X185000Y272000D02*
Y279000D01*
X190000Y284000D01*
X175000Y272000D02*
X180000Y267000D01*
X175000Y272000D02*
Y279000D01*
X186063Y290063D01*
Y322177D01*
X170000Y277000D02*
X184095Y291094D01*
Y322177D01*
X182126Y295626D02*
Y322177D01*
X165000Y278500D02*
X182126Y295626D01*
X165000Y272000D02*
Y278500D01*
Y272000D02*
X170000Y267000D01*
X180157Y296657D02*
Y322177D01*
X160500Y277000D02*
X180157Y296657D01*
X155000Y272000D02*
Y280500D01*
Y272000D02*
X160000Y267000D01*
X155000Y280500D02*
X178189Y303689D01*
Y322177D01*
X150899Y280399D02*
X176221Y305720D01*
X150899Y277899D02*
Y280399D01*
X174252Y307752D02*
Y322177D01*
X145000Y278500D02*
X174252Y307752D01*
X145000Y272000D02*
Y278500D01*
Y272000D02*
X150000Y267000D01*
X140000Y277000D02*
X172283Y309283D01*
Y322177D01*
X135000Y272000D02*
Y278500D01*
Y272000D02*
X140000Y267000D01*
X170315Y313815D02*
Y322177D01*
X135000Y278500D02*
X170315Y313815D01*
X130000Y277000D02*
X168347Y315347D01*
Y322177D01*
X166378Y316878D02*
Y322177D01*
X160000Y310500D02*
X166378Y316878D01*
X125000Y283000D02*
X152500Y310500D01*
X160000D01*
X125000Y272000D02*
X130000Y267000D01*
X125000Y272000D02*
Y283000D01*
X115000Y332000D02*
X134500D01*
X144658Y342158D02*
X160177D01*
X134500Y332000D02*
X144658Y342158D01*
X133000Y327000D02*
X146189Y340189D01*
X160177D01*
X105000Y322000D02*
X110000Y327000D01*
X133000D01*
X147721Y338221D02*
X160177D01*
X131500Y322000D02*
X147721Y338221D01*
X115000Y322000D02*
X131500D01*
X105000Y312000D02*
Y313000D01*
X109000Y317000D01*
X130000D01*
X149252Y336252D02*
X160177D01*
X130000Y317000D02*
X149252Y336252D01*
X150784Y334283D02*
X160177D01*
X128500Y312000D02*
X150784Y334283D01*
X115000Y312000D02*
X128500D01*
X105000Y302000D02*
Y302500D01*
X109500Y307000D01*
X152815Y332315D02*
X160177D01*
X127500Y307000D02*
X152815Y332315D01*
X109500Y307000D02*
X127500D01*
X126500Y302000D02*
X154847Y330346D01*
X115000Y302000D02*
X126500D01*
X154847Y330346D02*
X160177D01*
X107939Y292939D02*
X112500Y297500D01*
X105939Y292939D02*
X107939D01*
X105000Y292000D02*
X105939Y292939D01*
X160171Y328372D02*
X160177Y328378D01*
X156372Y328372D02*
X160171D01*
X125500Y297500D02*
X156372Y328372D01*
X115000Y382000D02*
X127000D01*
X115000Y392000D02*
X123000D01*
X115000Y402000D02*
X119000D01*
X109328Y387000D02*
X125000D01*
X105000Y382000D02*
Y382672D01*
X109328Y387000D01*
X125000D02*
X148189Y363811D01*
X160177D01*
X127000Y382000D02*
X147158Y361842D01*
X123000Y392000D02*
X149221Y365779D01*
X160177D01*
X105000Y392000D02*
X110000Y397000D01*
X150252Y367748D02*
X160177D01*
X121000Y397000D02*
X150252Y367748D01*
X110000Y397000D02*
X121000D01*
X119000Y402000D02*
X151284Y369717D01*
X160177D01*
X105000Y402000D02*
X110500Y407500D01*
X116500D01*
X152315Y371685D02*
X160177D01*
X116500Y407500D02*
X152315Y371685D01*
X153347Y373654D02*
X160177D01*
X115000Y412000D02*
X153347Y373654D01*
X153500Y376794D02*
X154672Y375622D01*
X113953Y420547D02*
X153500Y381000D01*
X105000Y418328D02*
X107219Y420547D01*
X153500Y376794D02*
Y381000D01*
X105000Y412000D02*
Y418328D01*
X154672Y375622D02*
X160177D01*
X107219Y420547D02*
X113953D01*
X219823Y371685D02*
X230185D01*
X115000Y362000D02*
X117957Y359043D01*
X136500D01*
X115000Y352000D02*
X136457D01*
X136500Y351957D01*
X150000Y353500D02*
X151500Y352000D01*
X160177D01*
X136500Y351957D02*
X138362Y350095D01*
X147966D01*
X148029Y350031D01*
X160177D01*
X136500Y359043D02*
X136543Y359000D01*
X149500D01*
X154500Y354000D01*
X160146D02*
X160177Y353969D01*
X154500Y354000D02*
X160146D01*
X191969Y381823D02*
Y392531D01*
X203780Y316220D02*
X206000Y314000D01*
X203780Y316220D02*
Y322177D01*
X562000Y174000D02*
X583000D01*
X561500Y173500D02*
X562000Y174000D01*
X561500Y108500D02*
X583000D01*
X387500Y384500D02*
Y392682D01*
X471000Y374725D02*
Y386182D01*
X451259Y354984D02*
X471000Y374725D01*
X470500Y342268D02*
Y348725D01*
X470500Y348725D01*
X379000Y107000D02*
X401500D01*
X429000Y162500D02*
X451500D01*
X479000Y107000D02*
X479500Y106500D01*
X499500D01*
X429000Y51500D02*
X429500Y51000D01*
X449000D01*
X436500Y354984D02*
X451259D01*
X466209Y353016D02*
X470500Y348725D01*
X436500Y353016D02*
X466209D01*
X423516Y335016D02*
X428016Y339516D01*
X422500Y340500D02*
X426047Y344047D01*
X418000Y367000D02*
X424500D01*
X426047Y344047D02*
Y346500D01*
X428016Y361500D02*
Y369484D01*
X424500Y373000D02*
X428016Y369484D01*
X414000Y373000D02*
X424500D01*
X413500Y372500D02*
X414000Y373000D01*
X404000Y382500D02*
X427500D01*
X431953Y361500D02*
Y378047D01*
X427500Y382500D02*
X431953Y378047D01*
X426000Y377500D02*
X429984Y373516D01*
Y361500D02*
Y373516D01*
X409000Y377500D02*
X426000D01*
X264351Y312649D02*
X265000Y312000D01*
X426047Y361500D02*
Y365453D01*
X424500Y367000D02*
X426047Y365453D01*
X560025Y431025D02*
X560500Y431500D01*
X497500Y275500D02*
X549500D01*
X429500Y257000D02*
X551000D01*
X576500Y282500D01*
X549500Y275500D02*
X556500Y282500D01*
X502150Y292350D02*
X556900D01*
X577650D02*
X586350D01*
X556900D02*
X577650D01*
X586350D02*
X606500Y312500D01*
X586500Y282500D02*
Y283500D01*
X556900Y292100D02*
X566500Y282500D01*
X556900Y292100D02*
Y292350D01*
X577650D02*
X582000Y288000D01*
X586500Y283500D01*
X566500Y282500D02*
X566500D01*
X536000Y390000D02*
Y390725D01*
X531500Y385500D02*
X536000Y390000D01*
X531500Y337500D02*
Y385500D01*
Y337500D02*
X556500Y312500D01*
X536000Y380725D02*
X536775D01*
X542500Y375000D01*
Y336500D02*
X566500Y312500D01*
X542500Y336500D02*
Y375000D01*
X504890Y350725D02*
X506000D01*
X501000Y331500D02*
X526500Y306000D01*
X501000Y331500D02*
Y346834D01*
X504890Y350725D01*
X570000Y306000D02*
X576500Y312500D01*
X526500Y306000D02*
X570000D01*
X639725Y390725D02*
X640000D01*
X614500Y365500D02*
X639725Y390725D01*
X604500Y365500D02*
X614500D01*
X566500Y312500D02*
Y327500D01*
X604500Y365500D01*
X576500Y312500D02*
Y327225D01*
X610000Y360725D01*
X610000Y350725D02*
X610000D01*
X586500Y312500D02*
Y327225D01*
X610000Y350725D01*
X576500Y302500D02*
X586500Y312500D01*
X498000Y352725D02*
X506000Y360725D01*
X498000Y329000D02*
X524500Y302500D01*
X498000Y329000D02*
Y352725D01*
X524500Y302500D02*
X576500D01*
D16*
X391957Y298000D02*
D03*
X399043D02*
D03*
X363457Y351725D02*
D03*
X370543D02*
D03*
X367500Y392725D02*
D03*
X374587D02*
D03*
D17*
X136500Y351957D02*
D03*
Y359043D02*
D03*
X341000Y403182D02*
D03*
Y410268D02*
D03*
X315000Y395457D02*
D03*
Y402543D02*
D03*
X313500Y351138D02*
D03*
Y358225D02*
D03*
X339500Y356725D02*
D03*
Y349638D02*
D03*
X470500Y335182D02*
D03*
Y342268D02*
D03*
X471000Y393268D02*
D03*
Y386182D02*
D03*
X382000Y351831D02*
D03*
Y344745D02*
D03*
X387500Y392682D02*
D03*
Y399768D02*
D03*
D18*
X160177Y375622D02*
D03*
Y373654D02*
D03*
Y371685D02*
D03*
Y369717D02*
D03*
Y367748D02*
D03*
Y365779D02*
D03*
Y363811D02*
D03*
Y361842D02*
D03*
Y359874D02*
D03*
Y357906D02*
D03*
Y355937D02*
D03*
Y353969D02*
D03*
Y352000D02*
D03*
Y350031D02*
D03*
Y348063D02*
D03*
Y346094D02*
D03*
Y344126D02*
D03*
Y342158D02*
D03*
Y340189D02*
D03*
Y338221D02*
D03*
Y336252D02*
D03*
Y334283D02*
D03*
Y332315D02*
D03*
Y330346D02*
D03*
Y328378D02*
D03*
X219823D02*
D03*
Y330346D02*
D03*
Y332315D02*
D03*
Y334283D02*
D03*
Y336252D02*
D03*
Y338221D02*
D03*
Y340189D02*
D03*
Y342158D02*
D03*
Y344126D02*
D03*
Y346094D02*
D03*
Y348063D02*
D03*
Y350031D02*
D03*
Y352000D02*
D03*
Y353969D02*
D03*
Y355937D02*
D03*
Y357906D02*
D03*
Y359874D02*
D03*
Y361842D02*
D03*
Y363811D02*
D03*
Y365779D02*
D03*
Y367748D02*
D03*
Y369717D02*
D03*
Y371685D02*
D03*
Y373654D02*
D03*
Y375622D02*
D03*
D19*
X166378Y322177D02*
D03*
X168347D02*
D03*
X170315D02*
D03*
X172283D02*
D03*
X174252D02*
D03*
X176221D02*
D03*
X178189D02*
D03*
X180157D02*
D03*
X182126D02*
D03*
X184095D02*
D03*
X186063D02*
D03*
X188031D02*
D03*
X190000D02*
D03*
X191969D02*
D03*
X193937D02*
D03*
X195905D02*
D03*
X197874D02*
D03*
X199843D02*
D03*
X201811D02*
D03*
X203780D02*
D03*
X205748D02*
D03*
X207716D02*
D03*
X209685D02*
D03*
X211653D02*
D03*
X213622D02*
D03*
Y381823D02*
D03*
X211653D02*
D03*
X209685D02*
D03*
X207716D02*
D03*
X205748D02*
D03*
X203780D02*
D03*
X201811D02*
D03*
X199843D02*
D03*
X197874D02*
D03*
X195905D02*
D03*
X193937D02*
D03*
X191969D02*
D03*
X190000D02*
D03*
X188031D02*
D03*
X186063D02*
D03*
X184095D02*
D03*
X182126D02*
D03*
X180157D02*
D03*
X178189D02*
D03*
X176221D02*
D03*
X174252D02*
D03*
X172283D02*
D03*
X170315D02*
D03*
X168347D02*
D03*
X166378D02*
D03*
D35*
X415000Y450000D02*
D03*
D36*
Y440000D02*
D03*
Y430000D02*
D03*
Y420000D02*
D03*
X445000D02*
D03*
Y430000D02*
D03*
Y440000D02*
D03*
Y450000D02*
D03*
X568750Y61300D02*
D03*
X554000D02*
D03*
X539250D02*
D03*
D52*
X426047Y346500D02*
D03*
X428016D02*
D03*
X429984D02*
D03*
X431953D02*
D03*
Y361500D02*
D03*
X429984D02*
D03*
X428016D02*
D03*
X426047D02*
D03*
D53*
X436500Y351047D02*
D03*
Y353016D02*
D03*
Y354984D02*
D03*
Y356953D02*
D03*
X421500D02*
D03*
Y354984D02*
D03*
Y353016D02*
D03*
Y351047D02*
D03*
D54*
X429000Y354000D02*
D03*
D55*
X370650Y351831D02*
X382000D01*
X382000Y352225D02*
X382791Y353016D01*
X374000Y413268D02*
X385744Y401524D01*
X275000Y362000D02*
Y363057D01*
X276618Y364675D01*
Y364800D01*
X315106Y403682D02*
X315500D01*
X276618Y364800D02*
X313744Y401926D01*
Y402319D01*
X315106Y403682D01*
X315500D02*
X316182Y403000D01*
X325000D01*
X328000Y392225D02*
Y400000D01*
X325000Y403000D02*
X328000Y400000D01*
X312275Y357000D02*
X313500Y358225D01*
X271000Y357000D02*
X312275D01*
X265000Y352000D02*
X266000D01*
X271000Y357000D01*
X313500Y358225D02*
X322500D01*
X381878Y344622D02*
X382000Y344745D01*
X375622Y344622D02*
X381878D01*
X375500Y344500D02*
X375622Y344622D01*
X348500Y457000D02*
X438000D01*
X263000D02*
X348500D01*
X387106Y399768D02*
X387500D01*
X385744Y401130D02*
X387106Y399768D01*
X385744Y401130D02*
Y401524D01*
X374000Y413268D02*
Y431500D01*
X348500Y457000D02*
X374000Y431500D01*
X395000Y196500D02*
X442000Y243500D01*
X422500Y295500D02*
X445000Y318000D01*
X422500Y224500D02*
Y295500D01*
Y224500D02*
X434057Y236056D01*
X28500Y78390D02*
X28890Y78000D01*
X240709D02*
X319839Y157130D01*
X28890Y78000D02*
X240709D01*
X265839Y250500D02*
X319839Y196500D01*
X225000Y262500D02*
X237000Y250500D01*
X353000Y107000D02*
X359000D01*
Y53500D02*
Y105000D01*
X334000Y28500D02*
X359000Y53500D01*
X297500Y28500D02*
X334000D01*
X28500Y46894D02*
X279106D01*
X297500Y28500D01*
X9000Y66394D02*
X28500Y46894D01*
X11500Y282966D02*
Y283000D01*
X225000Y262500D02*
Y272000D01*
X394500Y196500D02*
X422500Y224500D01*
X567500Y243500D02*
X606500Y282500D01*
X520500Y338500D02*
X546500Y312500D01*
X520500Y385225D02*
X536000Y400725D01*
X520500Y338500D02*
Y385225D01*
X628225Y412500D02*
X640000Y400725D01*
X569500Y412500D02*
X628225D01*
X560500Y421500D02*
X569500Y412500D01*
X540318Y401318D02*
X560500Y421500D01*
X536593Y401318D02*
X540318D01*
X536000Y400725D02*
X536593Y401318D01*
X237000Y250500D02*
X265839D01*
X220000Y277000D02*
X225000Y272000D01*
X189000Y457000D02*
X263000D01*
X289500Y416500D02*
Y430500D01*
X275000Y402000D02*
X289500Y416500D01*
X263000Y457000D02*
X289500Y430500D01*
X112500Y457000D02*
X189000D01*
X198500Y429500D02*
X199500D01*
X194500Y433500D02*
X198500Y429500D01*
X189000Y457000D02*
X194500Y451500D01*
Y433500D02*
Y451500D01*
X38000Y314500D02*
X75500Y352000D01*
X105000D02*
X105000Y352000D01*
X75500Y352000D02*
X105000D01*
X438000Y457000D02*
X445000Y450000D01*
X75500Y420000D02*
X112500Y457000D01*
X75500Y352000D02*
Y420000D01*
X11500Y314500D02*
X38000D01*
X590500Y451500D02*
X620000D01*
X657500Y414000D01*
X644500Y300000D02*
X657500Y313000D01*
Y414000D01*
X624000Y300000D02*
X644500D01*
X610000Y340725D02*
X610275D01*
X624000Y327000D01*
X606500Y282500D02*
X624000Y300000D01*
Y327000D01*
X442000Y243500D02*
X567500D01*
X377000Y196500D02*
X394000D01*
X541500Y106500D02*
Y108500D01*
X531000Y96000D02*
X541500Y106500D01*
X459000Y105000D02*
Y107000D01*
Y105000D02*
X461000Y103000D01*
X463000D01*
X470000Y96000D01*
X531000D01*
X541500Y108500D02*
Y110500D01*
X539500Y112500D02*
X541500Y110500D01*
X537000Y112500D02*
X539500D01*
X534000Y115500D02*
X537000Y112500D01*
X541500Y171500D02*
Y173500D01*
X534000Y164000D02*
X541500Y171500D01*
X534000Y115500D02*
Y164000D01*
X409000Y160500D02*
Y162500D01*
Y160500D02*
X457000Y112500D01*
Y109000D02*
Y112500D01*
Y109000D02*
X459000Y107000D01*
X568750Y54250D02*
Y61300D01*
X554500Y40000D02*
X568750Y54250D01*
X409000Y49500D02*
Y51500D01*
Y49500D02*
X411000Y47500D01*
X413000D01*
X420500Y40000D01*
X554500D01*
X359000Y105000D02*
Y107000D01*
Y105000D02*
X407000Y57000D01*
Y53500D02*
Y57000D01*
Y53500D02*
X409000Y51500D01*
X348500Y111500D02*
X353000Y107000D01*
X319839Y196500D02*
X348500Y167839D01*
Y111500D02*
Y167839D01*
X319839Y196500D02*
X377000D01*
X409000Y164500D01*
Y162500D02*
Y164500D01*
X11000Y283500D02*
X11500Y283000D01*
X9000Y280466D02*
X11500Y282966D01*
X9000Y66394D02*
Y280466D01*
X11000Y314000D02*
X11500Y314500D01*
X11000Y283500D02*
Y314000D01*
X445000Y420000D02*
X462843D01*
X470000Y427157D01*
X390000Y420157D02*
X390079Y420079D01*
X414921D01*
X415000Y420000D01*
X390000Y440000D02*
X415000D01*
X390000Y439843D02*
Y440000D01*
X390000Y440000D02*
X390000Y440000D01*
X22000Y444293D02*
X41000Y425293D01*
X22000Y444293D02*
Y453909D01*
X40287Y367787D02*
X41000Y368500D01*
X22000Y453909D02*
X22207Y453703D01*
X41000Y368500D02*
Y425293D01*
X22207Y453703D02*
X62703D01*
X11500Y334500D02*
X11707D01*
X62703Y453703D02*
X63000Y454000D01*
X11707Y334500D02*
X40287Y363081D01*
Y367787D01*
X327000Y339725D02*
Y344725D01*
X331913Y349638D02*
X339500D01*
X327000Y344725D02*
X331913Y349638D01*
X328000Y415225D02*
Y422225D01*
X332957Y410268D02*
X341000D01*
X328000Y415225D02*
X332957Y410268D01*
X341000D02*
X350543D01*
X355500Y415225D02*
Y422225D01*
X350543Y410268D02*
X355500Y415225D01*
X367000Y392225D02*
X367500Y392725D01*
X355500Y392225D02*
X367000D01*
X374630Y392682D02*
X387500D01*
X374587Y392725D02*
X374630Y392682D01*
X471000Y393268D02*
X471000Y393268D01*
X471000Y393268D02*
Y404725D01*
X470500Y331725D02*
Y335182D01*
X464000Y325225D02*
X470500Y331725D01*
X352500Y357225D02*
Y369725D01*
X358000Y351725D02*
X363457D01*
X352500Y357225D02*
X358000Y351725D01*
X327000Y362725D02*
Y369725D01*
X322500Y358225D02*
X327000Y362725D01*
X349087Y349638D02*
X352500Y346225D01*
X339500Y349638D02*
X349087D01*
X352500Y339725D02*
Y346225D01*
X370543Y351725D02*
X370650Y351831D01*
X253512Y102012D02*
X292000Y140500D01*
X28500Y102012D02*
X253512D01*
X28500Y70516D02*
X241098D01*
X319839Y149256D01*
X507775Y441500D02*
X560500D01*
X471000Y404725D02*
X507775Y441500D01*
X442500Y325225D02*
X464000D01*
X435275Y318000D02*
X442500Y325225D01*
X415000Y318000D02*
X435275D01*
X560500Y441500D02*
Y451500D01*
X415000Y308000D02*
Y318000D01*
X590500Y431500D02*
Y441500D01*
X640000Y340725D02*
X649500Y350225D01*
Y401500D01*
X590500Y431500D02*
X619500D01*
X649500Y401500D01*
X506000Y380725D02*
X556300Y431025D01*
X560025D01*
X551775Y389500D02*
Y403000D01*
Y365500D02*
Y377500D01*
X588550Y370725D02*
X610000D01*
X581775Y377500D02*
X588550Y370725D01*
X593000Y400725D02*
X610000D01*
X581775Y389500D02*
X593000Y400725D01*
D56*
X305000Y424500D02*
D03*
X328000Y392225D02*
D03*
Y422225D02*
D03*
X355500D02*
D03*
Y392225D02*
D03*
X327000Y369725D02*
D03*
Y339725D02*
D03*
X352500D02*
D03*
Y369725D02*
D03*
X581775Y403000D02*
D03*
X551775D02*
D03*
X581775Y377500D02*
D03*
X551775D02*
D03*
X581775Y365500D02*
D03*
X551775D02*
D03*
X581775Y389500D02*
D03*
X551775D02*
D03*
X449000Y81000D02*
D03*
Y51000D02*
D03*
X451500Y192500D02*
D03*
Y162500D02*
D03*
X401500Y137000D02*
D03*
Y107000D02*
D03*
X499500Y136500D02*
D03*
Y106500D02*
D03*
X583000Y138500D02*
D03*
Y108500D02*
D03*
Y204000D02*
D03*
Y174000D02*
D03*
D57*
X305000Y443713D02*
D03*
D58*
X63000Y434000D02*
D03*
Y444000D02*
D03*
X670000Y426500D02*
D03*
Y436500D02*
D03*
Y446500D02*
D03*
X115000Y412000D02*
D03*
X105000Y402000D02*
D03*
X115000D02*
D03*
X105000Y392000D02*
D03*
X115000D02*
D03*
X105000Y382000D02*
D03*
X115000D02*
D03*
X105000Y372000D02*
D03*
X115000D02*
D03*
X105000Y362000D02*
D03*
X115000D02*
D03*
X105000Y352000D02*
D03*
X115000D02*
D03*
X105000Y342000D02*
D03*
X115000D02*
D03*
X105000Y332000D02*
D03*
X115000D02*
D03*
X105000Y322000D02*
D03*
X115000D02*
D03*
X105000Y312000D02*
D03*
X115000D02*
D03*
X105000Y302000D02*
D03*
X115000D02*
D03*
X105000Y292000D02*
D03*
X115000D02*
D03*
X130000Y277000D02*
D03*
X140000Y267000D02*
D03*
Y277000D02*
D03*
X150000Y267000D02*
D03*
Y277000D02*
D03*
X160000Y267000D02*
D03*
Y277000D02*
D03*
X170000Y267000D02*
D03*
Y277000D02*
D03*
X180000Y267000D02*
D03*
Y277000D02*
D03*
X190000Y267000D02*
D03*
Y277000D02*
D03*
X200000Y267000D02*
D03*
Y277000D02*
D03*
X210000Y267000D02*
D03*
Y277000D02*
D03*
X220000Y267000D02*
D03*
Y277000D02*
D03*
X230000Y267000D02*
D03*
Y277000D02*
D03*
X240000Y267000D02*
D03*
Y277000D02*
D03*
X250000Y267000D02*
D03*
Y277000D02*
D03*
X265000Y292000D02*
D03*
X275000Y302000D02*
D03*
X265000D02*
D03*
X275000Y312000D02*
D03*
X265000D02*
D03*
X275000Y322000D02*
D03*
X265000D02*
D03*
X275000Y332000D02*
D03*
X265000D02*
D03*
X275000Y342000D02*
D03*
X265000D02*
D03*
X275000Y352000D02*
D03*
X265000D02*
D03*
X275000Y362000D02*
D03*
X265000D02*
D03*
X275000Y372000D02*
D03*
X265000D02*
D03*
X275000Y382000D02*
D03*
X265000D02*
D03*
X275000Y392000D02*
D03*
X265000D02*
D03*
X275000Y402000D02*
D03*
X265000D02*
D03*
X275000Y412000D02*
D03*
X265000D02*
D03*
X249500Y429500D02*
D03*
X239500Y439500D02*
D03*
Y429500D02*
D03*
X229500Y439500D02*
D03*
Y429500D02*
D03*
X219500Y439500D02*
D03*
Y429500D02*
D03*
X209500Y439500D02*
D03*
Y429500D02*
D03*
X199500Y439500D02*
D03*
Y429500D02*
D03*
X189500Y439500D02*
D03*
Y429500D02*
D03*
X179500Y439500D02*
D03*
Y429500D02*
D03*
X169500Y439500D02*
D03*
Y429500D02*
D03*
X159500Y439500D02*
D03*
Y429500D02*
D03*
X149500Y439500D02*
D03*
Y429500D02*
D03*
X139500Y439500D02*
D03*
Y429500D02*
D03*
X129500Y439500D02*
D03*
Y429500D02*
D03*
D59*
X63000Y454000D02*
D03*
X670000Y456500D02*
D03*
X105000Y412000D02*
D03*
X275000Y292000D02*
D03*
D60*
X22000Y429500D02*
D03*
X41685Y441311D02*
D03*
X22000Y453909D02*
D03*
D61*
X470000Y427157D02*
D03*
X390000Y420157D02*
D03*
D62*
X470000Y446842D02*
D03*
X390000Y439843D02*
D03*
D63*
X11500Y314500D02*
D03*
X21500Y324500D02*
D03*
X11500Y334500D02*
D03*
D64*
X574000Y22000D02*
D03*
X534000D02*
D03*
D65*
X445000Y318000D02*
D03*
Y308000D02*
D03*
Y298000D02*
D03*
Y288000D02*
D03*
X415000D02*
D03*
Y298000D02*
D03*
Y308000D02*
D03*
X590500Y451500D02*
D03*
Y441500D02*
D03*
Y431500D02*
D03*
Y421500D02*
D03*
X560500D02*
D03*
Y431500D02*
D03*
Y441500D02*
D03*
D66*
X415000Y318000D02*
D03*
X560500Y451500D02*
D03*
D67*
X640000Y340725D02*
D03*
X536000D02*
D03*
D68*
X640000Y350725D02*
D03*
Y360725D02*
D03*
Y370725D02*
D03*
Y380725D02*
D03*
Y390725D02*
D03*
Y400725D02*
D03*
X610000D02*
D03*
Y390725D02*
D03*
Y380725D02*
D03*
Y370725D02*
D03*
Y360725D02*
D03*
Y350725D02*
D03*
Y340725D02*
D03*
X536000Y350725D02*
D03*
Y360725D02*
D03*
Y370725D02*
D03*
Y380725D02*
D03*
Y390725D02*
D03*
Y400725D02*
D03*
X506000D02*
D03*
Y390725D02*
D03*
Y380725D02*
D03*
Y370725D02*
D03*
Y360725D02*
D03*
Y350725D02*
D03*
Y340725D02*
D03*
X606500Y282500D02*
D03*
X596500D02*
D03*
X586500D02*
D03*
X576500D02*
D03*
X566500D02*
D03*
X556500D02*
D03*
X546500D02*
D03*
X536500D02*
D03*
Y312500D02*
D03*
X546500D02*
D03*
X556500D02*
D03*
X566500D02*
D03*
X576500D02*
D03*
X586500D02*
D03*
X596500D02*
D03*
D69*
X606500D02*
D03*
D70*
X11000Y368500D02*
D03*
X41000D02*
D03*
X41500Y283000D02*
D03*
X11500D02*
D03*
D71*
X130000Y267000D02*
D03*
X249500Y439500D02*
D03*
D72*
X28500Y141382D02*
D03*
Y157130D02*
D03*
Y180752D02*
D03*
Y172878D02*
D03*
Y165004D02*
D03*
Y149256D02*
D03*
Y188626D02*
D03*
Y133508D02*
D03*
Y125634D02*
D03*
Y70516D02*
D03*
Y86264D02*
D03*
Y102012D02*
D03*
Y94138D02*
D03*
Y78390D02*
D03*
Y117760D02*
D03*
Y62642D02*
D03*
Y54768D02*
D03*
Y109886D02*
D03*
Y46894D02*
D03*
X319839Y141382D02*
D03*
Y157130D02*
D03*
Y180752D02*
D03*
Y172878D02*
D03*
Y165004D02*
D03*
Y149256D02*
D03*
Y188626D02*
D03*
Y133508D02*
D03*
Y125634D02*
D03*
Y70516D02*
D03*
Y86264D02*
D03*
Y102012D02*
D03*
Y94138D02*
D03*
Y78390D02*
D03*
Y117760D02*
D03*
Y62642D02*
D03*
Y54768D02*
D03*
Y109886D02*
D03*
Y46894D02*
D03*
X375500Y344500D02*
D03*
X381000Y406500D02*
D03*
X433000Y266500D02*
D03*
X454500Y267000D02*
D03*
X438500Y252500D02*
D03*
X429500Y257000D02*
D03*
X436750Y333250D02*
D03*
X481000Y405000D02*
D03*
X486500Y394500D02*
D03*
X292000Y140500D02*
D03*
X422500Y340500D02*
D03*
X418000Y367000D02*
D03*
X404000Y382500D02*
D03*
X409000Y377500D02*
D03*
X413500Y372500D02*
D03*
D73*
X28500Y196500D02*
D03*
X319839D02*
D03*
D74*
X409000Y51500D02*
D03*
Y162500D02*
D03*
X359000Y107000D02*
D03*
X459000D02*
D03*
X541500Y108500D02*
D03*
Y173500D02*
D03*
D75*
X409000Y81500D02*
D03*
X429000D02*
D03*
Y51500D02*
D03*
X409000Y192500D02*
D03*
X429000D02*
D03*
Y162500D02*
D03*
X359000Y137000D02*
D03*
X379000D02*
D03*
Y107000D02*
D03*
X459000Y137000D02*
D03*
X479000D02*
D03*
Y107000D02*
D03*
X541500Y138500D02*
D03*
X561500D02*
D03*
Y108500D02*
D03*
X541500Y203500D02*
D03*
X561500D02*
D03*
Y173500D02*
D03*
D76*
X232000Y368000D02*
D03*
X150500Y358500D02*
D03*
X199000Y394000D02*
D03*
X150500Y345500D02*
D03*
X190500Y394000D02*
D03*
X150000Y353500D02*
D03*
X231500Y373000D02*
D03*
D77*
X200500Y314500D02*
D03*
X206000Y314000D02*
D03*
M02*
