G04*
G04 #@! TF.GenerationSoftware,Altium Limited,Altium Designer,20.0.9 (164)*
G04*
G04 Layer_Color=65535*
%FSLAX25Y25*%
%MOIN*%
G70*
G01*
G75*
%ADD10C,0.00787*%
%ADD11C,0.00600*%
%ADD12C,0.01000*%
%ADD13C,0.00984*%
%ADD14C,0.02362*%
%ADD15C,0.00300*%
G36*
X429234Y363700D02*
Y364700D01*
X430734D01*
Y363700D01*
X429234D01*
D02*
G37*
D10*
X473274Y429839D02*
X474150Y430308D01*
X474959Y430884D01*
X475689Y431556D01*
X476329Y432315D01*
X476868Y433149D01*
X477298Y434044D01*
X477612Y434986D01*
X477805Y435960D01*
X477874Y436951D01*
X477817Y437942D01*
X477637Y438919D01*
X477334Y439865D01*
X476916Y440765D01*
X476387Y441605D01*
X475756Y442373D01*
X475034Y443054D01*
X474232Y443640D01*
X465768Y443640D02*
X464966Y443054D01*
X464244Y442373D01*
X463613Y441605D01*
X463084Y440765D01*
X462666Y439865D01*
X462363Y438919D01*
X462183Y437942D01*
X462126Y436951D01*
X462195Y435960D01*
X462388Y434986D01*
X462702Y434044D01*
X463132Y433149D01*
X463671Y432315D01*
X464311Y431556D01*
X465041Y430884D01*
X465850Y430308D01*
X466726Y429839D01*
X393274Y422839D02*
X394149Y423308D01*
X394959Y423883D01*
X395689Y424556D01*
X396329Y425316D01*
X396868Y426149D01*
X397298Y427044D01*
X397612Y427986D01*
X397805Y428961D01*
X397874Y429951D01*
X397817Y430942D01*
X397637Y431919D01*
X397334Y432865D01*
X396916Y433765D01*
X396387Y434605D01*
X395756Y435373D01*
X395034Y436054D01*
X394232Y436640D01*
X385768Y436640D02*
X384966Y436054D01*
X384244Y435373D01*
X383613Y434605D01*
X383084Y433765D01*
X382666Y432865D01*
X382363Y431919D01*
X382183Y430942D01*
X382126Y429951D01*
X382195Y428961D01*
X382388Y427986D01*
X382702Y427044D01*
X383132Y426149D01*
X383671Y425316D01*
X384311Y424556D01*
X385041Y423883D01*
X385851Y423308D01*
X386726Y422839D01*
X295748Y411665D02*
Y456547D01*
Y411665D02*
X314252D01*
Y456547D01*
X295748Y456547D02*
X314252D01*
X58000Y459000D02*
X68000D01*
Y429000D02*
Y459000D01*
X58000Y429000D02*
X68000D01*
X58000D02*
Y459000D01*
X39717Y399972D02*
Y432650D01*
Y449972D02*
Y457453D01*
X30661D02*
X39717D01*
X4283Y399972D02*
X39717D01*
X4283D02*
Y457453D01*
X13339Y457453D01*
X665000Y461500D02*
X675000D01*
Y421500D02*
Y461500D01*
X665000Y421500D02*
Y461500D01*
Y421500D02*
X675000D01*
X395500Y295638D02*
Y300362D01*
X134138Y355500D02*
X138862D01*
X338638Y406725D02*
X343362D01*
X312638Y399000D02*
X317362D01*
X311138Y354682D02*
X315862D01*
X337138Y353182D02*
X341862D01*
X367000Y349363D02*
Y354087D01*
X371043Y390363D02*
Y395087D01*
X468138Y338725D02*
X472862D01*
X468638Y389725D02*
X473362D01*
X379638Y348288D02*
X384362D01*
X385138Y396225D02*
X389862D01*
X328000Y397225D02*
X331000D01*
Y417225D01*
X325000D02*
X331000D01*
X325000Y397225D02*
Y417225D01*
Y397225D02*
X328000D01*
Y417225D02*
Y418125D01*
Y396325D02*
Y397225D01*
X352500Y417225D02*
X355500D01*
X352500Y397225D02*
Y417225D01*
Y397225D02*
X358500D01*
Y417225D01*
X355500D02*
X358500D01*
X355500Y396325D02*
Y397225D01*
Y417225D02*
Y418125D01*
X324000Y364725D02*
X327000D01*
X324000Y344725D02*
Y364725D01*
Y344725D02*
X330000D01*
Y364725D01*
X327000D02*
X330000D01*
X327000Y343825D02*
Y344725D01*
Y364725D02*
Y365625D01*
X352500Y344725D02*
X355500D01*
Y364725D01*
X349500D02*
X355500D01*
X349500Y344725D02*
Y364725D01*
Y344725D02*
X352500D01*
Y364725D02*
Y365625D01*
Y343825D02*
Y344725D01*
X555875Y403000D02*
X556775D01*
X576775D02*
X577675D01*
X556775D02*
Y406000D01*
X576775D01*
Y400000D02*
Y406000D01*
X556775Y400000D02*
X576775D01*
X556775D02*
Y403000D01*
X555875Y377500D02*
X556775D01*
X576775D02*
X577675D01*
X556775D02*
Y380500D01*
X576775D01*
Y374500D02*
Y380500D01*
X556775Y374500D02*
X576775D01*
X556775D02*
Y377500D01*
X555875Y365500D02*
X556775D01*
X576775D02*
X577675D01*
X556775D02*
Y368500D01*
X576775D01*
Y362500D02*
Y368500D01*
X556775Y362500D02*
X576775D01*
X556775D02*
Y365500D01*
X555875Y389500D02*
X556775D01*
X576775D02*
X577675D01*
X556775D02*
Y392500D01*
X576775D01*
Y386500D02*
Y392500D01*
X556775Y386500D02*
X576775D01*
X556775D02*
Y389500D01*
X446000Y76000D02*
X449000D01*
X446000Y56000D02*
Y76000D01*
Y56000D02*
X452000D01*
Y76000D01*
X449000D02*
X452000D01*
X449000Y55100D02*
Y56000D01*
Y76000D02*
Y76900D01*
X448500Y187500D02*
X451500D01*
X448500Y167500D02*
Y187500D01*
Y167500D02*
X454500D01*
Y187500D01*
X451500D02*
X454500D01*
X451500Y166600D02*
Y167500D01*
Y187500D02*
Y188400D01*
X398500Y132000D02*
X401500D01*
X398500Y112000D02*
Y132000D01*
Y112000D02*
X404500D01*
Y132000D01*
X401500D02*
X404500D01*
X401500Y111100D02*
Y112000D01*
Y132000D02*
Y132900D01*
X496500Y131500D02*
X499500D01*
X496500Y111500D02*
Y131500D01*
Y111500D02*
X502500D01*
Y131500D01*
X499500D02*
X502500D01*
X499500Y110600D02*
Y111500D01*
Y131500D02*
Y132400D01*
X580000Y133500D02*
X583000D01*
X580000Y113500D02*
Y133500D01*
Y113500D02*
X586000D01*
Y133500D01*
X583000D02*
X586000D01*
X583000Y112600D02*
Y113500D01*
Y133500D02*
Y134400D01*
X580000Y199000D02*
X583000D01*
X580000Y179000D02*
Y199000D01*
Y179000D02*
X586000D01*
Y199000D01*
X583000D02*
X586000D01*
X583000Y178100D02*
Y179000D01*
Y199000D02*
Y199900D01*
X3500Y361000D02*
Y376000D01*
X48500D01*
Y361000D02*
Y376000D01*
X3500Y361000D02*
X48500D01*
X49000Y275500D02*
Y290500D01*
X4000Y275500D02*
X49000D01*
X4000D02*
Y290500D01*
X49000D01*
X100000Y287000D02*
X120000D01*
X100000Y417000D02*
X120000D01*
Y287000D02*
Y417000D01*
X100000Y287000D02*
Y417000D01*
X255000Y262000D02*
Y282000D01*
X125000Y262000D02*
Y282000D01*
X255000D01*
X125000Y262000D02*
X255000D01*
X260000Y417000D02*
X280000D01*
X260000Y287000D02*
X280000D01*
X260000D02*
Y417000D01*
X280000Y287000D02*
Y417000D01*
X124500Y424500D02*
Y444500D01*
X254500Y424500D02*
Y444500D01*
X124500Y424500D02*
X254500D01*
X124500Y444500D02*
X254500D01*
X24563Y200437D02*
X32437D01*
X24563Y192563D02*
X32437D01*
X24563Y42957D02*
X32437D01*
Y200437D01*
X24563Y42957D02*
Y200437D01*
X315902D02*
X323776D01*
X315902Y192563D02*
X323776D01*
X315902Y42957D02*
X323776D01*
Y200437D01*
X315902Y42957D02*
Y200437D01*
X165197Y327197D02*
Y376803D01*
X214803Y327197D02*
Y376803D01*
X165197D02*
X214803D01*
X165197Y327197D02*
X214803D01*
D11*
X428800Y323000D02*
X429151Y322151D01*
X430000Y321800D01*
X430849Y322151D01*
X431200Y323000D01*
X626200Y331975D02*
X625848Y332823D01*
X625000Y333175D01*
X624152Y332823D01*
X623800Y331975D01*
X522200D02*
X521848Y332823D01*
X521000Y333175D01*
X520152Y332823D01*
X519800Y331975D01*
X610250Y298700D02*
X609402Y298348D01*
X609050Y297500D01*
X609402Y296652D01*
X610250Y296300D01*
X574300Y456500D02*
X574651Y455652D01*
X575500Y455300D01*
X576348Y455652D01*
X576700Y456500D01*
X7250Y316153D02*
Y332847D01*
X25750Y303500D02*
Y322847D01*
X7250Y345500D02*
X25750D01*
X7250Y336153D02*
Y345500D01*
Y303500D02*
X25750D01*
X7250D02*
Y312847D01*
X25750Y326153D02*
Y345500D01*
X446000Y444192D02*
Y445808D01*
X414000Y415000D02*
X446000D01*
Y424192D02*
Y425808D01*
X414000Y455000D02*
X446000D01*
X414000Y444192D02*
Y445690D01*
Y434192D02*
Y435808D01*
Y424192D02*
Y425808D01*
X446000Y434192D02*
Y435808D01*
X443000Y311476D02*
Y314524D01*
Y301476D02*
Y304524D01*
Y291476D02*
Y294524D01*
X417000Y283000D02*
Y284524D01*
Y291476D02*
Y294524D01*
Y301476D02*
Y304524D01*
Y311476D02*
Y313990D01*
Y323000D02*
X443000D01*
Y283000D02*
Y284524D01*
X417000Y283000D02*
X443000D01*
Y321476D02*
Y323000D01*
X612000Y331975D02*
Y337423D01*
Y409475D02*
X638000D01*
X612000Y404027D02*
Y409475D01*
Y331975D02*
X638000D01*
Y336865D01*
Y344585D02*
Y347424D01*
Y354027D02*
Y357423D01*
Y364026D02*
Y367424D01*
Y374026D02*
Y377424D01*
Y384027D02*
Y387423D01*
Y394026D02*
Y397424D01*
Y404027D02*
Y409475D01*
X612000Y394026D02*
Y397424D01*
Y384027D02*
Y387423D01*
Y374026D02*
Y377424D01*
Y364026D02*
Y367424D01*
Y354027D02*
Y357423D01*
Y344026D02*
Y347424D01*
X508000Y331975D02*
Y337423D01*
Y409475D02*
X534000D01*
X508000Y404027D02*
Y409475D01*
Y331975D02*
X534000D01*
Y336865D01*
Y344585D02*
Y347424D01*
Y354027D02*
Y357423D01*
Y364026D02*
Y367424D01*
Y374026D02*
Y377424D01*
Y384027D02*
Y387423D01*
Y394026D02*
Y397424D01*
Y404027D02*
Y409475D01*
X508000Y394026D02*
Y397424D01*
Y384027D02*
Y387423D01*
Y374026D02*
Y377424D01*
Y364026D02*
Y367424D01*
Y354027D02*
Y357423D01*
Y344026D02*
Y347424D01*
X589802Y284500D02*
X593198D01*
X579802D02*
X583198D01*
X569802D02*
X573199D01*
X559801D02*
X563199D01*
X549801D02*
X553198D01*
X539802Y310500D02*
X543198D01*
X549801D02*
X553198D01*
X559801D02*
X563199D01*
X569802D02*
X573199D01*
X579802D02*
X583198D01*
X589802D02*
X593198D01*
X599801D02*
X602640D01*
X610250Y284500D02*
Y309424D01*
X539802Y284500D02*
X543198D01*
X532750D02*
Y310500D01*
X599801Y284500D02*
X603198D01*
X588500Y444976D02*
Y448024D01*
Y434976D02*
Y438024D01*
Y424976D02*
Y428024D01*
X562500Y416500D02*
Y418024D01*
Y424976D02*
Y428024D01*
Y434976D02*
Y438024D01*
Y444976D02*
Y447490D01*
Y456500D02*
X588500D01*
Y416500D02*
Y418024D01*
X562500Y416500D02*
X588500D01*
Y454976D02*
Y456500D01*
X419950Y344950D02*
Y349285D01*
X438050Y344950D02*
Y349285D01*
X433715Y363050D02*
X438050D01*
X419950Y358715D02*
Y363050D01*
Y344950D02*
X424285D01*
X433715D02*
X438050D01*
Y358715D02*
Y363050D01*
X419950D02*
X424285D01*
D12*
X325744Y218154D02*
X325610Y219173D01*
X325217Y220122D01*
X324591Y220937D01*
X323776Y221563D01*
X322826Y221956D01*
X321807Y222091D01*
Y21303D02*
X322826Y21437D01*
X323776Y21831D01*
X324591Y22456D01*
X325217Y23272D01*
X325610Y24221D01*
X325744Y25240D01*
X22594D02*
X22729Y24221D01*
X23122Y23272D01*
X23748Y22456D01*
X24563Y21831D01*
X25512Y21437D01*
X26531Y21303D01*
Y222091D02*
X25512Y221956D01*
X24563Y221563D01*
X23748Y220937D01*
X23122Y220122D01*
X22729Y219173D01*
X22594Y218154D01*
X430068Y66854D02*
X430022Y67854D01*
X429884Y68845D01*
X429655Y69819D01*
X429337Y70767D01*
X428933Y71683D01*
X428446Y72557D01*
X427880Y73382D01*
X427241Y74152D01*
X426534Y74859D01*
X425764Y75499D01*
X424939Y76064D01*
X424064Y76551D01*
X423149Y76955D01*
X422201Y77273D01*
X421227Y77502D01*
X420236Y77640D01*
X419236Y77687D01*
X418237Y77640D01*
X417246Y77502D01*
X416272Y77273D01*
X415323Y76955D01*
X414408Y76551D01*
X413534Y76064D01*
X412708Y75499D01*
X411939Y74859D01*
X411231Y74152D01*
X410592Y73382D01*
X410027Y72557D01*
X409540Y71683D01*
X409136Y70767D01*
X408818Y69819D01*
X408589Y68845D01*
X408450Y67854D01*
X408404Y66854D01*
X408450Y65855D01*
X408589Y64864D01*
X408818Y63890D01*
X409136Y62941D01*
X409540Y62026D01*
X410027Y61152D01*
X410592Y60326D01*
X411231Y59557D01*
X411939Y58849D01*
X412708Y58210D01*
X413534Y57645D01*
X414408Y57158D01*
X415323Y56754D01*
X416272Y56436D01*
X417246Y56207D01*
X418237Y56068D01*
X419236Y56022D01*
X420236Y56068D01*
X421227Y56207D01*
X422201Y56436D01*
X423149Y56754D01*
X424064Y57158D01*
X424939Y57645D01*
X425764Y58210D01*
X426534Y58849D01*
X427241Y59557D01*
X427880Y60326D01*
X428446Y61152D01*
X428933Y62026D01*
X429337Y62941D01*
X429655Y63890D01*
X429884Y64864D01*
X430022Y65855D01*
X430068Y66854D01*
Y177854D02*
X430022Y178854D01*
X429884Y179845D01*
X429655Y180819D01*
X429337Y181767D01*
X428933Y182683D01*
X428446Y183557D01*
X427880Y184382D01*
X427241Y185152D01*
X426534Y185859D01*
X425764Y186499D01*
X424939Y187064D01*
X424064Y187551D01*
X423149Y187955D01*
X422201Y188273D01*
X421227Y188502D01*
X420236Y188640D01*
X419236Y188687D01*
X418237Y188640D01*
X417246Y188502D01*
X416272Y188273D01*
X415323Y187955D01*
X414408Y187551D01*
X413534Y187064D01*
X412708Y186499D01*
X411939Y185859D01*
X411231Y185152D01*
X410592Y184382D01*
X410027Y183557D01*
X409540Y182683D01*
X409136Y181767D01*
X408818Y180819D01*
X408589Y179845D01*
X408450Y178854D01*
X408404Y177854D01*
X408450Y176855D01*
X408589Y175864D01*
X408818Y174890D01*
X409136Y173941D01*
X409540Y173026D01*
X410027Y172152D01*
X410592Y171326D01*
X411231Y170557D01*
X411939Y169849D01*
X412708Y169210D01*
X413534Y168645D01*
X414408Y168158D01*
X415323Y167754D01*
X416272Y167436D01*
X417246Y167207D01*
X418237Y167068D01*
X419236Y167022D01*
X420236Y167068D01*
X421227Y167207D01*
X422201Y167436D01*
X423149Y167754D01*
X424064Y168158D01*
X424939Y168645D01*
X425764Y169210D01*
X426534Y169849D01*
X427241Y170557D01*
X427880Y171326D01*
X428446Y172152D01*
X428933Y173026D01*
X429337Y173941D01*
X429655Y174890D01*
X429884Y175864D01*
X430022Y176855D01*
X430068Y177854D01*
X380068Y122354D02*
X380022Y123354D01*
X379884Y124345D01*
X379655Y125319D01*
X379337Y126267D01*
X378933Y127183D01*
X378446Y128057D01*
X377881Y128882D01*
X377241Y129652D01*
X376534Y130359D01*
X375764Y130999D01*
X374939Y131564D01*
X374064Y132051D01*
X373149Y132455D01*
X372201Y132773D01*
X371227Y133002D01*
X370236Y133140D01*
X369236Y133186D01*
X368237Y133140D01*
X367246Y133002D01*
X366272Y132773D01*
X365323Y132455D01*
X364408Y132051D01*
X363534Y131564D01*
X362708Y130999D01*
X361939Y130359D01*
X361231Y129652D01*
X360592Y128882D01*
X360027Y128057D01*
X359540Y127183D01*
X359136Y126267D01*
X358818Y125319D01*
X358589Y124345D01*
X358450Y123354D01*
X358404Y122354D01*
X358450Y121355D01*
X358589Y120364D01*
X358818Y119390D01*
X359136Y118441D01*
X359540Y117526D01*
X360027Y116652D01*
X360592Y115826D01*
X361231Y115057D01*
X361939Y114349D01*
X362708Y113710D01*
X363534Y113145D01*
X364408Y112658D01*
X365323Y112254D01*
X366272Y111936D01*
X367246Y111707D01*
X368237Y111568D01*
X369236Y111522D01*
X370236Y111568D01*
X371227Y111707D01*
X372201Y111936D01*
X373149Y112254D01*
X374064Y112658D01*
X374939Y113145D01*
X375764Y113710D01*
X376534Y114349D01*
X377241Y115057D01*
X377881Y115826D01*
X378446Y116652D01*
X378933Y117526D01*
X379337Y118441D01*
X379655Y119390D01*
X379884Y120364D01*
X380022Y121355D01*
X380068Y122354D01*
X480068D02*
X480022Y123354D01*
X479884Y124345D01*
X479655Y125319D01*
X479337Y126267D01*
X478933Y127183D01*
X478446Y128057D01*
X477880Y128882D01*
X477241Y129652D01*
X476534Y130359D01*
X475764Y130999D01*
X474939Y131564D01*
X474064Y132051D01*
X473149Y132455D01*
X472201Y132773D01*
X471227Y133002D01*
X470236Y133140D01*
X469236Y133186D01*
X468237Y133140D01*
X467246Y133002D01*
X466272Y132773D01*
X465323Y132455D01*
X464408Y132051D01*
X463534Y131564D01*
X462708Y130999D01*
X461939Y130359D01*
X461231Y129652D01*
X460592Y128882D01*
X460027Y128057D01*
X459540Y127183D01*
X459135Y126267D01*
X458818Y125319D01*
X458589Y124345D01*
X458450Y123354D01*
X458404Y122354D01*
X458450Y121355D01*
X458589Y120364D01*
X458818Y119390D01*
X459135Y118441D01*
X459540Y117526D01*
X460027Y116652D01*
X460592Y115826D01*
X461231Y115057D01*
X461939Y114349D01*
X462708Y113710D01*
X463534Y113145D01*
X464408Y112658D01*
X465323Y112254D01*
X466272Y111936D01*
X467246Y111707D01*
X468237Y111568D01*
X469236Y111522D01*
X470236Y111568D01*
X471227Y111707D01*
X472201Y111936D01*
X473149Y112254D01*
X474064Y112658D01*
X474939Y113145D01*
X475764Y113710D01*
X476534Y114349D01*
X477241Y115057D01*
X477880Y115826D01*
X478446Y116652D01*
X478933Y117526D01*
X479337Y118441D01*
X479655Y119390D01*
X479884Y120364D01*
X480022Y121355D01*
X480068Y122354D01*
X562568Y123854D02*
X562522Y124854D01*
X562384Y125845D01*
X562155Y126819D01*
X561837Y127767D01*
X561433Y128683D01*
X560946Y129557D01*
X560381Y130382D01*
X559741Y131152D01*
X559034Y131859D01*
X558264Y132499D01*
X557439Y133064D01*
X556565Y133551D01*
X555649Y133955D01*
X554701Y134273D01*
X553727Y134502D01*
X552736Y134640D01*
X551736Y134687D01*
X550737Y134640D01*
X549746Y134502D01*
X548772Y134273D01*
X547823Y133955D01*
X546908Y133551D01*
X546034Y133064D01*
X545208Y132499D01*
X544439Y131859D01*
X543731Y131152D01*
X543092Y130382D01*
X542527Y129557D01*
X542040Y128683D01*
X541636Y127767D01*
X541318Y126819D01*
X541088Y125845D01*
X540950Y124854D01*
X540904Y123854D01*
X540950Y122855D01*
X541088Y121864D01*
X541318Y120890D01*
X541636Y119941D01*
X542040Y119026D01*
X542526Y118152D01*
X543092Y117326D01*
X543731Y116557D01*
X544439Y115849D01*
X545208Y115210D01*
X546034Y114645D01*
X546908Y114158D01*
X547823Y113754D01*
X548772Y113436D01*
X549746Y113207D01*
X550737Y113068D01*
X551736Y113022D01*
X552736Y113068D01*
X553727Y113207D01*
X554701Y113436D01*
X555649Y113754D01*
X556565Y114158D01*
X557439Y114645D01*
X558264Y115210D01*
X559034Y115849D01*
X559741Y116557D01*
X560381Y117326D01*
X560946Y118152D01*
X561433Y119026D01*
X561837Y119941D01*
X562155Y120890D01*
X562384Y121864D01*
X562522Y122855D01*
X562568Y123854D01*
Y188854D02*
X562522Y189854D01*
X562384Y190845D01*
X562155Y191819D01*
X561837Y192767D01*
X561433Y193683D01*
X560946Y194557D01*
X560381Y195382D01*
X559741Y196152D01*
X559034Y196859D01*
X558264Y197499D01*
X557439Y198064D01*
X556565Y198551D01*
X555649Y198955D01*
X554701Y199273D01*
X553727Y199502D01*
X552736Y199640D01*
X551736Y199687D01*
X550737Y199640D01*
X549746Y199502D01*
X548772Y199273D01*
X547823Y198955D01*
X546908Y198551D01*
X546034Y198064D01*
X545208Y197499D01*
X544439Y196859D01*
X543731Y196152D01*
X543092Y195382D01*
X542527Y194557D01*
X542040Y193683D01*
X541636Y192767D01*
X541318Y191819D01*
X541088Y190845D01*
X540950Y189854D01*
X540904Y188854D01*
X540950Y187855D01*
X541088Y186864D01*
X541318Y185890D01*
X541636Y184941D01*
X542040Y184026D01*
X542526Y183152D01*
X543092Y182326D01*
X543731Y181557D01*
X544439Y180849D01*
X545208Y180210D01*
X546034Y179645D01*
X546908Y179158D01*
X547823Y178754D01*
X548772Y178436D01*
X549746Y178207D01*
X550737Y178068D01*
X551736Y178022D01*
X552736Y178068D01*
X553727Y178207D01*
X554701Y178436D01*
X555649Y178754D01*
X556565Y179158D01*
X557439Y179645D01*
X558264Y180210D01*
X559034Y180849D01*
X559741Y181557D01*
X560381Y182326D01*
X560946Y183152D01*
X561433Y184026D01*
X561837Y184941D01*
X562155Y185890D01*
X562384Y186864D01*
X562522Y187855D01*
X562568Y188854D01*
X542000Y21300D02*
X566000D01*
X529600Y31800D02*
Y54800D01*
X533500D02*
X574500D01*
X578400Y31800D02*
Y54800D01*
X325744Y25240D02*
Y218154D01*
X26531Y21303D02*
X321807D01*
X22594Y25240D02*
Y218154D01*
X26531Y222091D02*
X321807D01*
X319051Y205161D02*
Y214901D01*
X318264Y204374D02*
Y214901D01*
X317476Y204768D02*
Y214901D01*
X316689Y204374D02*
Y214901D01*
X317385Y218691D02*
X318264Y217812D01*
X317227Y218691D02*
X317385D01*
X316348Y217812D02*
X319392D01*
X315344Y216809D02*
X320186D01*
X314340Y215805D02*
X321089D01*
X313436Y214901D02*
X322160D01*
X31256Y204374D02*
Y214973D01*
X30468Y204374D02*
Y214216D01*
X29681Y205161D02*
Y214973D01*
X28894Y204768D02*
Y214216D01*
X28106D02*
X32043D01*
X27454Y216714D02*
X32324D01*
X29638Y218897D02*
X30512D01*
X28684Y217944D02*
X31211D01*
X27780Y217040D02*
X32370D01*
X26701Y215961D02*
X33344D01*
X27349Y214973D02*
X34081D01*
X27349D02*
X28106Y214216D01*
X25714Y214973D02*
X27349D01*
X319839Y204374D02*
Y214216D01*
X315902Y204374D02*
Y214216D01*
Y204374D02*
X319839D01*
X312752Y214216D02*
X315902D01*
X319839D02*
X322988D01*
X317870Y219335D02*
X322988Y214216D01*
X312752D02*
X317870Y219335D01*
X32043Y204374D02*
Y214216D01*
X28106Y204374D02*
Y214216D01*
Y204374D02*
X32043D01*
X24957Y214216D02*
X28106D01*
X32043D02*
X35193D01*
X30075Y219335D02*
X35193Y214216D01*
X24957D02*
X30075Y219335D01*
X439157Y45988D02*
Y87327D01*
X399157Y45988D02*
Y87327D01*
X439157D01*
X399157Y45988D02*
X439157D01*
Y156988D02*
Y198327D01*
X399157Y156988D02*
Y198327D01*
X439157D01*
X399157Y156988D02*
X439157D01*
X389157Y101488D02*
Y142827D01*
X349157Y101488D02*
Y142827D01*
X389157D01*
X349157Y101488D02*
X389157D01*
X489157D02*
Y142827D01*
X449157Y101488D02*
Y142827D01*
X489157D01*
X449157Y101488D02*
X489157D01*
X571657Y102988D02*
Y144327D01*
X531657Y102988D02*
Y144327D01*
X571657D01*
X531657Y102988D02*
X571657D01*
Y167988D02*
Y209327D01*
X531657Y167988D02*
Y209327D01*
X571657D01*
X531657Y167988D02*
X571657D01*
X11499Y14997D02*
X9499D01*
X10499D01*
Y9999D01*
X9499Y8999D01*
X8500D01*
X7500Y9999D01*
X13498Y12998D02*
Y9999D01*
X14498Y8999D01*
X17497D01*
Y12998D01*
X20496D02*
X22495D01*
X23495Y11998D01*
Y8999D01*
X20496D01*
X19496Y9999D01*
X20496Y10999D01*
X23495D01*
X25494Y8999D02*
Y12998D01*
X28493D01*
X29493Y11998D01*
Y8999D01*
X35491Y14997D02*
Y8999D01*
X32492D01*
X31492Y9999D01*
Y11998D01*
X32492Y12998D01*
X35491D01*
X40489Y8999D02*
X38490D01*
X37490Y9999D01*
Y11998D01*
X38490Y12998D01*
X40489D01*
X41489Y11998D01*
Y10999D01*
X37490D01*
X43488Y12998D02*
Y8999D01*
Y10999D01*
X44488Y11998D01*
X45488Y12998D01*
X46487D01*
X50486Y8999D02*
Y13998D01*
Y11998D01*
X49486D01*
X51486D01*
X50486D01*
Y13998D01*
X51486Y14997D01*
X54485Y12998D02*
Y9999D01*
X55484Y8999D01*
X58483D01*
Y12998D01*
X60483Y8999D02*
X62482D01*
X61483D01*
Y14997D01*
X60483D01*
X74478D02*
X72479D01*
X71479Y13998D01*
Y9999D01*
X72479Y8999D01*
X74478D01*
X75478Y9999D01*
Y13998D01*
X74478Y14997D01*
X77477Y8999D02*
X80476D01*
X81476Y9999D01*
X80476Y10999D01*
X78477D01*
X77477Y11998D01*
X78477Y12998D01*
X81476D01*
X87474D02*
X84475D01*
X83475Y11998D01*
Y9999D01*
X84475Y8999D01*
X87474D01*
X90473D02*
X92472D01*
X93472Y9999D01*
Y11998D01*
X92472Y12998D01*
X90473D01*
X89473Y11998D01*
Y9999D01*
X90473Y8999D01*
X95472Y7000D02*
Y12998D01*
X98471D01*
X99470Y11998D01*
Y9999D01*
X98471Y8999D01*
X95472D01*
X104469D02*
X102469D01*
X101470Y9999D01*
Y11998D01*
X102469Y12998D01*
X104469D01*
X105468Y11998D01*
Y10999D01*
X101470D01*
X605000Y10998D02*
Y6000D01*
X606000Y5000D01*
X607999D01*
X608999Y6000D01*
Y10998D01*
X614997D02*
X610998D01*
Y7999D01*
X612997D01*
X610998D01*
Y5000D01*
X626993Y10998D02*
X622994D01*
Y7999D01*
X624994D01*
X622994D01*
Y5000D01*
X629992Y8999D02*
X631991D01*
X632991Y7999D01*
Y5000D01*
X629992D01*
X628992Y6000D01*
X629992Y6999D01*
X632991D01*
X634990Y5000D02*
X636990D01*
X635990D01*
Y10998D01*
X634990D01*
X639989Y5000D02*
X641988D01*
X640988D01*
Y10998D01*
X639989D01*
X654984Y5000D02*
X650985D01*
X654984Y8999D01*
Y9998D01*
X653984Y10998D01*
X651985D01*
X650985Y9998D01*
X656983D02*
X657983Y10998D01*
X659982D01*
X660982Y9998D01*
Y6000D01*
X659982Y5000D01*
X657983D01*
X656983Y6000D01*
Y9998D01*
X666980Y5000D02*
X662981D01*
X666980Y8999D01*
Y9998D01*
X665980Y10998D01*
X663981D01*
X662981Y9998D01*
X668979D02*
X669979Y10998D01*
X671978D01*
X672978Y9998D01*
Y6000D01*
X671978Y5000D01*
X669979D01*
X668979Y6000D01*
Y9998D01*
X612999Y21497D02*
X610999D01*
X611999D01*
Y16499D01*
X610999Y15499D01*
X610000D01*
X609000Y16499D01*
X614998Y19498D02*
Y16499D01*
X615998Y15499D01*
X618997D01*
Y19498D01*
X621996D02*
X623995D01*
X624995Y18498D01*
Y15499D01*
X621996D01*
X620996Y16499D01*
X621996Y17499D01*
X624995D01*
X626994Y15499D02*
Y19498D01*
X629993D01*
X630993Y18498D01*
Y15499D01*
X641989Y21497D02*
X639990D01*
X638990Y20498D01*
Y16499D01*
X639990Y15499D01*
X641989D01*
X642989Y16499D01*
Y20498D01*
X641989Y21497D01*
X644988Y15499D02*
X647987D01*
X648987Y16499D01*
X647987Y17499D01*
X645988D01*
X644988Y18498D01*
X645988Y19498D01*
X648987D01*
X650986Y13500D02*
Y19498D01*
X653986D01*
X654985Y18498D01*
Y16499D01*
X653986Y15499D01*
X650986D01*
X656985D02*
X658984D01*
X657984D01*
Y19498D01*
X656985D01*
X661983Y15499D02*
Y19498D01*
X664982D01*
X665982Y18498D01*
Y15499D01*
X668981Y19498D02*
X670980D01*
X671980Y18498D01*
Y15499D01*
X668981D01*
X667981Y16499D01*
X668981Y17499D01*
X671980D01*
X301001Y436499D02*
Y435499D01*
X303001Y433500D01*
X305000Y435499D01*
Y436499D01*
X303001Y433500D02*
Y430501D01*
X306999D02*
X308999D01*
X307999D01*
Y436499D01*
X306999Y435499D01*
X391501Y291999D02*
X390501Y292999D01*
X388502D01*
X387502Y291999D01*
Y288001D01*
X388502Y287001D01*
X390501D01*
X391501Y288001D01*
X393500Y287001D02*
X395500D01*
X394500D01*
Y292999D01*
X393500Y291999D01*
X401498Y287001D02*
Y292999D01*
X398499Y290000D01*
X402498D01*
X649502Y454001D02*
Y459999D01*
X652501D01*
X653500Y458999D01*
Y457000D01*
X652501Y456000D01*
X649502D01*
X659498Y459999D02*
X657499Y458999D01*
X655500Y457000D01*
Y455001D01*
X656499Y454001D01*
X658499D01*
X659498Y455001D01*
Y456000D01*
X658499Y457000D01*
X655500D01*
X324600Y375900D02*
Y381898D01*
X327599D01*
X328599Y380898D01*
Y378899D01*
X327599Y377899D01*
X324600D01*
X326599D02*
X328599Y375900D01*
X330598Y380898D02*
X331598Y381898D01*
X333597D01*
X334597Y380898D01*
Y379899D01*
X333597Y378899D01*
X334597Y377899D01*
Y376900D01*
X333597Y375900D01*
X331598D01*
X330598Y376900D01*
Y377899D01*
X331598Y378899D01*
X330598Y379899D01*
Y380898D01*
X331598Y378899D02*
X333597D01*
X350100Y375925D02*
Y381923D01*
X353099D01*
X354099Y380923D01*
Y378924D01*
X353099Y377924D01*
X350100D01*
X352099D02*
X354099Y375925D01*
X356098Y381923D02*
X360097D01*
Y380923D01*
X356098Y376925D01*
Y375925D01*
X325600Y428400D02*
Y434398D01*
X328599D01*
X329599Y433398D01*
Y431399D01*
X328599Y430399D01*
X325600D01*
X327599D02*
X329599Y428400D01*
X335597Y434398D02*
X333597Y433398D01*
X331598Y431399D01*
Y429400D01*
X332598Y428400D01*
X334597D01*
X335597Y429400D01*
Y430399D01*
X334597Y431399D01*
X331598D01*
X353100Y428400D02*
Y434398D01*
X356099D01*
X357099Y433398D01*
Y431399D01*
X356099Y430399D01*
X353100D01*
X355099D02*
X357099Y428400D01*
X363097Y434398D02*
X359098D01*
Y431399D01*
X361097Y432399D01*
X362097D01*
X363097Y431399D01*
Y429400D01*
X362097Y428400D01*
X360098D01*
X359098Y429400D01*
X389002Y350724D02*
Y344726D01*
X393000D01*
X395000Y349724D02*
X395999Y350724D01*
X397999D01*
X398998Y349724D01*
Y348725D01*
X397999Y347725D01*
X396999D01*
X397999D01*
X398998Y346725D01*
Y345726D01*
X397999Y344726D01*
X395999D01*
X395000Y345726D01*
X393002Y399787D02*
Y393789D01*
X397000D01*
X402998D02*
X399000D01*
X402998Y397788D01*
Y398787D01*
X401999Y399787D01*
X399999D01*
X399000Y398787D01*
X309501Y367681D02*
X308502Y368681D01*
X306502D01*
X305502Y367681D01*
Y363682D01*
X306502Y362683D01*
X308502D01*
X309501Y363682D01*
X311501Y362683D02*
X313500D01*
X312500D01*
Y368681D01*
X311501Y367681D01*
X316499D02*
X317499Y368681D01*
X319498D01*
X320498Y367681D01*
Y366681D01*
X319498Y365682D01*
X318498D01*
X319498D01*
X320498Y364682D01*
Y363682D01*
X319498Y362683D01*
X317499D01*
X316499Y363682D01*
X337001Y366681D02*
X336001Y367681D01*
X334002D01*
X333002Y366681D01*
Y362682D01*
X334002Y361683D01*
X336001D01*
X337001Y362682D01*
X339001Y361683D02*
X341000D01*
X340000D01*
Y367681D01*
X339001Y366681D01*
X347998Y361683D02*
X343999D01*
X347998Y365681D01*
Y366681D01*
X346998Y367681D01*
X344999D01*
X343999Y366681D01*
X365001Y344724D02*
X364001Y345724D01*
X362002D01*
X361002Y344724D01*
Y340726D01*
X362002Y339726D01*
X364001D01*
X365001Y340726D01*
X367000Y339726D02*
X369000D01*
X368000D01*
Y345724D01*
X367000Y344724D01*
X371999Y339726D02*
X373998D01*
X372998D01*
Y345724D01*
X371999Y344724D01*
X311501Y388999D02*
X310502Y389999D01*
X308502D01*
X307502Y388999D01*
Y385001D01*
X308502Y384001D01*
X310502D01*
X311501Y385001D01*
X313500Y384001D02*
X315500D01*
X314500D01*
Y389999D01*
X313500Y388999D01*
X318499D02*
X319498Y389999D01*
X321498D01*
X322498Y388999D01*
Y385001D01*
X321498Y384001D01*
X319498D01*
X318499Y385001D01*
Y388999D01*
X340500Y420224D02*
X339501Y421224D01*
X337501D01*
X336502Y420224D01*
Y416226D01*
X337501Y415226D01*
X339501D01*
X340500Y416226D01*
X342500D02*
X343499Y415226D01*
X345499D01*
X346498Y416226D01*
Y420224D01*
X345499Y421224D01*
X343499D01*
X342500Y420224D01*
Y419225D01*
X343499Y418225D01*
X346498D01*
X368999Y404698D02*
X367999Y405698D01*
X366000D01*
X365000Y404698D01*
Y400700D01*
X366000Y399700D01*
X367999D01*
X368999Y400700D01*
X370998Y404698D02*
X371998Y405698D01*
X373997D01*
X374997Y404698D01*
Y403699D01*
X373997Y402699D01*
X374997Y401699D01*
Y400700D01*
X373997Y399700D01*
X371998D01*
X370998Y400700D01*
Y401699D01*
X371998Y402699D01*
X370998Y403699D01*
Y404698D01*
X371998Y402699D02*
X373997D01*
X471599Y353798D02*
X470599Y354798D01*
X468600D01*
X467600Y353798D01*
Y349800D01*
X468600Y348800D01*
X470599D01*
X471599Y349800D01*
X473598Y354798D02*
X477597D01*
Y353798D01*
X473598Y349800D01*
Y348800D01*
X472099Y404798D02*
X471099Y405798D01*
X469100D01*
X468100Y404798D01*
Y400800D01*
X469100Y399800D01*
X471099D01*
X472099Y400800D01*
X478097Y405798D02*
X476097Y404798D01*
X474098Y402799D01*
Y400800D01*
X475098Y399800D01*
X477097D01*
X478097Y400800D01*
Y401799D01*
X477097Y402799D01*
X474098D01*
X416002Y331499D02*
Y326501D01*
X417001Y325501D01*
X419001D01*
X420000Y326501D01*
Y331499D01*
X422000D02*
X425998D01*
Y330499D01*
X422000Y326501D01*
Y325501D01*
X547502Y11501D02*
Y17499D01*
X550501D01*
X551501Y16499D01*
Y14500D01*
X550501Y13500D01*
X547502D01*
X549502D02*
X551501Y11501D01*
X553501D02*
X555500D01*
X554500D01*
Y17499D01*
X553501Y16499D01*
X562498Y17499D02*
X558499D01*
Y14500D01*
X560498Y15500D01*
X561498D01*
X562498Y14500D01*
Y12501D01*
X561498Y11501D01*
X559499D01*
X558499Y12501D01*
X580600Y144700D02*
Y150698D01*
X583599D01*
X584599Y149698D01*
Y147699D01*
X583599Y146699D01*
X580600D01*
X582599D02*
X584599Y144700D01*
X586598D02*
X588597D01*
X587598D01*
Y150698D01*
X586598Y149698D01*
X594595Y144700D02*
Y150698D01*
X591596Y147699D01*
X595595D01*
X580600Y210200D02*
Y216198D01*
X583599D01*
X584599Y215198D01*
Y213199D01*
X583599Y212199D01*
X580600D01*
X582599D02*
X584599Y210200D01*
X586598D02*
X588597D01*
X587598D01*
Y216198D01*
X586598Y215198D01*
X591596D02*
X592596Y216198D01*
X594595D01*
X595595Y215198D01*
Y214199D01*
X594595Y213199D01*
X593596D01*
X594595D01*
X595595Y212199D01*
Y211200D01*
X594595Y210200D01*
X592596D01*
X591596Y211200D01*
X399100Y143200D02*
Y149198D01*
X402099D01*
X403099Y148198D01*
Y146199D01*
X402099Y145199D01*
X399100D01*
X401099D02*
X403099Y143200D01*
X405098D02*
X407097D01*
X406098D01*
Y149198D01*
X405098Y148198D01*
X414095Y143200D02*
X410096D01*
X414095Y147199D01*
Y148198D01*
X413096Y149198D01*
X411096D01*
X410096Y148198D01*
X497100Y142700D02*
Y148698D01*
X500099D01*
X501099Y147698D01*
Y145699D01*
X500099Y144699D01*
X497100D01*
X499099D02*
X501099Y142700D01*
X503098D02*
X505097D01*
X504098D01*
Y148698D01*
X503098Y147698D01*
X508096Y142700D02*
X510096D01*
X509096D01*
Y148698D01*
X508096Y147698D01*
X446600Y87200D02*
Y93198D01*
X449599D01*
X450599Y92198D01*
Y90199D01*
X449599Y89199D01*
X446600D01*
X448599D02*
X450599Y87200D01*
X452598D02*
X454597D01*
X453598D01*
Y93198D01*
X452598Y92198D01*
X457596D02*
X458596Y93198D01*
X460596D01*
X461595Y92198D01*
Y88200D01*
X460596Y87200D01*
X458596D01*
X457596Y88200D01*
Y92198D01*
X449100Y198700D02*
Y204698D01*
X452099D01*
X453099Y203698D01*
Y201699D01*
X452099Y200699D01*
X449100D01*
X451099D02*
X453099Y198700D01*
X455098Y199700D02*
X456098Y198700D01*
X458097D01*
X459097Y199700D01*
Y203698D01*
X458097Y204698D01*
X456098D01*
X455098Y203698D01*
Y202699D01*
X456098Y201699D01*
X459097D01*
X413002Y465999D02*
Y461001D01*
X414002Y460001D01*
X416002D01*
X417001Y461001D01*
Y465999D01*
X419000Y460001D02*
X421000D01*
X420000D01*
Y465999D01*
X419000Y464999D01*
X423999D02*
X424999Y465999D01*
X426998D01*
X427998Y464999D01*
Y464000D01*
X426998Y463000D01*
X425998D01*
X426998D01*
X427998Y462000D01*
Y461001D01*
X426998Y460001D01*
X424999D01*
X423999Y461001D01*
X8002Y354999D02*
Y350001D01*
X9002Y349001D01*
X11001D01*
X12001Y350001D01*
Y354999D01*
X14001Y349001D02*
X16000D01*
X15000D01*
Y354999D01*
X14001Y353999D01*
X22998Y349001D02*
X18999D01*
X22998Y353000D01*
Y353999D01*
X21998Y354999D01*
X19999D01*
X18999Y353999D01*
X70502Y451501D02*
Y457499D01*
X73501D01*
X74501Y456499D01*
Y454500D01*
X73501Y453500D01*
X70502D01*
X76500Y451501D02*
X78500D01*
X77500D01*
Y457499D01*
X76500Y456499D01*
X81499D02*
X82499Y457499D01*
X84498D01*
X85498Y456499D01*
Y455500D01*
X84498Y454500D01*
X85498Y453500D01*
Y452501D01*
X84498Y451501D01*
X82499D01*
X81499Y452501D01*
Y453500D01*
X82499Y454500D01*
X81499Y455500D01*
Y456499D01*
X82499Y454500D02*
X84498D01*
X10500Y454999D02*
X8501D01*
X9500D01*
Y450001D01*
X8501Y449001D01*
X7501D01*
X6501Y450001D01*
X12499Y449001D02*
X14499D01*
X13499D01*
Y454999D01*
X12499Y453999D01*
X466699Y457898D02*
X465699Y458898D01*
X463700D01*
X462700Y457898D01*
Y453900D01*
X463700Y452900D01*
X465699D01*
X466699Y453900D01*
X468698Y452900D02*
X470697D01*
X469698D01*
Y458898D01*
X468698Y457898D01*
X473696D02*
X474696Y458898D01*
X476695D01*
X477695Y457898D01*
Y456899D01*
X476695Y455899D01*
X477695Y454899D01*
Y453900D01*
X476695Y452900D01*
X474696D01*
X473696Y453900D01*
Y454899D01*
X474696Y455899D01*
X473696Y456899D01*
Y457898D01*
X474696Y455899D02*
X476695D01*
X386699Y450898D02*
X385699Y451898D01*
X383700D01*
X382700Y450898D01*
Y446900D01*
X383700Y445900D01*
X385699D01*
X386699Y446900D01*
X388698Y445900D02*
X390697D01*
X389698D01*
Y451898D01*
X388698Y450898D01*
X393696Y451898D02*
X397695D01*
Y450898D01*
X393696Y446900D01*
Y445900D01*
X8099Y384398D02*
X7099Y385398D01*
X5100D01*
X4100Y384398D01*
Y380400D01*
X5100Y379400D01*
X7099D01*
X8099Y380400D01*
X10098Y379400D02*
X12097D01*
X11098D01*
Y385398D01*
X10098Y384398D01*
X19095Y385398D02*
X17096Y384398D01*
X15096Y382399D01*
Y380400D01*
X16096Y379400D01*
X18095D01*
X19095Y380400D01*
Y381399D01*
X18095Y382399D01*
X15096D01*
X8599Y298898D02*
X7599Y299898D01*
X5600D01*
X4600Y298898D01*
Y294900D01*
X5600Y293900D01*
X7599D01*
X8599Y294900D01*
X10598Y293900D02*
X12597D01*
X11598D01*
Y299898D01*
X10598Y298898D01*
X19595Y299898D02*
X15596D01*
Y296899D01*
X17596Y297899D01*
X18596D01*
X19595Y296899D01*
Y294900D01*
X18596Y293900D01*
X16596D01*
X15596Y294900D01*
X532200Y155798D02*
X536199D01*
X534199D01*
Y149800D01*
X538198Y153799D02*
Y149800D01*
Y151799D01*
X539198Y152799D01*
X540197Y153799D01*
X541197D01*
X544196Y149800D02*
X546196D01*
X545196D01*
Y153799D01*
X544196D01*
X551194Y147801D02*
X552193D01*
X553193Y148800D01*
Y153799D01*
X550194D01*
X549194Y152799D01*
Y150800D01*
X550194Y149800D01*
X553193D01*
X555193Y155798D02*
Y149800D01*
X558192D01*
X559191Y150800D01*
Y154798D01*
X558192Y155798D01*
X555193D01*
X561191Y149800D02*
Y153799D01*
X564190D01*
X565189Y152799D01*
Y149800D01*
X567189D02*
X569188D01*
X568188D01*
Y155798D01*
X567189Y154798D01*
X532200Y220798D02*
X536199D01*
X534199D01*
Y214800D01*
X538198Y218799D02*
Y214800D01*
Y216799D01*
X539198Y217799D01*
X540197Y218799D01*
X541197D01*
X544196Y214800D02*
X546196D01*
X545196D01*
Y218799D01*
X544196D01*
X551194Y212801D02*
X552193D01*
X553193Y213800D01*
Y218799D01*
X550194D01*
X549194Y217799D01*
Y215800D01*
X550194Y214800D01*
X553193D01*
X555193Y220798D02*
Y215800D01*
X556192Y214800D01*
X558192D01*
X559191Y215800D01*
Y220798D01*
X561191Y212801D02*
Y218799D01*
X564190D01*
X565189Y217799D01*
Y215800D01*
X564190Y214800D01*
X561191D01*
X567189D02*
X569188D01*
X568188D01*
Y220798D01*
X567189Y219798D01*
X349700Y152298D02*
Y146300D01*
Y149299D01*
X353699D01*
Y152298D01*
Y146300D01*
X355698Y150299D02*
Y146300D01*
Y148299D01*
X356698Y149299D01*
X357697Y150299D01*
X358697D01*
X361696D02*
X365695D01*
X361696Y146300D01*
X365695D01*
X367694Y152298D02*
Y146300D01*
X370693D01*
X371693Y147300D01*
Y151298D01*
X370693Y152298D01*
X367694D01*
X373692Y146300D02*
Y150299D01*
X376691D01*
X377691Y149299D01*
Y146300D01*
X379690D02*
X381690D01*
X380690D01*
Y152298D01*
X379690Y151298D01*
X449700Y154298D02*
Y148300D01*
Y151299D01*
X453699D01*
Y154298D01*
Y148300D01*
X455698Y152299D02*
Y148300D01*
Y150299D01*
X456698Y151299D01*
X457697Y152299D01*
X458697D01*
X461696D02*
X465695D01*
X461696Y148300D01*
X465695D01*
X467694Y154298D02*
Y149300D01*
X468694Y148300D01*
X470693D01*
X471693Y149300D01*
Y154298D01*
X473692Y146301D02*
Y152299D01*
X476691D01*
X477691Y151299D01*
Y149300D01*
X476691Y148300D01*
X473692D01*
X479690D02*
X481690D01*
X480690D01*
Y154298D01*
X479690Y153298D01*
X399700Y96798D02*
Y92799D01*
X401699Y90800D01*
X403699Y92799D01*
Y96798D01*
X408697Y90800D02*
X406698D01*
X405698Y91800D01*
Y93799D01*
X406698Y94799D01*
X408697D01*
X409697Y93799D01*
Y92799D01*
X405698D01*
X411696Y94799D02*
Y90800D01*
Y92799D01*
X412696Y93799D01*
X413695Y94799D01*
X414695D01*
X418694Y95798D02*
Y94799D01*
X417694D01*
X419694D01*
X418694D01*
Y91800D01*
X419694Y90800D01*
X422693Y96798D02*
Y90800D01*
X425692D01*
X426691Y91800D01*
Y95798D01*
X425692Y96798D01*
X422693D01*
X428691Y90800D02*
Y94799D01*
X431690D01*
X432689Y93799D01*
Y90800D01*
X434689D02*
X436688D01*
X435688D01*
Y96798D01*
X434689Y95798D01*
X399700Y209798D02*
Y205799D01*
X401699Y203800D01*
X403699Y205799D01*
Y209798D01*
X408697Y203800D02*
X406698D01*
X405698Y204800D01*
Y206799D01*
X406698Y207799D01*
X408697D01*
X409697Y206799D01*
Y205799D01*
X405698D01*
X411696Y207799D02*
Y203800D01*
Y205799D01*
X412696Y206799D01*
X413695Y207799D01*
X414695D01*
X418694Y208798D02*
Y207799D01*
X417694D01*
X419694D01*
X418694D01*
Y204800D01*
X419694Y203800D01*
X422693Y209798D02*
Y204800D01*
X423692Y203800D01*
X425692D01*
X426691Y204800D01*
Y209798D01*
X428691Y201801D02*
Y207799D01*
X431690D01*
X432689Y206799D01*
Y204800D01*
X431690Y203800D01*
X428691D01*
X434689D02*
X436688D01*
X435688D01*
Y209798D01*
X434689Y208798D01*
X97498Y294499D02*
Y288501D01*
X94499D01*
X93500Y289501D01*
Y291500D01*
X94499Y292500D01*
X97498D01*
X91500Y289501D02*
X90501Y288501D01*
X88501D01*
X87502Y289501D01*
Y290500D01*
X88501Y291500D01*
X89501D01*
X88501D01*
X87502Y292500D01*
Y293499D01*
X88501Y294499D01*
X90501D01*
X91500Y293499D01*
X23100Y230598D02*
X27099Y226600D01*
X23100D02*
X27099Y230598D01*
X23100Y228599D02*
X27099D01*
X25099Y226600D02*
Y230598D01*
X29098Y225600D02*
X31097D01*
X30098D01*
Y231598D01*
X29098Y230598D01*
X156550Y395448D02*
Y390450D01*
X157550Y389450D01*
X159549D01*
X160549Y390450D01*
Y395448D01*
X162548Y389450D02*
X164547D01*
X163548D01*
Y395448D01*
X162548Y394448D01*
X538002Y455999D02*
Y451001D01*
X539001Y450001D01*
X541001D01*
X542000Y451001D01*
Y455999D01*
X544000Y454999D02*
X544999Y455999D01*
X546999D01*
X547998Y454999D01*
Y454000D01*
X546999Y453000D01*
X545999D01*
X546999D01*
X547998Y452000D01*
Y451001D01*
X546999Y450001D01*
X544999D01*
X544000Y451001D01*
X428002Y373499D02*
Y368501D01*
X429001Y367501D01*
X431001D01*
X432000Y368501D01*
Y373499D01*
X436999Y367501D02*
Y373499D01*
X434000Y370500D01*
X437998D01*
X508502Y330224D02*
Y325226D01*
X509501Y324226D01*
X511501D01*
X512500Y325226D01*
Y330224D01*
X518498D02*
X516499Y329224D01*
X514500Y327225D01*
Y325226D01*
X515499Y324226D01*
X517499D01*
X518498Y325226D01*
Y326225D01*
X517499Y327225D01*
X514500D01*
X629998Y279001D02*
Y283999D01*
X628999Y284999D01*
X626999D01*
X626000Y283999D01*
Y279001D01*
X620002Y284999D02*
X624000D01*
X620002Y281000D01*
Y280001D01*
X621001Y279001D01*
X623001D01*
X624000Y280001D01*
X612502Y330224D02*
Y325226D01*
X613501Y324226D01*
X615501D01*
X616500Y325226D01*
Y330224D01*
X622498D02*
X618500D01*
Y327225D01*
X620499Y328225D01*
X621499D01*
X622498Y327225D01*
Y325226D01*
X621499Y324226D01*
X619499D01*
X618500Y325226D01*
X587502Y400001D02*
Y405999D01*
X590501D01*
X591500Y404999D01*
Y403000D01*
X590501Y402000D01*
X587502D01*
X589501D02*
X591500Y400001D01*
X593500Y404999D02*
X594499Y405999D01*
X596499D01*
X597498Y404999D01*
Y404000D01*
X596499Y403000D01*
X595499D01*
X596499D01*
X597498Y402000D01*
Y401001D01*
X596499Y400001D01*
X594499D01*
X593500Y401001D01*
X588501Y385501D02*
Y391499D01*
X591500D01*
X592500Y390499D01*
Y388500D01*
X591500Y387500D01*
X588501D01*
X590501D02*
X592500Y385501D01*
X594499D02*
X596499D01*
X595499D01*
Y391499D01*
X594499Y390499D01*
X587502Y362001D02*
Y367999D01*
X590501D01*
X591500Y366999D01*
Y365000D01*
X590501Y364000D01*
X587502D01*
X589501D02*
X591500Y362001D01*
X596499D02*
Y367999D01*
X593500Y365000D01*
X597498D01*
X587002Y373501D02*
Y379499D01*
X590001D01*
X591000Y378499D01*
Y376500D01*
X590001Y375500D01*
X587002D01*
X589001D02*
X591000Y373501D01*
X596998D02*
X593000D01*
X596998Y377500D01*
Y378499D01*
X595999Y379499D01*
X593999D01*
X593000Y378499D01*
X260002Y418501D02*
Y424499D01*
X263001D01*
X264000Y423499D01*
Y421500D01*
X263001Y420500D01*
X260002D01*
X269998Y424499D02*
X266000D01*
Y421500D01*
X267999Y422500D01*
X268999D01*
X269998Y421500D01*
Y419501D01*
X268999Y418501D01*
X266999D01*
X266000Y419501D01*
X127502Y254001D02*
Y259999D01*
X130501D01*
X131500Y258999D01*
Y257000D01*
X130501Y256000D01*
X127502D01*
X136499Y254001D02*
Y259999D01*
X133500Y257000D01*
X137498D01*
X126501Y448001D02*
Y453999D01*
X129500D01*
X130500Y452999D01*
Y451000D01*
X129500Y450000D01*
X126501D01*
X132499Y448001D02*
X134499D01*
X133499D01*
Y453999D01*
X132499Y452999D01*
X124001Y359956D02*
Y353958D01*
X128000D01*
X129999D02*
X131999D01*
X130999D01*
Y359956D01*
X129999Y358956D01*
D13*
X160669Y378378D02*
X159931Y378804D01*
Y377952D01*
X160669Y378378D01*
D14*
X170315Y372866D02*
X169870Y373790D01*
X168871Y374018D01*
X168070Y373379D01*
Y372354D01*
X168871Y371715D01*
X169870Y371943D01*
X170315Y372866D01*
D15*
X413750Y457665D02*
X417082Y454333D01*
X413750D02*
X417082Y457665D01*
X413750Y455999D02*
X417082D01*
X415416Y454333D02*
Y457665D01*
X413750Y325365D02*
X417082Y322033D01*
X413750D02*
X417082Y325365D01*
X413750Y323699D02*
X417082D01*
X415416Y322033D02*
Y325365D01*
X641250Y333510D02*
X637918Y336842D01*
X641250D02*
X637918Y333510D01*
X641250Y335176D02*
X637918D01*
X639584Y336842D02*
Y333510D01*
X537250D02*
X533918Y336842D01*
X537250D02*
X533918Y333510D01*
X537250Y335176D02*
X533918D01*
X535584Y336842D02*
Y333510D01*
X613715Y313750D02*
X610383Y310418D01*
Y313750D02*
X613715Y310418D01*
X612049Y313750D02*
Y310418D01*
X610383Y312084D02*
X613715D01*
X559250Y458865D02*
X562582Y455533D01*
X559250D02*
X562582Y458865D01*
X559250Y457199D02*
X562582D01*
X560916Y455533D02*
Y458865D01*
X421898Y341550D02*
X425230Y344882D01*
Y341550D02*
X421898Y344882D01*
X423564Y341550D02*
Y344882D01*
X425230Y343216D02*
X421898D01*
M02*
