G04*
G04 #@! TF.GenerationSoftware,Altium Limited,Altium Designer,20.0.9 (164)*
G04*
G04 Layer_Color=255*
%FSLAX25Y25*%
%MOIN*%
G70*
G01*
G75*
%ADD16R,0.04724X0.05512*%
%ADD17R,0.05512X0.04724*%
%ADD35R,0.06000X0.06000*%
%ADD36C,0.06000*%
%ADD56C,0.05512*%
%ADD57P,0.05966X8X292.5*%
%ADD58C,0.05906*%
%ADD59R,0.05906X0.05906*%
%ADD60C,0.07500*%
%ADD61C,0.05315*%
%ADD62R,0.05315X0.05315*%
%ADD63C,0.06500*%
%ADD64R,0.11000X0.11000*%
%ADD65C,0.05400*%
%ADD66R,0.05400X0.05400*%
%ADD67R,0.05100X0.05100*%
%ADD68C,0.05100*%
%ADD69R,0.05100X0.05100*%
%ADD70C,0.04724*%
%ADD71R,0.05906X0.05906*%
%ADD72C,0.05000*%
%ADD73R,0.05000X0.05000*%
%ADD74R,0.06000X0.10000*%
%ADD75O,0.06000X0.10000*%
D16*
X198543Y400000D02*
D03*
X191457D02*
D03*
X198913Y308000D02*
D03*
X206000D02*
D03*
D17*
X298000Y422587D02*
D03*
Y415500D02*
D03*
X298000Y451043D02*
D03*
Y443957D02*
D03*
X242000Y367000D02*
D03*
Y374087D02*
D03*
X144500Y367087D02*
D03*
Y360000D02*
D03*
X144500Y344957D02*
D03*
Y352043D02*
D03*
D35*
X415000Y450000D02*
D03*
D36*
Y440000D02*
D03*
Y430000D02*
D03*
Y420000D02*
D03*
X445000D02*
D03*
Y430000D02*
D03*
Y440000D02*
D03*
Y450000D02*
D03*
X568750Y61300D02*
D03*
X554000D02*
D03*
X539250D02*
D03*
D56*
X305000Y424500D02*
D03*
X328000Y392225D02*
D03*
Y422225D02*
D03*
X355500D02*
D03*
Y392225D02*
D03*
X327000Y369725D02*
D03*
Y339725D02*
D03*
X352500D02*
D03*
Y369725D02*
D03*
X581775Y403000D02*
D03*
X551775D02*
D03*
X581775Y377500D02*
D03*
X551775D02*
D03*
X581775Y365500D02*
D03*
X551775D02*
D03*
X581775Y389500D02*
D03*
X551775D02*
D03*
X449000Y81000D02*
D03*
Y51000D02*
D03*
X451500Y192500D02*
D03*
Y162500D02*
D03*
X401500Y137000D02*
D03*
Y107000D02*
D03*
X499500Y136500D02*
D03*
Y106500D02*
D03*
X583000Y138500D02*
D03*
Y108500D02*
D03*
Y204000D02*
D03*
Y174000D02*
D03*
D57*
X305000Y443713D02*
D03*
D58*
X63000Y434000D02*
D03*
Y444000D02*
D03*
X670000Y426500D02*
D03*
Y436500D02*
D03*
Y446500D02*
D03*
X115000Y412000D02*
D03*
X105000Y402000D02*
D03*
X115000D02*
D03*
X105000Y392000D02*
D03*
X115000D02*
D03*
X105000Y382000D02*
D03*
X115000D02*
D03*
X105000Y372000D02*
D03*
X115000D02*
D03*
X105000Y362000D02*
D03*
X115000D02*
D03*
X105000Y352000D02*
D03*
X115000D02*
D03*
X105000Y342000D02*
D03*
X115000D02*
D03*
X105000Y332000D02*
D03*
X115000D02*
D03*
X105000Y322000D02*
D03*
X115000D02*
D03*
X105000Y312000D02*
D03*
X115000D02*
D03*
X105000Y302000D02*
D03*
X115000D02*
D03*
X105000Y292000D02*
D03*
X115000D02*
D03*
X130000Y277000D02*
D03*
X140000Y267000D02*
D03*
Y277000D02*
D03*
X150000Y267000D02*
D03*
Y277000D02*
D03*
X160000Y267000D02*
D03*
Y277000D02*
D03*
X170000Y267000D02*
D03*
Y277000D02*
D03*
X180000Y267000D02*
D03*
Y277000D02*
D03*
X190000Y267000D02*
D03*
Y277000D02*
D03*
X200000Y267000D02*
D03*
Y277000D02*
D03*
X210000Y267000D02*
D03*
Y277000D02*
D03*
X220000Y267000D02*
D03*
Y277000D02*
D03*
X230000Y267000D02*
D03*
Y277000D02*
D03*
X240000Y267000D02*
D03*
Y277000D02*
D03*
X250000Y267000D02*
D03*
Y277000D02*
D03*
X265000Y292000D02*
D03*
X275000Y302000D02*
D03*
X265000D02*
D03*
X275000Y312000D02*
D03*
X265000D02*
D03*
X275000Y322000D02*
D03*
X265000D02*
D03*
X275000Y332000D02*
D03*
X265000D02*
D03*
X275000Y342000D02*
D03*
X265000D02*
D03*
X275000Y352000D02*
D03*
X265000D02*
D03*
X275000Y362000D02*
D03*
X265000D02*
D03*
X275000Y372000D02*
D03*
X265000D02*
D03*
X275000Y382000D02*
D03*
X265000D02*
D03*
X275000Y392000D02*
D03*
X265000D02*
D03*
X275000Y402000D02*
D03*
X265000D02*
D03*
X275000Y412000D02*
D03*
X265000D02*
D03*
X249500Y429500D02*
D03*
X239500Y439500D02*
D03*
Y429500D02*
D03*
X229500Y439500D02*
D03*
Y429500D02*
D03*
X219500Y439500D02*
D03*
Y429500D02*
D03*
X209500Y439500D02*
D03*
Y429500D02*
D03*
X199500Y439500D02*
D03*
Y429500D02*
D03*
X189500Y439500D02*
D03*
Y429500D02*
D03*
X179500Y439500D02*
D03*
Y429500D02*
D03*
X169500Y439500D02*
D03*
Y429500D02*
D03*
X159500Y439500D02*
D03*
Y429500D02*
D03*
X149500Y439500D02*
D03*
Y429500D02*
D03*
X139500Y439500D02*
D03*
Y429500D02*
D03*
X129500Y439500D02*
D03*
Y429500D02*
D03*
D59*
X63000Y454000D02*
D03*
X670000Y456500D02*
D03*
X105000Y412000D02*
D03*
X275000Y292000D02*
D03*
D60*
X22000Y429500D02*
D03*
X41685Y441311D02*
D03*
X22000Y453909D02*
D03*
D61*
X470000Y427157D02*
D03*
X390000Y420157D02*
D03*
D62*
X470000Y446842D02*
D03*
X390000Y439843D02*
D03*
D63*
X11500Y314500D02*
D03*
X21500Y324500D02*
D03*
X11500Y334500D02*
D03*
D64*
X574000Y22000D02*
D03*
X534000D02*
D03*
D65*
X445000Y318000D02*
D03*
Y308000D02*
D03*
Y298000D02*
D03*
Y288000D02*
D03*
X415000D02*
D03*
Y298000D02*
D03*
Y308000D02*
D03*
X590500Y451500D02*
D03*
Y441500D02*
D03*
Y431500D02*
D03*
Y421500D02*
D03*
X560500D02*
D03*
Y431500D02*
D03*
Y441500D02*
D03*
D66*
X415000Y318000D02*
D03*
X560500Y451500D02*
D03*
D67*
X640000Y340725D02*
D03*
X536000D02*
D03*
D68*
X640000Y350725D02*
D03*
Y360725D02*
D03*
Y370725D02*
D03*
Y380725D02*
D03*
Y390725D02*
D03*
Y400725D02*
D03*
X610000D02*
D03*
Y390725D02*
D03*
Y380725D02*
D03*
Y370725D02*
D03*
Y360725D02*
D03*
Y350725D02*
D03*
Y340725D02*
D03*
X536000Y350725D02*
D03*
Y360725D02*
D03*
Y370725D02*
D03*
Y380725D02*
D03*
Y390725D02*
D03*
Y400725D02*
D03*
X506000D02*
D03*
Y390725D02*
D03*
Y380725D02*
D03*
Y370725D02*
D03*
Y360725D02*
D03*
Y350725D02*
D03*
Y340725D02*
D03*
X606500Y282500D02*
D03*
X596500D02*
D03*
X586500D02*
D03*
X576500D02*
D03*
X566500D02*
D03*
X556500D02*
D03*
X546500D02*
D03*
X536500D02*
D03*
Y312500D02*
D03*
X546500D02*
D03*
X556500D02*
D03*
X566500D02*
D03*
X576500D02*
D03*
X586500D02*
D03*
X596500D02*
D03*
D69*
X606500D02*
D03*
D70*
X11000Y368500D02*
D03*
X41000D02*
D03*
X41500Y283000D02*
D03*
X11500D02*
D03*
D71*
X130000Y267000D02*
D03*
X249500Y439500D02*
D03*
D72*
X28500Y141382D02*
D03*
Y157130D02*
D03*
Y180752D02*
D03*
Y172878D02*
D03*
Y165004D02*
D03*
Y149256D02*
D03*
Y188626D02*
D03*
Y133508D02*
D03*
Y125634D02*
D03*
Y70516D02*
D03*
Y86264D02*
D03*
Y102012D02*
D03*
Y94138D02*
D03*
Y78390D02*
D03*
Y117760D02*
D03*
Y62642D02*
D03*
Y54768D02*
D03*
Y109886D02*
D03*
Y46894D02*
D03*
X319839Y141382D02*
D03*
Y157130D02*
D03*
Y180752D02*
D03*
Y172878D02*
D03*
Y165004D02*
D03*
Y149256D02*
D03*
Y188626D02*
D03*
Y133508D02*
D03*
Y125634D02*
D03*
Y70516D02*
D03*
Y86264D02*
D03*
Y102012D02*
D03*
Y94138D02*
D03*
Y78390D02*
D03*
Y117760D02*
D03*
Y62642D02*
D03*
Y54768D02*
D03*
Y109886D02*
D03*
Y46894D02*
D03*
D73*
X28500Y196500D02*
D03*
X319839D02*
D03*
D74*
X409000Y51500D02*
D03*
Y162500D02*
D03*
X359000Y107000D02*
D03*
X459000D02*
D03*
X541500Y108500D02*
D03*
Y173500D02*
D03*
D75*
X409000Y81500D02*
D03*
X429000D02*
D03*
Y51500D02*
D03*
X409000Y192500D02*
D03*
X429000D02*
D03*
Y162500D02*
D03*
X359000Y137000D02*
D03*
X379000D02*
D03*
Y107000D02*
D03*
X459000Y137000D02*
D03*
X479000D02*
D03*
Y107000D02*
D03*
X541500Y138500D02*
D03*
X561500D02*
D03*
Y108500D02*
D03*
X541500Y203500D02*
D03*
X561500D02*
D03*
Y173500D02*
D03*
M02*
