G04*
G04 #@! TF.GenerationSoftware,Altium Limited,Altium Designer,20.0.9 (164)*
G04*
G04 Layer_Color=32896*
%FSLAX25Y25*%
%MOIN*%
G70*
G01*
G75*
%ADD10C,0.00787*%
%ADD12C,0.01000*%
D10*
X295638Y419043D02*
X300362D01*
X295638Y447500D02*
X300362D01*
X239638Y370543D02*
X244362D01*
X142138Y363543D02*
X146862D01*
X142138Y348500D02*
X146862D01*
X195000Y397638D02*
Y402362D01*
X202457Y305638D02*
Y310362D01*
D12*
X301999Y408999D02*
X302998Y409999D01*
X304998D01*
X305997Y408999D01*
Y405001D01*
X304998Y404001D01*
X302998D01*
X301999Y405001D01*
X296001Y404001D02*
X299999D01*
X296001Y408000D01*
Y408999D01*
X297000Y409999D01*
X299000D01*
X299999Y408999D01*
X294001D02*
X293002Y409999D01*
X291002D01*
X290003Y408999D01*
Y405001D01*
X291002Y404001D01*
X293002D01*
X294001Y405001D01*
Y408999D01*
X301499Y459999D02*
X302499Y460999D01*
X304498D01*
X305498Y459999D01*
Y456001D01*
X304498Y455001D01*
X302499D01*
X301499Y456001D01*
X299500Y455001D02*
X297500D01*
X298500D01*
Y460999D01*
X299500Y459999D01*
X294501Y456001D02*
X293501Y455001D01*
X291502D01*
X290502Y456001D01*
Y459999D01*
X291502Y460999D01*
X293501D01*
X294501Y459999D01*
Y459000D01*
X293501Y458000D01*
X290502D01*
X194901Y411898D02*
X195901Y412898D01*
X197900D01*
X198900Y411898D01*
Y407900D01*
X197900Y406900D01*
X195901D01*
X194901Y407900D01*
X188903Y406900D02*
X192902D01*
X188903Y410899D01*
Y411898D01*
X189903Y412898D01*
X191902D01*
X192902Y411898D01*
X245101Y385598D02*
X246101Y386598D01*
X248100D01*
X249100Y385598D01*
Y381600D01*
X248100Y380600D01*
X246101D01*
X245101Y381600D01*
X239103Y386598D02*
X243102D01*
Y383599D01*
X241103Y384599D01*
X240103D01*
X239103Y383599D01*
Y381600D01*
X240103Y380600D01*
X242102D01*
X243102Y381600D01*
X146000Y376499D02*
X146999Y377499D01*
X148999D01*
X149998Y376499D01*
Y372501D01*
X148999Y371501D01*
X146999D01*
X146000Y372501D01*
X141001Y371501D02*
Y377499D01*
X144000Y374500D01*
X140002D01*
X146000Y339499D02*
X146999Y340499D01*
X148999D01*
X149998Y339499D01*
Y335501D01*
X148999Y334501D01*
X146999D01*
X146000Y335501D01*
X144000Y339499D02*
X143001Y340499D01*
X141001D01*
X140002Y339499D01*
Y338500D01*
X141001Y337500D01*
X142001D01*
X141001D01*
X140002Y336500D01*
Y335501D01*
X141001Y334501D01*
X143001D01*
X144000Y335501D01*
X200413Y302499D02*
X201413Y303499D01*
X203412D01*
X204412Y302499D01*
Y298501D01*
X203412Y297501D01*
X201413D01*
X200413Y298501D01*
X198414Y297501D02*
X196415D01*
X197414D01*
Y303499D01*
X198414Y302499D01*
M02*
